<svg width="339" height="115" viewBox="0 0 339 115" fill="none" xmlns="http://www.w3.org/2000/svg">
<path d="M55.5408 4.11768C41.5354 4.58447 28.2744 10.5323 18.6164 20.6789C8.95838 30.8255 3.67692 44.3584 3.91051 58.3602C4.14409 72.362 9.87402 85.7114 19.8651 95.5307C29.8562 105.35 43.3082 110.853 57.3215 110.853C71.3347 110.853 84.7867 105.35 94.7778 95.5307C104.769 85.7114 110.499 72.362 110.732 58.3602C110.966 44.3584 105.685 30.8255 96.0265 20.6789C86.3685 10.5323 73.1075 4.58447 59.1021 4.11768H55.5408ZM130.327 4.11768C116.321 4.58447 103.06 10.5323 93.4021 20.6789C83.7441 30.8255 78.4626 44.3584 78.6962 58.3602C78.9298 72.362 84.6597 85.7114 94.6508 95.5307C104.642 105.35 118.094 110.853 132.107 110.853C146.12 110.853 159.572 105.35 169.564 95.5307C179.555 85.7114 185.285 72.362 185.518 58.3602C185.752 44.3584 180.47 30.8255 170.812 20.6789C161.154 10.5323 147.893 4.58447 133.888 4.11768H130.327ZM205.112 4.11768C191.107 4.58447 177.846 10.5323 168.188 20.6789C158.53 30.8255 153.248 44.3584 153.482 58.3602C153.716 72.362 159.445 85.7114 169.437 95.5307C179.428 105.35 192.88 110.853 206.893 110.853C220.906 110.853 234.358 105.35 244.349 95.5307C254.34 85.7114 260.07 72.362 260.304 58.3602C260.537 44.3584 255.256 30.8255 245.598 20.6789C235.94 10.5323 222.679 4.58447 208.673 4.11768H205.112ZM279.898 4.11768C265.893 4.58447 252.632 10.5323 242.974 20.6789C233.316 30.8255 228.034 44.3584 228.268 58.3602C228.501 72.362 234.231 85.7114 244.222 95.5307C254.213 105.35 267.665 110.853 281.679 110.853C295.692 110.853 309.144 105.35 319.135 95.5307C329.126 85.7114 334.856 72.362 335.09 58.3602C335.323 44.3584 330.042 30.8255 320.384 20.6789C310.726 10.5323 297.465 4.58447 283.459 4.11768H279.898Z" stroke="black" stroke-width="7"/>
</svg>
