<svg width="121" height="121" viewBox="0 0 121 121" fill="none" xmlns="http://www.w3.org/2000/svg">
<path d="M60.5 0C27.0877 0 0 27.0877 0 60.5C0 93.9123 27.0877 121 60.5 121C93.9123 121 121 93.9123 121 60.5C121 27.0877 93.9123 0 60.5 0ZM117.066 60.5C117.066 91.7389 91.7424 117.066 60.5 117.066C29.2576 117.066 3.93421 91.7389 3.93421 60.5C3.93421 29.2611 29.2611 3.93421 60.5 3.93421C91.7389 3.93421 117.066 29.2611 117.066 60.5Z" fill="#6F6F6F"/>
<path d="M60.5 24.6226V26.5897C79.1963 26.5897 94.4103 41.8 94.4103 60.5H96.3774C96.3774 40.6866 80.3133 24.6226 60.5 24.6226ZM60.5 94.4103C41.8036 94.4103 26.5897 79.1999 26.5897 60.5H24.6226C24.6226 80.3133 40.6866 96.3774 60.5 96.3774" fill="#6F6F6F"/>
<path d="M60.5 24.6226V60.5H24.6226C24.6226 40.6724 40.6724 24.6226 60.5 24.6226Z" fill="#0066B1"/>
<path d="M96.3774 60.5C96.3774 80.3275 80.3275 96.3774 60.5 96.3774V60.5H96.3774Z" fill="#0066B1"/>
</svg>
