<svg width="75" height="121" viewBox="0 0 75 121" fill="none" xmlns="http://www.w3.org/2000/svg">
<g clip-path="url(#clip0)">
<path d="M71.0561 0.00842285C73.1293 0.00842285 74.8056 1.68196 74.8056 3.75172V117.141C74.8056 119.209 73.1293 120.884 71.0561 120.884H3.90819C1.83697 120.884 0.160156 119.209 0.160156 117.141V3.75172C0.160156 1.68196 1.83697 0.00842285 3.90819 0.00842285H71.0561Z" fill="white"/>
<path d="M1.6167 16.8173H73.3963V116.914C73.3963 117.747 73.2554 118.261 72.699 118.82C72.0951 119.425 71.5653 119.48 70.6091 119.48L3.75987 119.486C3.23312 119.486 2.82913 119.317 2.39308 118.945C1.85304 118.478 1.6167 117.896 1.6167 117.28V16.8173Z" fill="#FFF200"/>
<path d="M73.3963 11.7812H1.6167V16.9237H73.3963V11.7812Z" fill="#ED1C24"/>
<path d="M73.3963 6.62842H1.6167V11.7711H73.3963V6.62842Z" fill="white"/>
<path d="M3.64584 1.39771H71.3203C72.4041 1.39771 73.4035 2.45194 73.4035 3.48088V6.76372H1.6167L1.62324 3.87666V3.63642C1.62324 2.4724 2.51212 1.51277 3.64584 1.39771Z" fill="#009A4E"/>
<path d="M71.0561 0.00842285C73.1293 0.00842285 74.8056 1.68196 74.8056 3.75172V117.141C74.8056 119.209 73.1293 120.884 71.0561 120.884H3.90819C1.83697 120.884 0.160156 119.209 0.160156 117.141V3.75172C0.160156 1.68196 1.83697 0.00842285 3.90819 0.00842285H71.0561ZM71.0561 1.50266H3.90819C2.66372 1.50266 1.65776 2.51114 1.65776 3.75172V117.141C1.65776 118.383 2.66394 119.385 3.90819 119.385H71.0561C72.3008 119.385 73.3067 118.383 73.3067 117.141V3.75172C73.3067 2.51136 72.3008 1.50266 71.0561 1.50266Z" fill="black"/>
<path d="M36.1616 23.17C36.1616 23.17 36.1162 23.6065 36.0175 23.8622C35.9202 24.0989 35.6669 24.2582 35.6837 24.417C35.7004 24.5728 35.8648 24.7606 36.1197 24.8907C36.3696 25.0227 36.4701 25.1243 36.7267 25.1903C36.9648 25.2497 37.2667 25.4255 37.3522 25.2242C37.4379 25.0194 37.3088 24.7705 37.1645 24.5321C36.9129 24.1158 36.7855 24.0142 36.4149 23.4422C36.336 23.319 36.2741 23.1868 36.1616 23.17Z" fill="black"/>
<path d="M34.2815 68.1408C34.3066 68.0662 34.9003 68.4455 35.2088 68.6283C35.8578 69.0208 36.1495 69.2542 36.7232 69.6874C37.1777 70.0361 37.3973 70.2154 37.8536 70.6114C38.4135 71.0987 38.7155 71.5149 38.8666 71.4203C39.0846 71.1563 38.5094 70.3846 38.001 69.9653C37.5065 69.5521 36.995 69.2173 36.6009 68.9566C36.0926 68.6145 36.0473 68.5368 35.2877 68.0222C34.471 67.4707 33.7668 66.777 33.7668 66.777L32.9734 66.1476L31.7309 65.0898L30.349 63.8055L29.306 62.6327C29.306 62.6327 28.4943 61.631 28.3652 61.4378C28.2344 61.2467 27.852 60.6271 27.537 60.1029C27.2551 59.6323 26.7085 58.9015 26.6581 58.8388C26.3629 58.4782 25.6888 58.6238 24.9054 58.1585C23.9546 57.5916 23.7248 57.0737 23.7248 57.0737C23.7248 57.0737 23.6895 56.9978 23.6527 56.9571C23.6174 56.9146 23.5454 56.8623 23.5454 56.8623L23.0472 56.512L22.762 56.3224C22.762 56.3224 22.5458 56.1413 22.2741 56.0245C22.0007 55.9026 21.392 55.5456 21.392 55.5456L20.3036 54.8451C20.3036 54.8451 19.8776 54.4999 19.7368 54.3849C19.5926 54.2749 19.3243 54.1176 19.3243 54.1176C19.3243 54.1176 19.1531 54.0311 19.1012 54.0278C19.0493 54.0243 18.823 54.004 18.823 54.004C18.823 54.004 18.6133 53.9482 18.4003 54.2005C18.1873 54.4544 18.2394 54.3189 18.5865 55.7471C18.7238 56.3088 18.7105 58.2905 18.8581 58.8944C19.0458 59.6695 19.5859 60.6714 19.6413 60.7897C19.6951 60.9065 19.7335 61.3397 19.7335 61.3397C19.7335 61.3397 19.7102 61.6902 19.747 61.9119C19.9114 62.9356 21.3955 62.262 21.7227 63.6667C22.0448 65.0527 21.5298 66.4351 21.5298 66.4351C21.5298 66.4351 21.211 67.1224 20.7599 67.2304C20.3106 67.3356 19.6129 66.3304 19.1082 65.5164C18.6102 64.7158 18.2027 63.6667 18.0719 63.3334C17.9411 62.9998 17.8722 62.927 17.7213 62.6852C17.4983 62.3247 17.3189 62.3909 17.069 61.8222C16.8174 61.2537 17.0405 61.0251 16.9282 60.5295C16.8628 60.2553 16.8041 60.2248 16.7187 59.8321C16.6365 59.4413 16.5257 58.1975 16.5257 58.1975L16.3681 57.04C16.3681 57.04 16.3127 56.512 16.2408 56.1803C15.9909 55.0229 15.9037 53.9026 15.9037 53.9026L15.8568 53.4424L15.84 52.967C15.84 52.967 15.825 52.7384 15.8804 52.5032C15.9357 52.2682 16.0482 52.0735 16.0482 52.0735C16.0482 52.0735 16.2798 51.6826 16.3199 51.5845C16.3585 51.4914 16.8314 50.9364 16.8314 50.9364C16.8314 50.9364 17.0795 50.7282 17.4837 50.4794C17.8897 50.2306 18.2535 50.2475 18.2535 50.2475C18.2535 50.2475 18.3608 50.2374 19.0788 50.3272C19.7965 50.4167 21.2723 50.8127 21.6447 50.9093C22.0118 51.0094 22.4514 51.1649 22.7363 51.3255C23.5563 51.7757 23.8046 51.5847 23.1523 51.0686C22.7128 50.7216 22.5889 50.5659 22.2349 50.2412C21.9362 49.9635 21.7016 49.7789 21.4785 49.5235C21.2555 49.2628 20.62 48.317 20.62 48.317L20.2225 47.7248C20.2225 47.7248 20.0095 47.4813 19.9742 47.4641C19.9408 47.4439 19.8333 47.3609 19.8333 47.3609C19.8333 47.3609 19.5702 47.3743 19.2983 47.322C19.0234 47.2661 18.8958 47.6555 18.8958 47.6555C18.8958 47.6555 18.3054 48.7672 17.7052 49.4476C16.7326 50.5525 16.0349 51.304 15.6778 51.8927C15.1764 52.7085 15.2871 53.6021 15.0288 54.0148C14.8779 54.2568 14.7957 54.2925 14.7135 54.5039C14.4619 55.1454 15.3759 55.4972 15.1663 56.2078C14.8325 57.3351 12.2165 58.45 11.8692 58.2639C11.5086 58.0727 11.8038 56.5481 11.9245 56.0555C12.0486 55.5599 12.4158 54.8288 12.4495 54.7916C12.4814 54.756 12.5703 54.5833 12.5969 54.4379C12.6255 54.2925 12.6355 53.9625 12.6523 53.7796C12.6691 53.5951 12.7445 53.3042 12.7445 53.3042C12.7445 53.3042 12.7546 53.2415 12.9859 52.7357C13.219 52.2264 14.071 51.0417 14.6815 49.9114C15.0839 49.1735 15.2516 48.7269 15.6541 47.9873C16.0247 47.3088 16.6602 46.273 16.6602 46.273C16.6602 46.273 16.9284 45.745 17.0542 45.5488C17.1817 45.3473 17.4499 44.9667 17.7015 44.5909C17.9549 44.2169 18.0168 43.936 18.3471 43.628C18.6205 43.3708 18.8067 43.2337 19.1638 43.1187C19.6953 42.9409 20.0594 43.0359 20.6027 43.1882C21.1661 43.3437 21.5535 43.6044 21.9227 43.9124C22.2898 44.2239 22.5632 44.5674 22.5632 44.5674L22.7426 44.8347L22.8532 44.9007L23.1955 45.1224L23.9786 45.6451C23.9786 45.6451 25.8368 46.9211 25.9408 46.9904C26.0398 47.0564 26.3734 47.3323 26.4388 47.3543C26.5077 47.3746 27.0024 46.8329 27.9735 46.158C29.0969 45.371 29.4944 45.4302 29.867 45.2256C30.2341 45.0208 30.385 44.8516 30.6737 44.5605C31.1097 44.1205 31.113 43.8854 31.6077 43.2711C32.1059 42.6586 32.572 42.315 32.572 42.315C32.572 42.315 32.6407 42.2457 33.528 41.2337C34.4134 40.2252 34.8059 39.4618 34.8059 39.4618L35.2923 38.4786C35.2923 38.4786 35.9965 36.9507 36.223 36.3464C36.4511 35.7407 36.4511 35.5392 36.4511 35.5392C36.4511 35.5392 36.4844 35.3802 36.3135 35.0722C36.1373 34.7657 35.9562 34.9045 35.6191 34.974C34.9735 35.1129 34.5811 34.9435 33.9288 34.8286C33.3318 34.7285 33.0198 34.5477 32.4211 34.4478C31.8142 34.3446 31.4603 34.2432 30.8514 34.3024C30.7591 34.3125 30.5732 34.3514 30.484 34.3818C30.1402 34.4969 30.0447 34.5239 29.7898 34.6729C29.4946 34.8117 29.3001 34.8557 28.9731 34.864C28.7466 34.8709 28.6092 34.8777 28.3997 34.7947C28.2554 34.7389 28.1732 34.6966 28.0591 34.5934C27.9905 34.5307 27.9536 34.49 27.9015 34.4089C27.895 34.3446 27.8747 34.3479 27.9368 34.2432C27.9972 34.1365 28.0727 34.1178 28.0727 34.1178L28.3511 34.0485C28.3511 34.0485 28.7435 33.9453 28.7804 33.935C28.8157 33.9249 29.1896 33.803 29.3538 33.7506C29.5199 33.6983 29.7011 33.6017 29.7011 33.6017C29.7011 33.6017 29.8016 33.4393 29.763 33.3463C29.7144 33.2411 29.4913 33.2312 29.4913 33.2312C29.4913 33.2312 29.1793 33.3463 29.1442 33.3564C29.1107 33.3632 28.6125 33.522 28.6125 33.522C28.6125 33.522 28.2218 33.6085 27.9183 33.6811C27.6131 33.7504 27.177 33.786 27.177 33.786L27.0462 33.7504C27.0462 33.7504 26.8986 33.6505 26.8753 33.5458C26.8535 33.4527 26.84 33.3832 26.8232 33.2767C26.7578 32.8873 26.6791 32.6522 26.7713 32.2683C26.8066 32.1074 26.8434 32.0177 26.9121 31.869C26.9708 31.7453 27.0094 31.6743 27.0848 31.5574L27.3248 31.1614L27.7777 30.4863C27.9336 30.3272 28.036 30.2478 28.232 30.136C28.5205 29.9737 28.6881 29.9279 29.0487 29.8872C29.4026 29.8483 29.4512 29.8518 29.9527 29.7383C30.4574 29.6232 30.8147 29.4219 30.8147 29.4219C30.8147 29.4219 32.0206 28.9751 32.7549 28.6112C33.5245 28.2306 33.8601 27.8243 34.6567 27.5097C34.9938 27.3777 35.19 27.315 35.5371 27.2254C35.5807 27.1966 35.6025 27.1695 35.616 27.117C35.6496 26.99 35.4551 26.9308 35.3208 26.9443C35.2001 26.9544 34.9251 27.0831 34.863 26.9443C34.8159 26.8378 35.1144 26.7751 35.1144 26.7751C35.1144 26.7751 35.2552 26.7091 35.2587 26.6297C35.2622 26.5078 35.0559 26.5872 34.9635 26.5771C34.4956 26.5245 34.4588 26.4383 34.135 26.3588C33.7543 26.2625 33.5483 26.1439 33.1524 26.127C32.8035 26.1133 32.4765 26.1879 32.257 26.2403C32.0407 26.2961 32.0339 26.0812 32.1194 26.039C32.7316 25.7512 32.7449 25.7274 33.1777 25.7072C33.414 25.6971 33.7445 25.7479 33.7814 25.7664C33.8167 25.7866 34.2896 25.7631 34.4104 25.6379C34.5344 25.516 34.0229 25.5228 33.7814 25.4263C33.5586 25.3367 33.218 25.3114 33.2248 25.1623C33.2365 25.0133 33.4009 25.0963 33.5182 25.0659C33.6656 25.0303 33.7513 25.0338 33.9022 25.0135C34.174 24.9764 34.1974 24.9508 34.5998 24.9172C34.9973 24.8782 35.5709 25.0492 35.5709 25.0492C35.5709 25.0492 36.1729 25.3185 36.4681 25.4606C36.7633 25.5992 37.1204 25.672 37.1204 25.672C37.1204 25.672 37.5394 25.7312 37.8584 25.5299C38.182 25.3301 37.9993 25.1981 37.8868 25.0138C37.776 24.8411 37.6354 24.5907 37.8414 24.1168C38.0243 23.7039 38.1198 23.2216 38.1719 23.1776C38.2376 23.1253 38.4907 23.4958 38.6549 23.6482C39.2435 24.2033 40.0219 24.4774 40.7564 25.6381C40.8135 25.7312 41.0852 25.5822 41.937 25.7142C42.7888 25.8462 43.5336 26.7667 43.7215 26.9869C43.9162 27.2085 44.1676 27.1966 44.1676 27.1966L44.5768 27.2525L46.0624 27.2778C46.0624 27.2778 46.7368 27.1559 47.1257 27.3051C47.3974 27.4082 48.303 28.0192 47.8905 28.2508C47.6021 28.4134 47.3304 28.0564 47.0688 28.0394C46.7601 28.0192 46.626 28.0784 46.3509 28.1477C45.774 28.2933 44.5365 28.6706 44.9858 28.8228C45.0192 28.8363 45.083 28.8464 45.083 28.8464L45.3043 28.8853C45.3043 28.8853 45.8479 29.0105 46.1764 29.1407C46.6727 29.3387 46.9077 29.5572 47.3638 29.8278C47.6252 29.98 47.7394 30.1325 48.0244 30.2187C48.286 30.2951 48.4537 30.2187 48.7221 30.2645C49.0742 30.3272 49.2719 30.4 49.5942 30.5556C50.0736 30.7874 50.248 31.0684 50.6775 31.3797C50.8921 31.537 51.073 31.5607 51.2341 31.7724C51.2712 31.8197 51.3015 31.8452 51.3183 31.9009C51.3754 32.0938 51.0028 31.9803 50.8051 31.9484C50.587 31.9112 50.4966 31.8027 50.2953 31.7097C49.9969 31.5676 49.8558 31.4118 49.5305 31.3526C49.2957 31.3069 49.1549 31.3425 48.9135 31.3559C48.6787 31.366 48.5546 31.4017 48.3196 31.405C47.9206 31.4118 47.6958 31.3764 47.3034 31.2932C46.8639 31.2004 46.6458 31.0277 46.21 30.9362C45.7168 30.833 44.845 30.4066 44.9287 30.833C44.9723 31.0378 45.4352 31.2103 45.4352 31.2103C45.4352 31.2103 45.7537 31.383 46.0556 31.5183C46.3576 31.6503 46.5251 31.8518 46.5251 31.8518L46.733 32.0076C46.733 32.0076 46.9476 32.3054 47.2295 32.642C47.5044 32.9738 47.9941 32.9635 47.9941 32.9635C47.9941 32.9635 48.2893 32.9635 48.9264 33.0955C49.5604 33.2275 50.2144 33.6232 50.2144 33.6232C50.2144 33.6232 50.7074 33.9651 50.9958 34.3088C51.281 34.6524 51.1166 34.8249 51.0798 34.8603C51.0464 34.8975 51.0595 34.8805 51.0194 34.8975C50.986 34.9144 50.6304 34.4643 50.6304 34.4643L50.3756 34.2461C50.3756 34.2461 50.1272 34.0701 49.8054 33.9651C49.4834 33.8619 49.3759 33.9312 49.3759 33.9312C49.3759 33.9312 48.6918 34.1242 48.0948 34.1072C47.5044 34.0903 47.1959 33.8516 47.1959 33.8516L46.8203 33.5977C46.8203 33.5977 46.2567 33.0647 46.2364 33.317C46.2229 33.4879 46.4847 33.6774 46.4847 33.6774C46.4847 33.6774 46.6659 33.8617 46.7867 33.9788C47.0147 34.2054 47.1089 34.3189 47.3703 34.5538C47.632 34.791 47.7929 34.791 47.7929 34.791C47.7929 34.791 47.9337 34.8247 47.9873 34.835C48.0412 34.8451 48.1352 34.8706 48.1352 34.8706C48.1352 34.8706 48.2224 34.9045 48.6314 35.0722C49.0371 35.2378 49.4767 35.5984 49.4767 35.5984C49.4767 35.5984 49.517 35.6323 49.5774 35.6442C49.6376 35.651 49.7583 35.7119 49.7919 35.722C49.8288 35.7304 49.9328 35.7304 50.1676 35.7643C50.4059 35.7999 50.3152 35.9522 50.3152 35.9522L50.2748 36.0096L50.0801 36.1416C50.0801 36.1416 49.8288 36.2144 49.6576 36.2228C49.4832 36.2329 49.2351 36.135 49.2351 36.135L48.7083 35.9352C48.7083 35.9352 48.1753 35.7931 48.061 35.7744C47.947 35.7575 47.4708 35.6611 47.3904 35.6442C47.3132 35.6257 47.0751 35.5392 47.0115 35.502C46.9476 35.4666 46.8303 35.4429 46.5418 35.3007C46.2567 35.1586 46.1426 34.9945 45.7873 34.881C45.4284 34.7659 45.2104 34.7424 44.942 34.9303C44.4791 35.2517 45.6394 35.3043 46.2166 35.5951C47.0686 36.0182 47.548 36.3295 47.7493 36.7866C47.9538 37.2451 48.1585 37.411 48.1585 37.411C48.1585 37.411 48.7589 37.7157 49.0271 38.0353C49.1747 38.2078 49.195 38.3502 49.3423 38.5226C49.6709 38.9118 50.3084 38.8898 50.436 39.2198C50.5567 39.5276 49.9192 39.389 49.5872 39.3584C48.9902 39.2992 48.8459 38.7475 48.2891 38.5259C47.974 38.399 47.7728 38.399 47.4506 38.2875C46.8636 38.0928 46.5887 37.8373 46.0016 37.653C45.646 37.543 45.0019 37.0709 45.0826 37.4345C45.0959 37.5225 45.1495 37.5903 45.1729 37.6429C45.2032 37.6952 45.3508 37.8882 45.3508 37.8882C45.3508 37.8882 45.5485 38.1522 45.639 38.2217C45.7229 38.2945 46.1019 38.582 46.6452 38.8799C47.182 39.1778 47.6514 39.7498 47.6514 39.7498C47.6514 39.7498 47.8125 39.9834 47.8897 40.146C47.9701 40.3288 47.913 40.3845 48.0405 40.6384C48.1578 40.8905 48.215 40.9396 48.3759 41.0953C48.7716 41.4794 49.1876 41.4031 49.6905 41.6114C49.8281 41.6706 49.8381 41.6909 49.9857 41.8499C50.1333 42.0072 49.9587 42.0748 49.9587 42.0748C49.9587 42.0748 49.3988 42.2204 49.0365 42.1898C48.5671 42.1526 48.3556 42.007 47.8995 41.7769C47.4366 41.5485 47.1953 41.1373 47.1484 41.112C47.108 41.0848 46.994 40.9631 46.9068 40.9004C46.8198 40.8379 46.5948 40.7904 46.3936 40.7345C46.1891 40.6789 46.0748 40.6685 45.8705 40.6126C45.5921 40.533 45.3035 40.4096 45.1727 40.3673C45.0418 40.3216 44.7434 40.2675 44.5253 40.3977C44.0893 40.6584 45.2027 40.8342 45.5483 41.2084C45.726 41.3963 45.7997 41.5283 45.9676 41.7263C46.0951 41.8785 46.1487 41.9852 46.3066 42.1036C46.4136 42.183 46.6116 42.2692 46.6116 42.2692C46.6116 42.2692 46.8798 42.3946 47.2722 42.6129C47.6647 42.8311 48.124 43.4487 48.124 43.4487L48.4025 43.8785L48.5668 44.1238L48.6104 44.2374L48.6706 44.376C48.6706 44.376 48.8721 44.64 49.0195 44.7262C49.1673 44.816 49.1402 44.8938 49.1402 44.8938C49.1402 44.8938 49.1237 44.9482 49.0195 45.0074C48.9189 45.0701 48.8618 45.0175 48.7144 44.9735C48.5668 44.9312 48.4696 44.7891 48.3423 44.6857C48.208 44.5775 48.0671 44.3152 47.829 44.1663C47.6178 44.0378 47.3429 43.9921 47.2354 43.9582C47.1314 43.9195 46.8697 43.7536 46.7658 43.7078C46.6652 43.6671 46.3936 43.5419 46.3936 43.5419C46.3936 43.5419 45.8705 43.2476 45.5817 43.1682C45.2934 43.0868 45.4777 43.2645 45.4777 43.2645C45.4777 43.2645 45.7362 43.6706 45.9841 43.833C46.3064 44.0479 46.759 44.2376 46.6114 44.4116C46.5107 44.5251 46.3766 44.4844 46.229 44.4675C45.9876 44.4389 45.6957 44.1476 45.6957 44.1476C45.6957 44.1476 45.5751 44.0682 45.0351 43.8955C44.4983 43.7177 44.6963 44.0156 44.8203 44.1764C44.9413 44.3322 45.1057 44.4217 45.1057 44.4217L45.4713 44.5876L45.639 44.64C45.639 44.64 45.7868 44.667 46.273 44.7821C46.7592 44.8938 47.0278 45.1325 47.0278 45.1325C47.0278 45.1325 47.2892 45.3778 47.6514 45.6487C48.0203 45.9228 48.3826 45.9923 48.5838 46.0194C48.7851 46.0447 48.7783 46.1868 48.7783 46.1868C48.7783 46.1868 48.8051 46.3172 48.7921 46.3595C48.7853 46.4035 48.7417 46.4391 48.6979 46.4391C48.6575 46.4391 48.6377 46.4561 48.5841 46.4849C48.5304 46.5119 48.3224 46.5458 48.3224 46.5458C48.3224 46.5458 47.7791 46.5289 47.3498 46.4222C46.9273 46.3172 46.5514 46.0194 46.5111 46.0026C46.4777 45.9857 46.0818 45.7642 45.8069 45.6762C45.542 45.5864 45.116 45.6253 45.0689 45.6423C45.0255 45.6592 44.8777 45.683 44.6263 45.7573C44.3714 45.8251 44.69 45.923 44.69 45.923L44.8711 45.9399L45.3037 45.9738C45.3037 45.9738 45.7533 46.0262 46.1322 46.1683C46.5111 46.3071 46.7594 46.5881 47.011 46.8452C47.2624 47.0974 47.541 47.2632 47.541 47.2632L47.7423 47.3952L47.8463 47.4747L47.8731 47.544C47.8731 47.544 47.8631 47.5796 47.8463 47.6234C47.8295 47.6691 47.7658 47.7028 47.7658 47.7028C47.7658 47.7028 47.6719 47.6859 47.6317 47.6859C47.5846 47.6859 47.2997 47.5336 47.0884 47.4406C46.8704 47.3442 46.7596 47.2527 46.5248 47.195C46.3236 47.146 46.0554 47.124 45.9948 47.1427C45.9346 47.1596 45.4916 47.2223 45.1495 47.2459C44.8077 47.2729 44.5123 47.278 44.1098 47.2289C43.5364 47.1596 42.7751 46.7025 42.6776 46.8296C42.4798 47.0969 43.0836 47.173 43.3788 47.344C43.7812 47.5792 44.4789 47.7908 44.4789 47.7908C44.4789 47.7908 44.9886 47.9041 45.2871 48.0462C45.9412 48.3527 46.1392 48.8061 46.6657 49.2833C46.9541 49.5506 47.1889 49.6656 47.5779 49.7233C47.9134 49.7726 47.9067 49.7319 48.4365 49.6269C48.9697 49.5204 49.292 49.0109 49.4461 49.1973C49.4764 49.2329 49.4629 49.2666 49.4562 49.3191C49.4461 49.3715 49.4027 49.4681 49.4027 49.4681C49.4027 49.4681 49.3423 49.5543 49.2484 49.6524C49.1511 49.7488 48.7855 49.9503 48.5943 50.0297C48.4031 50.1094 47.9337 50.2414 47.3433 50.2227C46.7529 50.2057 45.9213 49.7488 45.9213 49.7488L45.3244 49.4949C45.3244 49.4949 45.0493 49.3647 44.8615 49.2936C44.3651 49.104 44.0498 49.1209 43.5399 48.9856C43.2246 48.8994 43.0168 48.8096 42.7317 48.7504C42.4432 48.688 42.6076 48.803 42.6344 48.8435C42.7685 49.0279 42.9495 49.087 43.1777 49.1937C43.4797 49.3427 43.691 49.3123 43.9995 49.4443C44.345 49.5849 44.647 49.7829 44.8382 49.9081C45.0259 50.03 45.167 50.1688 45.3514 50.3617L45.9852 50.91C45.9852 50.91 46.1328 51.0318 46.1496 51.0827C46.1662 51.1352 46.2366 51.267 46.2033 51.4787C46.1662 51.6903 45.9953 51.5414 45.9953 51.5414L45.8276 51.4331L45.6597 51.2774L45.3946 51.0558C45.3946 51.0558 45.1668 50.8475 44.7741 50.6462C44.3852 50.4414 43.9155 50.3905 43.9155 50.3905C43.9155 50.3905 43.4995 50.3281 43.5131 50.4601C43.5331 50.5903 43.6267 50.6022 43.9554 50.6884C44.2875 50.7749 44.5055 50.9441 44.5055 50.9441C44.5055 50.9441 44.8445 51.1979 45.0892 51.4787C45.3305 51.7598 45.4011 52.0322 45.4011 52.0322C45.4011 52.0322 45.5252 52.2623 45.8372 52.5668C46.1492 52.8748 46.3136 52.7681 46.2966 52.9172C46.2798 53.0662 46.1422 53.0932 46.1422 53.0932C46.1422 53.0932 46.0618 53.0862 46.0284 53.0862C45.9948 53.0862 45.9144 53.0407 45.8272 53.0068C45.7399 52.9729 45.4112 52.7428 45.4112 52.7428C45.4112 52.7428 44.8949 52.3199 44.8378 52.2792C44.7739 52.2335 44.2877 51.8663 44.2877 51.8663C44.2877 51.8663 43.9993 51.6802 43.7945 51.5752C43.5833 51.4721 43.3048 51.3638 43.1472 51.3112C42.9931 51.2604 42.7044 51.2435 42.7044 51.2435C42.7044 51.2435 42.3591 51.1911 42.1478 51.1115C41.8158 50.9828 41.4298 50.6257 41.3865 50.6088C41.3394 50.5903 41.0309 50.4836 40.9705 50.4937C40.9103 50.5005 40.7692 51.0895 40.7359 51.4296C40.595 52.8545 40.9705 53.8003 41.5541 55.1069C42.3959 57.0055 44.7403 59.3661 44.7403 59.3661C44.7403 59.3661 45.3307 59.7029 45.579 59.9042C46.28 60.4577 47.4405 61.2412 48.4703 62.2767C49.3489 63.1651 50.5164 64.7405 50.5164 64.7405C50.5164 64.7405 51.1936 65.6915 51.5091 66.365C51.8915 67.1908 52.2002 68.4501 52.2002 68.4501C52.2002 68.4501 52.227 68.6666 52.2471 68.7141C52.2739 68.7579 52.3341 68.8155 52.3746 68.8155L52.7836 68.8292C52.824 68.8292 53.2901 68.7955 53.5988 68.7174C53.904 68.6395 54.6285 68.3045 55.1115 68.0508C55.5876 67.7934 56.1612 67.3061 56.1612 67.3061C56.1612 67.3061 56.2718 67.2113 56.8288 66.5819C57.3924 65.9525 57.7546 65.0082 57.8919 64.6512C58.0262 64.2976 58.137 63.6156 58.2174 62.4512C58.3044 61.2821 58.147 60.0499 58.147 60.0499C58.147 60.0499 57.9357 58.3306 57.808 57.7449C57.6806 57.163 57.3721 56.2084 57.3721 56.2084C57.3721 56.2084 57.1576 55.3592 57.0905 54.8229C57.0198 54.2863 57.01 53.4131 57.01 53.4131C57.01 53.4131 57.01 52.8785 57.1807 51.8903C57.3586 50.9071 57.9558 49.9153 57.9558 49.9153C57.9558 49.9153 58.1235 49.5818 58.7677 48.8035C59.4283 48.0064 59.6394 47.8812 60.2902 47.4056C60.8069 47.0316 61.474 46.4292 61.6925 46.5713C61.9338 46.7236 61.4572 47.0283 61.2963 47.1873C60.8906 47.5935 60.1328 48.3109 59.5188 49.3922C58.9822 50.3281 58.781 50.9474 58.6471 51.5583C58.5126 52.1677 58.57 52.8376 58.5868 53.0662C58.607 53.2948 58.7309 53.2118 58.7309 53.2118C58.7309 53.2118 60.0355 52.1541 60.7432 51.3537C61.5113 50.4873 62.1955 48.9456 62.4636 48.9322C62.6448 48.9203 62.7288 49.3332 62.6852 49.5244C62.5177 50.3248 62.4608 50.4246 62.202 50.9559C61.907 51.5651 61.6323 51.8359 61.2229 52.3978C60.7934 52.9868 60.5823 53.2118 60.237 53.9917C59.7375 55.1137 60.029 55.9803 60.029 55.9803C60.029 55.9803 60.0894 56.5065 60.324 56.4997C60.7168 56.4861 61.5785 55.3878 62.1421 54.4891C62.5583 53.8309 62.7089 53.0695 62.9808 52.67C63.2289 52.3164 63.4471 53.2455 63.3397 53.7937C63.2154 54.4451 62.8969 55.0308 62.1959 55.953C61.5118 56.853 61.5318 57.7095 61.5318 57.7095C61.5318 57.7095 61.4614 58.1004 61.4043 58.9534C61.3508 59.8026 61.5922 61.0924 61.5922 61.0924C61.5922 61.0924 61.8065 62.1702 61.8506 62.9875C61.8909 63.8099 61.8639 65.6766 61.1023 67.1301C60.8006 67.7122 60.153 68.5179 60.153 68.5179C60.153 68.5179 59.6533 69.0358 59.2441 69.3367C58.8346 69.6381 57.852 70.1087 57.852 70.1087C57.852 70.1087 57.1713 70.3454 57.0774 70.3659C56.9767 70.3929 56.9165 70.4774 56.9165 70.4774C56.9165 70.4774 56.9766 70.6096 57.0035 70.6638C57.0268 70.7181 57.218 71.1915 57.218 71.1915C57.218 71.1915 57.4225 71.8617 57.4997 72.3932C57.5769 72.9245 57.4862 73.0464 57.4127 73.4525C57.3388 73.8419 57.1713 73.6621 57.1275 74.4271C57.0907 75.1042 57.3926 75.4424 57.3388 76.2007C57.3157 76.5325 56.9431 75.7812 56.7619 75.4631C56.3795 74.7723 56.47 73.7097 56.4634 73.4459C56.4532 73.1819 56.4329 72.8906 56.3359 72.5591C56.2186 72.1257 56.0407 71.7908 55.8429 71.5268C55.6415 71.2661 55.4302 71.1174 55.3598 71.1445C55.2894 71.1682 55.2826 71.3068 55.2826 71.3746C55.2791 71.4492 55.42 71.6995 55.4503 71.7539C55.4871 71.8045 55.7387 72.2682 55.7387 72.2682C55.7387 72.2682 55.8493 72.627 55.8929 73.3244C55.9367 74.0148 55.7252 74.8743 55.7252 74.8743C55.7252 74.8743 55.4501 75.839 55.1618 76.4077C54.8394 77.0336 54.1253 77.8866 54.1253 77.8866C54.1253 77.8866 53.6121 78.3605 53.2262 79.1388C52.8475 79.9172 53.1728 80.2558 53.0317 80.3572C52.8841 80.4553 52.5822 79.9071 52.5017 79.5381C52.4245 79.1929 52.4614 79.0304 52.6025 78.6445C52.7333 78.2723 53.042 77.7339 53.042 77.7339L53.5014 76.9454C53.5014 76.9454 54.0582 75.876 54.2326 75.0974C54.407 74.3259 54.2058 73.4663 54.2058 73.4663C54.2058 73.4663 54.1825 73.1821 53.9913 73.1955C53.7966 73.2056 53.6627 73.375 53.582 73.5814C53.4242 74.0078 53.6492 73.9301 53.4074 74.6407C53.2199 75.1991 53.166 75.1247 53.0653 75.4562C52.9445 75.8522 52.8809 76.2584 52.8878 76.5056C52.8979 76.7492 52.7638 76.6478 52.7638 76.6478C52.7638 76.6478 52.529 76.2075 52.529 75.6595C52.529 75.3616 52.5425 75.1925 52.5761 74.8944C52.6297 74.4172 52.8242 73.6863 52.8242 73.6863C52.8242 73.6863 53.0322 72.9654 52.9886 72.3087C52.9386 71.6454 52.7104 71.5237 52.7104 71.5237C52.7104 71.5237 52.6502 71.4357 52.3951 71.4492C52.1437 71.4696 52.157 71.9263 52.157 71.9263C52.157 71.9263 52.0798 72.5797 51.9793 72.9856C51.7009 74.1059 51.3288 74.6948 50.6712 75.6391C50.0743 76.492 49.266 77.2435 48.8599 77.5955C48.4574 77.9543 47.2164 78.8647 47.2164 78.8647L45.7609 79.8426C45.7609 79.8426 45.184 80.4113 44.9221 81.0883C44.654 81.7619 44.6673 82.2897 44.8214 82.909C44.976 83.5318 45.1973 83.816 45.3146 83.9918C45.4286 84.1614 45.6536 84.4657 45.7273 84.8247C45.7742 85.0445 45.7408 85.1765 45.7541 85.3998C45.7679 85.5963 45.7945 85.7045 45.7877 85.9043C45.7809 86.2156 45.8378 86.4354 45.6602 86.6892C45.5326 86.8822 45.1838 87.0513 45.1838 87.0513C45.1838 87.0513 44.7883 87.2271 44.553 87.3728C42.0776 88.8789 41.1992 89.857 39.8038 91.5356C39.361 92.0737 39.6865 92.0401 39.2136 92.6763C38.9267 93.0556 38.2644 93.0556 38.0245 93.5088C37.691 94.1281 38.7759 94.7375 37.5231 95.2824C35.9082 95.9864 33.1293 95.482 33.0739 95.2622C32.923 94.6596 33.6172 93.9627 33.8638 93.685C34.994 92.4394 36.0037 92.4088 36.3743 91.3768C36.4548 91.1568 36.4229 90.9674 37.3234 90.2937C37.9557 89.8231 40.4812 87.9043 41.5849 86.625C41.9638 86.185 42.2891 85.8941 42.4535 85.42C42.6213 84.9391 42.2891 84.6382 42.2891 84.6382L41.8362 83.8935L40.9676 82.3264C40.9676 82.3264 40.6022 81.4939 40.4043 81.0132C40.1998 80.5325 39.8206 79.2396 39.8206 79.2396C39.8206 79.2396 39.5424 78.0756 39.4951 77.3172C39.4114 75.9567 39.5958 75.165 39.9517 73.845C40.411 72.1325 41.4541 71.4148 41.87 69.7158C41.991 69.2219 42.0176 68.3755 41.7693 68.4162C41.5345 68.4602 41.5144 69.1268 41.3335 69.5739C40.6626 71.2593 39.777 71.9972 39.2908 73.7433C38.9655 74.9245 38.8314 75.6254 38.8345 76.8504C38.8382 77.5509 38.8112 77.4224 38.9889 78.6374C39.0593 79.084 39.1666 79.3243 39.2976 79.7608C39.3913 80.0723 39.6429 80.6544 39.6429 80.6544C39.6429 80.6544 39.9885 81.4226 40.1093 81.9608C40.1459 82.1471 40.1932 82.2516 40.1795 82.438C40.1562 82.7594 40.2131 82.8274 40.0589 83.1182C39.8677 83.4805 39.9848 83.6937 39.3745 83.8288C38.8312 83.9439 37.7211 83.5784 37.7211 83.5784C37.7211 83.5784 33.1578 82.1841 30.2448 82.5867C29.6679 82.6645 29.3577 82.8777 28.7775 82.8676C28.2493 82.8608 27.9809 82.4443 27.4526 82.6036C27.3453 82.6342 27.3118 82.7118 27.2145 82.7763C26.4432 83.3177 27.0333 84.218 25.0009 83.7509C23.7532 83.4632 22.2423 82.6918 22.5037 82.2076C22.8541 81.5645 23.3237 81.4596 24.31 81.05C25.3648 80.6168 26.9479 80.7387 27.2599 80.7184C27.6405 80.6879 28.1873 80.4206 28.868 80.4036C30.0453 80.3832 30.2549 80.5255 30.2549 80.5255L32.2537 80.7046L36.0791 80.7523C36.0791 80.7523 36.7633 80.7015 37.0349 80.6472C37.3101 80.5928 37.5264 80.0481 37.677 79.7874C37.8248 79.5304 37.6705 79.1511 37.6705 79.1511L37.5567 78.9718L37.1926 78.3796L36.5202 77.2356L35.7739 75.733C35.7739 75.733 35.286 74.6873 35.0261 74.0003C34.7677 73.3165 34.6168 72.9306 34.4457 72.2236C34.2663 71.4956 34.1555 70.9069 34.1322 70.3214C34.1038 69.481 34.0485 68.8279 34.2815 68.1408Z" fill="black"/>
<path d="M59.1149 66.7464C59.9197 65.7041 59.9973 64.7359 60.0439 63.3721C60.0808 62.3805 59.7088 60.8524 59.7088 60.8524L59.6582 60.7407C59.6582 60.7407 59.5174 60.5561 59.4306 60.7998C59.4439 61.015 59.471 61.1875 59.471 61.1875L59.5176 63.1556C59.5176 63.1556 59.4572 64.1471 59.1221 65.1693C58.5585 66.8954 57.0627 67.6636 56.8449 68.2864C56.4718 69.3185 58.1524 68.002 59.1149 66.7464Z" fill="white"/>
<path d="M50.6762 69.9314C50.6762 69.9314 50.3474 70.0262 50.3407 70.3543C50.3342 70.6827 50.4211 70.967 50.4111 71.363C50.4046 71.8674 49.945 72.4493 50.2402 72.639C50.7467 72.9639 51.1825 70.6759 51.0283 70.3375C50.874 69.9987 50.7231 69.9277 50.6762 69.9314Z" fill="white"/>
<path d="M44.9946 85.7941C44.9946 85.7941 44.9004 85.7435 44.7162 85.8145C44.5352 85.8854 44.5483 86.0752 44.5483 86.0752C44.5483 86.0752 44.5114 86.2783 44.659 86.2987C44.8069 86.3258 45.0482 85.9602 45.0482 85.9195C45.0482 85.8788 44.9946 85.7941 44.9946 85.7941Z" fill="white"/>
<path d="M39.6481 89.6287C39.6481 89.6287 39.5943 89.6831 39.6414 89.72C39.6915 89.7642 39.7622 89.7099 39.7622 89.7099C39.7622 89.7099 40.6844 88.9824 41.2312 88.4713C41.8081 87.9231 42.6401 86.9788 42.6401 86.9788C42.6401 86.9788 42.697 86.9078 42.6333 86.8468C42.5659 86.7859 42.4085 86.8805 42.2777 86.9414C42.1637 87.0024 42.0965 87.0666 42.0095 87.1379C41.9291 87.2125 41.654 87.4967 41.654 87.4967L40.9428 88.1939L40.4932 88.6202L40.0574 89.0398L39.8762 89.2499C39.8762 89.2499 39.8291 89.3311 39.816 89.3513C39.8023 89.3748 39.7556 89.4358 39.7556 89.4358C39.7556 89.4358 39.6883 89.5002 39.6883 89.5205C39.6883 89.5374 39.6682 89.5544 39.6682 89.5748C39.6614 89.6017 39.6481 89.6287 39.6481 89.6287Z" fill="white"/>
<path d="M38.0534 90.6849C38.0534 90.6849 37.9544 90.6037 37.7985 90.6813C37.6409 90.766 37.4733 90.9823 37.4595 91.0063C37.4447 91.0369 37.359 91.1519 37.4179 91.2533C37.4765 91.355 37.676 91.2058 37.7061 91.1992C37.7347 91.1992 37.9948 90.9896 37.9948 90.9896C37.9948 90.9896 38.1456 90.8945 38.0534 90.6849Z" fill="white"/>
<path d="M34.9994 93.8051C34.9994 93.8051 34.8686 93.5616 34.6975 93.663C34.5263 93.7647 34.4326 93.7985 34.275 94.0183C34.2481 94.0555 34.0787 94.2757 34.0484 94.3331C34.0183 94.3875 33.8489 94.7124 34.1928 94.736C34.7832 94.7696 34.3955 94.3875 34.5985 94.2383C34.7629 94.1235 35.0714 94.1538 35.0749 94.032C35.0781 93.9103 34.9994 93.8051 34.9994 93.8051Z" fill="white"/>
<path d="M24.5348 81.3367C24.5348 81.3367 24.181 81.4249 24.1541 81.5468C24.1256 81.6752 24.3604 81.7971 24.3972 81.8037C24.4391 81.8105 24.518 81.9054 24.7544 81.7428C24.9874 81.5839 24.9774 81.4484 24.9774 81.4484C24.9774 81.4484 25.115 81.2861 24.5348 81.3367Z" fill="white"/>
<path d="M30.2904 81.1473C30.2904 81.1473 30.2869 81.0153 30.037 81.0324C29.7821 81.0461 29.7285 81.0932 29.7217 81.1339C29.7135 81.171 29.7353 81.2355 29.9616 81.2557C30.1914 81.2694 30.2836 81.2555 30.2904 81.1473Z" fill="white"/>
<path d="M35.7322 81.3062C35.2743 81.3027 35.4187 81.3166 35.137 81.33C34.6255 81.3571 34.3471 81.3366 33.8424 81.3027C33.1344 81.2554 32.0395 81.0794 32.0395 81.0794C32.0395 81.0794 31.902 81.0458 31.8466 81.1371C31.7962 81.2215 31.9807 81.4178 32.1451 81.4688C33.0422 81.7498 33.0908 81.7025 33.7013 81.7124C34.0419 81.7159 34.2313 81.6818 34.5701 81.6615C34.9994 81.6281 35.1989 81.6954 35.6668 81.5702C35.7891 81.5397 35.9066 81.3098 35.7322 81.3062Z" fill="white"/>
<path d="M38.7979 80.3892C38.7979 80.3892 38.7057 80.2811 38.516 80.3757C38.3285 80.467 38.2142 80.6734 38.2142 80.6734C38.2142 80.6734 38.1255 80.8155 38.315 80.7955C38.4994 80.7684 38.6653 80.6872 38.7089 80.6602C38.7575 80.6327 38.8951 80.5042 38.7979 80.3892Z" fill="white"/>
<path d="M36.1297 43.26C36.1297 43.26 37.4243 42.0366 38.3516 40.4189C38.9015 39.4542 39.1413 37.2087 38.6686 37.767C38.4554 38.0227 38.1972 39.1869 37.788 40.0497C37.2044 41.2782 35.9584 43.018 35.9584 43.018C35.9584 43.018 35.6904 43.5968 36.1297 43.26Z" fill="white"/>
<path d="M30.9545 46.3688C30.9545 46.3688 30.8169 46.477 30.879 46.6497C30.9444 46.8257 31.2078 46.6937 31.2078 46.6937C31.2078 46.6937 31.8065 46.4654 32.4338 46.4416C33.0625 46.4145 33.9346 46.604 33.9346 46.604C33.9346 46.604 34.3504 46.719 34.4193 46.7461C34.488 46.7749 34.7145 46.8849 34.7531 46.8983C34.7867 46.9135 35.0029 47.0202 35.1237 46.9102C35.2445 46.7984 34.3674 45.9948 33.472 45.8729C31.9809 45.6681 31.0018 46.3162 31.0018 46.3162L30.9545 46.3688Z" fill="white"/>
<path d="M24.8132 51.667C24.9187 51.7585 25.4169 50.8006 25.8327 50.1947C26.1379 49.7514 26.695 49.0102 26.695 49.0102C26.695 49.0102 26.9463 48.6701 26.5205 48.8598C26.3479 48.9376 25.875 49.3013 25.5412 49.9699C25.2593 50.5384 24.7024 51.5772 24.8132 51.667Z" fill="white"/>
<path d="M21.3686 47.5057C21.3686 47.5057 21.2612 47.8764 21.6907 48.3399C22.1232 48.8054 22.234 49.1893 22.5091 48.9119C22.5846 48.8358 22.2407 48.2097 22.0663 48.0354C21.8869 47.8627 21.7593 47.7206 21.7593 47.7206L21.6471 47.6275L21.5027 47.5464L21.4205 47.5127C21.4205 47.5127 21.3987 47.4922 21.3686 47.5057Z" fill="white"/>
<path d="M19.9731 43.952C19.9731 43.952 19.5069 44.04 19.3929 44.2684C19.2771 44.497 19.9295 44.3581 19.9295 44.3581C19.9295 44.3581 20.362 44.3817 20.3723 44.216C20.3823 44.0468 20.3171 44.0299 19.9731 43.952Z" fill="white"/>
<path d="M12.5657 56.3392C12.3276 56.2699 12.2875 56.7422 12.2555 56.8942C12.2286 57.0465 12.3629 57.3512 12.4181 57.3512C12.4717 57.3476 12.6612 57.05 12.6712 56.9046C12.6815 56.7556 12.7754 56.4054 12.5657 56.3392Z" fill="white"/>
<path d="M20.2584 65.5653C20.2584 65.5653 19.8324 65.225 19.767 65.3605C19.7034 65.4958 20.1176 66.0931 20.1176 66.0931C20.1176 66.0931 20.2449 66.2896 20.4412 66.2013C20.6339 66.1067 20.5652 65.89 20.5652 65.89C20.5652 65.89 20.4344 65.6126 20.2584 65.5653Z" fill="white"/>
<path d="M17.047 55.5878C17.047 55.5878 16.9379 55.5592 16.8994 55.691C16.859 55.823 16.8625 56.0379 16.8339 56.2984C16.8106 56.5017 16.8861 57.0431 16.8861 57.0431C16.8861 57.0431 16.9279 57.473 17.0134 57.7286C17.1056 58.0094 17.3504 58.4089 17.3504 58.4089C17.3504 58.4089 17.4427 58.6137 17.5567 58.6036C17.669 58.5917 17.6422 58.4579 17.6422 58.4579C17.6422 58.4579 17.285 57.0299 17.275 56.8843C17.2329 56.4089 17.2329 55.83 17.2329 55.83L17.2297 55.7436C17.2297 55.7436 17.2262 55.5911 17.047 55.5878Z" fill="white"/>
<path d="M17.6036 51.2305C17.6036 51.2305 17.4074 51.1933 17.2264 51.5739C17.0437 51.9598 17.0823 52.1155 17.0989 52.1325C17.1124 52.1494 17.2565 52.1461 17.488 51.7891C17.7178 51.4353 17.6657 51.2998 17.6657 51.2998C17.6657 51.2998 17.6522 51.2305 17.6036 51.2305Z" fill="white"/>
<path d="M23.0004 55.1784C23.0004 55.1784 23.2367 55.5352 22.7841 55.4525C22.3297 55.3695 21.3754 54.6097 20.9863 54.4051C20.6021 54.2003 19.9698 54.1358 20.235 53.8958C20.2836 53.8551 20.2969 53.8159 20.3723 53.8128C20.4512 53.8093 20.7129 53.9125 20.7294 53.9244C20.743 53.931 21.4153 54.2119 21.4404 54.2187C21.464 54.2289 21.8414 54.3914 22.1095 54.5503C22.3779 54.7109 22.8137 55.0189 22.8137 55.0189L23.0004 55.1784Z" fill="white"/>
<path d="M35.5796 66.1069C35.7036 66.4994 34.1474 65.2775 33.3139 64.6294C31.1053 62.9134 28.4018 59.3954 28.7389 59.0841C29.0173 58.8284 30.1257 60.4395 31.7509 62.2145C33.4883 64.1065 35.5074 65.8733 35.5796 66.1069Z" fill="white"/>
<path d="M42.0763 64.4245C41.5934 64.944 41.4225 65.6093 41.7007 66.1067C41.9723 66.5905 42.0562 65.3992 42.3582 65.0489C42.6198 64.7425 42.7807 64.7917 43.21 64.4837C43.9413 63.9643 42.687 63.763 42.0763 64.4245Z" fill="white"/>
<path d="M39.3126 53.3203C38.9806 53.2661 38.9906 53.7754 39.0375 54.136C39.259 55.7502 39.9769 56.994 40.9358 58.1651C41.5197 58.8792 43.1195 60.1517 43.3037 59.9471C43.3711 59.8743 41.7811 58.6339 40.7681 57.04C40.0504 55.9097 39.668 54.9535 39.5775 54.021C39.5677 53.9024 39.5943 53.366 39.3126 53.3203Z" fill="white"/>
<path d="M33.1178 29.3938C32.3966 29.788 31.1456 30.1352 31.1456 30.1352C31.1456 30.1352 31.0885 30.2603 31.2496 30.2469C32.3214 30.1605 32.7304 30.0252 33.3007 29.7713C33.8709 29.5227 34.2851 28.8321 34.2851 28.8321C34.2851 28.8321 34.5166 28.4022 34.0874 28.756C33.9531 28.8642 33.5135 29.1755 33.1178 29.3938Z" fill="white"/>
<path d="M41.8182 26.6203C41.8182 26.6203 41.5734 26.566 41.409 26.6694C41.2446 26.7743 41.2915 26.8573 41.2915 26.8573C41.2915 26.8573 41.5465 27.0535 41.7275 27.0859C41.9087 27.1129 42.2976 27.2839 42.2846 27.1519C42.2676 27.0166 42.0497 26.7746 41.9723 26.7086C41.9021 26.6388 41.8182 26.6203 41.8182 26.6203Z" fill="white"/>
<path d="M37.7231 34.2016C37.7647 34.2878 38.4959 34.0865 38.7779 33.9273C38.9976 33.8021 39.0846 33.3823 39.0846 33.3823C39.0846 33.3823 39.145 32.9762 39.0513 33.1335C38.6335 33.8225 37.6825 34.1134 37.7231 34.2016Z" fill="white"/>
<path d="M37.6995 32.3079C37.9947 31.7359 36.8893 32.9019 36.3259 33.2031C35.9821 33.3859 35.422 33.6295 35.422 33.6295C35.422 33.6295 35.2744 33.8156 35.4807 33.7986C35.6869 33.785 36.2119 33.9645 36.6379 33.6328C36.7386 33.5516 37.1812 32.9017 37.1812 32.9017C37.1812 32.9017 37.5584 32.5785 37.6995 32.3079Z" fill="white"/>
<path d="M37.5283 34.7413C37.5516 34.8344 38.7909 34.8038 39.1014 34.7092C39.3462 34.6414 39.4803 34.205 39.4803 34.205C39.4803 34.205 39.6279 33.8226 39.5003 33.9511C38.9387 34.5299 37.5067 34.6483 37.5283 34.7413Z" fill="white"/>
<path d="M17.6237 46.196C17.6237 46.196 17.436 46.1267 17.2029 46.4803C16.9714 46.8323 15.9284 48.4315 16.1128 48.6667C16.3324 48.9441 17.2363 47.2384 17.5116 46.9203C17.7898 46.5971 17.6758 46.2722 17.6758 46.2722C17.6758 46.2722 17.6725 46.1993 17.6237 46.196Z" fill="white"/>
<path d="M40.3456 75.0284C40.2316 75.5597 40.3657 76.6463 40.5471 76.8592C40.9897 77.3973 40.718 76.0166 40.7817 75.5324C40.8353 75.0825 40.8889 74.9267 41.1104 74.446C41.5062 73.5797 40.5774 73.8978 40.3456 75.0284Z" fill="white"/>
<path d="M36.5388 28.8187C36.5388 28.8187 36.1952 28.8288 35.9268 28.9778C35.6551 29.1267 35.588 29.3384 35.588 29.3384C35.588 29.3384 35.5326 29.4906 35.5697 29.5735C35.6484 29.7546 36.0207 29.4805 36.2806 29.57C36.4902 29.6461 36.5909 29.7088 36.7518 29.9033C36.8926 30.0727 37.1392 30.3163 37.2936 30.1775C37.4527 30.0422 37.3943 29.6952 37.3943 29.6952C37.3943 29.6952 37.2114 29.13 36.9718 28.971C36.73 28.8086 36.5388 28.8187 36.5388 28.8187Z" fill="white"/>
<path d="M30.827 32.7936C30.827 32.7936 30.634 32.824 30.6794 33.0609C30.7247 33.2928 30.8505 33.2572 30.8505 33.2572C30.8505 33.2572 31.2497 33.0845 31.2262 32.8427C31.1976 32.5989 30.827 32.7936 30.827 32.7936Z" fill="white"/>
<path d="M28.038 31.5313C28.038 31.5313 27.8285 31.5399 27.6809 31.8019C27.5368 32.0626 27.4511 32.3334 27.4511 32.3334C27.4511 32.3334 27.3824 32.6753 27.503 32.7835C27.6255 32.89 27.7596 32.562 27.9356 32.4333C28.0411 32.3572 28.1067 32.3233 28.2157 32.2454C28.3651 32.142 28.6082 32.274 28.5914 31.9695C28.5698 31.6631 28.2478 31.5176 28.038 31.5313Z" fill="white"/>
<path d="M37.0503 28.2568C37.0503 28.2568 36.5758 28.1875 36.5941 28.3718C36.6109 28.5443 36.851 28.4411 37.0051 28.5107C37.156 28.58 37.2567 28.607 37.3773 28.7188C37.4662 28.7982 37.456 28.954 37.5652 28.9573C37.7161 28.9608 37.686 28.8981 37.686 28.8981C37.686 28.8981 37.5484 28.4851 37.3692 28.3685C37.1913 28.25 37.0503 28.2568 37.0503 28.2568Z" fill="white"/>
<path d="M42.3446 30.1876C42.2775 30.4483 42.2371 30.5378 42.2371 30.5378C42.2371 30.5378 42.1033 31.0676 42.6331 30.8729C43.1631 30.6764 42.8879 30.7594 43.2701 30.5717C43.646 30.3856 43.6392 30.4888 43.9144 30.5024C44.0081 30.5057 44.0685 30.509 44.2096 30.4822C44.3302 30.4549 44.2798 30.3128 44.0116 30.2399C43.7234 30.1638 43.3711 30.1808 42.9621 30.1772C42.7205 30.1742 42.415 29.9271 42.3446 30.1876Z" fill="white"/>
<path d="M42.5795 28.2297C42.5795 28.2297 42.3379 28.1738 42.1702 28.2788C42.0059 28.3819 42.0562 28.4649 42.0562 28.4649C42.0562 28.4649 42.3078 28.6664 42.4923 28.6935C42.6734 28.7256 43.0624 28.8948 43.0491 28.7595C43.0288 28.6275 42.8143 28.3822 42.7371 28.3162C42.6601 28.2499 42.5795 28.2297 42.5795 28.2297Z" fill="white"/>
<path d="M43.5122 31.907C43.5122 31.907 43.2536 31.8544 43.0759 31.9543C42.9015 32.0524 42.9484 32.1321 42.9484 32.1321C42.9484 32.1321 43.2235 32.3184 43.418 32.347C43.6127 32.3741 44.0284 32.5331 44.0117 32.4062C43.9951 32.281 43.7601 32.0491 43.6829 31.9867C43.6057 31.9237 43.5122 31.907 43.5122 31.907Z" fill="white"/>
<path d="M43.5926 33.2402C43.5926 33.2402 43.3173 33.1777 43.1295 33.2928C42.9418 33.4061 42.9985 33.4976 42.9985 33.4976C42.9985 33.4976 43.2839 33.7158 43.4919 33.7464C43.6964 33.7785 44.1392 33.9614 44.1189 33.8157C44.1024 33.6703 43.854 33.4063 43.7668 33.3352C43.6864 33.2604 43.5926 33.2402 43.5926 33.2402Z" fill="white"/>
<path d="M43.7166 34.54C43.7166 34.54 43.4181 34.4707 43.2166 34.5992C43.0121 34.7277 43.0758 34.8311 43.0758 34.8311C43.0758 34.8311 43.3843 35.0746 43.6058 35.112C43.8306 35.1477 44.31 35.3556 44.2902 35.1914C44.2699 35.0291 44.0015 34.7277 43.9078 34.6483C43.8205 34.5636 43.7166 34.54 43.7166 34.54Z" fill="white"/>
<path d="M43.6897 36.1476C43.6897 36.1476 43.3912 36.0834 43.1898 36.2103C42.9852 36.3355 43.0424 36.4387 43.0424 36.4387C43.0424 36.4387 43.3574 36.6822 43.5789 36.7196C43.8004 36.7552 44.2799 36.9634 44.2598 36.8008C44.2365 36.6367 43.9714 36.3355 43.8809 36.2558C43.7869 36.1731 43.6897 36.1476 43.6897 36.1476Z" fill="white"/>
<path d="M43.4718 39.2817C43.4718 39.2817 43.1698 39.2157 42.9686 39.3444C42.7673 39.4713 42.8277 39.573 42.8277 39.573C42.8277 39.573 43.1362 39.8183 43.3577 39.8539C43.5825 39.8878 44.0622 40.0992 44.0421 39.9333C44.0218 39.771 43.7539 39.4713 43.6597 39.3884C43.569 39.3055 43.4718 39.2817 43.4718 39.2817Z" fill="white"/>
<path d="M43.6731 37.7145C43.6731 37.7145 43.3308 37.6351 43.0893 37.7838C42.8577 37.9293 42.9284 38.0478 42.9284 38.0478C42.9284 38.0478 43.2872 38.3321 43.5454 38.3728C43.8005 38.415 44.3573 38.6537 44.337 38.4676C44.3102 38.2764 44.0015 37.9295 43.8944 37.8364C43.7869 37.7416 43.6731 37.7145 43.6731 37.7145Z" fill="white"/>
<path d="M43.324 40.6997C43.324 40.6997 43.0757 40.6403 42.9083 40.747C42.7404 40.852 42.7942 40.9349 42.7942 40.9349C42.7942 40.9349 43.0491 41.1397 43.2303 41.1668C43.4147 41.1974 43.8072 41.3681 43.7937 41.2328C43.7736 41.0973 43.5556 40.852 43.4786 40.786C43.4047 40.7167 43.324 40.6997 43.324 40.6997Z" fill="white"/>
<path d="M43.0892 42.0567C43.0892 42.0567 42.888 42.0127 42.7471 42.0992C42.6132 42.1854 42.6531 42.2547 42.6531 42.2547C42.6531 42.2547 42.8644 42.4206 43.0155 42.4459C43.1662 42.4697 43.4984 42.6153 43.4849 42.5002C43.4714 42.3902 43.2837 42.1854 43.2233 42.1295C43.1596 42.0737 43.0892 42.0567 43.0892 42.0567Z" fill="white"/>
<path d="M42.801 43.2955C42.801 43.2955 42.6198 43.2533 42.4923 43.3327C42.3715 43.4088 42.405 43.4748 42.405 43.4748C42.405 43.4748 42.5963 43.6238 42.7338 43.6442C42.8714 43.6695 43.1664 43.7965 43.1533 43.6966C43.1431 43.5967 42.9787 43.4088 42.9215 43.3598C42.8644 43.3092 42.801 43.2955 42.801 43.2955Z" fill="white"/>
<path d="M42.5124 44.3109C42.5124 44.3109 42.3247 44.2684 42.2041 44.3445C42.0763 44.4242 42.1134 44.4867 42.1134 44.4867C42.1134 44.4867 42.3046 44.6389 42.4422 44.6594C42.5797 44.6814 42.8747 44.8116 42.8614 44.7086C42.8514 44.6088 42.687 44.4244 42.6266 44.3751C42.5728 44.3245 42.5124 44.3109 42.5124 44.3109Z" fill="white"/>
<path d="M42.1604 45.4887C42.1604 45.4887 42.0128 45.4531 41.9088 45.5158C41.8081 45.5818 41.8417 45.6308 41.8417 45.6308C41.8417 45.6308 41.9958 45.7529 42.1066 45.7732C42.2173 45.7899 42.4587 45.8951 42.4456 45.8101C42.4354 45.7307 42.3013 45.5818 42.2577 45.5395C42.2106 45.4988 42.1604 45.4887 42.1604 45.4887Z" fill="white"/>
<path d="M41.7412 46.5903C41.7412 46.5903 41.6137 46.5597 41.5265 46.6138C41.4395 46.6697 41.4663 46.7152 41.4663 46.7152C41.4663 46.7152 41.6004 46.8184 41.6944 46.832C41.7883 46.8507 41.9961 46.9405 41.9861 46.8677C41.9795 46.7984 41.862 46.6697 41.8252 46.6358C41.7811 46.6004 41.7412 46.5903 41.7412 46.5903Z" fill="white"/>
<path d="M41.3084 47.6379C41.3084 47.6379 41.1774 47.6091 41.0904 47.665C41.0063 47.7173 41.0366 47.7613 41.0366 47.7613C41.0366 47.7613 41.1641 47.8663 41.2613 47.8832C41.3586 47.8969 41.5631 47.9864 41.553 47.9189C41.5465 47.8443 41.429 47.7173 41.3922 47.6819C41.352 47.6478 41.3084 47.6379 41.3084 47.6379Z" fill="white"/>
<path d="M13.2316 52.9667C13.2316 52.9667 13.0154 53.3896 13.1226 53.6217C13.2284 53.8553 13.5201 53.251 13.5201 53.251C13.5201 53.251 13.8218 52.6484 13.6995 52.5386C13.5755 52.4268 13.5035 52.7382 13.2316 52.9667Z" fill="white"/>
</g>
<defs>
<clipPath id="clip0">
<rect width="75" height="121" fill="white"/>
</clipPath>
</defs>
</svg>
