<svg width="131" height="121" viewBox="0 0 131 121" fill="none" xmlns="http://www.w3.org/2000/svg">
<path fill-rule="evenodd" clip-rule="evenodd" d="M65.4988 121C60.8136 121 58.4055 117.952 58.4055 117.952C54.5549 117.785 24.4618 117.868 24.4618 117.868L21.5321 93.196C21.5321 93.196 2.99698 80.1614 1.49024 78.6581C-7.40677 38.3895 24.7518 0 65.5 0C106.248 0 138.407 38.3895 129.51 78.6581C128.003 80.1614 109.468 93.196 109.468 93.196L106.538 117.868C106.538 117.868 76.4451 117.785 72.5945 117.952C72.5945 117.952 70.1864 121 65.4988 121Z" fill="#ED1C24"/>
<path fill-rule="evenodd" clip-rule="evenodd" d="M65.5422 83.478L62.6988 12.259C59.2696 11.5608 50.5216 12.3987 45.8326 15.8898L59.4796 83.7572L40.8637 18.6827C36.401 18.6281 27.3958 26.1563 26.7269 28.388L53.8808 86.1312L23.3676 33.3454C20.3583 34.4626 13.7798 46.5419 14.8295 47.9454L48.8419 89.4827L13.8497 54.0129C13.8497 54.0129 9.30076 60.9253 12.2673 72.6337L32.0325 86.8743L34.507 106.33H58.7399C58.7399 106.33 62.7045 110.079 65.5175 110.079C68.3305 110.079 72.2951 106.33 72.2951 106.33H96.528L99.0025 86.8743L118.768 72.6337C121.734 60.9253 117.185 54.0129 117.185 54.0129L82.193 89.4827L116.205 47.9454C117.255 46.5419 110.677 34.4626 107.667 33.3454L77.1541 86.1312L104.308 28.388C103.639 26.1563 94.6339 18.6281 90.1712 18.6827L71.5554 83.7572L85.2023 15.8898C80.5134 12.3987 71.7653 11.5608 68.3361 12.259L65.5422 83.478Z" fill="#FFD500"/>
</svg>
