<svg width="123" height="123" viewBox="0 0 123 123" fill="none" xmlns="http://www.w3.org/2000/svg">
<path d="M61.2919 1.208C94.5902 1.09312 121.677 27.9936 121.792 61.292C121.907 94.5903 95.0062 121.677 61.7079 121.792C28.4096 121.907 1.32289 95.0064 1.20801 61.708C1.09313 28.4097 27.9936 1.32288 61.2919 1.208Z" fill="url(#paint0_linear)" stroke="#141414" stroke-width="0.970483" stroke-linecap="square"/>
<path d="M61.5008 115.637C47.0392 115.637 33.4439 110.007 23.2185 99.7805C12.9925 89.5562 7.36072 75.9594 7.36072 61.5005C7.36072 47.0382 12.9925 33.4434 23.2185 23.2191C33.4439 12.9928 47.0392 7.36196 61.5008 7.36196C75.9623 7.36196 89.5576 12.9928 99.783 23.2191C110.009 33.4434 115.639 47.0382 115.639 61.5005C115.639 75.9594 110.009 89.5542 99.783 99.7805C89.5576 110.007 75.9623 115.637 61.5008 115.637Z" fill="#141414"/>
<path d="M61.5007 111.243C48.2128 111.243 35.721 106.069 26.3258 96.6741C16.9292 87.2786 11.7549 74.7866 11.7549 61.5006C11.7549 48.2131 16.9292 35.7212 26.3258 26.3257C35.721 16.9309 48.2128 11.7554 61.5007 11.7554C74.7887 11.7554 87.2805 16.9309 96.6757 26.3257C106.072 35.7212 111.247 48.2131 111.247 61.5006C111.247 74.7866 106.072 87.2786 96.6757 96.6741C87.2805 106.069 74.7887 111.243 61.5007 111.243Z" fill="white"/>
<path d="M99.2641 85.3977C95.5864 81.9461 90.9498 79.6377 85.8988 78.8314C85.1783 78.7198 84.5256 79.276 84.5256 80.0055C84.5256 80.5993 84.5256 81.243 84.5256 81.839C84.5256 82.384 84.109 83.0019 83.5617 83.0019C83.1653 83.0019 82.7689 83.0127 82.3702 83.0019C80.9617 82.9799 80.7054 81.2497 80.988 80.2309C83.9907 69.4638 84.7247 62.9328 84.6899 58.1776C84.6524 53.1229 84.5256 48.0873 82.2474 41.4206C80.0528 35.0073 78.0487 28.7281 67.4495 19.1306C66.7289 18.4819 66.0017 18.1668 65.0316 18.0967C63.9892 18.0243 63.1369 17.9873 62.0766 17.9873C57.6767 17.9873 53.4298 18.6332 49.4167 19.8376C47.9145 20.2912 48.1399 21.3358 48.9659 22.0479C52.9672 25.4709 58.3927 30.6159 62.1361 37.0421C59.7659 37.2719 57.9548 35.9537 56.4324 34.4948C51.4297 29.7334 46.2211 26.3383 42.0836 24.0148C41.3631 23.6117 40.6532 23.4429 39.9394 23.8528C35.3791 26.5049 32.3063 28.9994 28.6858 33.1985C28.0701 33.9122 28.4688 34.4685 29.071 34.7881C33.0291 36.8867 39.2273 40.8682 44.9113 46.0396C43.7529 47.014 41.9171 46.6945 39.2559 45.2994C34.1416 42.612 29.2246 41.0656 25.4723 40.0995C24.6688 39.8938 23.8075 40.1192 23.3937 40.838C20.991 45.0124 19.3329 50.0059 18.5488 55.0696C18.3998 56.0424 19.0616 56.9031 20.0316 57.0718C28.7777 58.6025 44.368 62.7136 46.9574 80.6733C47.1805 82.246 45.7501 83.6281 43.8667 82.7434C41.238 81.5121 38.6122 80.2836 35.9858 79.0506C35.7099 78.9233 35.3964 78.814 35.0942 78.814C30.8647 78.814 26.9335 78.814 22.7062 78.814C20.945 78.814 20.22 80.4983 21.3656 81.8104C24.3441 85.2402 27.0759 88.9413 29.4124 92.8645C29.6188 93.2127 29.8554 93.3462 30.2603 93.3462C32.063 93.3462 33.8679 93.3462 35.6684 93.3462C36.0362 93.3462 36.3514 93.2609 36.6693 93.0725C38.3688 92.0756 40.0684 91.0815 41.7724 90.0851C42.0881 89.8967 42.4032 89.9007 42.7716 89.9007C55.8128 89.9007 69.8045 89.9007 83.5354 89.9007C84.0827 89.9007 84.5256 90.2533 84.5256 90.8011C84.5256 91.4689 84.5256 92.1373 84.5256 92.8073C84.5256 93.5368 85.1783 94.0908 85.8988 93.9792C90.9498 93.1729 95.5864 90.8645 99.2641 87.4151C99.849 86.8695 99.849 85.941 99.2641 85.3977" fill="url(#paint1_linear)"/>
<path d="M99.2641 85.3977C95.5864 81.9461 90.9498 79.6377 85.8988 78.8314C85.1783 78.7198 84.5256 79.276 84.5256 80.0055C84.5256 80.5993 84.5256 81.243 84.5256 81.839C84.5256 82.384 84.109 83.0019 83.5617 83.0019C83.1653 83.0019 82.7689 83.0127 82.3702 83.0019C80.9617 82.9799 80.7054 81.2497 80.988 80.2309C83.9907 69.4638 84.7247 62.9328 84.6899 58.1776C84.6524 53.1229 84.5256 48.0873 82.2474 41.4206C80.0528 35.0073 78.0487 28.7281 67.4495 19.1306C66.7289 18.4819 66.0017 18.1668 65.0316 18.0967C63.9892 18.0243 63.1369 17.9873 62.0766 17.9873C57.6767 17.9873 53.4298 18.6332 49.4167 19.8376C47.9145 20.2912 48.1399 21.3358 48.9659 22.0479C52.9672 25.4709 58.3927 30.6159 62.1361 37.0421C59.7659 37.2719 57.9548 35.9537 56.4324 34.4948C51.4297 29.7334 46.2211 26.3383 42.0836 24.0148C41.3631 23.6117 40.6532 23.4429 39.9394 23.8528C35.3791 26.5049 32.3063 28.9994 28.6858 33.1985C28.0701 33.9122 28.4688 34.4685 29.071 34.7881C33.0291 36.8867 39.2273 40.8682 44.9113 46.0396C43.7529 47.014 41.9171 46.6945 39.2559 45.2994C34.1416 42.612 29.2246 41.0656 25.4723 40.0995C24.6688 39.8938 23.8075 40.1192 23.3937 40.838C20.991 45.0124 19.3329 50.0059 18.5488 55.0696C18.3998 56.0424 19.0616 56.9031 20.0316 57.0718C28.7777 58.6025 44.368 62.7136 46.9574 80.6733C47.1805 82.246 45.7501 83.6281 43.8667 82.7434C41.238 81.5121 38.6122 80.2836 35.9858 79.0506C35.7099 78.9233 35.3964 78.814 35.0942 78.814C30.8647 78.814 26.9335 78.814 22.7062 78.814C20.945 78.814 20.22 80.4983 21.3656 81.8104C24.3441 85.2402 27.0759 88.9413 29.4124 92.8645C29.6188 93.2127 29.8554 93.3462 30.2603 93.3462C32.063 93.3462 33.8679 93.3462 35.6684 93.3462C36.0362 93.3462 36.3514 93.2609 36.6693 93.0725C38.3688 92.0756 40.0684 91.0815 41.7724 90.0851C42.0881 89.8967 42.4032 89.9007 42.7716 89.9007C55.8128 89.9007 69.8045 89.9007 83.5354 89.9007C84.0827 89.9007 84.5256 90.2533 84.5256 90.8011C84.5256 91.4689 84.5256 92.1373 84.5256 92.8073C84.5256 93.5368 85.1783 94.0908 85.8988 93.9792C90.9498 93.1729 95.5864 90.8645 99.2641 87.4151C99.849 86.8695 99.849 85.941 99.2641 85.3977" stroke="#141414" stroke-width="1.13899"/>
<path d="M68.8955 79.5278C64.8802 79.5278 61.6303 76.2757 61.6303 72.2673C61.6303 68.255 64.8802 65.0046 68.8955 65.0046C72.9013 65.0046 76.1563 68.255 76.1563 72.2673C76.1563 76.2757 72.9013 79.5278 68.8955 79.5278ZM95.5908 86.4008C92.8332 84.1519 89.9264 82.6974 86.3956 81.9657C86.076 81.9001 85.9207 82.0229 85.9207 82.3515C85.9207 82.4126 85.9207 82.4675 85.9207 82.5286C85.9207 83.396 85.0532 84.4059 84.1813 84.4059C83.4193 84.4059 82.6483 84.4059 81.888 84.4059C79.9518 84.4059 78.2237 82.8112 78.9403 80.2505C87.226 50.6805 77.9674 32.3967 66.2758 22.1617C63.0999 19.3868 62.8151 19.2332 59.6498 19.3538C57.1552 19.448 54.231 19.7547 51.7582 20.3546C51.2721 20.4729 50.8667 20.8587 51.5087 21.3975C57.5101 26.4544 65.5329 35.1716 69.3704 48.7399C69.5022 49.2109 69.2235 49.1784 68.8647 49.198C65.428 49.406 64.2696 47.3012 63.1958 45.9628C55.4052 36.2666 46.6703 30.3687 40.1323 26.4937C39.4818 26.104 39.3764 26.1107 38.8813 26.4C36.2532 27.9179 33.3027 30.3401 31.2241 32.5436C30.7907 33.0101 30.9 33.2288 31.3794 33.485C37.2933 36.6546 46.2867 42.8986 54.6448 53.4862C55.164 54.1411 55.1994 54.4433 54.9056 54.6166C53.298 55.5737 50.6149 55.5602 47.6756 53.7296C39.7072 48.7595 31.6138 45.24 25.2816 43.4155C24.607 43.2187 24.4887 43.258 24.2129 43.8361C22.6686 47.0819 20.9865 51.3006 20.3798 54.958C20.303 55.4358 20.2615 55.4728 20.7039 55.5625C38.1299 59.1022 47.6908 68.6604 48.7814 81.4381C48.972 83.6545 46.4645 85.7897 43.9693 85.0013C41.2599 84.1407 38.6295 83.1746 35.9179 82.3161C35.6269 82.2197 35.3331 82.1782 35.0241 82.1782C31.2791 82.176 27.529 82.1739 23.7794 82.1739C23.2798 82.1739 22.9866 82.4874 23.4834 83.1159C26.3133 86.6948 27.9585 88.7229 29.9535 92.0697C30.1576 92.4179 30.3937 92.5513 30.8036 92.5513C32.179 92.5513 33.5589 92.5491 34.9411 92.5491C35.4884 92.5491 35.9571 92.4224 36.4326 92.142C37.9331 91.2634 39.4246 90.4442 40.9251 89.5639C41.4023 89.2836 41.8099 89.1148 42.3617 89.1148C55.9681 89.1105 70.5513 89.1148 84.155 89.1126C85.0224 89.1126 85.9207 90.1269 85.9207 91.0004C85.9207 91.0991 85.9207 91.2 85.9207 91.301C85.9207 91.629 86.076 91.7518 86.3956 91.6884C89.9264 90.9567 92.8332 89.2617 95.5908 87.0122C95.8404 86.8064 95.8404 86.609 95.5908 86.401" fill="#42BD3B"/>
<path d="M76.4664 71.4387C77.1216 75.9181 74.0218 80.0747 69.5422 80.7299C65.0665 81.3846 60.906 78.29 60.2507 73.8106C59.5955 69.3312 62.6947 65.1702 67.1704 64.5155C71.6499 63.8603 75.8111 66.9593 76.4664 71.4387Z" fill="url(#paint2_linear)"/>
<path d="M69.6723 64.5293L67.2087 80.7424C70.738 81.2449 74.3172 79.3788 75.8424 75.9586C77.6862 71.8239 75.8307 66.9846 71.6994 65.1425C71.0356 64.8465 70.3573 64.6404 69.6723 64.5293Z" fill="url(#paint3_linear)"/>
<path d="M75.2754 72.4142C75.2754 75.4431 72.8161 77.9051 69.7804 77.9051C66.7469 77.9051 64.2915 75.4431 64.2915 72.4142C64.2915 69.3786 66.7469 66.9188 69.7804 66.9188C72.8161 66.9188 75.2754 69.3786 75.2754 72.4142Z" fill="white" stroke="#141414" stroke-width="1.13899"/>
<defs>
<linearGradient id="paint0_linear" x1="61.7087" y1="122.006" x2="61.2912" y2="0.993769" gradientUnits="userSpaceOnUse">
<stop stop-color="#99A2A7"/>
<stop offset="0.47584" stop-color="#98A3A8"/>
<stop offset="0.535243" stop-color="#E6E6E6"/>
<stop offset="1" stop-color="#E6E6E6"/>
</linearGradient>
<linearGradient id="paint1_linear" x1="19.2003" y1="92.6547" x2="99.3434" y2="19.3228" gradientUnits="userSpaceOnUse">
<stop stop-color="#151313"/>
<stop offset="0.085001" stop-color="#151313"/>
<stop offset="0.127798" stop-color="#F8F1F1"/>
<stop offset="0.228741" stop-color="#151313"/>
<stop offset="0.304102" stop-color="#141414"/>
<stop offset="0.381742" stop-color="#F8F1F1"/>
<stop offset="0.449694" stop-color="#151313"/>
<stop offset="0.565496" stop-color="#F8F1F4"/>
<stop offset="0.626805" stop-color="#141414"/>
<stop offset="0.787047" stop-color="#F8F1F1"/>
<stop offset="1" stop-color="#F8F1F2"/>
</linearGradient>
<linearGradient id="paint2_linear" x1="68.418" y1="71.0974" x2="76.1206" y2="81.1681" gradientUnits="userSpaceOnUse">
<stop stop-color="#151313"/>
<stop offset="0.162563" stop-color="#CCC4C4"/>
<stop offset="0.496139" stop-color="#B7ACAD"/>
<stop offset="1" stop-color="#151313"/>
</linearGradient>
<linearGradient id="paint3_linear" x1="70.2579" y1="69.9721" x2="58.7664" y2="74.6407" gradientUnits="userSpaceOnUse">
<stop stop-color="#151313"/>
<stop offset="0.25" stop-color="#CCC4C4"/>
<stop offset="0.5" stop-color="#B7ACAD"/>
<stop offset="1" stop-color="#151313"/>
</linearGradient>
</defs>
</svg>
