<svg width="417" height="122" viewBox="0 0 417 122" fill="none" xmlns="http://www.w3.org/2000/svg">
<path d="M404.44 52.0625C404.013 55.7227 401.802 58.3572 400.421 61.6152C399.908 62.8219 400.014 64.2346 399.416 65.1346C399.049 65.6826 398.733 66.0396 398.411 66.6429C398.135 67.1608 397.678 67.2563 397.406 67.6485C397.281 67.8295 397.572 68.5183 397.406 68.654C397.341 68.7093 396.944 68.5836 396.904 68.654C396.799 68.84 397.06 69.5339 396.904 69.6596C396.844 69.7098 396.432 69.5992 396.402 69.6596C396.316 69.8406 396.547 70.5444 396.402 70.6651C395.99 71.002 396.055 71.0472 395.899 71.6707C395.899 71.6707 395.442 73.1438 395.397 73.179C394.683 73.7622 394.638 76.3565 393.89 77.7039C393.744 77.9704 393.417 77.6386 393.387 78.2067C393.382 78.3173 393.442 78.6139 393.387 78.7095C393.206 79.0363 392.543 79.4284 392.382 79.715C392.282 79.901 392.538 80.5949 392.382 80.7206C391.97 81.0574 392.036 81.1027 391.88 81.7261C391.88 81.7261 391.418 83.1992 391.378 83.2344C391.041 83.511 390.443 84.6573 389.87 85.7483C389.077 87.2616 388.102 88.7398 387.358 90.2732C386.951 91.1078 386.71 92.0329 386.354 92.7871C385.796 93.9636 385.128 94.6725 384.846 95.8037C384.625 96.6836 384.078 97.3774 383.842 98.3176C383.776 98.579 383.977 99.0969 383.842 99.3232C383.706 99.5544 382.942 99.6248 382.837 99.8259C382.53 100.404 382.621 100.821 382.334 101.334C382.189 101.601 381.862 101.269 381.832 101.837C381.812 102.264 381.068 102.948 380.827 103.345C380.134 104.472 379.446 107.252 378.315 108.876C377.597 108.579 377.014 108.735 376.306 108.373C375.994 108.212 375.567 107.498 375.301 107.368C374.607 107.021 374 107.227 373.291 106.865C372.99 106.709 372.543 105.98 372.286 105.859C371.754 105.613 371.01 105.678 370.277 105.356C370.005 105.236 369.488 104.426 369.272 104.351C368.222 103.974 367.659 104.446 366.76 103.848C366.202 103.476 365.71 103.285 365.253 102.843C365.142 102.737 363.901 102.134 363.243 101.837C362.409 101.46 361.661 101.063 360.731 100.831C359.746 100.585 359.4 100.761 358.722 100.329C358.229 100.017 357.933 100.007 357.214 99.8259C356.697 99.6952 356.139 99.0768 355.205 98.8204C354.893 98.7349 354.511 98.9008 354.2 98.8204C353.557 98.6595 352.22 98.1969 350.683 97.8148C348.005 97.1461 343.876 94.753 340.635 93.7927C338.188 93.0636 335.571 93.0837 333.099 92.2843C332.928 92.229 333.089 91.8067 332.597 91.7816C331.522 91.7263 331.215 91.2335 330.085 90.776C328.547 90.1526 327.236 89.6347 325.061 89.2677C324.739 89.2124 324.372 89.3481 324.056 89.2677C322.056 88.77 317.836 87.0354 315.013 86.2511C314.701 86.1656 314.319 86.3315 314.008 86.2511C313.34 86.0852 311.26 85.0595 309.989 84.7427C308.708 84.426 307.226 84.5366 305.97 84.24C305.864 84.2148 305.909 83.7623 305.467 83.7372C302.327 83.5713 299.242 82.0177 295.922 81.2233C294.841 80.9669 294.429 81.1027 292.907 80.7206C292.39 80.5898 290.079 79.9212 288.385 79.715C287.727 79.6346 287.034 79.8005 286.376 79.715C285.331 79.5742 284.296 79.4938 282.357 79.2122C281.578 79.0966 281.488 78.8251 280.849 78.7095C279.036 78.3877 277.001 78.4531 275.825 77.7039C275.012 77.1861 271.947 76.3515 270.299 76.1956C267.435 75.9241 264.587 76.7688 261.758 76.6984C259.568 76.6431 257.332 75.9492 255.227 75.6928C252.946 75.4163 250.881 75.4415 248.701 75.1901C248.812 75.1901 248.379 74.7325 248.193 74.6873C247.425 74.4962 246.475 74.7577 245.681 74.6873C245.219 74.6471 244.923 74.084 244.174 74.1845C243.767 74.2398 243.672 74.7325 243.169 74.6873C241.24 74.5163 239.05 73.8175 237.141 73.6817C231.78 73.3047 227.253 73.6516 222.069 73.179C214.965 72.5354 206.323 73.1388 198.456 73.179C192.035 73.2142 185.69 73.1237 179.365 73.6817C173.858 74.1694 168.689 74.1594 162.785 74.6873C161.816 74.7728 161.399 75.185 160.776 75.1901C158.56 75.2102 156.46 74.5063 154.245 74.6873C153.878 74.7175 153.682 75.0945 153.24 75.1901C152.757 75.2956 152.215 75.0895 151.733 75.1901C150.381 75.4666 149.241 75.718 148.216 76.1956C147.829 76.3766 147.774 76.9799 147.211 77.2012C146.925 77.3168 146.508 77.1257 146.206 77.2012C145.674 77.3369 144.82 77.5682 143.192 77.7039C142.875 77.7291 142.493 77.6285 142.187 77.7039C141.534 77.8699 139.419 78.4128 137.665 78.7095C134.42 79.2625 131.285 79.6849 128.12 80.2178C127.798 80.2731 127.431 80.1373 127.115 80.2178C125.462 80.6301 121.724 81.2636 119.077 81.7261C117.891 81.9323 116.6 81.9976 115.56 82.2289C115.464 82.249 115.489 82.7115 115.057 82.7317C113.213 82.8272 110.616 83.6115 108.526 84.24C107.893 84.431 106.863 85.0343 106.014 85.2455C105.06 85.4818 104.718 85.2254 103.502 85.7483C103.236 85.8639 102.698 86.6834 102.497 86.7538C101.613 87.0505 101.151 87.0253 100.488 87.2566C99.8295 87.4829 99.5482 87.6136 98.9805 87.7594C97.8752 88.046 96.6041 87.9504 95.4637 88.2622C95.328 88.2973 95.4285 88.7398 94.9613 88.7649C93.4038 88.8454 92.8864 89.4085 91.4445 89.7705C86.536 90.9972 80.5776 92.4653 75.3677 94.2954C75.1818 94.3608 75.3727 94.7731 74.8653 94.7982C74.7296 94.8032 74.4834 94.7479 74.3629 94.7982C73.8655 94.9993 73.559 95.125 72.8557 95.301C72.4487 95.4015 72.4839 95.7635 72.3533 95.8037C71.3133 96.1004 70.007 95.9194 68.8364 96.3065C68.6606 96.3669 68.8314 96.7841 68.334 96.8093C67.2438 96.8646 66.9725 97.3825 65.822 97.8148C61.1849 99.5595 55.3771 101.545 50.2476 103.345C49.5242 103.597 48.6399 104.125 47.7356 104.351C46.7811 104.587 46.4394 104.331 45.2236 104.854C44.9121 104.989 44.475 105.744 44.2188 105.859C43.3848 106.236 42.8573 105.985 42.2092 106.362C41.8927 106.548 41.4858 107.217 41.2044 107.368C40.3604 107.825 39.3003 108.549 38.19 108.373C37.4012 107.574 36.8787 106.362 36.1804 105.356C35.9845 105.075 35.7082 105.437 35.678 104.854C35.668 104.698 35.2912 104.024 35.1756 103.848C34.9696 103.541 34.3316 103.129 34.1708 102.843C33.8392 102.259 34.0151 101.621 33.6684 100.831C33.5277 100.515 32.7842 100.087 32.6636 99.8259C32.332 99.122 32.5229 98.5238 32.1612 97.8148C32.0055 97.5081 31.277 97.0707 31.1564 96.8093C30.8248 96.1054 31.0157 95.5071 30.654 94.7982C30.5083 94.5116 29.7547 94.034 29.6492 93.7927C29.3076 92.9983 29.393 92.4 29.1468 91.7816C28.2927 89.6247 27.1322 86.3315 26.1324 83.7372C25.9465 83.2545 25.9314 82.4099 25.63 81.7261C25.4994 81.4295 24.7257 80.9619 24.6252 80.7206C24.1881 79.6698 24.1077 78.1665 23.6204 77.2012C23.5099 76.9799 22.696 76.8844 22.6156 76.6984C22.495 76.4319 22.7613 75.9442 22.6156 75.6928C22.4197 75.361 21.7816 74.9839 21.6108 74.6873C21.5003 74.5013 21.7665 73.8125 21.6108 73.6817C20.9426 73.1337 20.7065 72.812 20.1036 71.6707C17.8981 67.5027 15.6573 63.4051 15.0796 58.5986C13.2056 57.1204 12.6329 54.3451 12.0652 51.5597C12.9745 50.6246 14.6023 50.4134 16.0844 50.0514C16.8179 49.423 17.5414 49.2168 18.5964 48.5431C19.1641 48.1811 19.6414 47.98 20.1036 47.5376C20.5105 47.1454 20.9376 47.2007 21.6108 47.0348C22.1433 46.899 21.8319 46.6778 22.1132 46.532C23.0326 46.0644 24.0022 45.5315 25.1276 45.0237C25.836 44.7019 26.4288 44.8829 27.1372 44.5209C27.4085 44.3802 27.9159 43.6009 28.142 43.5154C28.9358 43.2037 29.5537 43.1986 30.1516 43.0126C30.9554 42.7663 31.3322 42.7763 32.1612 42.5098C32.327 42.4545 32.1713 42.0322 32.6636 42.0071C33.7588 41.9518 33.9146 41.6954 34.6732 41.5043C35.4519 41.3082 35.9141 41.3082 36.6828 41.0015C37.2455 40.7753 38.7326 40.1066 39.6972 39.4932C40.1896 39.1815 40.486 39.1714 41.2044 38.9904C41.6365 38.8849 41.5461 38.5379 41.7068 38.4877C42.9628 38.0854 44.4097 38.2765 45.726 37.9849C45.8215 37.9648 45.7964 37.5073 46.2284 37.4821C48.223 37.3765 50.5842 36.6525 52.7596 35.9738C52.835 35.9487 52.9204 35.5565 53.262 35.471C53.9403 35.3001 54.9802 35.2096 55.774 34.9683C56.9848 34.6012 58.1805 34.3348 59.2908 33.9627C59.738 33.8119 60.6373 33.7415 61.3004 33.4599C62.255 33.0577 62.5665 32.0471 63.8124 31.4488C64.7921 30.9762 64.9077 31.303 66.3244 30.9461C66.8369 30.8204 67.4247 30.2724 68.334 29.9405C69.1831 29.6288 69.9216 29.1663 70.8461 28.935C71.6248 28.7389 72.087 28.7389 72.8557 28.4322C73.353 28.2311 73.6595 28.1054 74.3629 27.9294C74.8351 27.8138 75.6189 27.6529 76.3725 27.4267C76.8397 27.2859 77.2115 27.0898 77.8797 26.9239C78.4022 26.7932 80.457 26.3105 81.8989 25.9183C82.0345 25.8832 81.934 25.4407 82.4013 25.4156C84.3154 25.315 86.3099 24.3799 88.4301 23.9073C89.681 23.6257 91.0325 23.7011 92.4493 23.4045C93.8058 23.1179 94.7905 22.8162 96.4685 22.3989C96.6694 22.3487 97.1166 21.8962 96.9709 21.8962C97.3778 21.8962 99.2869 22.8766 100.99 22.3989C102.688 22.59 103.135 21.5291 104.004 20.8906C105.899 20.5035 106.406 21.504 108.024 21.3934C110.094 20.5286 112.364 20.0309 114.555 19.3823C116.72 18.7438 118.855 17.7835 121.086 17.3712C123.473 16.9338 126.412 17.1701 129.125 16.8684C129.622 16.8131 130.255 16.4461 131.134 16.3657C134.159 16.0942 138.54 15.883 142.187 15.3601C142.719 15.2847 143.277 14.9227 144.197 14.8573C146.814 14.6713 149.979 14.5155 152.737 13.8518C153.893 13.5753 155.465 13.2988 157.761 13.349C158.304 13.3591 158.078 13.8166 158.264 13.8518C158.384 13.8769 159.696 13.4194 160.273 13.349C162.564 13.0675 165.001 12.0016 167.307 11.8407C169.819 11.6647 172.371 12.4591 174.843 12.3435C177.204 12.2329 182.379 10.8352 182.379 10.8352C182.379 10.8352 191.894 10.257 196.949 10.3324C200.41 10.3827 203.656 10.8251 206.997 10.8352C208.845 10.8402 210.981 10.438 213.025 10.3324C214.432 10.262 218.858 11.0312 219.557 10.3324C221.762 8.12522 228.67 9.8799 232.619 10.3324C233.272 10.4078 233.981 10.2168 234.629 10.3324C235.789 10.5385 235.267 10.6743 236.638 10.3324C238.256 9.92515 241.095 10.6542 243.169 10.8352C245.305 11.0212 246.616 10.9206 248.696 11.3379C248.857 11.3681 249.61 11.2223 249.701 11.3379C250.736 12.5999 254.222 11.2122 256.734 11.8407C257.317 11.9865 257.684 12.2329 259.246 12.3435C259.558 12.3636 259.945 12.2681 260.251 12.3435C260.688 12.4541 262.748 13.158 264.27 13.349C265.099 13.4546 265.124 12.8362 265.772 12.8463C265.561 12.8463 266.154 13.3189 266.28 13.349C267.305 13.6054 269.44 13.706 270.796 13.8518C270.681 13.8518 271.128 14.3093 271.304 14.3546C272.726 14.7115 276.875 13.8619 278.84 14.3546C278.84 14.3546 280.312 14.8121 280.347 14.8573C280.674 15.2596 280.131 15.8227 280.849 15.8629C281.266 15.883 281.653 16.5768 282.357 16.3657C282.814 16.6774 284.532 15.9534 284.869 16.3657C285.668 17.341 290.008 16.6824 292.405 16.8684C294.083 16.9992 295.685 17.693 297.429 17.874C299.182 18.06 301.302 17.6276 302.955 17.874C304.533 18.1103 305.859 18.9348 307.477 19.3823C307.788 19.4678 308.17 19.3019 308.482 19.3823C309.813 19.7141 313.129 20.8705 315.515 21.3934C316.681 21.6498 317.801 21.6046 319.032 21.8962C319.951 22.1124 321.082 22.6503 322.046 22.9017C324.287 23.4799 326.548 23.7866 328.578 24.41C328.648 24.4301 328.738 24.8273 329.08 24.9128C331.451 25.5061 334.717 26.7178 337.621 27.4267C339.324 27.844 340.901 27.8993 342.645 28.4322C342.715 28.4523 342.811 28.8495 343.147 28.935C344.207 29.2015 345.84 29.4931 347.166 29.9405C348.985 30.5539 351.201 31.1422 352.693 32.4544C354.521 32.6806 356.451 32.1477 358.219 32.4544C358.269 32.4644 358.325 32.9371 358.722 32.9572C359.018 32.9722 360.088 33.299 360.731 33.4599C361.173 33.5705 361.59 33.8018 362.238 33.9627C363.429 34.2593 365.524 35.8582 367.262 36.4766C367.559 36.5822 367.961 36.4012 368.267 36.4766C368.709 36.5872 369.126 36.8185 369.774 36.9793C372.131 37.5676 375.989 39.1614 379.32 39.996C379.717 40.0965 379.702 40.4686 379.822 40.4988C381.39 40.9261 382.832 40.8306 383.842 41.5043C384.073 41.6551 384.213 41.9266 384.344 42.0071C384.776 42.2786 385.319 42.2082 385.851 42.5098C386.168 42.6908 386.575 43.3646 386.856 43.5154C387.966 44.1137 389.79 44.3852 391.378 45.0237C391.739 45.1695 392.423 45.2751 392.885 45.5265C393.176 45.6823 393.638 46.4164 393.89 46.532C394.829 46.9594 395.97 47.1102 396.904 47.5376C397.2 47.6733 397.663 48.4375 397.909 48.5431C398.185 48.6638 398.617 48.4677 398.914 48.5431C399.356 48.6537 399.773 48.885 400.421 49.0459C401.531 49.3224 403.616 50.4838 404.44 52.0625ZM390.875 61.1124C391.428 60.2829 391.478 59.3376 391.378 58.0958C390.835 57.5025 389.554 56.8137 389.368 56.5875C389.222 56.4115 388.042 56.2054 387.861 56.0847C386.524 55.1898 385.047 55.1747 383.339 55.5819C382.304 54.5915 380.742 53.6412 379.822 53.0681C379.692 52.9876 379.551 52.7161 379.32 52.5653C378.717 52.1631 378.3 52.1128 377.31 52.0625C376.924 52.0424 376.843 51.5648 376.808 51.5597C375.08 51.2832 371.849 51.8363 371.282 52.0625C371.161 52.1128 370.915 52.0575 370.779 52.0625C370.247 52.0927 370.493 52.4748 370.277 52.5653C368.388 53.3396 367.926 53.41 366.76 54.5764C365.554 55.783 365.223 56.5724 364.75 57.593C364.625 57.8695 364.258 58.3623 364.248 58.5986C364.223 59.0863 363.796 58.9354 363.746 59.1013C363.509 59.8505 363.866 60.8359 363.746 61.6152C363.71 61.6152 363.319 61.8766 363.243 62.118C363.128 62.5051 363.228 63.219 363.243 63.6263C363.303 65.1949 364.193 66.5977 364.248 67.6485C364.278 68.1864 364.655 67.925 364.75 68.1512C365.378 69.6143 365.961 70.9366 366.76 72.1734C366.81 72.2488 367.187 72.1131 367.262 72.1734C367.428 72.3092 367.127 73.003 367.262 73.179C367.443 73.4203 368.076 73.4203 368.267 73.6817C368.664 74.2348 368.89 74.994 369.272 75.6928C369.307 75.7632 369.709 75.6375 369.774 75.6928C369.92 75.8135 369.689 76.5174 369.774 76.6984C369.805 76.7587 370.216 76.6481 370.277 76.6984C370.407 76.804 370.222 77.528 370.277 77.7039C370.292 77.7542 370.734 77.6637 370.779 77.7039C371.407 78.2168 370.297 80.3234 370.779 80.7206C369.393 82.4954 366.227 82.4954 365.253 80.2178C363.942 78.9458 366.328 76.2258 364.75 74.6873C364.213 73.3801 361.771 73.9834 361.234 72.6762C359.435 72.465 358.551 71.3388 356.21 71.6707C356.084 73.0382 355.431 73.6214 355.205 74.1845C355.155 74.3052 355.21 74.5515 355.205 74.6873C355.18 75.1951 354.768 75.004 354.702 75.1901C354.235 76.5174 354.25 78.3073 353.698 79.715C353.677 79.715 353.266 80.1072 353.195 80.2178C351.929 82.2088 350.553 85.2656 351.186 87.2566C352.251 89.2074 355.938 88.5337 357.214 90.2732C359.289 90.7961 359.164 88.6342 360.229 88.7649C360.54 88.8051 361.344 90.3436 362.238 91.2788C362.48 91.5302 362.525 92.0179 362.741 92.2843C362.876 92.4502 363.57 92.1436 363.746 92.2843C364.7 93.0536 365.092 94.2351 366.258 94.2954C366.76 94.3206 366.579 94.7379 366.76 94.7982C367.84 95.1652 369.659 95.3211 370.779 95.301C371.643 95.2859 373.382 95.13 374.296 94.7982C374.346 94.7781 374.256 94.3457 374.296 94.2954C374.417 94.1496 375.12 94.3809 375.301 94.2954C375.361 94.2653 375.251 93.853 375.301 93.7927C375.431 93.6368 376.12 93.9033 376.306 93.7927C376.512 93.667 376.592 92.948 376.808 92.7871C377.27 92.4402 377.913 92.6413 378.315 92.2843C379.642 91.1028 381.551 87.8851 381.832 86.7538C381.993 86.1053 382.224 85.688 382.334 85.2455C383.957 78.7497 381.194 74.6119 378.818 71.1679C378.31 70.4338 377.331 69.5741 377.31 69.1568C377.26 68.1663 375.848 67.9954 375.803 67.1457C375.773 66.5776 375.446 66.9094 375.301 66.6429C374.472 65.1497 374.221 64.114 374.798 62.6208C375.492 62.6409 375.904 62.3844 376.306 62.118C379.596 62.0124 379.451 65.3357 379.822 68.1512C382.852 68.3071 383.942 70.3986 387.358 70.1623C387.665 68.1211 389.092 67.206 388.866 64.6318C389.896 63.6967 390.463 61.7308 390.875 61.1124ZM369.272 46.0293C369.342 45.7578 369.292 45.3053 369.272 45.0237C369.237 44.5612 368.971 44.0684 368.77 43.5154C368.282 42.173 366.866 40.5591 365.755 40.4988C365.328 40.4786 365.338 40.0161 365.253 39.996C363.841 39.6943 362.027 40.4284 361.736 40.4988C360.334 40.8507 359.967 41.3082 359.224 42.5098C357.908 44.6366 358.274 45.3002 358.722 47.5376C359.113 47.6482 359.304 47.9599 359.224 48.5431C360.42 48.8548 361.565 49.2168 361.736 50.5542C361.48 52.6457 358.33 51.8363 358.219 54.0736C359.751 55.5568 361.47 54.7674 362.238 54.5764C363.298 54.3099 363.188 54.2546 363.746 53.5708C363.876 53.41 364.57 53.6865 364.75 53.5708C365.328 53.1988 368.237 49.5889 368.267 49.0459C368.292 48.523 368.689 48.7493 368.77 48.5431C368.991 47.975 368.649 47.1354 368.77 46.532C368.78 46.4817 369.187 46.3711 369.272 46.0293ZM352.693 56.5875C354.305 53.0027 355.572 49.0761 356.21 44.5209C351.743 43.4601 347.865 41.811 343.147 41.0015C342.183 42.3842 341.967 44.5109 341.64 46.532C340.505 47.5728 340.072 49.3174 339.63 51.057C339.48 52.3793 341.58 51.4542 341.138 53.0681C339.058 53.6714 338.957 56.2506 336.616 56.5875C336.274 54.5814 335.345 53.1686 335.611 50.5542C336.777 50.7151 337.54 50.4738 338.123 50.0514C338.59 46.4968 340.726 44.6114 340.635 40.4988C338.997 39.1413 336.721 39.1614 334.606 38.4877C331.883 37.6229 329.236 36.0542 326.066 36.4766C325.196 40.1317 323.78 43.2389 323.554 47.5376C323.538 49.061 326.081 48.0253 326.066 49.5487C326.884 52.3139 327.583 54.8881 328.075 57.593C328.221 58.4075 328.623 59.9963 328.578 60.6097C328.487 61.8213 327.442 63.0531 327.07 64.1291C326.563 65.6072 326.472 66.8088 326.066 68.1512C324.483 68.4026 324.101 67.0552 323.051 68.1512C321.77 71.0573 320.393 73.8728 320.539 78.2067C325.036 80.2429 330.426 81.3842 335.611 82.7317C336.681 81.4647 337.56 79.8407 338.123 78.2067C338.605 76.804 338.54 75.6727 339.128 75.1901C339.756 74.6772 338.646 72.5706 339.128 72.1734C338.972 70.9919 336.747 71.8768 337.118 70.1623C337.138 69.6596 337.093 69.1568 337.118 68.654C337.143 68.1764 337.576 68.3021 337.621 68.1512C337.852 67.3719 337.842 66.1351 338.123 65.6374C338.334 65.2653 339.309 64.9536 339.63 64.6318C340.942 63.3196 342.047 61.5599 343.147 60.6097C343.333 60.4488 343.926 60.7102 344.152 60.6097C344.288 60.5493 344.504 59.7298 344.654 59.6041C346.177 58.3371 347.794 57.402 349.176 56.5875C350.347 56.5875 351.522 56.5875 352.693 56.5875ZM321.042 47.0348C321.273 44.3399 320.122 42.6104 320.037 41.0015C319.987 40.0764 319.072 39.7144 319.032 38.9904C318.982 38.0653 317.937 37.819 317.525 37.4821C317.354 37.3413 317.68 36.6375 317.525 36.4766C317.279 36.2151 316.289 36.1799 316.018 35.9738C315.651 35.6922 315.455 35.2699 315.013 34.9683C314.199 34.4102 313.325 33.8722 312.501 33.4599C311.385 32.9019 309.426 32.0622 308.984 31.9516C308.336 31.7907 307.919 31.5595 307.477 31.4488C306.829 31.288 306.412 31.0567 305.97 30.9461C302.639 30.1115 299.82 29.4629 296.926 28.935C295.258 28.6283 293.379 28.2361 292.405 28.4322C292.179 33.0678 290.566 36.3107 289.893 40.4988C290.4 40.368 290.224 40.7853 290.395 41.0015C291.204 42.0171 293.013 41.5395 293.409 42.5098C292.661 48.1258 291.46 53.2993 290.395 58.5986C290.028 59.7399 286.918 58.136 287.381 60.1069C286.316 60.67 287.009 61.8465 286.878 62.6208C286.793 63.1185 286.466 63.209 286.376 63.6263C286.27 64.109 286.456 64.6519 286.376 65.1346C286.084 66.8591 284.889 68.8099 285.874 70.1623C287.165 71.3187 288.843 70.8511 290.395 71.1679C290.43 71.1729 290.365 71.6304 290.395 71.6707C290.48 71.7762 291.249 71.6505 291.4 71.6707C292.224 71.7712 292.505 71.6857 292.907 72.1734C292.993 72.279 293.761 72.1533 293.912 72.1734C294.736 72.274 295.017 72.1885 295.419 72.6762C295.535 72.817 296.243 72.6058 296.424 72.6762C297.65 73.1689 299.082 73.913 300.443 73.6817C301.865 72.7667 301.076 70.3584 301.95 69.1568C301.95 67.1457 302.955 66.1402 302.955 64.1291C302.669 62.5705 300.267 63.1336 300.945 60.6097C301.744 60.2376 300.83 58.1461 302.453 58.5986C304.131 58.4176 304.166 60.4287 304.462 61.6152C304.764 62.8168 304.794 64.7626 304.965 66.1402C305.347 69.2171 305.246 72.6712 306.472 74.6873C308.004 75.7884 310.024 75.7582 311.998 76.1956C313.867 76.6079 315.776 77.4576 318.027 77.2012C318.64 75.6375 319.198 74.0136 319.032 71.6707C320.117 70.7456 320.087 68.7043 320.037 66.6429C319.168 65.8335 316.932 66.4016 316.52 65.1346C315.942 62.5252 314.967 60.3231 314.51 57.593C315.425 56.1601 317.268 55.6624 318.53 54.5764C319.087 52.8117 319.655 52.5955 320.037 51.057C320.303 50.0012 320.941 48.1811 321.042 47.0348ZM248.193 36.9793C249.133 33.0627 248.525 27.5926 248.696 22.9017C240.15 22.0721 231.087 21.7554 222.069 21.3934C222.044 22.0369 221.426 22.0872 221.566 22.9017C222.013 27.1501 219.878 29.9556 221.064 33.4599C221.933 34.2694 224.169 33.7013 224.581 34.9683C224.43 40.3479 223.405 44.8528 223.576 50.5542C222.857 50.6749 222.727 51.3838 222.069 51.5597C221.179 51.6754 219.552 51.052 220.059 52.5653C219.32 55.6825 219.295 59.5086 219.054 63.1235C221.868 63.6816 225.555 63.933 227.595 64.1291C228.715 64.2346 229.991 64.0185 231.112 64.1291C231.901 64.2095 232.87 64.5966 233.624 64.6318C236.081 64.7475 238.387 64.5514 240.657 64.6318C243.024 64.7173 245.169 65.9541 247.189 64.6318C248.163 63.0079 247.51 60.7907 247.691 58.5986C247.922 55.8132 248.872 52.9323 248.193 51.057C245.837 50.2274 242.32 50.5693 239.653 50.0514C239.542 50.7704 238.814 50.8961 238.648 51.5597C238.256 53.1284 239.256 54.8931 237.141 54.5764C233.96 54.4205 236.246 51.5598 235.633 48.5431C236.819 47.8845 239.105 48.332 240.155 47.5376C239.778 44.4757 240.959 42.9774 240.657 39.996C239.336 39.1413 236.352 39.9457 235.131 38.9904C236.523 37.8693 234.488 33.3192 236.638 32.9572C237.221 33.3795 237.985 33.6208 239.15 33.4599C239.15 34.6314 239.15 35.8079 239.15 36.9793C242.155 38.1106 244.677 36.738 248.193 36.9793ZM139.675 67.6485C140.182 65.8888 139.489 63.6967 139.173 61.6152C138.826 59.3477 138.318 57.2109 138.168 55.0792C137.188 53.9228 134.932 56.0445 133.646 54.5764C132.978 49.2118 131.792 44.3651 131.134 38.9904C132.651 38.6687 134.033 38.2061 134.149 36.4766C133.018 33.5856 133.149 29.4327 132.139 26.4211C129.049 26.0038 126.19 27.3814 123.598 27.9294C121.794 28.3115 119.237 28.7339 118.574 28.935C118.112 29.0758 117.534 28.8193 117.067 28.935C116.273 29.1311 115.771 29.3724 115.057 29.9405C114.495 34.194 116.971 35.3956 116.564 39.4932C117.77 40.9161 119.604 38.7994 120.584 39.996C120.478 42.1277 122.382 44.8729 121.086 46.0293C120.945 44.7522 119.594 43.6863 118.574 42.5098C117.665 41.459 116.585 40.6144 115.56 39.4932C115.097 38.9904 114.54 38.5932 114.052 37.9849C113.62 37.4419 113.54 36.5671 113.048 35.9738C112.706 35.5565 111.973 34.9783 111.54 34.4655C111.038 33.8622 110.435 32.8114 110.033 32.4544C109.717 32.1728 108.838 32.1628 108.526 31.9516C107.873 31.5042 108.159 31.1271 107.019 30.9461C106.326 30.8355 105.517 31.2125 104.507 31.4488C103.03 31.7958 101.829 32.0421 101.492 32.4544C101.407 32.56 100.638 32.4343 100.488 32.4544C98.4731 32.6957 97.7195 32.741 96.4685 33.4599C96.157 38.2966 97.7546 41.2227 97.9757 45.5265C98.4982 46.6778 101.563 45.2902 101.995 46.532C103.326 51.233 104.371 56.2154 105.009 61.6152C104.562 62.847 102.206 62.1582 102.497 64.1291C103.025 67.9602 103.387 71.9522 105.009 74.6873C110.4 73.546 116.233 72.8471 121.086 71.1679C121.006 66.7234 119.267 63.938 118.574 60.1069C117.333 60.1722 116.153 60.1823 115.56 59.6041C115.831 57.6232 114.027 54.7976 115.057 54.0736C115.771 54.5864 116.333 54.7725 117.067 55.5819C117.65 56.2255 117.961 57.412 118.574 58.0958C119.509 59.1416 121.026 59.8756 121.589 60.6097C121.89 61.0018 121.759 61.7258 122.091 62.118C122.548 62.6559 123.578 62.9978 124.101 63.6263C124.417 64.0034 124.332 64.7776 124.603 65.1346C125.166 65.8737 126.231 66.2357 126.613 66.6429C126.954 67.01 126.773 67.7641 127.115 68.1512C129.436 70.7757 131.38 69.3227 134.651 68.654C136.264 68.3272 138.082 68.644 139.675 67.6485ZM101.995 75.6928C102.407 73.8627 101.608 71.6254 101.492 71.1679C101.312 70.4489 101.302 70.1523 100.99 69.6596C99.5331 67.372 100.362 63.8576 98.4781 61.6152C95.5692 62.3895 92.5598 63.0682 89.9373 64.1291C90.1181 66.8943 91.143 69.0261 87.9277 69.1568C86.6114 67.9602 86.6767 65.381 85.9181 63.6263C86.9178 62.9526 88.3095 62.666 89.4349 62.118C89.6157 58.7494 88.3798 56.8037 87.9277 54.0736C85.2097 53.5306 84.9334 55.4361 82.4013 55.0792C82.5671 52.9524 79.417 48.4878 83.4061 48.5431C85.4408 48.518 83.9989 51.972 86.4205 51.5597C89.0983 50.7201 91.8062 49.9107 93.9565 48.5431C92.8512 43.9478 91.6806 39.4278 89.9373 35.471C88.3698 35.1744 87.169 35.6721 86.9229 35.9738C86.8224 36.0995 86.0889 35.9235 85.9181 35.9738C84.0793 36.4917 82.9439 37.0145 81.3965 37.4821C79.4371 38.0704 76.0559 38.6536 75.3677 39.4932C75.2672 39.6189 74.5337 39.4429 74.3629 39.4932C73.7298 39.6742 73.2978 39.8703 72.8557 39.996C70.5295 40.6546 68.535 40.72 66.3244 41.5043C65.3046 41.8663 64.6866 42.2585 63.8124 43.0126C64.8122 46.703 65.4955 50.7151 66.8268 54.0736C68.4747 54.8931 68.746 53.958 70.8461 54.0736C72.097 59.5287 73.971 64.3553 74.8653 70.1623C74.4181 71.3941 72.0619 70.7053 72.3533 72.6762C72.8958 76.3213 74.192 79.2173 74.8653 82.7317C76.2318 83.4707 77.7742 82.3797 78.3821 82.2289C79.0502 82.063 79.422 81.8669 79.8893 81.7261C80.6429 81.4999 81.4266 81.339 81.8989 81.2233C82.2154 81.1429 82.5922 81.3038 82.9037 81.2233C87.2193 80.0921 91.1129 78.8151 94.9613 77.7039C97.413 77.0001 99.7341 76.5073 101.995 75.6928Z" fill="black"/>
<path d="M135.651 5.80758C135.57 5.80758 135.952 5.36012 136.158 5.30481C137.484 4.97298 140.182 5.07353 142.187 4.80204C142.619 4.7417 143.016 4.38976 143.694 4.29926C153.24 3.03731 164.383 2.09209 175.345 1.28263C179.877 0.945771 184.705 1.00108 189.413 0.779856C190.226 0.739634 190.267 0.357527 190.92 0.277084C196.089 -0.346354 202.309 0.277084 208.001 0.277084C219.647 0.277084 230.268 0.478193 241.16 1.28263C246.646 1.68987 252.102 1.74518 257.237 2.28817C257.739 2.34348 258.352 2.72559 259.246 2.79095C268.013 3.41941 278.413 4.89254 287.381 6.31036C300.147 8.32647 311.26 10.6191 323.051 13.3492C324.232 13.6207 325.322 14.0782 326.568 14.3547C327.638 14.591 328.995 14.5759 330.085 14.8575C330.21 14.8877 330.13 15.3351 330.587 15.3603C330.723 15.3653 330.969 15.31 331.09 15.3603C333.245 16.22 337.304 17.0697 340.133 17.8741C341.233 18.1858 341.168 18.0099 342.645 18.3769C343.288 18.5378 344.624 19.0003 346.162 19.3824C346.604 19.4931 347.021 19.7243 347.669 19.8852C348.111 19.9958 348.528 20.2271 349.176 20.388C349.648 20.5036 350.432 20.6645 351.186 20.8908C351.653 21.0315 352.025 21.2276 352.693 21.3935C353.095 21.4941 353.07 21.8611 353.195 21.8963C354.331 22.2131 355.607 22.0572 356.712 22.3991C356.873 22.4494 356.732 22.8767 357.214 22.9019C357.35 22.9069 357.596 22.8516 357.717 22.9019C358.214 23.103 358.521 23.2287 359.224 23.4046C359.666 23.5152 360.083 23.7465 360.731 23.9074C361.173 24.018 361.59 24.2493 362.238 24.4102C363.856 24.8174 367.001 26.1598 369.272 26.924C371.447 27.6531 373.738 28.1709 375.803 28.9351C375.999 29.0105 375.793 29.4128 376.306 29.4379C376.441 29.4429 376.687 29.3876 376.808 29.4379C377.305 29.639 377.612 29.7647 378.315 29.9407C378.878 30.0814 380.491 30.9613 381.832 31.449C382.882 31.8311 384.314 32.0372 385.349 32.4545C385.5 32.5149 385.444 32.8568 385.851 32.9573C386.148 33.0327 386.58 32.8366 386.856 32.9573C387.147 33.083 387.625 33.8673 387.861 33.9628C388.69 34.2947 389.232 34.2142 389.87 34.4656C390.674 34.7874 391.614 34.9684 392.885 35.4712C393.036 35.5315 392.985 35.8734 393.387 35.9739C394.166 36.17 394.628 36.17 395.397 36.4767C395.874 36.6678 396.517 37.1152 397.406 37.4823C398.311 37.8543 399.557 38.1157 400.421 38.4878C400.647 38.5833 400.386 38.9604 400.923 38.9906C401.697 39.0308 404.244 40.7 405.445 41.0017C406.495 41.2631 407.073 41.6 407.957 42.0072C408.7 42.3491 409.831 42.3994 410.971 43.0128C411.293 43.1887 411.695 43.8675 411.976 44.0183C412.921 44.5261 413.528 44.3853 414.488 45.0238C415.302 45.5668 416.096 46.3311 417 47.5377C416.9 48.7796 416.618 50.122 415.995 51.0571C415.875 51.2381 415.669 52.4196 415.493 52.5654C415.081 52.9023 415.146 52.9475 414.99 53.571C414.99 53.571 414.528 55.0441 414.488 55.0793C414.428 55.1296 414.016 55.019 413.986 55.0793C413.9 55.2603 414.131 55.9642 413.986 56.0848C413.925 56.1351 413.513 56.0245 413.483 56.0848C413.398 56.2658 413.629 56.9697 413.483 57.0904C413.212 57.3166 412.418 58.5585 411.976 59.6043C411.901 59.7853 412.117 60.4942 411.976 60.6098C411.916 60.6601 411.504 60.5495 411.474 60.6098C411.388 60.7908 411.619 61.4947 411.474 61.6153C410.147 62.7013 409.087 66.3917 407.957 68.6542C407.098 70.3736 405.987 72.9428 404.942 75.1902C404.561 76.0148 403.48 77.3521 403.435 78.2068C403.43 78.3476 403.078 79.3934 402.933 79.7152C402.556 80.5447 401.471 81.8721 401.426 82.7318C401.421 82.8726 401.069 83.9183 400.923 84.2401C400.813 84.4814 399.974 85.0647 399.918 85.2457C399.788 85.6831 400.104 86.3367 399.918 86.754C399.768 87.0959 399.074 87.4729 398.914 87.7595C398.813 87.9455 399.069 88.6394 398.914 88.7651C398.431 89.1572 397.406 91.0225 396.904 92.2845C396.834 92.4655 397.045 93.1744 396.904 93.29C396.276 93.8028 395.075 96.3318 394.392 97.815C393.041 100.756 391.996 103.335 390.373 106.865C389.991 107.694 388.911 109.022 388.866 109.882C388.825 110.6 388.087 110.988 387.861 111.893C387.625 112.833 387.353 113.853 386.856 114.909C386.74 115.151 386.384 114.859 386.354 115.412C386.349 115.528 386.409 115.819 386.354 115.915C386.173 116.242 385.51 116.634 385.349 116.92C385.248 117.106 385.505 117.8 385.349 117.926C384.394 118.71 382.792 120.183 379.848 119.439C379.978 119.439 379.305 118.922 379.32 118.931C379.139 118.811 377.958 118.605 377.813 118.429C377.441 117.971 376.903 117.649 376.306 117.423C376.13 117.358 375.411 117.559 375.301 117.423C375.256 117.368 375.361 116.945 375.301 116.92C375.12 116.84 374.412 117.061 374.296 116.92C374.246 116.86 374.356 116.448 374.296 116.418C374.115 116.332 373.412 116.563 373.291 116.418C372.919 115.96 372.382 115.638 371.784 115.412C371.608 115.347 370.89 115.548 370.779 115.412C370.734 115.357 370.839 114.934 370.779 114.909C370.598 114.829 369.89 115.05 369.774 114.909C369.724 114.849 369.835 114.437 369.774 114.406C369.594 114.321 368.89 114.552 368.77 114.406C368.433 113.994 368.388 114.06 367.765 113.904C367.765 113.904 366.293 113.446 366.258 113.401C366.067 113.17 364.122 112.114 363.243 111.893C362.248 111.646 361.746 111.143 360.731 110.887C359.736 110.641 359.234 110.138 358.219 109.882C356.556 109.464 354.672 108.62 352.693 107.87C352.517 107.805 351.798 108.006 351.688 107.87C351.648 107.82 351.738 107.388 351.688 107.368C350.301 106.865 349.256 106.89 347.669 106.362C347.493 106.302 347.664 105.884 347.166 105.859C346.368 105.819 344.378 104.814 343.147 104.351C342.971 104.286 342.253 104.487 342.142 104.351C341.419 103.471 339.369 103.426 337.621 102.843C337.445 102.782 337.616 102.365 337.118 102.34C336.927 102.33 334.878 102.169 334.606 101.837C334.059 101.168 331.913 100.862 330.587 100.329C330.406 100.258 329.698 100.47 329.582 100.329C329.14 99.7909 326.834 99.1674 325.563 98.8205C325.397 98.7753 324.659 98.9412 324.558 98.8205C324.061 98.2122 321.951 97.8753 320.539 97.3122C320.358 97.2418 319.65 97.453 319.534 97.3122C318.947 96.5932 315.847 96.2916 314.008 95.8039C313.978 95.7938 313.812 95.3765 313.505 95.3011C311.501 94.7983 308.708 94.3458 305.969 93.7928C305.894 93.7777 305.889 93.3101 305.467 93.29C303.131 93.1694 300.694 92.3901 297.931 91.7817C296.997 91.5756 295.891 91.475 294.917 91.2789C294.841 91.2638 294.836 90.7963 294.414 90.7762C292.872 90.6957 292.616 90.6153 290.897 90.2734C290.737 90.2432 289.983 90.389 289.893 90.2734C289.491 89.7857 289.209 89.8712 288.385 89.7706C288.235 89.7505 287.466 89.8762 287.381 89.7706C286.692 88.926 285.029 90.0773 284.366 89.2678C283.964 88.7802 283.683 88.8656 282.859 88.7651C282.708 88.745 281.94 88.8707 281.854 88.7651C281.166 87.9204 279.503 89.0718 278.84 88.2623C278.152 87.4176 276.489 88.569 275.825 87.7595C275.192 86.9853 271.846 87.0556 269.797 86.754C269.344 86.6886 268.993 86.3266 268.289 86.2512C267.124 86.1305 265.692 85.9345 264.27 85.7484C247.671 83.5563 228.313 82.229 208.504 82.229C164.232 82.229 127.868 88.3779 92.4493 98.8205C81.1 102.169 69.7558 105.995 58.7884 110.384C58.6076 110.455 57.8992 110.244 57.7836 110.384C57.4118 110.842 56.8743 111.164 56.2764 111.39C56.1006 111.455 55.3821 111.254 55.2716 111.39C55.2314 111.44 55.3218 111.872 55.2716 111.893C54.4075 112.209 53.5634 112.064 52.7596 112.395C52.5084 112.501 51.9407 113.346 51.7548 113.401C51.3077 113.537 50.6746 113.225 50.2476 113.401C50.0266 113.491 50.2777 113.874 49.7452 113.904C49.0268 113.944 48.6399 114.683 47.7356 114.909C46.7961 115.146 45.7762 115.417 44.7212 115.915C44.48 116.03 44.7714 116.387 44.2188 116.418C44.0882 116.423 43.832 116.367 43.7164 116.418C40.3654 117.881 36.5924 120.44 34.1708 119.937C32.5782 119.605 31.7542 118.333 30.654 116.418C30.3425 115.88 30.4078 115.402 30.1516 114.909C28.6092 111.908 25.9616 105.769 24.6252 102.843C24.2584 102.043 24.0122 101.184 23.6204 100.329C23.5098 100.088 22.6708 99.5043 22.6156 99.3233C22.485 98.8909 22.8065 98.2222 22.6156 97.815C22.4598 97.4731 21.7715 97.096 21.6108 96.8094C21.5103 96.6234 21.7665 95.9296 21.6108 95.8039C21.5505 95.7536 21.1435 95.8692 21.1084 95.8039C21.0129 95.6179 21.2591 94.924 21.1084 94.7983C21.0481 94.7481 20.6361 94.8587 20.606 94.7983C20.5206 94.6173 20.7517 93.9135 20.606 93.7928C20.1488 93.4207 19.8273 92.8828 19.6012 92.2845C19.5359 92.1085 19.7368 91.3895 19.6012 91.2789C19.5459 91.2337 19.1239 91.3393 19.0988 91.2789C19.0184 91.0979 19.2394 90.389 19.0988 90.2734C19.0385 90.2231 18.6265 90.3337 18.5964 90.2734C18.511 90.0924 18.7421 89.3885 18.5964 89.2678C18.1141 88.8757 17.0892 87.0104 16.5868 85.7484C16.5164 85.5674 16.7274 84.8585 16.5868 84.7429C15.9588 84.2301 13.9492 80.7257 13.5724 79.2124C13.3362 78.2722 13.0649 77.2516 12.5676 76.1958C12.452 75.9544 12.0953 76.246 12.0652 75.693C12.0601 75.5673 12.1154 75.3058 12.0652 75.1902C11.9546 74.9438 11.1156 74.3657 11.0604 74.1847C10.9247 73.7422 11.2362 73.1037 11.0604 72.6763C10.9699 72.4551 10.5881 72.7065 10.558 72.1736C10.5529 72.0328 10.2013 70.987 10.0556 70.6653C9.89982 70.3234 9.21153 69.9463 9.05076 69.6597C8.95028 69.4737 9.2065 68.7799 9.05076 68.6542C8.99549 68.6089 8.57348 68.7145 8.54836 68.6542C8.18663 67.8246 8.39764 66.9045 8.04596 66.1403C7.89021 65.7984 7.20192 65.4213 7.04116 65.1348C6.94068 64.9487 7.1969 64.2549 7.04116 64.1292C6.14688 63.3952 5.42343 60.8964 4.52915 59.1015C3.70522 57.4524 2.32864 54.5765 1.51475 52.5654C1.03747 51.3889 0.715933 50.8007 0.509949 50.0516C0.394397 49.6343 0.0577883 49.5538 0.00754827 49.046C-0.108004 47.8846 1.1279 46.2003 2.01715 45.5266C2.51453 45.1495 4.13226 44.2445 5.03155 44.0183C5.32797 43.9429 5.76003 44.139 6.03636 44.0183C6.35789 43.8826 6.77991 43.1385 7.04116 43.0128C8.50817 42.3139 10.6182 41.8011 12.5676 41.0017C12.8188 40.8961 13.3865 40.0514 13.5724 39.9961C14.0145 39.8604 14.6575 40.1771 15.0796 39.9961C15.3308 39.8905 15.8985 39.0459 16.0844 38.9906C16.5215 38.8599 17.1746 39.1766 17.5916 38.9906C17.9332 38.8397 18.31 38.1459 18.5964 37.985C18.7823 37.8845 19.4756 38.1409 19.6012 37.985C19.9378 37.5728 19.983 37.6381 20.606 37.4823C21.4902 37.261 23.6857 36.0443 25.1276 35.4712C36.9139 30.7803 50.5691 25.9285 63.31 21.8963C65.2895 21.2678 67.3393 20.9662 69.3388 20.388C69.3941 20.3729 69.5147 19.9657 69.8412 19.8852C70.7908 19.6489 71.1676 19.5634 71.8508 19.3824C74.1569 18.764 76.704 18.1305 79.3868 17.3714C79.5577 17.3211 80.2912 17.497 80.3916 17.3714C80.9895 16.6373 83.3156 16.3155 84.9132 15.863C85.0841 15.8128 85.8176 15.9887 85.9181 15.863C86.4204 15.2497 89.3394 14.8072 90.9421 14.3547C91.1129 14.3044 91.8464 14.4804 91.9469 14.3547C92.3186 13.9022 93.8861 13.6659 95.4637 13.3492C95.9409 13.2536 96.2474 12.9218 96.9709 12.8464C99.0809 12.6252 101.784 11.9263 104.507 11.3381C106.195 10.9761 107.049 10.7297 109.028 10.3325C109.189 10.3024 109.943 10.4482 110.033 10.3325C110.063 10.2973 109.998 9.83479 110.033 9.82976C111.139 9.60854 112.44 9.54318 113.55 9.32699C114.585 9.12588 115.53 9.01527 116.564 8.82422C119.458 8.29631 121.724 7.75834 124.603 7.3159C124.924 7.26562 125.296 7.39634 125.608 7.3159C126.155 7.18015 126.628 7.02429 128.12 6.81313C128.27 6.79302 129.039 6.91871 129.124 6.81313C129.752 6.04389 133.556 6.11427 135.651 5.80758ZM408.459 51.5599C408.595 51.2683 409.348 50.9264 408.962 50.0516C407.796 49.2069 406.821 48.1712 404.942 48.0405C400.461 45.2199 394.935 43.9429 389.87 41.5044C389.604 41.3787 389.092 41.0117 388.866 41.0017C387.75 40.9413 388.167 40.0665 386.856 39.9961C386.308 39.966 386.59 39.5989 386.354 39.4933C385.61 39.1515 385.088 39.2772 384.344 38.9906C382.224 38.1711 380.375 37.0851 378.315 36.4767C376.863 36.0494 375.256 35.9991 373.794 35.4712C372.854 35.1293 372.251 34.4355 371.282 33.9628C370.272 33.4701 369.207 33.4098 368.267 32.9573C366.705 32.2031 364.866 30.8909 363.746 30.4434C362.731 30.0362 362.394 30.001 361.234 29.9407C360.812 29.9206 360.812 29.453 360.731 29.4379C357.953 28.8647 355.054 29.0508 352.19 28.4324C350.226 28.01 348.246 26.9844 346.162 26.4213C344.775 26.0442 342.625 25.5364 342.142 25.4157C340.741 25.0638 340.163 25.295 339.128 24.9129C338.917 24.8375 338.379 24.0431 338.123 23.9074C337.626 23.6409 337.013 23.5906 336.616 23.4046C335.762 23.0074 335.089 22.5197 334.606 22.3991C333.958 22.2382 333.541 22.0069 333.099 21.8963C332.451 21.7354 332.034 21.5041 331.592 21.3935C330.944 21.2326 330.527 21.0014 330.085 20.8908C329.381 20.7148 329.075 20.5891 328.578 20.388C328.457 20.3377 328.211 20.393 328.075 20.388C327.643 20.3679 327.663 19.9053 327.573 19.8852C325.563 19.4478 323.091 19.8752 321.042 19.3824C319.574 19.0305 317.334 17.6982 316.52 17.3714C315.505 16.9641 314.179 16.6373 313.003 16.3658C307.803 15.1642 301.83 15.6016 296.424 14.8575C295.273 14.7016 294.213 14.0882 292.907 13.8519C290.018 13.3291 287.386 13.4095 284.869 12.8464C283.658 12.5749 282.533 11.9565 281.352 11.8409C278.212 11.5291 275.002 12.0721 271.806 11.8409C270.872 11.7705 270.681 11.4537 269.797 11.3381C268.068 11.1118 267.295 11.4587 266.782 10.8353C266.697 10.7297 265.928 10.8554 265.777 10.8353C260.447 10.1968 256.322 8.77897 251.71 8.32145C249.856 8.13542 248.113 8.54267 246.184 8.32145C244.32 8.11028 242.526 6.9539 240.657 6.81313C239.899 6.7528 239.633 7.23043 239.15 7.3159C236.92 7.70806 234.593 7.40137 232.619 7.3159C228.268 7.12485 224.39 6.7176 220.059 6.81313C219.16 6.83324 218.301 7.3159 217.547 7.3159C216.607 7.3159 215.583 6.82821 214.533 6.81313C210.021 6.73771 205.233 6.36063 201.47 6.81313C200.817 6.89357 200.777 7.27568 199.963 7.3159C195.652 7.51701 191.528 7.48182 187.403 7.81867C180.827 8.35664 174.336 8.54267 168.814 8.82422C167.136 8.90969 165.338 8.71361 164.293 8.82422C163.624 8.89461 163.192 9.29682 162.785 9.32699C157.807 9.71413 151.622 9.43257 148.216 10.3325C146.241 10.8554 143.95 11.2476 142.187 11.3381C141.79 11.3582 141.735 11.8308 141.685 11.8409C138.399 12.409 133.601 12.7559 131.636 13.3492C131.219 13.4749 130.566 13.3291 130.129 13.3492C128.532 13.4246 127.572 13.7162 127.115 13.8519C126.296 14.0983 126.06 13.8017 125.608 14.3547C125.492 14.4955 124.784 14.2843 124.603 14.3547C122.794 15.0787 120.805 15.0536 118.574 15.3603C116.951 15.5815 115.625 16.0692 114.052 16.3658C108.235 17.4568 102.261 18.6786 96.4685 19.8852C94.283 20.3427 92.6904 20.8003 90.9421 20.8908C90.51 20.9159 90.5351 21.3734 90.4397 21.3935C87.8473 21.9667 85.4659 21.8963 82.9036 22.3991C81.3814 22.6957 78.367 23.7867 77.8796 23.9074C77.1763 24.0834 76.8698 24.2091 76.3724 24.4102C76.2519 24.4604 76.0057 24.4051 75.87 24.4102C75.3526 24.4353 75.5686 24.8375 75.3676 24.9129C74.2975 25.3101 72.9963 25.476 71.8508 25.9185C69.6604 26.7631 67.6457 27.9296 65.3196 28.4324C63.4557 28.8346 60.2303 29.2016 59.2908 29.4379C58.9944 29.5133 58.5623 29.3172 58.286 29.4379C58.0449 29.5435 57.5726 30.2976 57.2812 30.4434C56.7235 30.7149 56.2111 30.725 55.774 30.9462C55.3218 31.1775 55.6132 31.4037 54.7692 31.449C54.2467 31.4741 54.4778 31.8713 54.2668 31.9518C53.1866 32.3791 51.9055 32.0473 50.75 32.4545C50.0969 32.6858 50.1974 33.1735 49.7452 33.4601C49.1373 33.8472 48.3988 33.7115 47.7356 33.9628C47.5246 34.0433 47.7055 34.35 47.2332 34.4656C46.5851 34.6265 46.1681 34.8578 45.726 34.9684C45.0779 35.1293 44.6609 35.3606 44.2188 35.4712C40.4709 36.4114 37.8283 36.7935 35.1756 38.4878C33.7588 38.518 32.4325 38.4074 30.654 38.9906C30.4681 39.0509 29.8853 39.8704 29.6492 39.9961C28.3831 40.6799 27.5994 40.4838 26.6348 41.0017C26.3534 41.1525 25.9616 41.8463 25.63 42.0072C24.796 42.4195 23.4395 42.6357 22.6156 43.0128C22.3594 43.1284 21.9223 43.8826 21.6108 44.0183C20.3749 44.5613 19.4153 44.3149 18.5964 44.5211C18.1543 44.6317 18.2899 44.9333 18.094 45.0238C17.2399 45.421 16.5667 45.9087 16.0844 46.0294C15.381 46.2054 15.0745 46.3311 14.5772 46.5322C13.8085 46.8389 13.3463 46.8389 12.5676 47.0349C12.1656 47.1355 12.2159 47.4774 12.0652 47.5377C10.0053 48.3522 9.19143 48.3673 8.54836 50.5543C7.99572 52.4347 8.98042 53.6766 9.55316 54.5765C9.98522 55.2553 10.5328 56.1452 10.558 56.5876C10.5982 57.3921 11.9044 59.3529 12.0652 59.6043C12.9444 60.9818 13.0398 63.0935 13.07 65.1348C14.4013 65.9593 15.8432 68.2017 16.0844 69.1569C16.1547 69.4335 15.9537 69.9161 16.0844 70.1625C16.2351 70.444 16.9133 70.8412 17.0892 71.168C17.3806 71.711 17.3404 72.2389 17.5916 72.6763C18.1543 73.6568 18.6667 74.1545 19.0988 75.1902C19.2143 75.4718 19.0234 75.8991 19.0988 76.1958C19.3249 77.1007 19.8373 77.9957 20.1036 78.7096C20.7517 80.4442 21.2189 81.1682 21.6108 82.7318C21.7715 83.3753 22.5854 83.6267 22.6156 84.2401C22.6608 85.1099 23.8364 85.6378 24.1228 86.2512C24.4644 86.9903 24.2886 87.5484 24.6252 88.2623C24.7458 88.5237 24.997 88.2522 25.1276 88.7651C25.3034 89.4689 25.429 89.7756 25.63 90.2734C26.052 91.3342 26.2781 92.013 26.6348 92.7872C26.7604 93.0638 27.1271 93.5615 27.1372 93.7928C27.1673 94.3358 27.5341 94.0643 27.6396 94.2956C28.1269 95.3866 28.1822 96.7793 28.6444 97.815C28.6494 97.8301 29.0513 98.1669 29.1468 98.3177C29.82 99.3736 30.026 100.098 30.654 100.832C30.1265 102.737 32.1763 104.12 32.6636 104.854C32.7791 105.03 33.1559 105.703 33.166 105.859C33.1961 106.427 33.5277 106.101 33.6684 106.362C34.2863 107.498 34.1406 108.941 34.6732 109.882C34.8189 110.138 35.4569 110.636 35.678 110.887C36.2608 111.556 36.105 111.621 37.1852 111.893C38.5517 112.234 41.1039 111.189 41.7068 110.887C42.174 110.656 42.385 110.027 42.7116 109.882C43.7968 109.389 44.686 109.389 45.726 108.876C45.9923 108.745 46.4243 108.036 46.7308 107.87C47.2031 107.614 47.8662 107.524 48.238 107.368C49.3885 106.885 50.1873 106.588 50.75 106.362C51.7598 105.96 53.0108 105.613 53.7644 105.357C54.8044 105 55.9046 104.587 56.2764 104.351C56.5829 104.155 56.9798 103.969 57.2812 103.848C58.5071 103.366 59.2255 103.069 59.7932 102.843C59.9138 102.792 60.16 102.848 60.2956 102.843C60.8282 102.813 60.582 102.43 60.798 102.34C64.0837 100.993 67.073 100.475 70.3436 99.3233C72.4989 98.5641 75.4279 96.91 77.3772 96.8094C77.8646 96.7843 77.7189 96.3569 77.8796 96.3067C79.1708 95.9044 80.668 95.6581 81.8988 95.3011C84.7424 94.4715 87.4956 93.9989 89.9373 93.29C91.2636 92.9079 91.8414 92.5308 92.4493 92.2845C92.5698 92.2342 92.816 92.2895 92.9517 92.2845C93.4541 92.2593 93.2682 91.8471 93.4541 91.7817C94.8507 91.294 96.2675 91.1231 97.4733 90.7762C97.5235 90.7611 97.4331 90.3136 97.4733 90.2734C97.7295 90.017 99.1061 90.3589 99.4829 90.2734C99.5231 90.2633 99.4477 89.8058 99.4829 89.7706C99.7491 89.5041 101.106 89.8712 101.492 89.7706C101.538 89.7606 101.452 89.3081 101.492 89.2678C101.744 89.0165 103.13 89.3483 103.502 89.2678C104.401 89.0818 105.672 88.398 106.014 88.2623C106.135 88.212 106.381 88.2673 106.516 88.2623C107.039 88.2372 106.808 87.84 107.019 87.7595C107.742 87.4729 109.059 88.026 109.028 86.754C110.455 86.7188 111.651 86.7992 112.545 86.754C112.937 86.7339 113.007 86.2562 113.048 86.2512C117.122 85.5875 122.247 84.4513 125.105 83.7373C125.422 83.6569 125.794 83.8077 126.11 83.7373C127.753 83.3804 128.873 82.9832 129.627 82.229C130.004 81.8519 130.978 82.762 131.134 82.7318C132.27 82.5055 133.571 81.9274 134.651 81.7262C136.022 81.4698 137.228 81.4196 138.67 81.2235C143.825 80.5196 149.331 79.9716 154.245 79.7152C154.616 79.6951 154.732 79.2124 154.747 79.2124C156.832 78.9308 159.007 78.9158 160.776 78.7096C161.263 78.6543 161.087 78.2772 161.278 78.2068C161.74 78.0309 162.228 78.7146 162.283 78.7096C162.69 78.6795 162.72 78.2219 162.785 78.2068C163.318 78.1013 163.835 78.7599 164.795 78.7096C165.111 78.6945 165.353 78.2018 165.297 78.2068C168.236 78.0108 170.834 78.418 171.829 77.2013C172.065 76.9097 173.929 77.2868 174.341 77.2013C175.843 76.8896 177.335 76.3164 178.862 76.1958C180.239 76.0902 181.384 76.7186 182.881 76.6985C182.711 76.6985 183.223 76.246 183.384 76.1958C183.801 76.0701 184.454 76.2159 184.891 76.1958C187.659 76.065 189.312 75.6528 191.422 75.693C192.09 75.7081 192.407 76.1555 193.432 76.1958C195.507 76.2812 195.557 75.5572 197.451 75.693C199.26 75.8237 198.988 76.1656 199.461 75.693C199.667 75.4868 201.149 75.7081 201.47 75.693C208.705 75.3461 214.663 75.2153 221.064 75.693C223.455 75.8689 225.359 75.8991 226.59 76.1958C228.7 76.7036 228.64 76.2863 230.107 76.1958C230.393 76.1756 230.835 76.1254 231.112 76.1958C232.524 76.5477 234.382 76.5577 236.136 76.6985C238.783 76.9147 241.602 77.5834 244.174 77.7041C246.335 77.8046 247.179 77.0002 248.696 77.2013C249.053 77.2466 249.163 77.699 249.198 77.7041C249.59 77.7845 249.741 77.2013 249.701 77.2013C250.208 77.2214 250.288 77.6085 250.705 77.7041C252.027 78.0158 253.398 77.6186 254.222 77.7041C254.911 77.7745 255.292 78.1566 255.729 78.2068C257.855 78.4633 261.693 78.5186 262.261 79.2124C262.346 79.318 263.115 79.1923 263.265 79.2124C265.953 79.5945 268.958 79.3079 270.299 79.7152C272.108 80.2632 273.308 80.3587 274.821 80.7207C275.8 80.957 276.87 80.9369 277.835 81.2235C279.036 81.5855 279.674 82.0128 280.849 82.229C283.964 82.7972 287.235 82.6564 290.395 83.2346C290.395 83.2446 290.626 83.6519 290.897 83.7373C291.355 83.8781 291.937 83.6368 292.405 83.7373C294.429 84.1597 298.192 85.3714 299.438 85.7484C300.292 86.0048 300.865 86.0199 301.448 86.2512C301.568 86.3015 301.815 86.2462 301.95 86.2512C302.372 86.2713 302.372 86.7389 302.453 86.754C304.02 87.0758 305.799 86.945 307.477 87.2568C310.737 87.8651 314.882 88.9159 317.022 89.7706C317.143 89.8209 317.389 89.7656 317.525 89.7706C318.057 89.8008 317.811 90.1829 318.027 90.2734C318.801 90.5901 319.263 90.5298 320.037 90.7762C321.815 91.3393 324.327 91.9929 325.061 92.2845C325.181 92.3348 325.427 92.2794 325.563 92.2845C326.045 92.3096 325.91 92.737 326.066 92.7872C327.322 93.1694 329.095 93.2397 330.085 93.29C330.562 93.3152 330.436 93.7475 330.587 93.7928C331.843 94.1598 333.174 94.6274 333.602 94.7983C334.591 95.1955 335.877 95.5827 336.616 95.8039C337.998 96.2212 339.676 96.3117 341.138 96.8094C341.213 96.8346 341.349 97.1966 341.64 97.3122C341.76 97.3625 342.007 97.3072 342.142 97.3122C342.645 97.3373 342.459 97.7496 342.645 97.815C343.514 98.1166 344.273 97.9407 345.157 98.3177C345.157 98.3228 345.523 98.7351 345.659 98.8205C346.589 99.4138 347.156 99.7708 348.171 99.8261C348.674 99.8512 348.488 100.263 348.674 100.329C350.593 100.998 353.582 101.078 354.2 101.837C354.315 101.978 355.024 101.767 355.205 101.837C356.31 102.28 357.224 102.591 358.219 102.843C358.596 102.938 358.606 103.305 358.722 103.345C360.269 103.899 362.188 104.215 363.746 104.854C363.801 104.879 363.7 105.301 363.746 105.357C363.891 105.533 365.072 105.739 365.253 105.859C366.222 106.508 367.855 106.407 368.77 106.865C369.041 107.001 369.393 107.649 369.774 107.87C370.875 108.509 371.578 108.846 372.286 109.379C374.668 111.159 377.536 112.059 380.325 112.898C382.128 110.927 382.852 106.412 384.344 104.854C384.726 104.457 385.193 103.964 385.349 103.345C385.53 102.627 385.54 102.33 385.851 101.837C386.67 100.55 387.343 99.2328 387.861 97.815C388.283 96.6536 388.328 95.3765 388.866 94.2956C388.991 94.0392 389.685 93.5716 389.87 93.29C389.986 93.1141 390.363 92.4403 390.373 92.2845C390.403 91.7063 390.694 92.0582 390.875 91.7817C391.533 90.7561 391.629 89.2678 392.885 88.7651C392.91 88.0964 392.85 87.4227 392.885 86.754C392.91 86.3115 393.362 86.3518 393.387 86.2512C393.498 85.7736 393.277 85.2205 393.387 84.7429C393.538 84.0993 394.236 84.1446 394.392 83.7373C394.558 83.2999 394.256 82.6815 394.392 82.229C394.447 82.048 395.286 81.4648 395.397 81.2235C396.397 79.0364 397.617 75.2455 398.914 74.1847C399.049 74.0741 398.848 73.3551 398.914 73.1791C399.14 72.5808 399.461 72.0429 399.918 71.6708C400.074 71.5451 399.818 70.8513 399.918 70.6653C400.079 70.3787 400.772 70.0016 400.923 69.6597C401.255 68.9257 401.099 67.895 401.426 67.1458C401.451 67.0855 401.873 67.1911 401.928 67.1458C402.084 67.0202 401.828 66.3263 401.928 66.1403C402.089 65.8537 402.767 65.4716 402.933 65.1348C403.269 64.446 403.546 63.4002 403.938 62.6209C404.224 62.0578 404.797 61.6958 404.942 61.1126C405.098 60.4891 405.033 60.4439 405.445 60.107C405.621 59.9612 405.827 58.7797 405.947 58.5987C406.62 57.5881 406.435 56.4066 406.952 55.0793C406.972 55.024 407.404 55.1195 407.454 55.0793C407.495 55.0441 407.957 53.571 407.957 53.571C408.113 52.9475 408.047 52.9023 408.459 52.5654C408.605 52.4448 408.374 51.7409 408.459 51.5599Z" fill="black"/>
<path d="M270.796 13.852C269.44 13.7062 267.305 13.6056 266.28 13.3492C266.154 13.3191 265.561 12.8465 265.772 12.8465C265.124 12.8364 265.099 13.4548 264.27 13.3492C262.748 13.1582 260.688 12.4543 260.251 12.3437C259.945 12.2683 259.558 12.3638 259.246 12.3437C257.684 12.2331 257.317 11.9867 256.734 11.8409C254.222 11.2124 250.736 12.6001 249.701 11.3381C249.61 11.2225 248.857 11.3683 248.696 11.3381C246.616 10.9208 245.305 11.0214 243.169 10.8354C241.095 10.6544 238.256 9.92534 236.638 10.3326C235.267 10.6745 235.789 10.5387 234.629 10.3326C233.981 10.217 233.272 10.408 232.619 10.3326C228.67 9.88009 221.762 8.12542 219.557 10.3326C218.858 11.0314 214.432 10.2622 213.025 10.3326C210.981 10.4382 208.845 10.8404 206.997 10.8354C203.656 10.8253 200.41 10.3829 196.949 10.3326C191.894 10.2572 186.031 10.4482 182.379 10.8354C179.993 11.0867 177.204 12.2331 174.843 12.3437C172.371 12.4593 169.819 11.6649 167.307 11.8409C165.001 12.0018 162.564 13.0677 160.273 13.3492C159.696 13.4196 158.384 13.8771 158.264 13.852C158.078 13.8168 158.304 13.3593 157.761 13.3492C155.465 13.2989 153.893 13.5755 152.737 13.852C149.979 14.5157 146.814 14.6715 144.197 14.8575C143.277 14.9229 142.719 15.2849 142.187 15.3603C138.539 15.8832 134.159 16.0944 131.134 16.3659C130.255 16.4463 129.622 16.8133 129.124 16.8686C126.412 17.1703 123.472 16.934 121.086 17.3714C118.855 17.7837 116.72 18.744 114.555 19.3825C112.364 20.0311 110.094 20.5288 108.024 21.3936C106.406 21.5042 105.899 20.5037 104.004 20.8908C103.135 21.5293 102.688 22.5902 100.99 22.3991C99.2869 22.8768 97.3778 21.8964 96.9709 21.8964C97.1166 21.8964 96.6694 22.3489 96.4685 22.3991C94.7904 22.8164 93.8057 23.1181 92.4492 23.4047C91.0325 23.7013 89.681 23.6259 88.43 23.9074C86.3099 24.3801 84.3154 25.3152 82.4012 25.4158C81.934 25.4409 82.0345 25.8833 81.8988 25.9185C80.4569 26.3107 78.4021 26.7934 77.8796 26.9241C77.2114 27.09 76.8397 27.2861 76.3724 27.4269C75.6188 27.6531 74.8351 27.814 74.3628 27.9296C73.6595 28.1056 73.353 28.2313 72.8556 28.4324C72.087 28.7391 71.6247 28.7391 70.846 28.9352C69.9216 29.1665 69.1831 29.629 68.334 29.9407C67.4247 30.2726 66.8369 30.8206 66.3244 30.9463C64.9076 31.3032 64.7921 30.9764 63.8124 31.449C62.5665 32.0473 62.255 33.0579 61.3004 33.4601C60.6372 33.7417 59.7379 33.8121 59.2908 33.9629C58.1805 34.335 56.9848 34.6014 55.774 34.9684C54.9802 35.2098 53.9402 35.3003 53.262 35.4712C52.9204 35.5567 52.835 35.9489 52.7596 35.974C50.5842 36.6527 48.2229 37.3767 46.2284 37.4823C45.7963 37.5074 45.8215 37.965 45.726 37.9851C44.4097 38.2767 42.9628 38.0856 41.7068 38.4879C41.546 38.5381 41.6365 38.885 41.2044 38.9906C40.486 39.1716 40.1895 39.1817 39.6972 39.4934C38.7326 40.1068 37.2455 40.7755 36.6828 41.0017C35.9141 41.3084 35.4519 41.3084 34.6732 41.5045C33.9146 41.6955 33.7588 41.952 32.6636 42.0073C32.1712 42.0324 32.327 42.4547 32.1612 42.51C31.3322 42.7765 30.9554 42.7665 30.1516 43.0128C29.5537 43.1988 28.9358 43.2039 28.142 43.5156C27.9159 43.6011 27.4085 44.3804 27.1372 44.5211C26.4288 44.8831 25.836 44.7021 25.1276 45.0239C24.0022 45.5317 23.0326 46.0646 22.1132 46.5322C21.8318 46.678 22.1433 46.8992 21.6108 47.035C20.9376 47.2009 20.5105 47.1456 20.1036 47.5378C19.6414 47.9802 19.1641 48.1813 18.5964 48.5433C17.5413 49.217 16.8179 49.4232 16.0844 50.0516C14.6023 50.4136 12.9745 50.6248 12.0652 51.5599C12.6329 54.3453 13.2056 57.1206 15.0796 58.5988C15.6573 63.4053 17.898 67.5029 20.1036 71.6709C20.7065 72.8121 20.9426 73.1339 21.6108 73.6819C21.7665 73.8127 21.5002 74.5015 21.6108 74.6875C21.7816 74.9841 22.4196 75.3612 22.6156 75.693C22.7613 75.9444 22.495 76.4321 22.6156 76.6986C22.696 76.8846 23.5098 76.9801 23.6204 77.2013C24.1077 78.1667 24.1881 79.67 24.6252 80.7208C24.7257 80.9621 25.4994 81.4297 25.63 81.7263C25.9314 82.4101 25.9465 83.2547 26.1324 83.7374C27.1322 86.3317 28.2927 89.6249 29.1468 91.7818C29.393 92.4002 29.3075 92.9985 29.6492 93.7928C29.7547 94.0342 30.5083 94.5118 30.654 94.7984C31.0157 95.5073 30.8248 96.1056 31.1564 96.8095C31.277 97.0709 32.0054 97.5083 32.1612 97.815C32.5229 98.5239 32.332 99.1222 32.6636 99.8261C32.7842 100.088 33.5277 100.515 33.6684 100.832C34.015 101.621 33.8392 102.26 34.1708 102.843C34.3316 103.129 34.9696 103.542 35.1756 103.848C35.2911 104.024 35.6679 104.698 35.678 104.854C35.7081 105.437 35.9845 105.075 36.1804 105.357C36.8787 106.362 37.4012 107.574 38.19 108.373C39.3003 108.549 40.3604 107.825 41.2044 107.368C41.4857 107.217 41.8927 106.548 42.2092 106.362C42.8573 105.985 43.3848 106.236 44.2188 105.859C44.475 105.744 44.9121 104.99 45.2236 104.854C46.4394 104.331 46.781 104.587 47.7356 104.351C48.6399 104.125 49.5241 103.597 50.2476 103.346C55.3771 101.546 61.1849 99.5596 65.822 97.815C66.9725 97.3826 67.2438 96.8648 68.334 96.8095C68.8314 96.7843 68.6606 96.367 68.8364 96.3067C70.007 95.9196 71.3133 96.1006 72.3532 95.8039C72.4839 95.7637 72.4487 95.4017 72.8556 95.3012C73.559 95.1252 73.8655 94.9995 74.3628 94.7984C74.4834 94.7481 74.7296 94.8034 74.8652 94.7984C75.3727 94.7733 75.1817 94.361 75.3676 94.2956C80.5775 92.4655 86.536 90.9974 91.4445 89.7707C92.8863 89.4087 93.4038 88.8456 94.9613 88.7651C95.4285 88.74 95.328 88.2975 95.4637 88.2623C96.6041 87.9506 97.8752 88.0462 98.9805 87.7596C99.5482 87.6138 99.8295 87.483 100.488 87.2568C101.151 87.0255 101.613 87.0507 102.497 86.754C102.698 86.6836 103.236 85.8641 103.502 85.7485C104.718 85.2256 105.06 85.482 106.014 85.2457C106.863 85.0345 107.893 84.4312 108.526 84.2402C110.616 83.6117 113.213 82.8274 115.057 82.7318C115.489 82.7117 115.464 82.2492 115.56 82.2291C116.6 81.9978 117.891 81.9324 119.076 81.7263C121.724 81.2637 125.462 80.6303 127.115 80.218C127.431 80.1375 127.798 80.2733 128.12 80.218C131.285 79.685 134.42 79.2627 137.665 78.7097C139.419 78.413 141.534 77.87 142.187 77.7041C142.493 77.6287 142.875 77.7293 143.192 77.7041C144.819 77.5684 145.674 77.3371 146.206 77.2013C146.508 77.1259 146.925 77.317 147.211 77.2013C147.774 76.9801 147.829 76.3768 148.216 76.1958C149.241 75.7182 150.381 75.4668 151.733 75.1903C152.215 75.0897 152.757 75.2958 153.24 75.1903C153.682 75.0947 153.878 74.7177 154.245 74.6875C156.46 74.5065 158.56 75.2104 160.776 75.1903C161.399 75.1852 161.816 74.773 162.785 74.6875C168.689 74.1596 173.858 74.1696 179.365 73.6819C185.69 73.1239 192.035 73.2144 198.456 73.1792C206.323 73.1389 214.965 72.5356 222.069 73.1792C227.253 73.6518 231.78 73.3049 237.141 73.6819C239.05 73.8177 241.24 74.5165 243.169 74.6875C243.672 74.7327 243.767 74.24 244.174 74.1847C244.923 74.0842 245.219 74.6473 245.681 74.6875C246.475 74.7579 247.425 74.4964 248.193 74.6875C248.379 74.7327 248.811 75.1903 248.701 75.1903C250.881 75.4416 252.946 75.4165 255.227 75.693C257.332 75.9494 259.568 76.6433 261.758 76.6986C264.587 76.769 267.435 75.9243 270.299 76.1958C271.947 76.3517 275.012 77.1863 275.825 77.7041C277.001 78.4533 279.036 78.3879 280.849 78.7097C281.488 78.8253 281.578 79.0968 282.357 79.2124C284.296 79.494 285.331 79.5744 286.376 79.7152C287.034 79.8007 287.727 79.6348 288.385 79.7152C290.079 79.9213 292.39 80.59 292.907 80.7208C294.429 81.1029 294.841 80.9671 295.921 81.2235C299.242 82.0179 302.327 83.5715 305.467 83.7374C305.909 83.7625 305.864 84.215 305.969 84.2402C307.225 84.5368 308.708 84.4262 309.989 84.7429C311.26 85.0597 313.34 86.0853 314.008 86.2513C314.319 86.3317 314.701 86.1658 315.013 86.2513C317.836 87.0356 322.056 88.7701 324.056 89.2679C324.372 89.3483 324.739 89.2126 325.061 89.2679C327.236 89.6349 328.547 90.1528 330.085 90.7762C331.215 91.2337 331.522 91.7264 332.597 91.7818C333.089 91.8069 332.928 92.2292 333.099 92.2845C335.571 93.0839 338.188 93.0638 340.635 93.7928C343.876 94.7531 348.005 97.1463 350.683 97.815C352.22 98.1971 353.557 98.6597 354.2 98.8206C354.511 98.901 354.893 98.7351 355.205 98.8206C356.139 99.077 356.697 99.6954 357.214 99.8261C357.933 100.007 358.229 100.017 358.722 100.329C359.4 100.761 359.746 100.585 360.731 100.832C361.661 101.063 362.409 101.46 363.243 101.837C363.901 102.134 365.142 102.737 365.253 102.843C365.71 103.285 366.202 103.476 366.76 103.848C367.659 104.447 368.222 103.974 369.272 104.351C369.488 104.426 370.005 105.236 370.277 105.357C371.01 105.678 371.754 105.613 372.286 105.859C372.543 105.98 372.99 106.709 373.291 106.865C374 107.227 374.607 107.021 375.301 107.368C375.567 107.498 375.994 108.212 376.306 108.373C377.014 108.735 377.597 108.579 378.315 108.876C379.446 107.252 380.134 104.472 380.827 103.346C381.068 102.948 381.812 102.265 381.832 101.837C381.862 101.269 382.189 101.601 382.334 101.334C382.621 100.822 382.53 100.404 382.837 99.8261C382.942 99.625 383.706 99.5546 383.842 99.3233C383.977 99.0971 383.776 98.5792 383.842 98.3178C384.078 97.3776 384.625 96.6838 384.846 95.8039C385.128 94.6727 385.796 93.9638 386.354 92.7873C386.71 92.0331 386.951 91.108 387.358 90.2734C388.102 88.74 389.077 87.2618 389.87 85.7485C390.443 84.6575 391.041 83.5111 391.378 83.2346C391.418 83.1994 391.88 81.7263 391.88 81.7263C392.036 81.1029 391.97 81.0576 392.382 80.7208C392.538 80.5951 392.282 79.9012 392.382 79.7152C392.543 79.4286 393.206 79.0365 393.387 78.7097C393.442 78.6141 393.382 78.3175 393.387 78.2069C393.417 77.6388 393.744 77.9706 393.89 77.7041C394.638 76.3567 394.683 73.7624 395.397 73.1792C395.442 73.144 395.899 71.6709 395.899 71.6709C396.055 71.0474 395.99 71.0022 396.402 70.6653C396.547 70.5446 396.316 69.8408 396.402 69.6598C396.432 69.5994 396.844 69.71 396.904 69.6598C397.06 69.5341 396.798 68.8402 396.904 68.6542C396.944 68.5838 397.341 68.7095 397.406 68.6542C397.572 68.5185 397.281 67.8297 397.406 67.6487C397.678 67.2565 398.135 67.161 398.411 66.6431C398.733 66.0398 399.049 65.6828 399.416 65.1348C400.014 64.2348 399.908 62.8221 400.421 61.6154C401.802 58.3574 404.013 55.7229 404.44 52.0627C403.616 50.484 401.531 49.3226 400.421 49.0461C399.773 48.8852 399.356 48.6539 398.914 48.5433C398.617 48.4679 398.185 48.664 397.909 48.5433C397.663 48.4377 397.2 47.6735 396.904 47.5378C395.97 47.1104 394.829 46.9596 393.89 46.5322C393.638 46.4166 393.176 45.6825 392.885 45.5267C392.423 45.2753 391.739 45.1697 391.378 45.0239C389.79 44.3854 387.966 44.1139 386.856 43.5156C386.575 43.3647 386.168 42.691 385.851 42.51C385.319 42.2084 384.776 42.2788 384.344 42.0073C384.213 41.9268 384.073 41.6553 383.842 41.5045C382.832 40.8308 381.39 40.9263 379.822 40.4989C379.702 40.4688 379.717 40.0967 379.32 39.9962C375.989 39.1616 372.131 37.5678 369.774 36.9795C369.126 36.8186 368.709 36.5874 368.267 36.4768C367.961 36.4013 367.559 36.5823 367.262 36.4768C365.524 35.8584 363.429 34.2595 362.238 33.9629C361.59 33.802 361.173 33.5707 360.731 33.4601C360.088 33.2992 359.018 32.9724 358.722 32.9574C358.325 32.9372 358.269 32.4646 358.219 32.4546C356.451 32.1479 354.521 32.6808 352.693 32.4546C351.201 31.1423 348.985 30.5541 347.166 29.9407C345.84 29.4933 344.207 29.2016 343.147 28.9352C342.811 28.8497 342.715 28.4525 342.645 28.4324C340.901 27.8995 339.324 27.8442 337.621 27.4269C334.717 26.7179 331.451 25.5063 329.08 24.913C328.738 24.8275 328.648 24.4303 328.578 24.4102C326.548 23.7868 324.287 23.4801 322.046 22.9019C321.082 22.6505 319.951 22.1125 319.032 21.8964C317.801 21.6047 316.681 21.65 315.515 21.3936C313.129 20.8707 309.813 19.7143 308.482 19.3825C308.17 19.3021 307.788 19.468 307.477 19.3825C305.859 18.935 304.533 18.1105 302.955 17.8742C301.302 17.6278 299.182 18.0602 297.429 17.8742C295.685 17.6932 294.083 16.9994 292.405 16.8686C290.008 16.6826 285.667 17.3412 284.869 16.3659C284.532 15.9536 282.814 16.6776 282.357 16.3659C281.653 16.577 281.266 15.8832 280.849 15.8631C280.131 15.8229 280.674 15.2598 280.347 14.8575C280.312 14.8123 278.84 14.3548 278.84 14.3548C276.875 13.8621 272.726 14.7117 271.304 14.3548C271.128 14.3095 270.681 13.852 270.796 13.852ZM408.962 50.0516C409.348 50.9265 408.595 51.2683 408.459 51.5599C408.374 51.7409 408.605 52.4448 408.459 52.5655C408.047 52.9023 408.113 52.9476 407.957 53.571C407.957 53.571 407.495 55.0442 407.454 55.0794C407.404 55.1196 406.972 55.024 406.952 55.0794C406.435 56.4067 406.62 57.5882 405.947 58.5988C405.827 58.7798 405.621 59.9613 405.445 60.1071C405.033 60.4439 405.098 60.4892 404.942 61.1126C404.797 61.6958 404.224 62.0578 403.938 62.6209C403.546 63.4002 403.269 64.446 402.933 65.1348C402.767 65.4717 402.089 65.8538 401.928 66.1404C401.828 66.3264 402.084 67.0202 401.928 67.1459C401.873 67.1911 401.451 67.0856 401.426 67.1459C401.099 67.895 401.255 68.9257 400.923 69.6598C400.772 70.0016 400.079 70.3787 399.918 70.6653C399.818 70.8513 400.074 71.5452 399.918 71.6709C399.461 72.0429 399.14 72.5809 398.914 73.1792C398.848 73.3551 399.049 74.0741 398.914 74.1847C397.617 75.2456 396.397 79.0365 395.397 81.2235C395.286 81.4649 394.447 82.0481 394.392 82.2291C394.256 82.6816 394.558 83.3 394.392 83.7374C394.236 84.1446 393.538 84.0994 393.387 84.7429C393.277 85.2206 393.498 85.7736 393.387 86.2513C393.362 86.3518 392.91 86.3116 392.885 86.754C392.85 87.4227 392.91 88.0964 392.885 88.7651C391.629 89.2679 391.533 90.7561 390.875 91.7818C390.694 92.0583 390.403 91.7063 390.373 92.2845C390.363 92.4404 389.986 93.1141 389.87 93.2901C389.685 93.5716 388.991 94.0392 388.866 94.2956C388.328 95.3766 388.283 96.6536 387.861 97.815C387.343 99.2328 386.67 100.55 385.851 101.837C385.54 102.33 385.53 102.627 385.349 103.346C385.193 103.964 384.726 104.457 384.344 104.854C382.852 106.412 382.128 110.927 380.325 112.898C377.536 112.059 374.668 111.159 372.286 109.379C371.578 108.846 370.875 108.509 369.774 107.87C369.393 107.649 369.041 107.001 368.77 106.865C367.855 106.407 366.222 106.508 365.253 105.859C365.072 105.739 363.891 105.533 363.746 105.357C363.7 105.301 363.801 104.879 363.746 104.854C362.188 104.215 360.269 103.899 358.722 103.346C358.606 103.305 358.596 102.938 358.219 102.843C357.224 102.591 356.31 102.28 355.205 101.837C355.024 101.767 354.315 101.978 354.2 101.837C353.582 101.078 350.593 100.998 348.674 100.329C348.488 100.264 348.674 99.8513 348.171 99.8261C347.156 99.7708 346.589 99.4138 345.659 98.8206C345.523 98.7351 345.157 98.3228 345.157 98.3178C344.273 97.9407 343.514 98.1167 342.645 97.815C342.459 97.7497 342.645 97.3374 342.142 97.3123C342.007 97.3072 341.761 97.3625 341.64 97.3123C341.349 97.1966 341.213 96.8346 341.138 96.8095C339.676 96.3117 337.998 96.2212 336.616 95.8039C335.877 95.5827 334.591 95.1956 333.602 94.7984C333.174 94.6274 331.843 94.1599 330.587 93.7928C330.436 93.7476 330.562 93.3152 330.085 93.2901C329.095 93.2398 327.322 93.1694 326.066 92.7873C325.91 92.737 326.045 92.3097 325.563 92.2845C325.427 92.2795 325.181 92.3348 325.061 92.2845C324.327 91.9929 321.815 91.3393 320.037 90.7762C319.263 90.5299 318.801 90.5902 318.027 90.2734C317.811 90.1829 318.057 89.8008 317.525 89.7707C317.389 89.7656 317.143 89.8209 317.022 89.7707C314.882 88.916 310.737 87.8652 307.477 87.2568C305.799 86.9451 304.02 87.0758 302.453 86.754C302.372 86.7389 302.372 86.2714 301.95 86.2513C301.815 86.2462 301.568 86.3015 301.448 86.2513C300.865 86.02 300.292 86.0049 299.438 85.7485C298.192 85.3714 294.429 84.1597 292.405 83.7374C291.937 83.6368 291.355 83.8782 290.897 83.7374C290.626 83.6519 290.395 83.2447 290.395 83.2346C287.235 82.6564 283.964 82.7972 280.849 82.2291C279.674 82.0129 279.036 81.5855 277.835 81.2235C276.87 80.937 275.8 80.9571 274.821 80.7208C273.308 80.3588 272.108 80.2632 270.299 79.7152C268.958 79.308 265.953 79.5945 263.265 79.2124C263.115 79.1923 262.346 79.318 262.261 79.2124C261.693 78.5186 257.855 78.4633 255.729 78.2069C255.292 78.1566 254.911 77.7745 254.222 77.7041C253.398 77.6187 252.027 78.0158 250.705 77.7041C250.288 77.6086 250.208 77.2215 249.701 77.2013C249.741 77.2013 249.59 77.7846 249.198 77.7041C249.163 77.6991 249.053 77.2466 248.696 77.2013C247.179 77.0002 246.335 77.8047 244.174 77.7041C241.602 77.5835 238.783 76.9148 236.136 76.6986C234.382 76.5578 232.524 76.5477 231.112 76.1958C230.835 76.1254 230.393 76.1757 230.107 76.1958C228.64 76.2863 228.7 76.7036 226.59 76.1958C225.359 75.8992 223.455 75.869 221.064 75.693C214.663 75.2154 208.705 75.3461 201.47 75.693C201.149 75.7081 199.667 75.4869 199.461 75.693C198.988 76.1656 199.26 75.8238 197.451 75.693C195.557 75.5573 195.507 76.2813 193.432 76.1958C192.407 76.1556 192.09 75.7081 191.422 75.693C189.312 75.6528 187.659 76.0651 184.891 76.1958C184.454 76.2159 183.801 76.0701 183.384 76.1958C183.223 76.2461 182.711 76.6986 182.881 76.6986C181.384 76.7187 180.239 76.0902 178.862 76.1958C177.335 76.3165 175.843 76.8896 174.341 77.2013C173.929 77.2868 172.065 76.9097 171.829 77.2013C170.834 78.4181 168.236 78.0108 165.297 78.2069C165.353 78.2019 165.111 78.6946 164.795 78.7097C163.835 78.7599 163.318 78.1013 162.785 78.2069C162.72 78.222 162.69 78.6795 162.283 78.7097C162.228 78.7147 161.74 78.0309 161.278 78.2069C161.087 78.2773 161.263 78.6544 160.776 78.7097C159.007 78.9158 156.832 78.9309 154.747 79.2124C154.732 79.2124 154.616 79.6951 154.245 79.7152C149.331 79.9716 143.825 80.5196 138.67 81.2235C137.228 81.4196 136.022 81.4699 134.651 81.7263C133.571 81.9274 132.27 82.5056 131.134 82.7318C130.978 82.762 130.004 81.852 129.627 82.2291C128.873 82.9832 127.753 83.3804 126.11 83.7374C125.794 83.8078 125.422 83.657 125.105 83.7374C122.247 84.4513 117.122 85.5876 113.048 86.2513C113.007 86.2563 112.937 86.7339 112.545 86.754C111.651 86.7993 110.455 86.7188 109.028 86.754C109.059 88.026 107.742 87.473 107.019 87.7596C106.808 87.84 107.039 88.2372 106.516 88.2623C106.381 88.2674 106.135 88.2121 106.014 88.2623C105.672 88.3981 104.401 89.0819 103.502 89.2679C103.13 89.3483 101.744 89.0165 101.492 89.2679C101.452 89.3081 101.538 89.7606 101.492 89.7707C101.106 89.8712 99.7491 89.5042 99.4829 89.7707C99.4477 89.8059 99.523 90.2634 99.4829 90.2734C99.1061 90.3589 97.7295 90.017 97.4733 90.2734C97.4331 90.3137 97.5235 90.7611 97.4733 90.7762C96.2675 91.1231 94.8507 91.2941 93.4541 91.7818C93.2682 91.8471 93.4541 92.2594 92.9517 92.2845C92.816 92.2896 92.5698 92.2343 92.4492 92.2845C91.8413 92.5309 91.2636 92.908 89.9372 93.2901C87.4956 93.999 84.7424 94.4716 81.8988 95.3012C80.668 95.6581 79.1708 95.9045 77.8796 96.3067C77.7189 96.357 77.8646 96.7843 77.3772 96.8095C75.4279 96.91 72.4989 98.5642 70.3436 99.3233C67.073 100.475 64.0837 100.993 60.798 102.34C60.582 102.43 60.8282 102.813 60.2956 102.843C60.16 102.848 59.9138 102.792 59.7932 102.843C59.2255 103.069 58.5071 103.366 57.2812 103.848C56.9798 103.969 56.5829 104.155 56.2764 104.351C55.9046 104.587 54.8044 105 53.7644 105.357C53.0108 105.613 51.7598 105.96 50.75 106.362C50.1873 106.588 49.3885 106.885 48.238 107.368C47.8662 107.524 47.2031 107.614 46.7308 107.87C46.4243 108.036 45.9923 108.745 45.726 108.876C44.686 109.389 43.7968 109.389 42.7116 109.882C42.385 110.027 42.174 110.656 41.7068 110.887C41.1039 111.189 38.5517 112.235 37.1852 111.893C36.105 111.621 36.2608 111.556 35.678 110.887C35.4569 110.636 34.8189 110.138 34.6732 109.882C34.1406 108.941 34.2863 107.498 33.6684 106.362C33.5277 106.101 33.1961 106.428 33.166 105.859C33.1559 105.704 32.7791 105.03 32.6636 104.854C32.1763 104.12 30.1265 102.737 30.654 100.832C30.026 100.098 29.82 99.3736 29.1468 98.3178C29.0513 98.167 28.6494 97.8301 28.6444 97.815C28.1822 96.7793 28.1269 95.3866 27.6396 94.2956C27.5341 94.0643 27.1673 94.3358 27.1372 93.7928C27.1271 93.5616 26.7604 93.0638 26.6348 92.7873C26.2781 92.013 26.052 91.3343 25.63 90.2734C25.429 89.7757 25.3034 89.469 25.1276 88.7651C24.997 88.2523 24.7458 88.5238 24.6252 88.2623C24.2886 87.5484 24.4644 86.9903 24.1228 86.2513C23.8364 85.6379 22.6608 85.11 22.6156 84.2402C22.5854 83.6268 21.7715 83.3754 21.6108 82.7318C21.2189 81.1682 20.7517 80.4442 20.1036 78.7097C19.8373 77.9957 19.3248 77.1008 19.0988 76.1958C19.0234 75.8992 19.2143 75.4718 19.0988 75.1903C18.6667 74.1545 18.1543 73.6568 17.5916 72.6764C17.3404 72.239 17.3806 71.7111 17.0892 71.1681C16.9133 70.8413 16.2351 70.4441 16.0844 70.1625C15.9537 69.9162 16.1547 69.4335 16.0844 69.157C15.8432 68.2017 14.4013 65.9594 13.07 65.1348C13.0398 63.0935 12.9444 60.9819 12.0652 59.6043C11.9044 59.3529 10.5982 57.3921 10.558 56.5877C10.5328 56.1452 9.98522 55.2553 9.55316 54.5766C8.98042 53.6766 7.99572 52.4348 8.54836 50.5544C9.19143 48.3673 10.0053 48.3523 12.0652 47.5378C12.2159 47.4774 12.1656 47.1355 12.5676 47.035C13.3463 46.8389 13.8085 46.8389 14.5772 46.5322C15.0745 46.3311 15.381 46.2054 16.0844 46.0294C16.5667 45.9088 17.2399 45.4211 18.094 45.0239C18.2899 44.9334 18.1543 44.6317 18.5964 44.5211C19.4153 44.315 20.3749 44.5614 21.6108 44.0184C21.9223 43.8826 22.3593 43.1284 22.6156 43.0128C23.4395 42.6357 24.796 42.4195 25.63 42.0073C25.9616 41.8464 26.3534 41.1525 26.6348 41.0017C27.5994 40.4839 28.3831 40.6799 29.6492 39.9962C29.8853 39.8705 30.4681 39.051 30.654 38.9906C32.4325 38.4074 33.7588 38.518 35.1756 38.4879C37.8283 36.7935 40.4709 36.4114 44.2188 35.4712C44.6609 35.3606 45.0779 35.1293 45.726 34.9684C46.1681 34.8578 46.5851 34.6266 47.2332 34.4657C47.7055 34.35 47.5246 34.0433 47.7356 33.9629C48.3988 33.7115 49.1373 33.8473 49.7452 33.4601C50.1974 33.1735 50.0969 32.6859 50.75 32.4546C51.9055 32.0473 53.1866 32.3792 54.2668 31.9518C54.4778 31.8714 54.2467 31.4742 54.7692 31.449C55.6132 31.4038 55.3218 31.1775 55.774 30.9463C56.2111 30.725 56.7235 30.715 57.2812 30.4435C57.5726 30.2977 58.0449 29.5435 58.286 29.4379C58.5623 29.3173 58.9944 29.5134 59.2908 29.4379C60.2303 29.2016 63.4557 28.8346 65.3196 28.4324C67.6457 27.9296 69.6604 26.7632 71.8508 25.9185C72.9963 25.4761 74.2975 25.3102 75.3676 24.913C75.5686 24.8376 75.3526 24.4354 75.87 24.4102C76.0057 24.4052 76.2519 24.4605 76.3724 24.4102C76.8698 24.2091 77.1763 24.0834 77.8796 23.9074C78.367 23.7868 81.3814 22.6958 82.9036 22.3991C85.4659 21.8964 87.8473 21.9667 90.4397 21.3936C90.5351 21.3735 90.51 20.916 90.942 20.8908C92.6904 20.8003 94.283 20.3428 96.4685 19.8853C102.261 18.6786 108.235 17.4569 114.052 16.3659C115.625 16.0692 116.951 15.5815 118.574 15.3603C120.805 15.0536 122.794 15.0788 124.603 14.3548C124.784 14.2844 125.492 14.4955 125.608 14.3548C126.06 13.8017 126.296 14.0984 127.115 13.852C127.572 13.7162 128.532 13.4246 130.129 13.3492C130.566 13.3291 131.22 13.4749 131.636 13.3492C133.601 12.756 138.399 12.409 141.685 11.8409C141.735 11.8309 141.79 11.3582 142.187 11.3381C143.95 11.2476 146.241 10.8555 148.216 10.3326C151.622 9.43263 157.807 9.71418 162.785 9.32704C163.192 9.29688 163.624 8.89466 164.293 8.82427C165.338 8.71366 167.136 8.90974 168.814 8.82427C174.336 8.54272 180.827 8.35669 187.403 7.81872C191.528 7.48187 195.652 7.51706 199.963 7.31595C200.777 7.27573 200.817 6.89362 201.47 6.81318C205.233 6.36068 210.021 6.73776 214.533 6.81318C215.583 6.82826 216.608 7.31595 217.547 7.31595C218.301 7.31595 219.16 6.83329 220.059 6.81318C224.39 6.71765 228.268 7.1249 232.619 7.31595C234.593 7.40142 236.92 7.70811 239.15 7.31595C239.633 7.23048 239.899 6.75285 240.657 6.81318C242.526 6.95396 244.32 8.11033 246.184 8.3215C248.113 8.54272 249.856 8.13547 251.71 8.3215C256.322 8.77902 260.447 10.1968 265.777 10.8354C265.928 10.8555 266.697 10.7298 266.782 10.8354C267.295 11.4588 268.068 11.1119 269.797 11.3381C270.681 11.4538 270.872 11.7705 271.806 11.8409C275.002 12.0722 278.212 11.5292 281.352 11.8409C282.533 11.9565 283.658 12.575 284.869 12.8465C287.386 13.4096 290.018 13.3291 292.907 13.852C294.213 14.0883 295.273 14.7017 296.424 14.8575C301.83 15.6016 307.803 15.1642 313.003 16.3659C314.179 16.6374 315.505 16.9642 316.52 17.3714C317.334 17.6982 319.574 19.0306 321.042 19.3825C323.091 19.8752 325.563 19.4479 327.573 19.8853C327.663 19.9054 327.643 20.3679 328.075 20.388C328.211 20.3931 328.457 20.3378 328.578 20.388C329.075 20.5891 329.381 20.7148 330.085 20.8908C330.527 21.0014 330.944 21.2327 331.592 21.3936C332.034 21.5042 332.451 21.7355 333.099 21.8964C333.541 22.007 333.958 22.2382 334.606 22.3991C335.089 22.5198 335.762 23.0075 336.616 23.4047C337.013 23.5907 337.626 23.641 338.123 23.9074C338.379 24.0432 338.917 24.8376 339.128 24.913C340.163 25.2951 340.741 25.0638 342.142 25.4158C342.625 25.5364 344.775 26.0442 346.162 26.4213C348.246 26.9844 350.226 28.0101 352.19 28.4324C355.054 29.0508 357.953 28.8648 360.731 29.4379C360.812 29.453 360.812 29.9206 361.234 29.9407C362.394 30.0011 362.731 30.0362 363.746 30.4435C364.866 30.891 366.705 32.2032 368.267 32.9574C369.207 33.4099 370.272 33.4702 371.282 33.9629C372.251 34.4355 372.854 35.1293 373.794 35.4712C375.256 35.9991 376.863 36.0494 378.315 36.4768C380.375 37.0851 382.224 38.1711 384.344 38.9906C385.088 39.2772 385.61 39.1515 386.354 39.4934C386.59 39.599 386.308 39.966 386.856 39.9962C388.167 40.0666 387.75 40.9414 388.866 41.0017C389.092 41.0118 389.604 41.3788 389.87 41.5045C394.935 43.9429 400.461 45.22 404.942 48.0405C406.821 48.1713 407.796 49.207 408.962 50.0516Z" fill="#FFAD14"/>
<path d="M391.377 58.0959C391.478 59.3377 391.428 60.283 390.875 61.1125C390.463 61.7309 389.895 63.6968 388.865 64.6319C389.092 67.2061 387.665 68.1212 387.358 70.1624C383.942 70.3987 382.852 68.3072 379.822 68.1513C379.451 65.3358 379.596 62.0125 376.305 62.1181C375.904 62.3845 375.492 62.641 374.798 62.6208C374.221 64.1141 374.472 65.1498 375.301 66.643C375.446 66.9095 375.773 66.5777 375.803 67.1458C375.848 67.9955 377.26 68.1664 377.31 69.1569C377.33 69.5742 378.31 70.4339 378.817 71.168C381.194 74.612 383.957 78.7498 382.334 85.2456C382.224 85.6881 381.993 86.1054 381.832 86.7539C381.551 87.8852 379.641 91.1029 378.315 92.2844C377.913 92.6414 377.27 92.4403 376.808 92.7872C376.592 92.9481 376.511 93.6671 376.305 93.7928C376.12 93.9034 375.431 93.6369 375.301 93.7928C375.25 93.8531 375.361 94.2654 375.301 94.2955C375.12 94.381 374.416 94.1497 374.296 94.2955C374.256 94.3458 374.346 94.7782 374.296 94.7983C373.382 95.1301 371.643 95.286 370.779 95.3011C369.659 95.3212 367.84 95.1653 366.76 94.7983C366.579 94.738 366.76 94.3207 366.257 94.2955C365.092 94.2352 364.7 93.0537 363.745 92.2844C363.57 92.1437 362.876 92.4503 362.741 92.2844C362.525 92.018 362.479 91.5303 362.238 91.2789C361.344 90.3437 360.54 88.8052 360.229 88.765C359.164 88.6343 359.289 90.7962 357.214 90.2733C355.938 88.5337 352.251 89.2075 351.185 87.2567C350.552 85.2657 351.929 82.2089 353.195 80.2179C353.265 80.1073 353.677 79.7151 353.697 79.7151C354.25 78.3074 354.235 76.5175 354.702 75.1902C354.768 75.0041 355.18 75.1952 355.205 74.6874C355.21 74.5516 355.154 74.3053 355.205 74.1846C355.431 73.6215 356.084 73.0383 356.209 71.6708C358.551 71.3389 359.435 72.4651 361.233 72.6763C361.771 73.9835 364.213 73.3802 364.75 74.6874C366.328 76.2259 363.941 78.9459 365.253 80.2179C366.227 82.4955 369.392 82.4955 370.779 80.7207C370.297 80.3235 371.407 78.2169 370.779 77.704C370.734 77.6638 370.292 77.7543 370.277 77.704C370.221 77.5281 370.407 76.8041 370.277 76.6985C370.216 76.6482 369.804 76.7588 369.774 76.6985C369.689 76.5175 369.92 75.8136 369.774 75.6929C369.709 75.6376 369.307 75.7633 369.272 75.6929C368.89 74.9941 368.664 74.2349 368.267 73.6818C368.076 73.4204 367.443 73.4204 367.262 73.1791C367.127 73.0031 367.428 72.3093 367.262 72.1735C367.187 72.1132 366.81 72.2489 366.76 72.1735C365.961 70.9367 365.378 69.6144 364.75 68.1513C364.655 67.9251 364.278 68.1865 364.248 67.6486C364.193 66.5978 363.303 65.195 363.243 63.6264C363.228 63.2191 363.128 62.5052 363.243 62.1181C363.318 61.8767 363.71 61.6153 363.745 61.6153C363.866 60.836 363.509 59.8506 363.745 59.1014C363.796 58.9355 364.223 59.0864 364.248 58.5987C364.258 58.3624 364.625 57.8696 364.75 57.5931C365.223 56.5725 365.554 55.7831 366.76 54.5765C367.925 53.4101 368.388 53.3397 370.277 52.5654C370.493 52.4749 370.247 52.0928 370.779 52.0626C370.915 52.0576 371.161 52.1129 371.281 52.0626C371.849 51.8364 375.08 51.2833 376.808 51.5599C376.843 51.5649 376.923 52.0425 377.31 52.0626C378.3 52.1129 378.717 52.1632 379.32 52.5654C379.551 52.7162 379.692 52.9877 379.822 53.0682C380.742 53.6413 382.304 54.5916 383.339 55.582C385.047 55.1748 386.524 55.1899 387.861 56.0848C388.042 56.2055 389.222 56.4116 389.368 56.5876C389.554 56.8138 390.835 57.5026 391.377 58.0959Z" fill="white"/>
<path d="M369.272 45.0237C369.292 45.3053 369.342 45.7578 369.272 46.0293C369.187 46.3711 368.78 46.4818 368.77 46.532C368.649 47.1354 368.991 47.975 368.77 48.5431C368.689 48.7493 368.292 48.523 368.267 49.0459C368.237 49.5889 365.328 53.1988 364.75 53.5708C364.57 53.6865 363.876 53.41 363.746 53.5708C363.188 54.2546 363.299 54.3099 362.238 54.5764C361.47 54.7674 359.752 55.5568 358.219 54.0736C358.33 51.8363 361.48 52.6457 361.736 50.5542C361.565 49.2168 360.42 48.8548 359.224 48.5431C359.304 47.9599 359.114 47.6482 358.722 47.5376C358.275 45.3002 357.908 44.6366 359.224 42.5099C359.968 41.3082 360.334 40.8507 361.736 40.4988C362.027 40.4284 363.841 39.6943 365.253 39.996C365.338 40.0161 365.328 40.4786 365.755 40.4988C366.866 40.5591 368.282 42.173 368.77 43.5154C368.971 44.0684 369.237 44.5612 369.272 45.0237Z" fill="white"/>
<path d="M356.21 44.5209C355.571 49.0761 354.305 53.0027 352.693 56.5875C351.522 56.5875 350.347 56.5875 349.176 56.5875C347.794 57.402 346.177 58.3371 344.654 59.6041C344.504 59.7298 344.288 60.5493 344.152 60.6097C343.926 60.7102 343.333 60.4488 343.147 60.6097C342.047 61.5599 340.942 63.3196 339.63 64.6318C339.309 64.9536 338.334 65.2653 338.123 65.6374C337.842 66.1351 337.852 67.372 337.621 68.1512C337.575 68.3021 337.143 68.1764 337.118 68.654C337.093 69.1568 337.138 69.6596 337.118 70.1623C336.747 71.8768 338.972 70.9919 339.128 72.1734C338.646 72.5706 339.756 74.6772 339.128 75.1901C338.54 75.6727 338.605 76.804 338.123 78.2067C337.56 79.8407 336.681 81.4647 335.611 82.7317C330.426 81.3842 325.036 80.2429 320.539 78.2067C320.393 73.8728 321.77 71.0573 323.051 68.1512C324.101 67.0552 324.483 68.4026 326.065 68.1512C326.472 66.8088 326.563 65.6072 327.07 64.1291C327.442 63.0531 328.487 61.8213 328.577 60.6097C328.623 59.9963 328.221 58.4075 328.075 57.593C327.583 54.8881 326.884 52.3139 326.065 49.5487C326.081 48.0253 323.538 49.061 323.553 47.5376C323.78 43.2389 325.196 40.1317 326.065 36.4766C329.236 36.0542 331.883 37.6229 334.606 38.4877C336.721 39.1614 338.997 39.1413 340.635 40.4988C340.726 44.6114 338.59 46.4968 338.123 50.0514C337.54 50.4738 336.777 50.7151 335.611 50.5542C335.345 53.1686 336.274 54.5814 336.616 56.5875C338.957 56.2506 339.058 53.6714 341.138 53.0681C341.58 51.4542 339.48 52.3793 339.63 51.057C340.072 49.3174 340.504 47.5728 341.64 46.532C341.966 44.5109 342.183 42.3842 343.147 41.0015C347.865 41.811 351.743 43.4601 356.21 44.5209Z" fill="white"/>
<path d="M320.037 41.0016C320.122 42.6105 321.273 44.3401 321.042 47.0349C320.941 48.1812 320.303 50.0013 320.037 51.0571C319.655 52.5956 319.087 52.8118 318.53 54.5765C317.269 55.6625 315.425 56.1602 314.51 57.5931C314.968 60.3232 315.942 62.5253 316.52 65.1347C316.932 66.4017 319.168 65.8336 320.037 66.6431C320.087 68.7044 320.117 70.7457 319.032 71.6708C319.198 74.0137 318.64 75.6377 318.027 77.2013C315.776 77.4577 313.867 76.608 311.998 76.1957C310.024 75.7583 308.004 75.7885 306.472 74.6874C305.246 72.6713 305.347 69.2172 304.965 66.1403C304.794 64.7627 304.764 62.817 304.462 61.6153C304.166 60.4288 304.131 58.4177 302.453 58.5987C300.83 58.1462 301.744 60.2377 300.946 60.6098C300.267 63.1337 302.669 62.5706 302.955 64.1292C302.955 66.1403 301.95 67.1458 301.95 69.1569C301.076 70.3585 301.865 72.7668 300.443 73.6819C299.082 73.9131 297.65 73.169 296.424 72.6763C296.243 72.6059 295.535 72.8171 295.419 72.6763C295.017 72.1886 294.736 72.2741 293.912 72.1735C293.761 72.1534 292.993 72.2791 292.907 72.1735C292.505 71.6859 292.224 71.7713 291.4 71.6708C291.249 71.6507 290.481 71.7764 290.395 71.6708C290.365 71.6306 290.43 71.173 290.395 71.168C288.843 70.8513 287.165 71.3188 285.874 70.1625C284.889 68.81 286.085 66.8592 286.376 65.1347C286.456 64.6521 286.27 64.1091 286.376 63.6264C286.466 63.2091 286.793 63.1186 286.878 62.6209C287.009 61.8466 286.316 60.6701 287.381 60.107C286.918 58.1361 290.028 59.74 290.395 58.5987C291.46 53.2995 292.661 48.1259 293.41 42.51C293.013 41.5396 291.204 42.0173 290.395 41.0016C290.224 40.7855 290.4 40.3682 289.893 40.4989C290.566 36.3108 292.179 33.0679 292.405 28.4323C293.379 28.2363 295.258 28.6284 296.926 28.9351C299.82 29.463 302.639 30.1116 305.97 30.9462C306.412 31.0568 306.829 31.2881 307.477 31.449C307.919 31.5596 308.336 31.7909 308.984 31.9517C309.426 32.0624 311.385 32.902 312.501 33.4601C313.325 33.8723 314.199 34.4103 315.013 34.9684C315.455 35.27 315.651 35.6924 316.018 35.9739C316.289 36.1801 317.279 36.2153 317.525 36.4767C317.68 36.6376 317.354 37.3415 317.525 37.4822C317.937 37.8191 318.982 38.0655 319.032 38.9906C319.072 39.7146 319.987 40.0765 320.037 41.0016ZM307.979 49.5488C309.632 48.9505 309.687 48.4578 310.491 47.5377C310.089 44.9233 308.155 43.8423 305.467 43.5155C304.744 45.1395 304.508 47.2461 303.96 49.046C305.311 50.1119 306.417 50.1119 307.979 49.5488Z" fill="white"/>
<path d="M310.491 47.5378C309.687 48.4579 309.632 48.9506 307.979 49.5489C306.417 50.112 305.311 50.112 303.96 49.0461C304.508 47.2462 304.744 45.1396 305.467 43.5156C308.155 43.8424 310.089 44.9234 310.491 47.5378Z" fill="black"/>
<path d="M272.811 39.4934C273.459 42.3592 270.264 44.511 266.782 43.0128C267.234 41.1173 267.214 38.7543 267.787 36.9795C270.153 37.1856 272.424 37.7789 272.811 39.4934Z" fill="black"/>
<path d="M248.696 22.9019C248.525 27.5927 249.133 33.0629 248.193 36.9795C244.677 36.7382 242.154 38.1107 239.15 36.9795C239.15 35.808 239.15 34.6316 239.15 33.4601C237.985 33.621 237.221 33.3797 236.638 32.9573C234.488 33.3193 236.523 37.8694 235.131 38.9906C236.352 39.9459 239.336 39.1414 240.657 39.9961C240.959 42.9776 239.778 44.4758 240.155 47.5377C239.105 48.3321 236.819 47.8846 235.633 48.5433C236.246 51.5599 233.96 54.4207 237.14 54.5766C239.256 54.8933 238.256 53.1286 238.648 51.5599C238.813 50.8963 239.542 50.7706 239.652 50.0516C242.32 50.5695 245.837 50.2276 248.193 51.0571C248.872 52.9325 247.922 55.8134 247.691 58.5987C247.51 60.7908 248.163 63.008 247.189 64.632C245.169 65.9543 243.024 64.7175 240.657 64.632C238.386 64.5516 236.08 64.7476 233.624 64.632C232.87 64.5968 231.9 64.2097 231.112 64.1292C229.991 64.0186 228.715 64.2348 227.595 64.1292C225.555 63.9332 221.868 63.6818 219.054 63.1237C219.295 59.5088 219.32 55.6827 220.059 52.5655C219.551 51.0521 221.179 51.6756 222.068 51.5599C222.727 51.3839 222.857 50.675 223.576 50.5544C223.405 44.8529 224.43 40.3481 224.58 34.9684C224.169 33.7014 221.933 34.2696 221.064 33.4601C219.878 29.9558 222.013 27.1503 221.566 22.9019C221.425 22.0874 222.043 22.0371 222.068 21.3936C231.087 21.7556 240.15 22.0723 248.696 22.9019Z" fill="white"/>
<path d="M218.552 31.4491C218.703 33.2742 215.874 32.1228 215.035 32.9574C215.075 40.3582 216.537 46.3161 215.537 52.0628C215.472 52.4248 215.779 53.8325 215.537 54.0739C215.497 54.1141 215.045 54.0286 215.035 54.0739C214.653 55.547 214.643 56.9749 214.03 58.096C213.854 58.4178 213.282 58.6793 213.025 59.1016C212.473 60.0016 211.242 61.2333 209.509 62.1182C208.579 62.5908 207.645 62.6662 206.494 63.1238C205.54 63.5059 200.119 64.0991 197.451 63.6265C197.396 63.6165 197.35 63.1439 196.949 63.1238C195.853 63.0634 195.698 62.812 194.939 62.621C194.055 62.3998 193.814 62.2942 192.929 61.6155C190.98 60.1222 190.005 59.2826 188.91 56.085C188.157 53.8828 187.684 49.926 188.408 47.035C188.579 46.3513 188.579 46.0245 188.91 45.5267C189.131 45.1949 189.347 44.1441 189.915 43.5156C191.347 41.9269 195.23 40.4889 197.953 41.0018C198.019 41.0118 198.044 41.4844 198.456 41.5045C200.013 41.585 200.556 42.0928 201.47 43.5156C201.646 43.7922 201.942 43.4402 201.973 44.0184C202.058 45.6122 203.309 47.5026 201.47 49.5489C201.38 50.9667 199.084 50.1774 199.461 52.0628C200.902 52.1684 202.013 51.9371 202.475 51.0572C203.515 51.198 202.837 49.574 203.48 49.0461C204.058 48.5735 203.48 47.5378 203.982 47.035C204.736 46.2809 203.902 45.6323 203.982 43.5156C204.113 39.9962 205.223 35.9439 203.48 33.4602C199.787 33.1032 196.883 34.8026 194.437 32.9574C193.542 30.0966 193.718 24.2846 194.437 21.3936C194.844 21.2981 194.939 20.8909 195.441 20.8909C202.977 20.8909 210.513 20.8909 218.049 20.8909C219.14 23.4852 218.275 28.0403 218.552 31.4491Z" fill="white"/>
<path d="M139.173 61.6154C139.489 63.6968 140.182 65.8889 139.675 67.6486C138.082 68.6441 136.264 68.3274 134.651 68.6542C131.38 69.3229 129.436 70.7759 127.115 68.1514C126.773 67.7643 126.954 67.0101 126.612 66.6431C126.231 66.2358 125.166 65.8738 124.603 65.1348C124.332 64.7778 124.417 64.0035 124.1 63.6264C123.578 62.998 122.548 62.6561 122.091 62.1181C121.759 61.726 121.89 61.002 121.588 60.6098C121.026 59.8758 119.509 59.1417 118.574 58.0959C117.961 57.4122 117.65 56.2256 117.067 55.5821C116.333 54.7726 115.771 54.5866 115.057 54.0738C114.027 54.7978 115.831 57.6233 115.56 59.6043C116.153 60.1825 117.333 60.1724 118.574 60.107C119.267 63.9382 121.006 66.7235 121.086 71.168C116.233 72.8473 110.4 73.5462 105.009 74.6875C103.387 71.9524 103.025 67.9604 102.497 64.1292C102.206 62.1584 104.562 62.8472 105.009 61.6154C104.371 56.2156 103.326 51.2331 101.995 46.5322C101.563 45.2903 98.4982 46.678 97.9757 45.5266C97.7546 41.2229 96.157 38.2968 96.4685 33.4601C97.7194 32.7411 98.473 32.6959 100.488 32.4545C100.638 32.4344 101.407 32.5601 101.492 32.4545C101.829 32.0423 103.03 31.7959 104.507 31.449C105.517 31.2127 106.326 30.8356 107.019 30.9462C108.159 31.1272 107.873 31.5043 108.526 31.9518C108.838 32.1629 109.717 32.173 110.033 32.4545C110.435 32.8115 111.038 33.8623 111.54 34.4656C111.973 34.9785 112.706 35.5567 113.048 35.974C113.54 36.5672 113.62 37.4421 114.052 37.985C114.54 38.5934 115.097 38.9906 115.56 39.4934C116.585 40.6145 117.665 41.4592 118.574 42.51C119.594 43.6865 120.945 44.7524 121.086 46.0294C122.382 44.873 120.478 42.1279 120.584 39.9961C119.604 38.7995 117.77 40.9162 116.564 39.4934C116.971 35.3958 114.495 34.1941 115.057 29.9407C115.771 29.3726 116.273 29.1312 117.067 28.9351C117.534 28.8195 118.112 29.0759 118.574 28.9351C119.237 28.734 121.794 28.3117 123.598 27.9296C126.19 27.3816 129.049 26.004 132.139 26.4213C133.149 29.4329 133.018 33.5858 134.149 36.4767C134.033 38.2063 132.651 38.6688 131.134 38.9906C131.792 44.3652 132.978 49.212 133.646 54.5765C134.932 56.0446 137.188 53.9229 138.168 55.0793C138.318 57.2111 138.826 59.3479 139.173 61.6154Z" fill="white"/>
<path d="M101.492 71.168C101.608 71.6255 102.407 73.8629 101.995 75.693C99.734 76.5074 97.4129 77.0002 94.9612 77.704C91.1128 78.8152 87.2192 80.0922 82.9036 81.2234C82.5921 81.3039 82.2153 81.143 81.8988 81.2234C81.4265 81.3391 80.6428 81.5 79.8892 81.7262C79.422 81.867 79.0502 82.0631 78.382 82.229C77.7741 82.3798 76.2317 83.4708 74.8652 82.7318C74.192 79.2174 72.8958 76.3214 72.3532 72.6763C72.0618 70.7054 74.4181 71.3942 74.8652 70.1625C73.9709 64.3554 72.097 59.5288 70.846 54.0737C68.746 53.9581 68.4747 54.8932 66.8268 54.0737C65.4954 50.7152 64.8122 46.7031 63.8124 43.0127C64.6866 42.2586 65.3045 41.8664 66.3244 41.5044C68.5349 40.7201 70.5295 40.6547 72.8556 39.9961C73.2977 39.8704 73.7298 39.6743 74.3628 39.4933C74.5336 39.443 75.2671 39.619 75.3676 39.4933C76.0559 38.6537 79.437 38.0705 81.3964 37.4822C82.9438 37.0147 84.0792 36.4918 85.918 35.9739C86.0888 35.9236 86.8223 36.0996 86.9228 35.9739C87.169 35.6722 88.3697 35.1745 89.9372 35.4711C91.6805 39.428 92.8511 43.9479 93.9564 48.5432C91.8061 49.9108 89.0982 50.7202 86.4204 51.5599C83.9988 51.9721 85.4407 48.5181 83.406 48.5432C79.4169 48.4879 82.567 52.9525 82.4012 55.0793C84.9333 55.4362 85.2096 53.5307 87.9276 54.0737C88.3798 56.8038 89.6157 58.7495 89.4348 62.1181C88.3094 62.6661 86.9178 62.9527 85.918 63.6264C86.6766 65.3811 86.6113 67.9603 87.9276 69.1569C91.143 69.0262 90.1181 66.8944 89.9372 64.1292C92.5597 63.0683 95.5691 62.3896 98.478 61.6153C100.362 63.8577 99.5331 67.3721 100.99 69.6597C101.302 70.1524 101.312 70.449 101.492 71.168Z" fill="white"/>
<path d="M56.2761 75.693C56.894 77.8952 54.5379 80.2381 51.2524 80.218C51.187 77.9404 50.0215 76.7539 49.7452 74.6875C52.4982 73.6216 55.5175 72.9881 56.2761 75.693Z" fill="black"/>
<path d="M50.7497 61.6155C51.1767 65.2254 48.6448 65.879 45.726 66.1404C45.8667 63.9886 44.1938 63.6517 44.7213 61.1127C46.781 60.5747 49.3481 60.2781 50.7497 61.6155Z" fill="black"/>
<path d="M390.618 114.944L389.516 114.386L389.717 113.988L392.4 115.345L392.199 115.744L391.092 115.183L389.461 118.413L388.988 118.173L390.618 114.944Z" fill="black" stroke="black" stroke-width="0.922521"/>
<path d="M394.831 119.13C395.06 118.611 395.335 117.986 395.569 117.537L395.553 117.528C395.215 117.891 394.832 118.272 394.4 118.675L392.871 120.111L392.517 119.931L392.803 117.907C392.889 117.309 392.981 116.767 393.096 116.285L393.085 116.279C392.846 116.726 392.511 117.32 392.205 117.848L391.323 119.354L390.876 119.128L392.961 115.629L393.558 115.931L393.29 117.997C393.215 118.521 393.137 118.981 393.038 119.405L393.054 119.413C393.331 119.094 393.661 118.761 394.053 118.385L395.584 116.956L396.181 117.259L394.575 121L394.118 120.769L394.831 119.13Z" fill="black" stroke="black" stroke-width="0.922521"/>
<path d="M377.68 97.721C379.468 98.4646 380.279 100.432 379.559 102.164C378.823 103.934 376.865 104.727 375.059 103.975C373.271 103.231 372.414 101.267 373.15 99.4968C373.87 97.7652 375.873 96.9693 377.661 97.7134L377.68 97.721ZM377.382 98.3333C376.012 97.7632 374.519 98.4585 373.949 99.8291C373.372 101.219 373.94 102.75 375.347 103.336C376.709 103.925 378.184 103.221 378.761 101.832C379.331 100.462 378.79 98.9196 377.401 98.3419L377.382 98.3333ZM375.198 102.246L374.475 101.945L375.764 98.8426C376.073 98.904 376.496 99.0136 377.01 99.2273C377.599 99.4726 377.826 99.6788 377.991 99.9261C378.106 100.131 378.137 100.434 378.018 100.719C377.868 101.081 377.491 101.236 377.063 101.192L377.048 101.23C377.312 101.452 377.381 101.771 377.302 102.228C377.2 102.744 377.177 102.958 377.213 103.085L376.434 102.76C376.386 102.606 376.44 102.316 376.495 101.915C376.58 101.548 376.454 101.317 376.054 101.15L375.712 101.008L375.198 102.246ZM375.944 100.503L376.287 100.646C376.686 100.812 377.065 100.814 377.199 100.49C377.317 100.205 377.187 99.9266 376.731 99.7371C376.541 99.6576 376.4 99.6214 376.316 99.6089L375.944 100.503Z" fill="white"/>
</svg>
