<svg width="123" height="121" viewBox="0 0 123 121" fill="none" xmlns="http://www.w3.org/2000/svg">
<path d="M61.3316 121C95.2041 121 122.663 93.9132 122.663 60.5C122.663 27.0868 95.2041 0 61.3316 0C27.4591 0 0 27.0868 0 60.5C0 93.9132 27.4591 121 61.3316 121Z" fill="#8B1D31"/>
<path d="M56.6105 2.69006C59.4186 2.54695 62.2512 2.6185 65.0585 2.64221C70.009 3.07155 74.9591 3.95353 79.6715 5.57436C82.3127 6.45633 84.86 7.62453 87.4065 8.79231C97.1168 13.5595 105.279 21.2593 110.99 30.4373C115.798 38.1845 118.677 47.0995 119.343 56.1817C119.89 63.6431 118.963 71.1998 116.631 78.2797C114.299 85.3596 110.538 91.9386 105.707 97.6348C99.5669 104.857 91.6421 110.555 82.8124 114.011C77.0769 116.324 70.9846 117.588 64.8446 118.064C62.441 118.088 60.0603 118.088 57.6567 118.064C51.4693 117.587 45.3052 116.252 39.522 113.94C38.2133 113.463 37.0233 112.724 35.7146 112.248C27.2901 108.124 19.8646 101.949 14.2721 94.4177C7.91814 85.7411 3.99107 75.2752 3.22933 64.5484C2.84846 59.0901 3.13422 53.6078 4.3005 48.2677C6.94208 35.8002 13.8912 24.3105 23.6488 16.1584C29.7652 11.0334 36.9523 7.17106 44.5917 4.93077C48.4951 3.73886 52.5409 3.11898 56.6105 2.69006Z" fill="white"/>
<path d="M55.8724 4.09645C58.514 3.78651 61.2029 3.90591 63.869 3.90591C70.8418 4.26328 77.7913 5.81297 84.1934 8.62571C86.7635 9.9129 89.381 11.1285 91.7613 12.7256C103.661 20.2341 112.657 32.2963 116.226 45.9315C119.176 56.7298 118.654 68.4347 114.941 78.9705C112.537 85.7405 108.849 92.0329 104.089 97.4221C98.3296 104.049 90.9514 109.27 82.836 112.606C76.3629 115.252 69.4138 116.659 62.441 116.826C53.4688 117.017 44.4729 115.062 36.4048 111.128C24.482 105.384 14.6529 95.3245 9.25055 83.2144C3.70572 70.9858 2.94398 56.7074 6.82328 43.8584C10.1552 32.9877 16.8663 23.1903 25.8148 16.1587C34.3825 9.31673 44.973 5.07369 55.8724 4.09645Z" fill="#8B1D31"/>
<path d="M73.4364 8.81592C75.84 9.60304 78.1713 10.5561 80.528 11.367C82.1939 11.8912 83.8117 12.5111 85.4543 13.0831C85.0976 14.3461 84.7163 15.61 84.2872 16.8735C83.0022 16.6584 81.8363 16.0627 80.5508 15.848C79.1943 19.7099 77.886 23.6193 76.6482 27.5528C74.8872 27.0998 73.2208 26.3609 71.483 25.86C71.8398 23.9293 72.7689 22.1895 73.3159 20.354C73.9817 18.2322 74.8382 16.1588 75.386 13.9892C74.3867 13.5361 73.3159 13.274 72.2448 12.9404C72.5554 11.5334 73.0551 10.1988 73.4364 8.81592Z" fill="white"/>
<path d="M42.7833 10.5089C47.0667 9.79376 51.5171 12.7263 52.636 16.8974C53.35 19.3049 52.9691 21.9987 51.6122 24.0967C50.5178 25.9081 48.7326 27.1715 46.7814 27.8626C44.3063 28.6971 41.4741 28.3152 39.2848 26.9332C36.6669 25.3123 35.001 22.309 35.0247 19.2334C35.0247 14.9429 38.5231 10.9857 42.7833 10.5089Z" fill="white"/>
<path d="M42.7832 15.5384C43.8544 15.181 45.0676 15.2996 46.0437 15.872C47.3524 16.5156 48.0427 18.0412 47.9954 19.4711C47.9717 21.3303 46.4486 23.0705 44.5925 23.2852C42.5934 23.6192 40.4752 22.1889 40.1184 20.1625C39.7134 18.2321 40.903 16.1341 42.7832 15.5384Z" fill="#8B1D31"/>
<path d="M93.6175 20.4256C94.0698 20.1394 94.5454 19.9006 95.0214 19.6868C96.4971 20.9261 97.8777 22.2611 99.3526 23.5005C99.6155 23.691 99.9004 24.0009 99.6387 24.3109C97.1392 29.6984 94.7124 35.1096 92.1181 40.4252C90.7147 39.0423 89.2871 37.6362 87.9539 36.1817C88.3111 35.3713 88.7156 34.6087 89.0487 33.7979C88.0968 32.7728 87.0501 31.8434 85.9557 30.9615C85.147 31.2477 84.4081 31.7244 83.6227 32.1059C82.505 31.4141 81.553 30.5325 80.4819 29.7937C79.9826 29.4122 79.4348 29.1264 79.1017 28.6018C83.955 25.908 88.7867 23.1668 93.6175 20.4256Z" fill="white"/>
<path d="M89.5948 28.4822C90.7615 27.4093 92.1891 26.6945 93.4027 25.7173C92.8071 27.1954 91.9511 28.53 91.1898 29.937C90.595 29.5073 90.0945 29.0068 89.5948 28.4822Z" fill="#8B1D31"/>
<path d="M58.4903 28.6496C65.1308 28.1013 71.9603 29.579 77.648 33.0832C85.0976 37.4694 90.6657 44.9549 92.5696 53.4172C93.9502 59.3527 93.4265 65.67 91.4283 71.3904C89.0479 77.8987 84.4542 83.5 78.6718 87.2197C73.5552 90.4364 67.5572 92.3443 61.4887 92.2727C56.1341 92.3917 50.8276 91.0093 46.0915 88.531C39.2848 84.9307 33.8825 78.7806 31.1458 71.5821C29.0039 65.9325 28.5279 59.663 29.7652 53.7517C31.2642 46.7667 35.1912 40.3545 40.7365 35.8494C45.7347 31.7249 52.0176 29.1738 58.4903 28.6496Z" fill="white"/>
<path d="M58.4903 29.3405C65.1777 28.7448 72.0558 30.3656 77.7435 33.9172C80.3377 35.5622 82.7185 37.5167 84.7881 39.7574C85.4307 40.5441 86.0254 41.3786 86.6443 42.189C90.6187 47.5528 92.7615 54.2513 92.5941 60.9493C92.6177 64.8586 91.8087 68.7676 90.2146 72.3209C87.9053 77.9934 83.7884 82.9037 78.7195 86.313C74.1973 89.4116 68.8431 91.1997 63.3934 91.5566C61.3466 91.5325 59.2761 91.6519 57.2534 91.3665C49.5188 90.4367 42.2125 86.4795 37.1906 80.5195C33.3828 76.0148 30.8604 70.388 30.075 64.5246C29.2418 58.1369 30.4081 51.4622 33.4783 45.7652C38.3569 36.5635 48.0905 30.1272 58.4903 29.3405Z" fill="#8B1D31"/>
<path d="M68.034 38.8995C69.1047 37.8028 70.6041 37.0165 72.1982 37.1118C74.888 37.064 77.4332 38.1843 79.6233 39.6862C81.2174 40.5682 82.5033 41.9036 83.6696 43.2623C87.6431 48.1252 90.1182 54.3706 89.8332 60.7108C89.6667 63.9779 88.5004 67.3385 86.0245 69.5551C84.6685 70.7233 83.0258 71.6523 81.241 71.9385C79.8368 72.0816 78.3856 72.0338 76.9809 71.8191C77.4814 68.8154 78.0043 65.5509 76.6719 62.6657C76.1959 61.426 75.1488 60.544 74.1254 59.7336C73.1261 58.9706 71.6745 58.7801 70.9364 57.6834C69.6505 55.9432 67.9609 54.3698 65.8426 53.7266C63.8203 52.9877 61.6543 53.5119 59.6071 53.8456C59.2744 52.1054 59.1556 50.3177 59.3458 48.5533C59.4168 46.6226 60.1076 44.6685 61.4869 43.3093C62.6536 42.1174 64.2004 41.426 65.7475 40.8781C66.7485 40.5677 67.2959 39.5909 68.034 38.8995Z" fill="white"/>
<path d="M41.879 39.853C43.4972 39.0188 45.3774 39.0188 47.1144 39.3525C48.1378 39.5193 49.1139 40.1151 50.1605 39.8293C51.4223 39.5193 52.7552 39.2331 54.0402 39.5667C55.5155 39.8051 56.6581 40.8543 57.6811 41.879C58.2526 42.523 58.8711 43.1903 59.2042 44.0245C58.9425 44.8823 58.4661 45.6453 58.2996 46.5514C57.7767 49.0783 57.8003 51.748 58.3478 54.299C56.3487 55.1569 54.3256 56.1345 52.7315 57.6601C51.3987 58.7326 50.3516 60.0909 49.1143 61.2595C49.2808 58.7804 48.9951 56.2772 48.8289 53.7981C48.7812 51.8199 48.7812 49.8172 48.8048 47.8386C48.8048 45.7651 49.3045 43.7149 49.0902 41.6406C48.2337 42.0937 48.0194 43.1666 47.6622 44.0007C46.0677 48.1722 46.0918 52.7489 46.3294 57.1592C46.4955 59.6865 46.5437 62.2372 46.4249 64.7641C46.4486 65.3832 46.02 65.8836 45.7579 66.4324C44.6157 68.5545 43.7352 70.7944 43.2355 73.1545C43.1641 73.4407 43.0685 73.7024 42.9497 73.9641C40.3082 72.6062 38.4283 70.0793 37.1433 67.4575C34.8589 62.6424 34.2159 57.1351 34.8589 51.8911C35.2397 49.2214 35.9059 46.504 37.429 44.2628C38.6422 42.5467 39.9273 40.7587 41.879 39.853Z" fill="white"/>
<path d="M67.5584 42.9521C67.5343 42.6185 67.3686 41.9745 67.8674 41.9512C68.5573 42.6896 69.057 43.6194 69.5807 44.5014C71.5091 47.8146 73.8641 50.8183 76.2677 53.7746C79.0052 56.9688 81.3847 60.5446 82.6233 64.5958C82.9564 65.8356 83.4091 67.0995 83.1466 68.3862C82.6233 68.3621 82.3853 67.8387 82.1477 67.4331C81.3382 66.0265 80.6243 64.548 79.7911 63.1426C78.0059 60.3536 76.0077 57.7314 73.914 55.2049C71.0801 51.5817 68.3907 47.5767 67.5584 42.9521Z" fill="#8B1D31"/>
<path d="M8.10871 52.368C8.08462 51.2003 10.0363 51.0809 10.3457 52.1059C10.536 52.6547 10.4882 53.2259 10.5123 53.7746C10.2265 53.822 9.9412 53.8458 9.65586 53.8458C9.63177 53.2974 9.65586 52.725 9.58401 52.1771C9.32276 51.6288 8.82268 52.2012 8.9178 52.606C8.65613 53.8216 9.48889 54.7752 10.06 55.7287C10.6548 56.5628 10.5123 57.6832 10.4172 58.6604C10.2976 59.6139 8.89371 59.8049 8.37037 59.1139C7.9895 58.3501 8.08462 57.4685 8.15606 56.6818C8.3467 56.6585 8.70348 56.6585 8.89371 56.6585C8.96515 57.3732 8.82268 58.1599 9.15537 58.8272C9.77423 58.5893 9.63136 57.8983 9.63136 57.3732C9.67912 56.396 8.91738 55.7046 8.51284 54.8941C8.01359 54.1557 8.06094 53.2259 8.10871 52.368Z" fill="white"/>
<path d="M19.8887 52.3678C19.7462 51.2001 21.7453 51.0332 22.0543 52.0342C22.2445 52.6782 22.1494 53.3455 22.1494 53.9891C21.8873 53.9658 21.6257 53.9658 21.3636 53.9658C21.3636 53.3218 21.3399 52.7019 21.3162 52.0587C21.1734 52.082 20.9117 52.1062 20.7929 52.1299C20.6264 54.3706 20.6978 56.6113 20.7456 58.8524C20.888 58.8524 21.1501 58.805 21.2689 58.805C21.364 58.2567 21.364 57.7079 21.3403 57.1596C21.6261 57.0644 21.8878 57.0644 22.1735 57.0881C22.1735 57.7079 22.2209 58.3278 22.1021 58.9473C21.7212 59.8534 19.8409 59.6866 19.9124 58.5658C19.8414 56.4919 19.8414 54.4421 19.8887 52.3678Z" fill="white"/>
<path d="M25.0768 52.1777C24.9339 52.9403 24.9816 53.7274 25.0531 54.5133C25.3625 54.5374 25.6719 54.5615 25.9814 54.609C25.9814 54.728 25.9577 55.0142 25.9577 55.1573C25.6483 55.2763 25.2437 55.2288 25.0294 55.5147C24.9584 56.5156 24.9821 57.5411 25.0535 58.5654C25.3629 58.5895 25.6724 58.6373 25.9818 58.6606C25.9581 58.899 25.9344 59.1611 25.9104 59.3999C25.3629 59.4469 24.7914 59.4469 24.2444 59.4232C24.1252 56.7777 24.1966 54.1085 24.1966 51.4622C24.791 51.4622 25.3862 51.4622 25.9814 51.4622C25.9814 51.6053 25.9577 51.9148 25.9577 52.0587" fill="white"/>
<path d="M98.5202 51.5098C98.7578 51.4861 99.0199 51.4619 99.2583 51.4382C99.2583 54.1324 99.2583 56.8016 99.2583 59.4717C98.9015 59.4717 98.568 59.4717 98.2112 59.4717C98.2353 57.565 98.2353 55.6817 98.2353 53.7983C98.3067 53.3931 98.0442 53.1069 97.7107 52.9405C97.687 52.3443 98.2345 51.9866 98.5202 51.5098Z" fill="white"/>
<path d="M101.566 51.9865C102.255 51.0571 104.207 51.3433 104.231 52.6546C104.278 54.5371 104.231 56.4205 104.231 58.3275C104.35 59.638 102.351 59.9721 101.637 59.1146C101.328 58.4469 101.399 57.6602 101.519 56.9688C101.804 56.9688 102.065 56.9451 102.351 56.9451C102.446 57.5649 102.28 58.2801 102.684 58.8047C103.612 58.4706 103.09 57.1593 103.16 56.4205C102.614 56.373 101.781 56.5399 101.519 55.8967C101.328 54.6087 101.328 53.2503 101.566 51.9865Z" fill="white"/>
<path d="M106.04 51.4858C106.897 51.4858 107.73 51.4858 108.586 51.4858C108.753 52.6062 108.349 53.6787 108.158 54.7753C107.802 56.3246 107.563 57.9222 107.159 59.4951C106.825 59.4951 106.516 59.4952 106.207 59.5189C106.422 57.1113 107.279 54.7991 107.445 52.4152C106.969 52.4152 106.493 52.3915 106.017 52.3437C106.04 52.0583 106.04 51.7721 106.04 51.4858Z" fill="white"/>
<path d="M110.324 52.6782C110.704 52.1295 111.11 51.391 111.871 51.4385C111.895 54.1326 111.871 56.826 111.871 59.4956C111.514 59.4956 111.181 59.4956 110.824 59.4956C110.824 57.589 110.871 55.6815 110.824 53.7981C110.919 53.2502 110.086 53.2257 110.324 52.6782Z" fill="white"/>
<path d="M102.518 52.6783C102.4 52.2723 103.28 52.1059 103.184 52.6064C103.279 53.5599 103.231 54.5371 103.136 55.5148C102.97 55.5148 102.637 55.4907 102.47 55.4907C102.471 54.5371 102.399 53.6081 102.518 52.6783Z" fill="#8B1D31"/>
<path d="M61.5842 54.8471C63.7261 54.4423 66.0827 54.8471 67.7956 56.2774C69.0329 57.1115 69.7473 58.4702 70.8185 59.4716C72.1509 60.2583 73.7454 60.7109 74.6974 62.0227C76.1731 63.6672 76.2204 66.0273 76.1731 68.1012C75.8873 73.3693 73.0796 78.1124 69.4146 81.7601C65.6782 85.7169 60.3713 88.5056 54.8257 88.2198C52.0653 88.1482 49.2094 87.2421 47.1148 85.3596C44.7113 83.0943 43.9499 79.6376 44.1161 76.4438C44.5447 70.2695 47.6859 64.5729 51.9224 60.21C53.6116 58.4939 55.4923 56.8964 57.7294 55.9907C58.9667 55.4907 60.2517 55.0622 61.5842 54.8471Z" fill="white"/>
<path d="M66.2014 62.332C67.1534 61.6406 68.1295 60.8069 69.3423 60.7112C69.1765 61.7121 68.2952 62.3557 67.7241 63.1196C64.6775 66.3849 62.2503 70.1034 59.8226 73.8226C57.7999 76.8742 55.3959 79.7585 52.3024 81.7849C51.2312 82.5001 50.1131 83.2152 48.8513 83.5489C48.9464 82.523 49.8988 81.9043 50.5173 81.1888C53.7304 78.0424 56.3005 74.3481 58.7282 70.5801C60.8227 67.5282 63.1076 64.4542 66.2014 62.332Z" fill="#8B1D31"/>
<path d="M95.5211 73.3936C96.6163 74.013 97.6871 74.6807 98.7823 75.3252C97.8545 77.1361 96.522 78.7574 95.7831 80.6644C96.5686 81.1412 97.3303 81.6175 98.1398 82.0465C99.282 80.5929 100.067 78.9229 101.043 77.3508C102.114 77.8043 103.09 78.447 104.042 79.0669C103.16 80.6877 102.185 82.2374 101.282 83.8341C102.138 84.4536 103.067 85.0023 104.042 85.4787C105.113 83.7634 106.041 81.9512 107.183 80.2584C108.135 80.783 109.087 81.355 109.992 81.9504C108.516 85.2881 106.661 88.4824 104.518 91.4145C104.328 91.8197 103.9 91.6521 103.613 91.4611C99.0681 88.6725 94.427 86.027 89.8583 83.2854C90.1199 82.6905 90.5955 82.1892 90.976 81.6646C92.8562 79.1139 94.3078 76.3012 95.5211 73.3936Z" fill="white"/>
<path d="M32.5501 87.0518C34.7393 86.7177 37.0482 87.1471 38.9285 88.3153C40.8794 89.6029 42.3551 91.6044 42.8551 93.8937C43.307 96.1819 42.9976 98.7088 41.6648 100.663C39.7612 103.642 35.9771 105.24 32.5264 104.477C28.7185 103.81 25.5773 100.377 25.3156 96.4914C24.791 92.0811 28.1707 87.6958 32.5501 87.0518Z" fill="white"/>
<path d="M32.788 92.0335C34.3584 91.5102 36.2627 91.9869 37.262 93.3444C38.6185 94.9174 38.3569 97.54 36.7624 98.875C35.0964 100.305 32.2405 100.019 30.9791 98.1836C29.432 96.1821 30.3607 92.8444 32.788 92.0335Z" fill="#8B1D31"/>
<path d="M62.4893 96.8018C66.1534 96.7286 69.7951 95.9431 73.294 94.8469C73.461 96.0151 73.7222 97.1829 73.8414 98.3511C72.1751 98.7796 70.4618 98.9231 68.7722 99.2335C68.4864 99.2801 68.1765 99.4952 68.2251 99.8047C68.3439 100.687 68.5815 101.522 68.7248 102.379C70.5095 102.236 72.2947 101.783 74.0798 101.569C74.2705 102.689 74.4844 103.81 74.5558 104.954C72.818 105.169 71.0819 105.478 69.3677 105.789C69.4629 108.03 70.034 110.246 70.3916 112.463C70.0817 112.606 69.7731 112.725 69.4396 112.749C67.988 112.892 66.5596 113.177 65.1084 113.13C64.2258 107.695 63.2502 102.26 62.4893 96.8018Z" fill="white"/>
<path d="M13.2016 51.4382H12.464V59.3286H13.2016V51.4382Z" fill="white"/>
<path d="M98.8744 32.2899C99.4887 32.2899 100.105 32.2944 100.722 32.2874C100.74 32.4005 100.726 32.5158 100.728 32.6289C100.485 32.6289 100.238 32.6335 99.9966 32.6268C99.9858 32.6855 99.9879 32.7446 99.9879 32.8032C99.99 33.389 99.9879 33.9731 99.99 34.5589C99.8633 34.5564 99.7391 34.5543 99.6154 34.5609C99.6041 34.4952 99.6083 34.4299 99.6083 34.3642C99.6083 33.785 99.6062 33.2059 99.6083 32.6289C99.362 32.6268 99.1161 32.6381 98.8723 32.6223C98.8765 32.5112 98.8744 32.4005 98.8744 32.2899Z" fill="white"/>
<path d="M100.989 32.2874C101.173 32.2965 101.359 32.2853 101.542 32.2919C101.727 32.8939 101.921 33.4909 102.106 34.0908C102.142 34.0363 102.144 33.9731 102.165 33.9144C102.335 33.3736 102.495 32.8311 102.667 32.2903C102.845 32.2903 103.025 32.2948 103.204 32.2878C103.215 32.3535 103.211 32.4213 103.211 32.487C103.211 33.1202 103.211 33.7538 103.211 34.3874C103.211 34.4461 103.218 34.5052 103.202 34.5613C103.091 34.5547 102.981 34.5568 102.87 34.5613C102.854 34.4503 102.865 34.3396 102.861 34.2289C102.859 33.7152 102.868 33.2018 102.859 32.6884C102.766 32.9663 102.687 33.2471 102.599 33.5275C102.497 33.8716 102.38 34.2111 102.287 34.5568C102.17 34.5522 102.051 34.5705 101.935 34.5501C101.741 33.9369 101.549 33.3237 101.355 32.7109C101.35 32.7063 101.339 32.693 101.334 32.6884C101.33 33.3083 101.337 33.9302 101.332 34.5522C101.215 34.5613 101.099 34.5568 100.982 34.5547C100.98 33.8512 100.982 33.1452 100.98 32.4417C100.979 32.3893 100.977 32.3373 100.989 32.2874Z" fill="white"/>
<path d="M15.1528 51.486V59.3285H15.9337V52.9425L16.7706 59.3048L17.8659 59.2811V51.4623H17.2707L17.1839 57.2313L16.4616 51.4619L15.1528 51.486Z" fill="white"/>
</svg>
