<svg width="185" height="121" viewBox="0 0 185 121" fill="none" xmlns="http://www.w3.org/2000/svg">
<path d="M92.4976 0C122.786 0 150.651 8.6023 161.97 14.4088C172.216 19.6659 183.544 25.2045 184.542 40.2035C185.645 56.6349 184.938 73.7853 180.405 80.8078C176.364 87.0861 171.197 96.2593 145.678 108.872C120.159 121.473 92.4332 121.055 92.4976 120.981C92.5613 121.055 64.8339 121.473 39.3254 108.872C13.8073 96.2589 8.64106 87.0861 4.58815 80.8078C0.0664513 73.7853 -0.640977 56.6349 0.452355 40.2038C1.46022 25.2048 12.788 19.6663 23.0342 14.4092C34.3527 8.6023 62.2181 0 92.4976 0Z" fill="#ED1C24"/>
<path d="M153.01 83.9674C169.183 76.2167 171.241 70.4732 172.838 67.6886C174.595 64.6033 175.313 54.4416 174.778 47.3556C174.317 41.0963 173.373 36.9137 164.725 33.0121C155.785 28.9803 122.816 24.1511 92.4976 24.1511C62.1869 24.1511 29.2186 28.9803 20.2792 33.0121C11.6306 36.9137 10.6875 41.0959 10.218 47.3556C9.69182 54.442 10.4096 64.6033 12.1675 67.6886C13.7536 70.4736 15.81 76.217 31.9958 83.9674C42.0171 88.7747 52.3373 91.3021 59.378 92.6358C59.691 92.7004 59.9252 92.9684 59.9252 93.3025V93.3767L59.9159 93.9587C59.9159 106.098 74.5022 115.948 92.4983 115.968C110.504 115.948 125.089 106.098 125.089 93.9587L125.08 93.3336V93.3021C125.08 92.9569 125.336 92.6666 125.671 92.6239C132.698 91.3021 143.009 88.7654 153.01 83.9674Z" fill="white"/>
<path d="M118.248 39.1487V51.4327V60.3992V68.5538H124.064V61.9304L125.232 60.3992L126.122 59.2277L126.723 60.3992L130.955 68.5538H137.337L132.897 60.3992L129.857 54.8082L132.319 51.4327L136.378 45.8649H129.984L126.087 51.4327L124.064 54.3326V51.4327V39.1487H118.248ZM20.0377 39.2995V51.4327V60.3992V68.5538H30.1316C36.4574 68.5538 39.406 65.9745 40.503 60.3992H33.7159C33.0344 62.6371 31.6759 63.4847 29.1026 63.4847H26.3161V60.3992V51.4327V44.0321H28.9754C33.2029 44.0321 34.1428 46.5438 34.3056 51.4327H41.0002C40.7205 44.0145 38.7032 39.2995 30.5363 39.2995H20.0377ZM41.0002 51.4327L34.3056 51.4443C34.3267 52.0969 34.3287 52.7932 34.3287 53.5322C34.3287 56.6142 34.1899 58.8436 33.7159 60.3992L40.503 60.3876C40.8841 58.4604 41.0349 56.1802 41.0349 53.5206C41.0349 52.8083 41.0246 52.109 41.0002 51.4327ZM107.391 41.0974V45.5981H104.443V49.5652H107.391V51.4327V60.3992V62.5568C107.391 67.1606 108.235 68.5538 112.779 68.5538C114.119 68.5538 115.295 68.4174 116.56 68.2986V64.2503C116.174 64.293 115.713 64.3315 115.253 64.3315C113.569 64.3315 113.195 63.6116 113.195 61.8492V60.3992V51.4327V49.5652H116.56V45.5981H113.195V41.0974H107.391ZM54.3084 45.2733C51.9171 45.2733 50.2842 46.699 49.1054 48.8924H49.0129V45.8649H43.463V51.4327L51.1403 51.4211C51.874 51.0121 52.7359 50.8411 53.5569 50.8411C54.1477 50.8411 54.7727 50.8808 55.3606 50.9223V45.3545C55.0302 45.3118 54.6518 45.2733 54.3084 45.2733ZM43.463 51.4327V60.3992V68.5538H49.2672V60.3992V54.9242C49.2672 53.1247 50.0688 52.0214 51.1403 51.4327H43.463ZM168.741 45.2733C166.352 45.2733 164.716 46.699 163.538 48.8924H163.445V45.8649H157.895V51.4327L165.573 51.4211C166.306 51.0121 167.165 50.8411 167.989 50.8411C168.579 50.8411 169.203 50.8808 169.793 50.9223V45.3545C169.459 45.3118 169.087 45.2733 168.741 45.2733ZM157.895 51.4327V60.3992V68.5538H163.711V60.3992V54.9242C163.711 53.1247 164.501 52.0214 165.573 51.4327H157.895ZM51.2444 63.5543V68.5538H56.2278V63.5543H51.2444Z" fill="#17469D"/>
<path fill-rule="evenodd" clip-rule="evenodd" d="M92.0159 76.5162C91.5009 76.5385 90.9104 76.6469 90.5452 76.5923C90.2018 76.5496 89.8389 76.5923 89.5277 76.5162C89.2809 76.4639 89.0345 76.4951 88.7551 76.5385C88.3589 76.5927 88.027 76.7207 87.7377 76.9141C87.438 77.1187 86.6351 78.184 86.4834 78.3247C86.3221 78.4627 85.8074 78.8937 85.5295 79.1743C85.2498 79.4642 84.9731 80.0874 84.9179 80.4107C84.8658 80.7433 84.8869 81.4103 84.9179 81.5722C84.9398 81.7214 84.9179 81.9593 84.8754 82.1408C84.8328 82.3235 84.7048 82.9274 84.6527 83.0013C84.5979 83.0651 84.555 83.518 84.5343 84.1193C84.522 84.7213 84.5768 85.0981 84.4895 85.5183C84.4155 85.937 84.3822 86.3457 83.6211 87.1957C82.8722 88.0335 82.9044 88.1734 82.8389 88.3568C82.7746 88.5502 82.7316 88.6678 82.924 88.98C83.1279 89.2825 83.2674 89.2699 83.4391 89.4317C83.5897 89.5821 84.1787 89.6801 83.9767 90.346C83.751 91.0338 84.1472 91.0765 84.1569 91.3241C84.1694 91.5713 84.0936 91.6566 84.1143 91.8734C84.1476 92.0876 84.3496 92.3682 84.3496 92.5727C84.3496 92.8838 84.3733 93.1098 84.2878 93.9692C84.2878 93.9692 84.1787 94.9918 85.6039 95.3463C87.0195 95.7011 87.9959 96.131 88.3382 96.6476C88.6701 97.1643 88.7126 97.8518 88.5298 98.475C88.3496 99.1101 87.9515 99.7333 86.977 100.421C85.9691 101.132 84.2124 101.722 82.1112 102.906C80.0218 104.087 79.6566 104.657 79.3247 105.077C79.078 105.388 78.7035 106.109 78.6391 106.551C78.5966 106.915 78.5 107.486 79.1416 107.776C79.8601 108.1 80.3322 107.991 80.3322 107.991H105.528C105.528 107.991 106.58 108.12 107.116 107.465C107.673 106.787 107.201 105.475 107.073 105.153C106.912 104.777 106.376 104.13 105.84 103.679C105.241 103.174 103.353 102.001 102.356 101.442C101.532 100.992 98.7764 99.4223 97.6835 98.1417C96.6871 96.9691 96.2908 95.5393 96.6112 94.7442C96.9461 93.9599 97.5555 93.8522 98.0061 93.8931C98.3805 93.9265 99.324 94.1421 99.6663 94.0764C100.117 93.9814 100.502 93.8311 100.899 93.131C101.297 92.4424 102.442 92.2067 102.689 92.0334C102.936 91.8734 104.178 91.0765 104.243 89.8838C104.34 88.2926 103.719 88.2714 103.525 86.604C103.332 84.937 103.022 84.679 102.4 83.937C101.907 83.3569 101.479 82.0243 101.274 81.5391C100.868 80.5611 100.01 80.0017 99.6137 79.9163C99.2278 79.8194 98.0609 79.26 97.5347 78.6788C97.0956 78.1959 96.3656 77.4635 95.7351 77.3236C95.1017 77.1858 94.0083 77.1524 93.6217 76.9479C93.2358 76.7434 92.5502 76.517 92.4433 76.5504C92.3241 76.5704 92.528 76.5066 92.0159 76.5162ZM62.1659 93.8919C62.1659 82.8613 75.7558 73.9138 92.5184 73.9138C109.291 73.9138 122.882 82.8613 122.882 93.8919C122.882 104.926 109.291 113.873 92.5184 113.873C75.7561 113.873 62.1659 104.926 62.1659 93.8919Z" fill="#ED1C24"/>
</svg>
