<svg width="400" height="50" viewBox="0 0 400 50" fill="none" xmlns="http://www.w3.org/2000/svg">
<path d="M209.645 0.0599096C198.397 0.948238 190.294 7.91081 188.073 18.6068C187.545 21.1157 187.449 22.1601 187.449 25.3893C187.449 28.5104 187.533 29.4828 188.001 31.8717C188.938 36.5894 191.531 41.2111 194.868 44.1282C198.145 46.9853 202.131 48.7259 206.788 49.3381C208.553 49.5662 212.034 49.5662 213.643 49.3381C217.052 48.858 220.125 47.6335 222.262 45.8929C222.826 45.4367 223.282 45.1126 223.294 45.1606C223.294 45.2206 223.391 45.9529 223.499 46.8172L223.703 48.3778L229.321 48.4138L234.927 48.4378V35.0528V21.6679H223.883H212.839V27.43V33.1922H215.9C217.977 33.1922 218.961 33.2282 218.961 33.3242C218.961 33.3842 218.541 33.8644 218.037 34.3686C216.968 35.437 215.648 36.1693 214.219 36.5054C212.971 36.7935 210.822 36.6855 209.525 36.2653C205.852 35.0889 203.967 31.3315 203.955 25.1972C203.943 19.219 205.84 14.7293 208.937 13.3848C210.234 12.8326 212.322 12.6886 213.787 13.0727C216.092 13.6609 217.832 15.4256 218.541 17.8505L218.733 18.5467H226.656H234.567L234.519 18.2706C234.483 18.1266 234.339 17.4063 234.194 16.6861C233.834 14.7894 233.234 13.0727 232.346 11.2841C229.285 5.14979 223.547 1.27236 216.02 0.251981C214.303 0.023897 211.326 -0.0721392 209.645 0.0599096Z" fill="#C92027"/>
<path d="M364.527 0.0599098C356.424 0.624118 350.602 3.75728 348.009 8.94319C346.04 12.8566 346.16 18.7388 348.261 22.2081C349.173 23.7207 350.902 25.4493 352.63 26.6017C353.591 27.25 355.944 28.3904 357.432 28.9426C358.092 29.1827 360.817 29.939 363.494 30.6112C370.541 32.3999 371.994 32.9521 372.57 34.0565C372.87 34.6207 372.738 35.509 372.306 35.9652C371.513 36.7935 369.797 37.2737 367.648 37.2737C364.299 37.2737 362.09 35.8211 361.574 33.2762L361.442 32.5919H353.507H345.572L345.656 33.8044C346.028 39.5185 349.521 44.3203 355.367 47.1173C358.981 48.858 362.138 49.5182 366.76 49.5182C374.635 49.5182 380.757 47.5375 384.514 43.7681C386.591 41.6913 387.767 39.5545 388.404 36.7095C388.668 35.569 388.776 32.1598 388.596 30.8993C388.212 28.2943 386.915 25.8214 384.922 23.9607C382.161 21.3798 378.656 19.8912 370.889 18.0065C365.271 16.638 363.002 15.6297 362.654 14.3452C362.402 13.4088 362.906 12.7966 364.179 12.4965C366.52 11.9203 369.281 12.3164 370.517 13.4088C371.165 13.9851 371.417 14.4172 371.597 15.3055L371.741 15.9658L379.616 16.0018L387.503 16.0258V15.6777C387.503 14.5013 386.795 11.7642 386.027 10.0236C384.97 7.58669 382.774 4.96973 380.541 3.49318C377.984 1.77655 374.49 0.576101 370.997 0.191959C369.341 0.0118927 366.243 -0.0481302 364.527 0.0599098Z" fill="#C92027"/>
<path d="M0 24.7291V48.3178H8.28306H16.5661V40.3349V32.3519H24.7291H32.8922V26.2297V20.1074H24.7291H16.5661V16.7461V13.3849H26.8299H37.0937V7.26264V1.14038H18.5469H0V24.7291Z" fill="#C92027"/>
<path d="M43.6962 24.7291V48.3178H51.9792H60.2623V24.7291V1.14038H51.9792H43.6962V24.7291Z" fill="#C92027"/>
<path d="M66.0604 1.40448C66.0964 1.56054 69.7097 12.1725 74.0914 24.9932L82.0503 48.3178H90.1653H98.2803L106.395 24.9332C110.849 12.0764 114.534 1.4645 114.582 1.34446C114.666 1.15239 114.222 1.14038 106.215 1.14038H97.7641L93.9827 14.9455C91.9179 22.5323 90.1893 28.7506 90.1533 28.7506C90.1173 28.7506 88.4967 22.7124 86.564 15.3296C84.6192 7.9589 82.9866 1.7406 82.9266 1.52452L82.8186 1.14038H74.4035H66.0004L66.0604 1.40448Z" fill="#C92027"/>
<path d="M292.548 1.20043C292.548 1.23644 296.498 8.00694 301.311 16.242L310.075 31.2355V39.7707V48.3178H318.358H326.641V39.6506V30.9954L335.404 16.1339C340.23 7.97093 344.167 1.24845 344.167 1.21243C344.167 1.17642 340.026 1.15241 334.972 1.16441L325.764 1.20043L322.151 8.30705C320.17 12.2205 318.514 15.4257 318.478 15.4257C318.442 15.4257 316.797 12.2205 314.816 8.30705L311.215 1.20043L301.888 1.16441C296.75 1.15241 292.548 1.16441 292.548 1.20043Z" fill="#C92027"/>
<path d="M394.373 1.9917C395.337 1.99171 396.263 2.2312 397.15 2.71016C398.036 3.18915 398.733 3.876 399.24 4.77073C399.747 5.66548 400 6.60155 400 7.57894C400 8.55149 399.752 9.47905 399.255 10.3616C398.758 11.2442 398.065 11.9323 397.175 12.4258C396.286 12.9194 395.352 13.1662 394.373 13.1662C393.393 13.1662 392.459 12.9194 391.57 12.4258C390.681 11.9323 389.987 11.2442 389.49 10.3616C388.993 9.47905 388.745 8.55149 388.745 7.57894C388.745 6.60155 388.998 5.66548 389.505 4.77073C390.012 3.876 390.709 3.18915 391.595 2.71016C392.482 2.2312 393.408 1.99171 394.373 1.9917ZM394.38 3.08581C393.606 3.08582 392.864 3.27789 392.154 3.66204C391.443 4.0462 390.884 4.59812 390.475 5.31779C390.066 6.03747 389.861 6.79119 389.861 7.57894C389.861 8.36184 390.061 9.10827 390.46 9.81822C390.859 10.5282 391.417 11.0825 392.132 11.4813C392.847 11.88 393.596 12.0794 394.38 12.0794C395.168 12.0794 395.919 11.88 396.632 11.4813C397.344 11.0825 397.902 10.5282 398.303 9.81822C398.705 9.10827 398.906 8.36184 398.906 7.57894C398.906 6.79119 398.701 6.03747 398.292 5.31779C397.883 4.59812 397.322 4.0462 396.61 3.66204C395.897 3.27789 395.154 3.08582 394.38 3.08581ZM391.83 10.5695V4.63944H393.043C394.179 4.63945 394.816 4.6443 394.953 4.65403C395.355 4.68807 395.667 4.76709 395.89 4.89109C396.113 5.01509 396.299 5.20474 396.448 5.46002C396.597 5.71532 396.672 5.99857 396.672 6.30978C396.672 6.7377 396.531 7.10362 396.25 7.40753C395.968 7.71146 395.573 7.89989 395.063 7.97282C395.244 8.0409 395.384 8.11506 395.482 8.19529C395.58 8.27553 395.715 8.42749 395.886 8.65117C395.93 8.70953 396.077 8.95023 396.327 9.37328L397.032 10.5695H395.533L395.034 9.60669C394.696 8.95996 394.417 8.5527 394.196 8.38494C393.976 8.21718 393.697 8.1333 393.359 8.13329H393.043V10.5695H391.83ZM393.043 7.19965H393.535C394.235 7.19966 394.67 7.17291 394.839 7.11942C395.008 7.06594 395.142 6.97233 395.239 6.8386C395.337 6.70488 395.386 6.55292 395.386 6.38272C395.386 6.21739 395.339 6.0703 395.243 5.94143C395.148 5.81258 395.012 5.72018 394.835 5.66425C394.659 5.60834 394.226 5.58038 393.535 5.58037H393.043V7.19965Z" fill="#C92027"/>
</svg>
