<svg width="125" height="71" viewBox="0 0 125 71" fill="none" xmlns="http://www.w3.org/2000/svg">
<path fill-rule="evenodd" clip-rule="evenodd" d="M20.8961 33.1985L1.89614 8.44485C1.89614 8.44485 1 7.27298 1 5.54963C1 3.82629 2.79228 1 6.37684 1C7.30744 1 10.9954 1.89614 10.9954 1.89614L98.1967 18.8539V12.9866H98.3741L106.562 22.5763L97.3856 29.9736L96.9217 29.833L96.8802 25.0149L33.082 17.5028C33.082 17.5028 28.9632 16.6498 28.9632 18.4289C28.9632 20.2081 36.6043 33.1985 36.6043 33.1985H20.8961Z" fill="#FFEF00" stroke="#DB001D"/>
<path fill-rule="evenodd" clip-rule="evenodd" d="M41.1538 58.9736L48.0817 68.1761H57.2499L51.9074 58.9736H41.1538Z" fill="#FFEF00" stroke="#DB001D"/>
<path fill-rule="evenodd" clip-rule="evenodd" d="M29.5872 56.4844V36.0449L35.5535 36.0444L44.9225 46.9604L44.9225 36.0448H50.0933V56.4844H44.9225L35.5535 45.9443L35.5534 56.4844H29.5872Z" fill="#C6001D"/>
<path fill-rule="evenodd" clip-rule="evenodd" d="M114.111 56.9817H120.093V40.9664L124.562 40.9668V36.0137H109.562V40.9664H114.046L114.111 56.9817Z" fill="#C6001D"/>
<path d="M37.1689 60.7646C37.7874 60.7646 38.3913 60.9242 38.9805 61.2432C39.5697 61.5589 40.0286 62.013 40.3574 62.6055C40.6862 63.1947 40.8506 63.8099 40.8506 64.4512C40.8506 65.0859 40.6878 65.6963 40.3623 66.2822C40.04 66.8682 39.5859 67.3239 39 67.6494C38.4173 67.9717 37.807 68.1328 37.1689 68.1328C36.5309 68.1328 35.9189 67.9717 35.333 67.6494C34.7503 67.3239 34.2962 66.8682 33.9707 66.2822C33.6452 65.6963 33.4824 65.0859 33.4824 64.4512C33.4824 63.8099 33.6468 63.1947 33.9756 62.6055C34.3076 62.013 34.7682 61.5589 35.3574 61.2432C35.9466 60.9242 36.5505 60.7646 37.1689 60.7646ZM37.1689 61.375C36.6514 61.375 36.1468 61.5085 35.6553 61.7754C35.167 62.0391 34.7845 62.4183 34.5078 62.9131C34.2311 63.4046 34.0928 63.9173 34.0928 64.4512C34.0928 64.9818 34.2279 65.4912 34.498 65.9795C34.7715 66.4645 35.1523 66.8438 35.6406 67.1172C36.1289 67.3874 36.6383 67.5225 37.1689 67.5225C37.6995 67.5225 38.209 67.3874 38.6973 67.1172C39.1855 66.8438 39.5648 66.4645 39.835 65.9795C40.1051 65.4912 40.2402 64.9818 40.2402 64.4512C40.2402 63.9173 40.1019 63.4046 39.8252 62.9131C39.5518 62.4183 39.1693 62.0391 38.6777 61.7754C38.1862 61.5085 37.6833 61.375 37.1689 61.375ZM35.5527 66.4873V62.5225H36.915C37.3805 62.5225 37.7174 62.5599 37.9258 62.6348C38.1341 62.7064 38.3001 62.8333 38.4238 63.0156C38.5475 63.1979 38.6094 63.3916 38.6094 63.5967C38.6094 63.8864 38.5052 64.1387 38.2969 64.3535C38.0918 64.5684 37.8184 64.6888 37.4766 64.7148C37.6165 64.7734 37.7288 64.8434 37.8135 64.9248C37.973 65.0811 38.1683 65.3431 38.3994 65.7109L38.8828 66.4873H38.1016L37.75 65.8623C37.4733 65.3708 37.2503 65.0632 37.0811 64.9395C36.9639 64.8483 36.793 64.8027 36.5684 64.8027H36.1924V66.4873H35.5527ZM36.1924 64.2559H36.9688C37.3398 64.2559 37.5921 64.2005 37.7256 64.0898C37.8623 63.9792 37.9307 63.8327 37.9307 63.6504C37.9307 63.5332 37.8981 63.429 37.833 63.3379C37.7679 63.2435 37.6768 63.1735 37.5596 63.1279C37.4456 63.0824 37.2324 63.0596 36.9199 63.0596H36.1924V64.2559Z" fill="#C6001D"/>
<path d="M96.9468 56.3755C93.7546 56.1437 92.4027 55.6384 90.9673 54.1403C89.8602 52.985 89.3635 52.0036 88.9738 50.2014C88.697 48.9211 88.6997 49.0006 88.6997 42.092V35.7104H91.6297H94.5597L94.574 42.3802L94.5884 49.0499L94.7028 49.4217C95.0553 50.5663 95.7751 51.2927 96.8517 51.5902C97.2953 51.7128 98.3852 51.714 98.8347 51.5923C99.9329 51.2951 100.629 50.605 100.982 49.4637L101.094 49.0996L101.108 42.405L101.122 35.7104H104.052H106.982V42.171C106.982 46.392 106.964 48.7988 106.93 49.114C106.658 51.595 105.576 53.6202 103.796 54.9758C102.912 55.6491 101.667 56.1047 100.176 56.3011C99.4261 56.3999 97.7988 56.4374 96.9468 56.3755Z" fill="#C6001D"/>
</svg>
