<svg width="121" height="121" viewBox="0 0 121 121" fill="none" xmlns="http://www.w3.org/2000/svg">
<path fill-rule="evenodd" clip-rule="evenodd" d="M6.07382 4.78058C5.26788 5.05875 4.72524 5.81584 4.7207 6.66938C4.71859 7.07543 10.8517 84.6227 10.9077 84.8973L10.944 85.0741H20.9781H31.0123V44.8525V4.63062L18.7531 4.63303C7.05136 4.63545 6.47453 4.6421 6.07382 4.78058ZM90.0454 44.8525V85.0741H100.07H110.095L110.138 84.74C110.39 82.7578 116.345 6.4287 116.268 6.15598C116.072 5.45876 115.45 4.86403 114.76 4.71648C114.48 4.65631 110.693 4.63062 102.203 4.63062H90.0454V44.8525Z" fill="#E4042C"/>
<path fill-rule="evenodd" clip-rule="evenodd" d="M4.81809 0.0811102C2.12123 0.468423 0 2.90417 0 5.61295C0 6.72379 8.73128 116.209 8.8605 116.717C9.42675 118.948 11.4378 120.666 13.7981 120.935C14.2972 120.992 28.9703 121.01 61.0405 120.994L107.559 120.971L108.147 120.789C110.16 120.166 111.673 118.641 112.157 116.747C112.417 115.729 121.115 5.75082 120.999 4.9517C120.659 2.6251 119.086 0.846061 116.768 0.16849C116.236 0.013081 5.89096 -0.0730894 4.81809 0.0811102ZM116.492 1.66937C118.202 2.24263 119.368 3.64433 119.529 5.32027C119.593 5.9803 110.869 115.717 110.704 116.332C110.32 117.762 109.213 118.874 107.716 119.332C107.084 119.526 14.2385 119.563 13.4595 119.37C12.0265 119.015 10.8041 117.888 10.3867 116.539C10.2354 116.049 1.49627 7.02947 1.49567 5.62474C1.49506 3.7432 2.942 2.02554 4.88013 1.60769C5.78927 1.41146 115.905 1.47253 116.492 1.66937ZM58.3643 5.62595C55.8275 5.89353 52.3683 6.8408 49.6711 8.00606C48.1573 8.66005 47.8565 8.89195 47.8562 9.40353C47.8559 10.0666 46.6114 11.5309 45.6523 11.9965C44.7041 12.4567 44.1896 12.5825 42.4404 12.7811C42.2536 12.8023 42.0823 12.8688 42.0593 12.9287C41.9225 13.2851 43.3483 14.9605 44.0586 15.2779C44.7286 15.5773 44.2928 15.7254 42.5433 15.7925C40.781 15.86 40.2689 16.1043 39.8173 17.0942C39.6006 17.5692 39.6306 17.698 40.1412 18.4747C41.3015 20.2398 41.2715 21.2536 40.0292 22.2411C38.4682 23.4823 38.4542 23.6942 39.6258 28.459C40.0776 30.2958 40.4995 31.9451 40.5637 32.1241C40.6853 32.463 40.6302 32.6245 40.3933 32.6245C40.163 32.6245 39.683 32.9683 39.5295 33.2434C38.8785 34.4099 39.0665 36.2068 40.251 40.1343C41.089 42.9138 41.1901 43.2866 41.4453 44.5378C42.0838 47.6732 42.8504 48.7804 44.3661 48.758C44.9735 48.7489 44.9947 48.7761 45.0591 49.649C45.1763 51.227 45.5661 52.7596 46.1989 54.1314C46.4038 54.5746 46.5182 54.9692 46.5872 55.4681C46.8938 57.6886 48.2708 60.1636 50.3487 62.2296C51.2319 63.1076 51.9328 63.6763 54.1729 65.3326C55.0712 65.9966 55.806 66.565 55.806 66.5956C55.806 66.6261 55.0004 66.6712 54.0156 66.6956C52.2705 66.7392 51.5166 66.8383 51.3021 67.053C51.0618 67.2931 50.9773 71.1943 51.2028 71.6303C51.4691 72.1446 52.3111 72.1894 57.6361 71.9717C59.0056 71.9157 58.9308 71.8081 58.4057 73.0786C58.1902 73.5999 57.6458 74.9638 57.1958 76.11C56.174 78.7114 55.2104 80.8944 54.2153 82.8621C53.2456 84.7784 53.2172 84.5707 54.4856 84.8338C54.7334 84.8852 55.2933 85.1019 55.7304 85.3154C56.861 85.8678 56.8223 85.8796 57.3344 84.8186C58.2417 82.9392 59.8739 78.8169 60.2767 77.3877C60.3893 76.9877 60.51 76.6603 60.5445 76.6603C60.6268 76.6603 60.6171 83.9034 60.5327 85.4282C60.4431 87.0491 60.4849 87.0972 61.7251 86.8024C62.1791 86.6947 62.7408 86.6246 63.2038 86.6179C64.0912 86.6055 64.0906 86.6064 64.2234 85.5476C64.5854 82.6629 63.9341 75.8255 63.0053 72.7566C62.7511 71.9164 62.7535 71.8937 63.1067 71.8353C63.679 71.741 66.0956 71.7833 67.577 71.9136C69.2337 72.0597 69.4486 72.0397 69.6075 71.7247C69.7927 71.3582 69.8496 67.5661 69.6753 67.2169C69.412 66.6899 68.2395 66.451 66.3731 66.5439C65.2476 66.5998 65.2361 66.5874 65.9827 66.1281C68.4468 64.6124 72.1939 61.2736 73.2289 59.6708C74.816 57.2133 76.1903 52.7279 76.1918 50.0007C76.1924 48.8163 76.2181 48.7776 77.0356 48.7287C78.6108 48.6349 79.0969 47.827 80.401 43.1345C81.7692 38.2116 82.1191 36.5925 82.1282 35.141C82.1372 33.6981 81.9974 33.4275 80.8943 32.7527C80.6322 32.5924 80.6083 32.7255 81.2814 30.5963C81.9923 28.3462 82.1723 27.6444 82.2274 26.9079L82.2758 26.263L81.8845 25.8857C81.1915 25.2172 81.0958 25.0082 80.9551 23.8569C79.7899 14.3134 73.2652 7.33514 64.0709 5.79738C63.1179 5.63834 59.3279 5.52436 58.3643 5.62595ZM61.8783 7.46455C65.6138 7.84037 69.1532 9.27806 72.564 11.806C75.9415 14.3089 77.7876 17.646 78.4907 22.5199C78.7779 24.509 78.5869 29.0156 78.1965 29.4643C77.9217 29.7803 77.8394 29.6382 77.3827 28.0599C76.5153 25.0617 75.8256 23.3229 74.8841 21.7613C74.2997 20.7916 74.2101 20.9854 74.1977 23.2482L74.1874 25.1319L74.4225 25.4581C75.4313 26.8601 75.6794 27.3883 76.0868 29.0023C76.4251 30.3426 76.5196 31.4151 76.3071 31.4967C76.2275 31.5269 75.6643 31.4749 75.0557 31.3806C73.7174 31.1735 71.9103 31.13 68.2819 31.2176C64.8944 31.2996 64.2785 31.4577 62.6539 32.6641C61.7527 33.3335 61.6634 33.3692 61.1637 33.2621C60.6005 33.1415 59.9665 33.1533 59.4202 33.2948C58.8449 33.4436 58.6748 33.3828 57.8918 32.7497C56.1653 31.3525 55.6511 31.2524 50.188 31.2503L45.7113 31.2485L45.751 30.6193C45.82 29.522 46.1608 29.0129 47.1232 28.569C47.8292 28.2434 47.7729 28.3652 48.2027 26.2328C49.0516 22.0231 50.3176 19.7243 52.6319 18.1896C54.3424 17.0552 57.5362 17.1549 60.037 18.4212C60.6068 18.7096 60.6447 18.699 61.4152 18.0339C62.3349 17.2402 62.3349 17.2417 61.2963 16.2276C57.6809 12.698 53.5434 11.9261 48.5922 13.8578C47.9927 14.0915 47.4912 14.2545 47.4776 14.2194C47.2512 13.6319 50.3984 11.4483 52.5208 10.7203C53.945 10.2317 53.8258 9.74519 52.2814 9.74277C51.6849 9.74156 51.5811 9.61276 51.9043 9.27564C52.9566 8.1784 58.6657 7.14164 61.8783 7.46455ZM52.6449 15.7635C53.0081 15.915 52.9463 15.9969 52.2388 16.3041C50.0564 17.252 48.7789 18.4681 47.5233 20.794C47.1858 21.4187 47.006 21.6515 46.5596 22.0409C45.4396 23.0185 45.3076 23.2138 44.8797 24.5251C44.2892 26.3353 43.986 28.0139 43.851 30.2172C43.7735 31.4837 43.7042 31.6506 43.1382 31.9369C42.5944 32.2121 42.6558 32.3094 42.1562 30.3795C40.758 24.9795 40.7577 24.9856 42.7354 22.1386C43.2233 21.4359 43.1379 20.502 42.4509 19.0362C42.0412 18.1615 41.9936 18.2041 43.6058 17.9994C45.1051 17.8092 47.0242 17.232 48.4602 16.539C50.1481 15.7248 51.8126 15.4161 52.6449 15.7635ZM46.2954 32.2828C46.7276 32.6738 46.2488 33.1887 45.6496 32.9773C45.4671 32.9132 45.2171 32.8606 45.0942 32.8606C44.774 32.8606 44.6448 32.5991 44.8824 32.4328C44.9789 32.3654 45.1651 32.3094 45.2961 32.3088C45.4271 32.3082 45.5875 32.2735 45.6523 32.2314C45.8336 32.1144 46.1359 32.1386 46.2954 32.2828ZM75.6174 32.3037C76.1854 32.4047 76.3722 32.8606 75.8453 32.8606C75.7439 32.8606 75.5106 32.9135 75.3265 32.9785C74.8904 33.1321 74.8066 33.1276 74.6181 32.9392C74.273 32.5945 74.5333 32.0993 75.0106 32.1918C75.1628 32.2211 75.4358 32.2716 75.6174 32.3037ZM49.8097 33.3123C49.8294 33.4502 49.7559 33.5364 49.4729 33.7054C49.2737 33.8245 48.7181 34.1786 48.2381 34.4921C47.3114 35.0977 47.0896 35.1612 46.8248 34.897C46.5427 34.6149 46.8372 33.8817 47.4004 33.4644C47.9028 33.0925 49.7619 32.9749 49.8097 33.3123ZM72.2928 33.1823C73.2362 33.4197 73.4223 34.9051 72.5089 34.9051C71.9342 34.9051 70.1062 33.5591 70.233 33.2292C70.2945 33.0689 71.7139 33.0369 72.2928 33.1823ZM54.025 33.4847C54.4275 33.6794 54.8348 34.1849 54.7552 34.3914C54.7168 34.4915 54.5794 34.5033 53.9 34.4655C52.9261 34.4111 52.3232 34.5453 51.1208 35.0841C50.1781 35.5065 49.6729 35.6302 49.4157 35.502C48.995 35.2924 49.1724 35.072 50.257 34.4561C50.6033 34.2593 51.0421 34.009 51.2322 33.8992C52.3038 33.2809 53.2983 33.133 54.025 33.4847ZM69.0918 33.7172C69.2715 33.8085 69.6937 34.1329 70.0306 34.4377C70.3674 34.7425 70.8816 35.1512 71.1728 35.3466C71.7886 35.759 71.8219 35.7983 71.6664 35.9274C71.3819 36.1632 70.4933 35.8309 69.6281 35.1658C68.8121 34.5381 68.2532 34.4202 67.0638 34.6251C65.8995 34.8259 65.796 34.4492 66.8649 33.9016C67.7432 33.4517 68.4553 33.3928 69.0918 33.7172ZM76.8331 33.9025C77.0183 34.2469 77.045 34.7273 76.9699 36.393C76.8727 38.5506 76.9769 38.686 77.9689 37.6949C78.3878 37.2768 78.4438 37.0769 78.3415 36.364C78.1765 35.2126 78.7034 34.2366 79.392 34.4186C80.5269 34.7183 80.5363 35.6341 79.444 39.5444C79.2086 40.388 78.8956 41.5774 78.7485 42.1879C77.902 45.7015 77.3134 46.6355 76.2299 46.1835C75.7545 45.9848 75.6283 46.0674 75.1089 46.9161C74.5218 47.8754 74.4849 48.0027 74.4301 49.256C74.1653 55.319 71.1912 60.3408 66.8643 62.0306C65.7409 62.4697 65.447 62.4642 64.9446 61.995C64.6011 61.6739 64.3221 61.5466 64.2973 61.6999C64.2921 61.7325 64.2816 62.1501 64.274 62.6281C64.2576 63.6567 64.1868 63.8306 63.3636 64.8649C62.6037 65.8197 62.4073 66.2566 62.2224 67.4001C61.9936 68.8172 58.6276 65.4759 57.6882 62.899C57.4176 62.157 57.4348 61.0813 57.7329 60.1077C58.2889 58.2924 58.4006 57.4152 58.2247 56.2421C58.1757 55.9147 58.1887 55.8119 58.2928 55.7079C58.5138 55.4871 58.7014 55.6649 59.2937 56.656C59.6753 57.2949 59.9162 56.7026 59.7824 55.4542C59.7125 54.8026 59.4314 54.4809 58.7628 54.2865C57.3698 53.882 58.3367 53.0783 60.1353 53.146C63.1373 53.2588 63.7864 53.2008 65.4715 52.668C66.6694 52.2895 66.7675 52.2892 67.3504 52.6659C67.9417 53.0478 67.9841 53.1596 68.0343 54.4851C68.1206 56.7628 68.9408 56.6397 69.4244 54.2768C69.6598 53.1267 69.8012 52.7654 70.1716 52.366C71.0947 51.3703 71.4951 49.9214 71.3568 48.0783C71.2726 46.9557 71.0832 46.6579 70.181 46.2297C69.6108 45.9594 68.8945 45.2422 68.1993 44.2454C67.1016 42.6716 66.5935 42.1927 65.5799 41.7761C64.6502 41.3942 64.3727 41.5665 64.5866 42.392C64.8838 43.5373 64.7528 43.7928 63.5737 44.3672C61.7941 45.2344 60.3015 45.1794 58.8757 44.1943C57.4666 43.2204 57.2829 41.9983 58.2417 39.9771C58.6742 39.0649 58.7429 38.816 58.9151 37.5392C59.2265 35.2289 59.4568 34.7476 60.2519 34.7476C60.928 34.7476 61.2242 35.0236 61.4346 35.8488C61.8413 37.4452 62.4932 38.0847 63.196 37.5761C63.6811 37.2251 63.7262 37.0706 63.4914 36.5641C63.1715 35.8748 63.3412 35.7665 64.1187 36.1644C65.1368 36.6854 66.9527 36.8943 68.2344 36.6376C69.6296 36.3585 70.2013 36.4725 70.5184 37.0935C70.7306 37.5093 70.8111 37.5586 71.4333 37.6559C72.4181 37.8098 72.5035 37.8981 72.2904 38.5388C72.0289 39.3255 71.2145 39.8897 69.9383 40.1685C69.1205 40.3469 69.1084 40.355 69.1084 40.7112C69.1084 41.3854 69.708 41.5354 71.0423 41.1944C72.8721 40.7269 73.6562 39.5535 74.2991 36.3204C74.707 34.2684 74.724 34.2381 75.6419 33.9322C76.4064 33.677 76.7075 33.6694 76.8331 33.9025ZM42.7948 34.6657C43.298 34.9722 43.4963 35.6407 43.2684 36.2615C43.0039 36.9814 43.0202 37.1815 43.6043 40.3701C44.0761 42.9459 43.9648 43.6095 43.1767 42.9187C42.8295 42.6142 42.6964 42.3699 42.5502 41.7697C42.4891 41.5191 42.1683 40.3408 41.8369 39.1514C41.1599 36.7201 41.0645 36.0795 41.274 35.3602C41.5013 34.5795 42.1598 34.2787 42.7948 34.6657ZM53.2187 36.4771C54.2604 36.6591 54.6523 36.6697 55.546 36.5405C56.3962 36.4178 56.5012 36.4958 56.0938 36.9463C55.7506 37.3258 55.7512 37.3194 56.0115 37.8168C56.6053 38.9512 55.2582 40.0185 52.9827 40.2168C52.2766 40.2782 52.1855 40.3447 52.1855 40.7974C52.1855 41.2569 52.4004 41.3631 53.3113 41.3528C54.3455 41.341 54.3106 41.338 54.3106 41.4444C54.3106 41.4949 54.2062 41.6987 54.0785 41.8973C53.9508 42.0963 53.7913 42.4697 53.7241 42.7273C53.5686 43.3235 53.531 43.3574 52.6304 43.7114C52.2176 43.8735 51.6565 44.1653 51.3832 44.3594C49.087 45.9924 47.9799 45.5023 46.951 42.3974C46.2352 40.2386 46.3953 39.8988 47.8089 40.5763C48.7565 41.0305 49.133 41.0643 49.3467 40.7139C49.6811 40.1664 49.5952 39.9771 48.8534 39.6248C47.5529 39.0077 46.6961 37.642 47.3432 37.2184C47.5575 37.0784 47.7191 37.1304 48.1204 37.4694C48.8643 38.098 49.1648 38.1095 49.695 37.5298C50.7252 36.4048 51.493 36.1753 53.2187 36.4771ZM56.3653 41.5012C56.5275 41.6325 56.5375 41.6727 56.4531 41.858C56.2824 42.2323 56.2527 42.8567 56.3877 43.2404C56.7152 44.1713 56.2872 44.571 55.619 43.9588C54.5942 43.0197 55.3133 40.6504 56.3653 41.5012ZM65.3326 45.4617C65.4767 45.5591 65.8828 45.9927 66.2348 46.425C66.904 47.2465 67.7611 47.9725 68.2426 48.1246C70.4534 48.8245 66.453 49.8362 63.4708 49.3316C63.0431 49.2593 62.2505 49.0591 61.7094 48.8868C60.5615 48.5209 60.1674 48.5167 59.3067 48.8608C57.371 49.6342 53.9544 49.7168 52.5847 49.0229C51.7542 48.602 51.7715 48.3749 52.6621 47.9997C52.9845 47.8639 53.7178 47.4431 54.2916 47.0645C56.0294 45.9186 56.8259 45.7299 57.6164 46.2769C59.4057 47.515 61.477 47.6293 62.5338 46.5484C62.7989 46.2775 63.0658 46.0958 63.3603 45.9863C63.5997 45.8974 63.9547 45.7299 64.1496 45.6138C64.7761 45.2404 64.9686 45.2159 65.3326 45.4617ZM49.7401 48.0707C49.8957 48.2361 49.929 48.3864 49.9886 49.1913C50.2359 52.515 51.3335 56.0973 52.1047 56.0973C52.2627 56.0973 52.3356 55.9969 52.5838 55.4385C53.1424 54.1804 53.3827 54.0882 53.6321 55.0357C53.9057 56.0746 54.4786 57.9368 54.7059 58.5267C55.063 59.4534 54.9296 59.6765 54.0189 59.6732C50.7385 59.6617 46.0119 52.1099 47.4536 49.1837C47.9812 48.1131 49.215 47.5126 49.7401 48.0707ZM63.432 50.6292C64.5915 50.7411 64.5415 50.9461 63.2804 51.2506C62.0747 51.5421 59.2704 51.7464 58.6778 51.5862C58.0607 51.4196 57.3637 50.8276 57.6361 50.7015C58.0534 50.5083 61.7082 50.4627 63.432 50.6292ZM114.761 113.147C114.761 113.381 114.765 113.383 115.194 113.383H115.627V114.838V116.292H115.902H116.177V114.838V113.383H116.61C117.039 113.383 117.043 113.381 117.043 113.147V112.911H115.902H114.761V113.147ZM117.83 114.602V116.292H118.067H118.303L118.305 115.093L118.308 113.894L118.632 114.582C119.043 115.456 119.117 115.459 119.54 114.621L119.868 113.973L119.872 115.132L119.877 116.292H120.113H120.349V114.602V112.911H120.108C119.879 112.911 119.847 112.952 119.489 113.717L119.111 114.523L118.706 113.717C118.328 112.965 118.286 112.911 118.066 112.911H117.83V114.602Z" fill="#050505"/>
<path fill-rule="evenodd" clip-rule="evenodd" d="M5.03751 1.61789C3.0098 1.95834 1.58223 3.64274 1.57617 5.70297C1.57405 6.44796 10.1794 115.118 10.3059 115.938C10.562 117.605 11.972 119.043 13.6511 119.352C14.4597 119.5 106.772 119.468 107.48 119.319C108.959 119.007 110.161 117.933 110.592 116.537C110.745 116.043 119.483 7.02334 119.483 5.61014C119.484 3.93542 118.376 2.42728 116.666 1.7742L116.217 1.60307L60.7255 1.5937C30.2054 1.58886 5.14586 1.59944 5.03751 1.61789ZM31.0122 44.8524V85.074H20.9372C15.3958 85.074 10.8625 85.0477 10.8631 85.0151C10.8637 84.9827 9.46216 67.3075 7.74859 45.7368C4.7503 7.99601 4.63741 6.50208 4.75363 6.10268C4.90919 5.56782 5.35165 5.05321 5.85949 4.81707L6.25747 4.63204L18.6347 4.63113L31.0122 4.63052V44.8524ZM115.357 4.90778C115.814 5.18897 116.212 5.74197 116.32 6.24569C116.38 6.5299 115.749 14.7409 113.298 45.5838C111.593 67.0224 110.198 84.678 110.197 84.8186L110.195 85.074H100.081H89.9666V44.8512V4.62841L102.468 4.64897L114.97 4.66983L115.357 4.90778ZM63.9526 5.72504C66.0396 6.06337 68.2995 6.77148 69.9183 7.59388C76.167 10.7683 80.121 16.5922 81.0284 23.9578C81.1615 25.0369 81.3219 25.3743 81.9321 25.8572C82.531 26.3309 82.4384 27.108 81.3897 30.4063C80.6631 32.6921 80.6797 32.5902 81.0078 32.7659C82.7574 33.7023 82.6578 35.3017 80.3356 43.5547C79.132 47.8327 78.5897 48.6847 76.9968 48.8021C76.2548 48.8565 76.2735 48.8287 76.2723 49.8627C76.2681 52.7955 74.6665 57.8297 73.0331 60.0447C71.9554 61.506 68.8439 64.2931 66.7076 65.7105C66.1449 66.0839 65.6556 66.4132 65.6205 66.4419C65.5854 66.4706 66.1347 66.4939 66.8407 66.4936C69.8593 66.4918 69.9029 66.538 69.8245 69.6616C69.7579 72.3093 69.8714 72.1817 67.7547 71.9928C65.6189 71.8023 64.7047 71.7642 63.7335 71.8247L62.8319 71.8809L62.8958 72.1279C63.9989 76.3956 64.5334 80.9772 64.3481 84.5785C64.2452 86.5746 64.1923 86.665 63.1106 86.6847C62.574 86.6943 62.0683 86.7581 61.615 86.8736C60.9691 87.0384 60.9162 87.0408 60.681 86.9193L60.4313 86.7905L60.4794 85.2836C60.5823 82.0665 60.625 78.4489 60.5696 77.6365L60.5115 76.7857L60.2497 77.6468C59.6445 79.6374 57.4769 84.9183 57.0154 85.5264C56.7581 85.865 56.6764 85.8547 55.635 85.3489C55.1057 85.0916 54.5516 84.8833 54.2713 84.8355C53.5274 84.7094 53.4648 84.6894 53.417 84.5643C53.3915 84.4984 53.8355 83.5003 54.4232 82.303C55.5905 79.9241 56.358 78.1571 57.5232 75.1663C57.953 74.0633 58.3976 72.9409 58.5117 72.6719C58.7741 72.0514 58.7789 71.9099 58.5359 71.9707C58.4357 71.9961 56.8955 72.0548 55.1139 72.1019C50.6895 72.2183 50.9689 72.4088 51.0167 69.3082C51.0578 66.6417 50.9271 66.7645 53.8225 66.672C54.8309 66.6399 55.6726 66.5973 55.6925 66.5773C55.7125 66.5574 54.9934 65.9977 54.0949 65.3335C49.0961 61.6396 47.0185 58.9254 46.5218 55.439C46.4607 55.0097 46.3239 54.5443 46.1284 54.1005C45.4983 52.6701 45.166 51.4011 45.0265 49.8936C44.9211 48.7561 44.9626 48.8232 44.3631 48.8232C42.8063 48.8232 42.0509 47.7375 41.3956 44.5585C41.1239 43.24 40.9053 42.4306 40.2174 40.1941C39.1231 36.6354 38.867 34.7666 39.3098 33.5693C39.5129 33.0205 40.0434 32.5458 40.4535 32.5458C40.6536 32.5458 40.6584 32.6084 40.3881 31.698C40.2631 31.2777 39.9944 30.2261 39.7904 29.3611C39.5864 28.4961 39.2802 27.2577 39.1098 26.6088C38.4188 23.9783 38.5502 23.4084 40.156 22.0684C40.4517 21.8217 40.6741 21.5492 40.8149 21.262L41.0273 20.8284L40.8954 20.2981C40.7232 19.6069 40.4635 19.0437 39.9711 18.2929C39.502 17.5775 39.5144 17.3284 40.0534 16.6158C40.5815 15.9179 41.0294 15.7589 42.4985 15.7486C43.3607 15.7426 43.815 15.7063 44.0311 15.6256L44.3382 15.511L43.9524 15.2854C43.4118 14.9698 42.4295 13.952 42.1495 13.4181C41.839 12.8258 41.8938 12.778 43.0172 12.6616C45.5264 12.4016 47.3099 11.1973 47.7875 9.44034C47.9787 8.73677 48.1594 8.59617 49.7453 7.9186C54.6169 5.83782 59.7558 5.04414 63.9526 5.72504ZM59.1514 7.50982C55.1935 7.91649 52.7463 8.52331 51.9195 9.30338C51.6087 9.59666 51.7243 9.6789 52.4809 9.70278C53.9136 9.74814 53.9445 10.2963 52.5405 10.7637C50.8569 11.324 48.3767 12.8932 47.7188 13.8142C47.3798 14.2889 47.3435 14.291 48.729 13.7573C53.3144 11.9907 57.3132 12.6135 60.7255 15.6253C62.3837 17.0886 62.4254 17.2283 61.4543 18.0586C60.6368 18.7576 60.6014 18.7628 59.6753 18.3231C57.7266 17.3979 54.8064 17.176 53.3746 17.8445C50.7149 19.0857 49.1633 21.6487 48.239 26.3258C47.8317 28.3872 47.8916 28.2572 47.2052 28.5741C46.1665 29.0533 45.7501 29.7545 45.7325 31.0519C45.7313 31.1553 46.2615 31.1698 50.0407 31.1698C55.6577 31.1698 56.0956 31.259 58.0271 32.7964C58.699 33.3313 58.9217 33.3918 59.5467 33.2104C60.0019 33.0782 60.3072 33.08 61.3946 33.2225C61.7394 33.2675 61.7708 33.2527 62.5753 32.6604C64.4877 31.2526 65.1205 31.1323 70.6141 31.1311C73.613 31.1305 74.0642 31.1471 74.8644 31.2868C75.3565 31.373 75.8922 31.4437 76.0544 31.4443L76.3498 31.4449V30.9772C76.3498 29.4657 75.5375 27.0088 74.6586 25.862C74.1036 25.1376 74.122 25.2316 74.1387 23.1983C74.1547 21.2324 74.1559 21.2224 74.3796 21.2224C74.9812 21.2224 76.3056 24.1712 77.413 27.9754C78.0833 30.2775 78.3636 30.088 78.5627 27.1987C78.8687 22.765 77.899 18.3546 75.9781 15.4426C72.7695 10.579 64.9885 6.91056 59.1514 7.50982ZM51.0442 15.755C50.1172 15.9019 49.5843 16.0758 48.4651 16.5955C46.6783 17.4252 44.0186 18.1556 42.7842 18.1556C42.1786 18.1556 42.1462 18.2539 42.5006 19.0207C43.3444 20.8463 43.3329 21.4307 42.4298 22.6761C41.1169 24.4875 40.9892 25.1073 41.4743 27.3166C41.9074 29.2895 42.6232 32.0741 42.6973 32.0741C43.3746 32.0741 43.7018 31.542 43.7787 30.3159C43.9145 28.1457 44.3053 26.0455 44.8972 24.3046C45.2583 23.2421 45.3572 23.0958 46.3054 22.218C47.0206 21.5562 47.1562 21.3854 47.5414 20.6624C48.6606 18.5629 50.1759 17.1168 52.1023 16.3095C52.8661 15.9896 52.9261 15.9043 52.4954 15.7489C52.157 15.6268 51.8426 15.628 51.0442 15.755ZM45.6629 32.2737C45.5173 32.3369 45.3049 32.3892 45.1908 32.3898C44.7114 32.3925 44.6524 32.7284 45.1157 32.8167C45.2595 32.8442 45.5234 32.9041 45.7023 32.9497C46.1287 33.0589 46.3608 32.9452 46.3608 32.6274C46.3608 32.2023 46.1148 32.0777 45.6629 32.2737ZM74.6338 32.3257C74.3617 32.5975 74.615 33.0686 74.9912 32.9909C75.1108 32.9664 75.3689 32.9159 75.5653 32.879C76.1476 32.7695 76.3359 32.5134 75.897 32.4282C75.7781 32.4049 75.5296 32.3514 75.345 32.3087C74.9053 32.2075 74.7485 32.2111 74.6338 32.3257ZM48.6433 33.1835C47.5711 33.305 46.9104 33.744 46.7836 34.4195C46.6411 35.179 47.1268 35.1663 48.3207 34.3793C48.8334 34.0412 49.3639 33.7044 49.4992 33.6306C49.8827 33.4223 49.7934 33.0734 49.3652 33.1067C49.2928 33.1121 48.9681 33.1469 48.6433 33.1835ZM70.3245 33.1961C70.2019 33.5151 71.6361 34.688 72.3567 34.8573C73.146 35.0432 73.3009 33.6639 72.5292 33.3228C72.042 33.1076 70.3947 33.0129 70.3245 33.1961ZM52.3429 33.4834C51.5106 33.7579 49.5053 34.8694 49.324 35.1566C49.018 35.641 49.7998 35.6132 50.944 35.0992C52.3501 34.4672 53.3619 34.2565 54.1926 34.4222C54.7035 34.5241 54.7916 34.4418 54.5852 34.0566C54.2465 33.4247 53.2744 33.1762 52.3429 33.4834ZM67.3767 33.7283C66.2421 34.1334 65.7957 34.7844 66.7763 34.6039C68.0861 34.3626 68.8666 34.5078 69.6683 35.1406C70.4552 35.7619 71.3329 36.0945 71.6046 35.8741C71.6979 35.7985 71.7145 35.7471 71.654 35.7214C71.4094 35.6183 70.8041 35.1614 70.092 34.5425C68.9314 33.5342 68.3821 33.3694 67.3767 33.7283ZM75.9654 33.8949C74.8151 34.1954 74.7609 34.274 74.3799 36.2024C73.6199 40.0465 72.4112 41.4316 69.8163 41.4316C68.6805 41.4316 68.7132 40.361 69.856 40.1324C71.0414 39.8957 71.8274 39.4122 72.1491 38.7219C72.4932 37.9839 72.4121 37.859 71.5026 37.7269C70.7954 37.6244 70.7306 37.5875 70.516 37.1678C70.2104 36.5689 69.4831 36.402 68.3606 36.6726C67.2105 36.9502 65.1193 36.7152 64.0873 36.1928C63.3482 35.8188 63.2335 35.8889 63.5458 36.525C63.8364 37.1171 63.5047 37.677 62.7514 37.866C62.3386 37.9694 61.7263 37.0765 61.3952 35.888C61.1549 35.0248 60.9298 34.8131 60.2516 34.8131C59.4565 34.8131 59.3678 35.0251 58.8797 38.0897C58.7368 38.9859 58.6642 39.2232 58.2898 40.0163C57.4464 41.8035 57.4854 42.8052 58.4363 43.7552C59.665 44.9827 61.5405 45.253 63.2747 44.4527C64.6732 43.8069 64.8103 43.62 64.5881 42.6625C64.3309 41.5541 64.4786 41.3636 65.369 41.6557C66.3964 41.9928 67.1415 42.6444 68.1409 44.0796C68.9429 45.2319 69.5809 45.8623 70.3562 46.268C71.2751 46.7488 71.3456 46.9009 71.3771 48.4634C71.4164 50.4088 71.1464 51.3606 70.293 52.2858C69.869 52.7456 69.6771 53.2031 69.5034 54.1706C69.2828 55.3988 68.8811 56.1365 68.4329 56.1365C68.1155 56.1365 67.9327 55.2945 67.929 53.8145C67.926 52.5914 67.0828 52.2156 65.4743 52.7205C63.7153 53.2726 62.7335 53.383 61.0384 53.2194C59.5494 53.0758 59.3669 53.0879 58.7626 53.3703C58.0462 53.7053 58.0002 54.0702 58.6581 54.2018C59.4562 54.3611 59.7834 54.7923 59.8666 55.7936C59.9722 57.0629 59.5991 57.3369 59.0706 56.3778C58.485 55.3153 58.1754 55.406 58.327 56.5955C58.4493 57.5533 58.3788 58.0828 57.9188 59.6568C57.3792 61.5036 57.4097 62.2265 58.087 63.646C58.8494 65.2449 60.4026 66.991 61.6513 67.654C62.0299 67.8551 62.0889 67.7916 62.2333 67.0278C62.39 66.1991 62.6185 65.7256 63.2359 64.9516C64.1251 63.8374 64.1708 63.7304 64.2225 62.6404C64.2801 61.4355 64.3593 61.3497 64.9153 61.8921C65.4153 62.3801 65.6656 62.4224 66.4328 62.1485C70.8335 60.5769 73.7598 56.1027 74.3048 50.1125C74.5351 47.5836 74.4643 47.8959 75.0133 46.9849C75.6177 45.982 75.7263 45.9082 76.2605 46.1377C77.2868 46.5789 77.8527 45.6685 78.6723 42.2573C78.8176 41.6517 79.1159 40.5246 79.3354 39.7524C80.5024 35.641 80.4618 34.4331 79.1562 34.4331C78.6499 34.4331 78.2625 35.4323 78.4029 36.3757L78.4998 37.0245L78.271 37.3928C78.0319 37.7771 77.3824 38.2862 77.1309 38.2862C76.8637 38.2862 76.8401 38.061 76.9194 36.281C77.0313 33.7779 76.9729 33.6318 75.9654 33.8949ZM41.6184 34.7889C41.146 35.2609 41.1233 36.2941 41.5503 37.8932C42.7957 42.5561 42.8287 42.6498 43.3519 43.0081C43.9608 43.4247 43.9838 42.6244 43.4445 39.7802C43.0559 37.7302 42.9797 36.8062 43.1631 36.3696C43.6558 35.1974 42.4473 33.9608 41.6184 34.7889ZM51.2633 36.513C50.7252 36.6811 50.261 36.9946 49.8046 37.4986C49.1942 38.1726 48.9687 38.1653 48.0126 37.4409C47.6159 37.1403 47.4379 37.121 47.2706 37.3601C46.8907 37.9017 47.6915 39.0107 48.8534 39.5522C49.6581 39.9271 49.7879 40.27 49.3406 40.8381C49.0931 41.1525 48.7142 41.0833 47.5578 40.5131C46.546 40.0142 46.3947 40.2918 46.8314 41.8452C47.8156 45.3477 48.9545 45.9702 51.3662 44.3248C51.7167 44.086 52.3011 43.7761 52.6649 43.6361C53.502 43.3147 53.4917 43.324 53.6799 42.693C53.7668 42.4022 53.9414 42.0094 54.0685 41.8207C54.3721 41.369 54.3645 41.3642 53.4257 41.4053C52.335 41.4531 52.2248 41.3941 52.2248 40.7628C52.2248 40.2122 52.1906 40.2319 53.3806 40.1016C55.3312 39.8878 56.5505 38.8302 55.9734 37.853C55.744 37.4645 55.7634 37.2398 56.0539 36.9087C56.3965 36.519 56.2918 36.4776 55.3145 36.617C54.505 36.7322 54.4239 36.73 53.4254 36.5668C52.2521 36.3748 51.7464 36.3624 51.2633 36.513ZM55.4943 41.6526C54.8932 42.2528 55.0585 43.5308 55.8039 44.0488C56.3008 44.3938 56.6017 44.1331 56.4095 43.5242C56.2561 43.038 56.2397 42.3263 56.3714 41.8867C56.5236 41.3793 55.9271 41.22 55.4943 41.6526ZM64.6217 45.4212C64.5567 45.4463 64.3796 45.5445 64.228 45.6398C64.0764 45.7347 63.7235 45.8958 63.4435 45.9977C63.0519 46.1404 62.8313 46.2883 62.4845 46.6402C61.4709 47.6685 59.5476 47.5914 57.7959 46.4525C56.7388 45.7655 56.1816 45.8723 54.2922 47.1237C53.7959 47.4527 53.0834 47.863 52.7091 48.0359C51.9491 48.3866 51.898 48.4804 52.2987 48.7857C53.4297 49.6474 57.0886 49.6607 59.2873 48.8108C60.1726 48.4689 60.6172 48.4755 61.7627 48.8486C64.1905 49.6393 67.689 49.5903 68.7259 48.7516C68.9244 48.5907 68.7761 48.2729 68.5025 48.2729C68.0713 48.2729 66.9739 47.4191 66.2669 46.5332C65.402 45.4499 65.092 45.24 64.6217 45.4212ZM48.7357 48.0295C47.4179 48.4843 46.9268 49.9431 47.4606 51.8162C48.7036 56.1755 51.6141 59.626 54.031 59.6048C55.0007 59.5963 55.0131 59.5443 54.4384 57.8968C54.2858 57.4593 53.9959 56.5217 53.794 55.813C53.5925 55.1043 53.3985 54.4932 53.3631 54.4554C53.2484 54.3324 52.9179 54.7874 52.6494 55.4372C52.2627 56.3723 52.0181 56.4165 51.5239 55.6401C50.7821 54.4739 49.9027 50.7761 49.9027 48.8229C49.9027 47.9869 49.5516 47.7481 48.7357 48.0295ZM58.4977 50.6464C57.529 50.7441 57.4491 50.8831 58.1237 51.2974L58.5126 51.5362L59.9734 51.5238C62.1025 51.5054 64.4916 51.1048 64.2011 50.8145C64.0249 50.6385 59.8091 50.514 58.4977 50.6464Z" fill="#FBFBFB"/>
<path fill-rule="evenodd" clip-rule="evenodd" d="M119.506 5.69202C119.506 5.9082 119.522 5.98742 119.54 5.86769C119.558 5.74826 119.557 5.57138 119.539 5.47463C119.52 5.37787 119.505 5.47553 119.506 5.69202ZM60.0763 7.43689C60.1519 7.45655 60.2757 7.45655 60.3517 7.43689C60.4273 7.41694 60.3653 7.40091 60.214 7.40091C60.0624 7.40091 60.0003 7.41694 60.0763 7.43689ZM60.7845 7.43689C60.8604 7.45655 60.9842 7.45655 61.0602 7.43689C61.1358 7.41694 61.0738 7.40091 60.9222 7.40091C60.7709 7.40091 60.7088 7.41694 60.7845 7.43689ZM41.8151 15.7721C41.891 15.7918 42.0148 15.7918 42.0908 15.7721C42.1664 15.7522 42.1044 15.7362 41.9531 15.7362C41.8014 15.7362 41.7394 15.7522 41.8151 15.7721ZM43.0731 21.2223C43.0731 21.3738 43.0895 21.4358 43.1092 21.3599C43.1288 21.2843 43.1288 21.1604 43.1092 21.0848C43.0895 21.0092 43.0731 21.0709 43.0731 21.2223ZM74.1641 22.4804C74.1641 22.6319 74.1801 22.6939 74.2001 22.618C74.2197 22.5424 74.2197 22.4187 74.2001 22.3429C74.1801 22.2673 74.1641 22.3292 74.1641 22.4804ZM38.7493 24.4463C38.7493 24.6843 38.7641 24.7816 38.7823 24.6625C38.8001 24.5437 38.8001 24.349 38.7823 24.2301C38.7641 24.1113 38.7493 24.2087 38.7493 24.4463ZM43.7816 30.5798C43.7816 30.7313 43.7977 30.7933 43.8176 30.7174C43.8373 30.6418 43.8373 30.5182 43.8176 30.4423C43.7977 30.3667 43.7816 30.4287 43.7816 30.5798ZM46.9709 31.1857C47.068 31.2045 47.2275 31.2045 47.325 31.1857C47.4224 31.167 47.3425 31.1519 47.1479 31.1519C46.953 31.1519 46.8734 31.167 46.9709 31.1857ZM53.2686 31.186C53.3664 31.2048 53.508 31.2042 53.5834 31.1845C53.6587 31.1646 53.5785 31.1495 53.4054 31.1501C53.2323 31.151 53.1706 31.1673 53.2686 31.186ZM67.7123 31.187C67.8318 31.2048 68.0089 31.2045 68.1057 31.1857C68.2026 31.167 68.1048 31.1522 67.8881 31.1528C67.6717 31.1534 67.5924 31.1688 67.7123 31.187ZM60.1156 33.1516C60.2128 33.1704 60.3723 33.1704 60.4697 33.1516C60.5672 33.1329 60.4873 33.1178 60.2927 33.1178C60.0978 33.1178 60.0182 33.1329 60.1156 33.1516ZM82.1926 34.9836C82.1926 35.1348 82.2086 35.1967 82.2286 35.1212C82.2483 35.0456 82.2483 34.9216 82.2286 34.846C82.2086 34.7701 82.1926 34.8321 82.1926 34.9836ZM41.1883 36.1238C41.1889 36.3399 41.2043 36.4192 41.2222 36.2994C41.2403 36.18 41.24 36.0031 41.2213 35.9064C41.2025 35.8096 41.1877 35.9076 41.1883 36.1238ZM51.9306 36.3759C52.0284 36.3947 52.17 36.3941 52.2454 36.3744C52.3204 36.3548 52.2405 36.3393 52.0674 36.3402C51.894 36.3411 51.8326 36.3572 51.9306 36.3759ZM52.9932 41.4095C53.1127 41.4273 53.2901 41.427 53.3866 41.4083C53.4835 41.3895 53.3857 41.3747 53.1693 41.3753C52.9527 41.3759 52.8737 41.3913 52.9932 41.4095ZM69.7191 41.4086C69.8172 41.4273 69.9588 41.4267 70.0339 41.4071C70.1092 41.3874 70.029 41.372 69.8559 41.3729C69.6828 41.3738 69.6214 41.3898 69.7191 41.4086ZM76.6448 48.8002C76.7423 48.8189 76.9015 48.8189 76.9989 48.8002C77.0964 48.7814 77.0168 48.766 76.8219 48.766C76.627 48.766 76.5474 48.7814 76.6448 48.8002ZM54.8811 49.5065C54.9571 49.5264 55.0808 49.5264 55.1568 49.5065C55.2325 49.4868 55.1704 49.4705 55.0191 49.4705C54.8675 49.4705 54.8054 49.4868 54.8811 49.5065ZM60.3529 50.5317C60.4945 50.549 60.707 50.5487 60.8253 50.5308C60.9437 50.513 60.8277 50.4985 60.5681 50.4991C60.3084 50.4994 60.2116 50.5142 60.3529 50.5317ZM58.343 57.3159C58.343 57.4674 58.3594 57.5291 58.3791 57.4535C58.399 57.3779 58.399 57.2539 58.3791 57.1784C58.3594 57.1025 58.343 57.1644 58.343 57.3159ZM51.0357 69.2292C51.036 69.8345 51.0481 70.0719 51.0632 69.7565C51.0781 69.4411 51.0781 68.9456 51.0629 68.6556C51.0478 68.3654 51.0357 68.6236 51.0357 69.2292ZM55.1568 72.0777C55.2975 72.0949 55.5275 72.0949 55.6683 72.0777C55.809 72.0601 55.694 72.0459 55.4125 72.0459C55.1311 72.0459 55.0161 72.0601 55.1568 72.0777ZM60.5539 83.4228C60.5539 83.704 60.5681 83.8189 60.5856 83.6783C60.6032 83.5377 60.6032 83.3076 60.5856 83.1673C60.5681 83.0267 60.5539 83.1416 60.5539 83.4228Z" fill="#7C7C7C"/>
<path fill-rule="evenodd" clip-rule="evenodd" d="M32.875 1.54437C48.0341 1.55525 72.8636 1.55525 88.0515 1.54437C103.239 1.53318 90.8364 1.52441 60.4894 1.52441C30.1424 1.52441 17.7158 1.53318 32.875 1.54437ZM60.391 5.55386C60.6398 5.56928 61.0472 5.56928 61.2963 5.55386C61.545 5.53814 61.3413 5.52544 60.8435 5.52544C60.3456 5.52544 60.142 5.53814 60.391 5.55386ZM55.3535 17.426C55.4725 17.4439 55.6674 17.4439 55.7863 17.426C55.9056 17.4079 55.8081 17.3931 55.5699 17.3931C55.3318 17.3931 55.2346 17.4079 55.3535 17.426ZM74.1641 22.0091C74.1641 22.1603 74.1801 22.2222 74.2001 22.1466C74.2198 22.0711 74.2198 21.9471 74.2001 21.8715C74.1801 21.7956 74.1641 21.8576 74.1641 22.0091ZM41.1069 25.351C41.1078 25.5239 41.1238 25.5856 41.1429 25.4876C41.1617 25.39 41.1611 25.2485 41.1411 25.1732C41.1214 25.0979 41.106 25.178 41.1069 25.351ZM48.8597 31.1897C49.6499 31.2024 50.9428 31.2024 51.7327 31.1897C52.5229 31.1767 51.8765 31.1661 50.2964 31.1661C48.7163 31.1661 48.0698 31.1767 48.8597 31.1897ZM68.7377 31.1891C69.0315 31.2042 69.4922 31.2042 69.7609 31.1888C70.0297 31.1737 69.7891 31.161 69.2264 31.1613C68.6635 31.1613 68.4435 31.174 68.7377 31.1891ZM71.9221 31.1891C72.2359 31.2039 72.7495 31.2039 73.0634 31.1891C73.3772 31.1743 73.1206 31.1619 72.4929 31.1619C71.8652 31.1619 71.6082 31.1743 71.9221 31.1891ZM77.0007 34.9053C77.0007 35.0997 77.0162 35.1795 77.0349 35.0822C77.0537 34.9848 77.0537 34.8255 77.0349 34.7281C77.0162 34.6311 77.0007 34.7106 77.0007 34.9053ZM39.1376 35.377C39.1376 35.5285 39.1539 35.5904 39.1736 35.5145C39.1933 35.439 39.1933 35.315 39.1736 35.2394C39.1539 35.1638 39.1376 35.2255 39.1376 35.377ZM43.8634 42.4541C43.8634 42.6488 43.8788 42.7284 43.8976 42.631C43.9163 42.5336 43.9163 42.3746 43.8976 42.2773C43.8788 42.1799 43.8634 42.2594 43.8634 42.4541ZM58.1675 43.5798C58.1675 43.5931 58.2825 43.7083 58.4233 43.8353L58.679 44.0663L58.4478 43.8105C58.2323 43.5725 58.1675 43.519 58.1675 43.5798ZM60.5893 47.3078C60.7306 47.3253 60.9431 47.325 61.0614 47.3072C61.1797 47.289 61.0641 47.2748 60.8042 47.2751C60.5445 47.2757 60.4476 47.2902 60.5893 47.3078ZM49.9211 48.7449C49.9211 48.8963 49.9371 48.9583 49.9571 48.8827C49.9768 48.8068 49.9768 48.6832 49.9571 48.6073C49.9371 48.5317 49.9211 48.5937 49.9211 48.7449ZM76.2196 49.6885C76.2196 50.0562 76.2332 50.2067 76.2499 50.0229C76.2665 49.8391 76.2665 49.5382 76.2499 49.3544C76.2332 49.1706 76.2196 49.3209 76.2196 49.6885ZM55.3938 49.5083C55.4915 49.5271 55.6335 49.5265 55.7085 49.5068C55.7839 49.4871 55.7037 49.4717 55.5306 49.4726C55.3575 49.4735 55.2957 49.4896 55.3938 49.5083ZM59.7228 50.5306C59.8209 50.5493 59.9625 50.5487 60.0379 50.529C60.1129 50.5094 60.033 50.494 59.8596 50.4949C59.6865 50.4958 59.6251 50.5118 59.7228 50.5306ZM61.1389 50.5306C61.236 50.5493 61.3955 50.5493 61.493 50.5306C61.5904 50.5118 61.5105 50.4964 61.3159 50.4964C61.121 50.4964 61.0414 50.5118 61.1389 50.5306ZM70.289 59.7145C70.0977 59.9092 69.9591 60.0686 69.9806 60.0686C70.0024 60.0686 70.1764 59.9092 70.3677 59.7145C70.5587 59.5201 70.6976 59.3608 70.6758 59.3608C70.6543 59.3608 70.48 59.5201 70.289 59.7145ZM71.6246 61.5428L71.1152 62.0738L71.6467 61.5649C71.939 61.2849 72.1781 61.0461 72.1781 61.034C72.1781 60.9762 72.0979 61.0497 71.6246 61.5428ZM64.2519 62.6633C64.2519 62.9013 64.2664 62.9987 64.2846 62.8795C64.3027 62.7607 64.3027 62.566 64.2846 62.4472C64.2664 62.3283 64.2519 62.4254 64.2519 62.6633ZM69.77 69.8977C69.77 70.6116 69.7818 70.9034 69.7966 70.5466C69.8111 70.1898 69.8111 69.606 69.7966 69.2492C69.7818 68.8924 69.77 69.1842 69.77 69.8977ZM51.0282 70.6841C51.0282 70.9221 51.043 71.0194 51.0611 70.9003C51.079 70.7815 51.079 70.5868 51.0611 70.468C51.043 70.3491 51.0282 70.4462 51.0282 70.6841ZM57.7148 71.9967C57.7907 72.0163 57.9145 72.0163 57.9902 71.9967C58.0661 71.9767 58.0041 71.9607 57.8525 71.9607C57.7011 71.9607 57.6391 71.9767 57.7148 71.9967ZM54.3303 72.0774C54.4492 72.0952 54.6441 72.0952 54.7631 72.0774C54.8823 72.0592 54.7849 72.0444 54.5467 72.0444C54.3085 72.0444 54.2111 72.0592 54.3303 72.0774ZM52.167 72.1566C52.3086 72.1741 52.5211 72.1738 52.6394 72.1557C52.7578 72.1379 52.6419 72.1236 52.3822 72.1239C52.1225 72.1246 52.0257 72.1391 52.167 72.1566ZM64.2464 81.7717C64.2464 81.9232 64.2628 81.9852 64.2824 81.9093C64.3021 81.8337 64.3021 81.7097 64.2824 81.6341C64.2628 81.5585 64.2464 81.6202 64.2464 81.7717ZM60.5512 84.2489C60.5518 84.4651 60.5672 84.5443 60.5853 84.4245C60.6032 84.3051 60.6029 84.1282 60.5841 84.0315C60.5654 83.9347 60.5505 84.0324 60.5512 84.2489ZM37.368 119.497C50.1063 119.508 70.9512 119.508 83.6895 119.497C96.4278 119.486 86.0056 119.477 60.5288 119.477C35.0519 119.477 24.6297 119.486 37.368 119.497Z" fill="#6C6C6C"/>
<path fill-rule="evenodd" clip-rule="evenodd" d="M75.0901 11.3538C75.2371 11.5052 75.3748 11.6292 75.3966 11.6292C75.4181 11.6292 75.3158 11.5052 75.169 11.3538C75.022 11.2026 74.8843 11.0786 74.8625 11.0786C74.841 11.0786 74.9433 11.2026 75.0901 11.3538ZM76.3497 110.198C76.4964 110.35 76.6341 110.474 76.6559 110.474C76.6777 110.474 76.5751 110.35 76.4283 110.198C76.2816 110.047 76.1436 109.923 76.1218 109.923C76.1003 109.923 76.2026 110.047 76.3497 110.198Z" fill="#9C9C9C"/>
<path fill-rule="evenodd" clip-rule="evenodd" d="M1.51904 5.73152C1.51904 5.96917 1.53387 6.06652 1.55203 5.9477C1.56989 5.82888 1.56989 5.63416 1.55203 5.51503C1.53387 5.39621 1.51904 5.49357 1.51904 5.73152ZM52.3242 9.71894C52.4219 9.73768 52.5639 9.73678 52.6389 9.71712C52.7143 9.69747 52.6341 9.68205 52.461 9.68296C52.2879 9.68387 52.2261 9.69989 52.3242 9.71894ZM53.0327 12.7857C53.1304 12.8044 53.2721 12.8035 53.3474 12.7839C53.4228 12.7642 53.3426 12.7488 53.1695 12.7497C52.9963 12.7506 52.9346 12.7666 53.0327 12.7857ZM74.1711 23.1884C74.1711 23.4696 74.1853 23.5845 74.2029 23.4439C74.2202 23.3033 74.2202 23.0735 74.2029 22.9329C74.1853 22.7923 74.1711 22.9072 74.1711 23.1884ZM82.2729 26.6875C82.2738 26.8608 82.2898 26.9222 82.3086 26.8245C82.3277 26.7265 82.3268 26.585 82.3071 26.5098C82.2874 26.4348 82.272 26.5146 82.2729 26.6875ZM78.5719 26.8844C78.5719 27.0356 78.5882 27.0975 78.6079 27.0219C78.6279 26.9461 78.6279 26.8224 78.6079 26.7468C78.5882 26.6709 78.5719 26.7329 78.5719 26.8844ZM67.0814 31.1847C67.1574 31.2047 67.2811 31.2047 67.3571 31.1847C67.4328 31.1651 67.3707 31.1488 67.2194 31.1488C67.0678 31.1488 67.0057 31.1651 67.0814 31.1847ZM76.9191 36.1633C76.9191 36.3147 76.9352 36.3764 76.9551 36.3008C76.9748 36.2252 76.9748 36.1013 76.9551 36.0257C76.9352 35.9498 76.9191 36.0118 76.9191 36.1633ZM47.1695 50.4748C47.1695 50.6695 47.1847 50.749 47.2034 50.6517C47.2222 50.5543 47.2222 50.3953 47.2034 50.2979C47.1847 50.2006 47.1695 50.2801 47.1695 50.4748ZM59.0532 51.6298C59.1288 51.6497 59.2526 51.6497 59.3286 51.6298C59.4042 51.6101 59.3422 51.5941 59.1909 51.5941C59.0392 51.5941 58.9772 51.6101 59.0532 51.6298ZM61.6504 53.2812C61.7261 53.3012 61.8502 53.3012 61.9258 53.2812C62.0018 53.2616 61.9398 53.2453 61.7881 53.2453C61.6368 53.2453 61.5748 53.2616 61.6504 53.2812ZM62.5163 53.2812C62.592 53.3012 62.7161 53.3012 62.7917 53.2812C62.8677 53.2616 62.8056 53.2453 62.654 53.2453C62.5024 53.2453 62.4406 53.2616 62.5163 53.2812ZM67.953 54.1708C67.953 54.4519 67.9672 54.5668 67.9845 54.4262C68.002 54.2856 68.002 54.0556 67.9845 53.9153C67.9672 53.7747 67.953 53.8896 67.953 54.1708ZM66.7679 66.4943C66.8874 66.5122 67.0644 66.5119 67.1613 66.4931C67.2581 66.4744 67.1604 66.4596 66.9437 66.4602C66.7273 66.4608 66.648 66.4762 66.7679 66.4943ZM55.2365 66.6506C55.3343 66.6694 55.4759 66.6688 55.5513 66.6491C55.6266 66.6295 55.5464 66.6141 55.3733 66.615C55.2002 66.6159 55.1385 66.6319 55.2365 66.6506ZM69.8351 67.8531C69.8351 68.0046 69.8512 68.0666 69.8709 67.9907C69.8908 67.9151 69.8908 67.7914 69.8709 67.7155C69.8512 67.6399 69.8351 67.7019 69.8351 67.8531ZM65.6647 71.8393C65.7404 71.859 65.8645 71.859 65.9401 71.8393C66.0161 71.8194 65.954 71.8033 65.8024 71.8033C65.6511 71.8033 65.5891 71.8194 65.6647 71.8393ZM56.1814 72.0779C56.323 72.0954 56.5355 72.0951 56.6538 72.077C56.7721 72.0591 56.6562 72.0449 56.3965 72.0452C56.1369 72.0458 56.04 72.0603 56.1814 72.0779ZM60.5512 77.1716C60.5518 77.3878 60.5673 77.467 60.5854 77.3473C60.6033 77.2278 60.603 77.0509 60.5842 76.9542C60.5655 76.8574 60.5506 76.9551 60.5512 77.1716ZM60.5582 82.1253C60.5585 82.6012 60.5715 82.7857 60.587 82.5353C60.6027 82.2853 60.6027 81.8958 60.5867 81.6706C60.5709 81.445 60.5582 81.6497 60.5582 82.1253ZM64.3376 83.6195C64.3376 84.1819 64.3503 84.4014 64.3655 84.1078C64.3806 83.814 64.3806 83.3541 64.3652 83.0856C64.3497 82.8171 64.3373 83.0572 64.3376 83.6195ZM46.0658 113.28C46.1415 113.3 46.2655 113.3 46.3412 113.28C46.4169 113.26 46.3548 113.244 46.2035 113.244C46.0519 113.244 45.9898 113.26 46.0658 113.28Z" fill="#BCBCBC"/>
<path fill-rule="evenodd" clip-rule="evenodd" d="M5.22951 5.2792L4.99829 5.53499L5.25402 5.30399C5.39475 5.1767 5.50976 5.06181 5.50976 5.0482C5.50976 4.98743 5.44499 5.04094 5.22951 5.2792ZM4.66235 6.67516C4.66235 6.82633 4.67839 6.88831 4.69837 6.81273C4.71804 6.73684 4.71804 6.61317 4.69837 6.53728C4.67839 6.4617 4.66235 6.52368 4.66235 6.67516Z" fill="#F4839A"/>
<path fill-rule="evenodd" clip-rule="evenodd" d="M90.0057 44.8524C90.0057 66.9957 90.0148 76.043 90.0257 64.9567C90.0369 53.8706 90.0369 35.7531 90.0257 24.6955C90.0148 13.6381 90.0057 22.7087 90.0057 44.8524ZM61.2767 16.1897C61.4897 16.4059 61.6819 16.5827 61.7037 16.5827C61.7252 16.5827 61.5684 16.4059 61.3554 16.1897C61.142 15.9735 60.9498 15.7966 60.9283 15.7966C60.9065 15.7966 61.0633 15.9735 61.2767 16.1897ZM49.3089 18.1752L48.9978 18.5093L49.3322 18.1985C49.6433 17.9095 49.703 17.8411 49.6433 17.8411C49.6303 17.8411 49.4799 17.9914 49.3089 18.1752ZM72.6848 40.3503L72.4536 40.6058L72.7093 40.3748C72.8501 40.2478 72.9651 40.133 72.9651 40.1193C72.9651 40.0586 72.9003 40.1121 72.6848 40.3503ZM66.5896 46.9607C66.5896 46.9743 66.7046 47.0892 66.8453 47.2162L67.1014 47.4472L66.8701 47.1917C66.6547 46.9534 66.5896 46.8999 66.5896 46.9607ZM77.3689 95.1982L77.0974 95.4933L77.3928 95.2221C77.6673 94.97 77.7242 94.9034 77.6639 94.9034C77.6509 94.9034 77.5181 95.0362 77.3689 95.1982ZM83.1188 107.274C83.1188 107.287 83.2341 107.402 83.3748 107.529L83.6306 107.76L83.3993 107.505C83.1839 107.267 83.1188 107.213 83.1188 107.274Z" fill="#CCCCCC"/>
</svg>
