<svg width="112" height="117" viewBox="0 0 112 117" fill="none" xmlns="http://www.w3.org/2000/svg">
<path d="M75.3892 95.2395C75.3892 95.2395 87.0942 91.628 94.1737 90.8099C101.251 89.9944 104.472 89.7773 104.472 89.7773C104.472 89.7773 105.201 89.6184 105.346 90.4074C105.486 91.1249 104.38 91.2838 104.38 91.2838C82.7616 97.8025 67.4917 104.35 65.6843 105.102C63.9876 105.812 42.0103 115.5 42.0103 115.5C42.0103 115.5 39.3136 116.488 37.1104 116.082C34.9097 115.68 34.4612 114.679 34.2923 113.655C34.2923 113.655 33.6432 111.404 36.8307 110.321C39.7807 109.32 47.6518 105.785 47.6518 105.785L68.3467 97.551L75.3892 95.2395Z" fill="#F5C323"/>
<path d="M53.0847 35.941C53.0847 35.941 53.9819 35.4909 54.3566 35.8775C54.7339 36.2693 54.5096 36.8545 54.2167 37.3893C53.9264 37.9242 49.797 44.3211 48.3932 45.5682C47.5198 46.3413 46.2638 46.4737 45.2796 45.8912C44.2954 45.3087 44.422 43.3944 44.7782 42.5868C45.1318 41.7793 46.3113 39.5075 48.7309 38.0062C51.1532 36.5023 53.0847 35.941 53.0847 35.941Z" fill="#018E66"/>
<path d="M106.876 27.4681L105.132 26.2581C100.198 22.3739 80.1732 14.4095 80.1732 14.4095C80.1732 14.4095 78.7721 11.2163 77.9646 9.6621C75.706 5.30658 72.3179 1.87776 72.1543 1.76126C71.996 1.64476 71.8351 1.6527 71.8351 1.6527L71.6715 1.68448L65.7978 3.26517L52.3064 7.18647C52.3064 7.18647 43.0764 10.0857 42.6411 10.2552C42.2057 10.422 41.889 10.7132 41.889 10.7132C41.889 10.7132 38.7438 16.157 38.4799 16.7845C38.2108 17.4173 34.58 24.4629 34.58 24.4629L25.5769 28.7364C24.7642 29.1759 24.7405 29.1362 18.5344 32.9145L10.9852 38.21C10.9852 38.21 3.83448 43.6246 3.23815 44.17C2.64181 44.7154 1.98742 45.8619 2.60486 46.8707C3.21967 47.8795 4.76856 47.6968 4.76856 47.6968L12.4515 45.501L27.0853 41.6395L43.7836 38.1826L46.1689 38.067C46.6782 37.5904 47.264 37.127 47.9289 36.7087C50.243 35.2736 52.1481 34.6329 52.5729 34.5031C53.4701 34.1033 54.6469 33.9895 55.4464 34.8182C55.7815 35.1624 56.0797 35.6787 56.0691 36.4069L57.0349 36.2427L57.0824 36.2321L75.545 33.8359C75.545 33.8359 87.3582 32.6285 91.2898 32.5094C100.876 32.2181 105.473 30.7778 105.473 30.7778C105.858 30.6163 107.151 30.1582 107.407 29.1018C107.657 28.04 106.876 27.4681 106.876 27.4681Z" fill="#DA0021"/>
<path d="M74.9389 0.82011C74.9189 0.820581 74.9006 0.82543 74.8795 0.835029C74.7106 0.911813 74.7853 1.11847 74.7853 1.11848L76.6338 10.1788C76.6338 10.1788 77.3328 14.9446 77.7339 15.8527C78.1429 16.7609 80.9898 17.7076 80.9898 17.7076C86.6524 19.0685 108.444 26.937 108.444 26.937C108.444 26.937 109.834 27.4555 110.085 27.4741C110.341 27.4979 111.112 27.3594 111.418 26.5889C111.726 25.8158 111.077 25.1819 111.021 25.1369C110.969 25.0919 110.402 24.8136 110.402 24.8136C104.333 21.6708 92.4606 17.4988 91.8775 17.3346C91.2996 17.1758 80.3357 13.9681 80.3357 13.9681C80.3357 13.9681 77.0867 5.01212 76.8915 4.40049C76.6988 3.78357 75.1867 1.00908 75.1867 1.00907C75.1867 1.00907 75.0793 0.816815 74.9389 0.82011ZM69.8742 1.70029C69.7678 1.69942 69.7008 1.71023 69.7008 1.71023L63.9918 3.17222C63.9918 3.17222 41.9749 9.50532 41.1015 9.78598C40.2307 10.0666 40.0162 10.701 40.0162 10.701C37.7575 14.5111 34.3209 21.6503 34.1784 22.0687C34.0333 22.4897 34.1886 22.6566 34.3469 22.7201C34.5052 22.7863 34.6347 22.7515 34.669 22.6853C34.7086 22.6165 41.8845 12.1083 41.8845 12.1083L56.7565 8.5776C56.7565 8.5776 70.0064 4.40268 70.236 4.3259C70.4629 4.24912 71.5456 3.77505 71.1577 2.65506C70.8688 1.81506 70.1936 1.70289 69.8742 1.70029ZM33.5639 24.749C33.4562 24.751 33.3805 24.7739 33.3805 24.7739C33.3805 24.7739 32.5895 25.0898 30.3229 26.0668C25.919 27.9573 18.8356 32.2181 18.8356 32.2181C13.2548 35.3292 1.54023 44.8638 1.54023 44.8638C1.54023 44.8638 0.378301 45.6419 0.985189 47.0717C1.5868 48.5068 3.16569 48.3149 3.16569 48.3149L20.1786 43.725C21.4372 43.1399 43.6338 38.5981 43.6338 38.5981L46.0473 38.1854C46.5855 37.6664 47.2048 37.1612 47.9304 36.7085C50.2445 35.2734 52.1491 34.6353 52.5739 34.5055C53.471 34.1057 54.6487 33.9901 55.4482 34.8188C55.7965 35.1789 56.1046 35.7168 56.0677 36.4847L57.039 36.3206L57.0638 36.3156C69.7029 34.1206 97.517 32.2678 97.517 32.2678C98.5329 32.1089 101.285 31.2037 100.768 28.4686C100.367 26.3372 96.7589 26.2081 96.2286 26.2557C95.6929 26.306 59.7385 31.0654 57.3611 31.4572C44.3367 33.5913 22.0023 39.2247 22.0023 39.2247L8.29978 43.2775C8.55837 42.7453 19.5172 34.9874 20.1637 34.5055C20.8102 34.0157 33.5044 26.1861 33.5044 26.1861C33.5044 26.1861 34.5125 25.7846 34.1933 25.1518C34.0168 24.8059 33.7433 24.7457 33.5639 24.749Z" fill="black"/>
</svg>
