<svg width="188" height="39" viewBox="0 0 188 39" fill="none" xmlns="http://www.w3.org/2000/svg">
<path d="M21.9211 4.76043C15.4368 4.72828 15.0623 4.77093 12.9134 5.8024C12.4294 6.0348 11.8639 6.34629 11.6564 6.49378C11.0354 6.93577 9.89695 8.05474 9.89695 8.22324C9.89695 8.30936 9.86304 8.37948 9.82176 8.37948C9.62267 8.37948 8.72664 10.0608 8.72509 10.437C8.72449 10.5776 8.69143 10.7282 8.65185 10.772C8.38743 11.0644 8.30389 13.6134 8.52295 14.7064C8.59684 15.0751 8.69064 15.5459 8.73193 15.7533C8.81033 16.1471 9.1518 16.8592 9.54246 17.4456C9.66845 17.6348 9.8091 17.8494 9.85495 17.9232C10.0623 18.2567 11.45 19.5369 12.0365 19.9348C12.854 20.4895 13.8465 21.0923 14.1009 21.1897C14.2082 21.2307 14.6354 21.4485 15.0501 21.6731C15.4649 21.8976 15.9735 22.1518 16.1809 22.2385C16.3883 22.3252 17.0865 22.6497 17.7317 22.9592C21.1805 24.6135 21.4764 24.784 21.7697 25.2843C22.0715 25.7993 22.0807 26.3374 21.7951 26.7569C21.6798 26.9262 21.5224 27.0642 21.4445 27.0645C21.3666 27.0649 21.2754 27.1097 21.2423 27.1632C21.1803 27.263 14.0705 27.2167 10.5461 27.0938L8.97488 27.0392V25.2091C8.97488 23.638 8.95679 23.3781 8.84891 23.3781C8.77978 23.3781 8.72391 23.416 8.72391 23.4621C8.72391 23.5082 8.68085 23.5461 8.62821 23.5461C8.52422 23.5461 7.63478 24.2708 7.52569 24.4445C7.48883 24.5032 7.34423 24.6105 7.20441 24.6828C7.06458 24.7551 6.73545 25.0117 6.47398 25.2521C6.21248 25.4925 5.82329 25.8096 5.60875 25.9572C5.39422 26.1048 5.20634 26.2552 5.19079 26.2912C5.14839 26.3894 4.32381 27.0655 4.24647 27.0655C4.20956 27.0655 4.06087 27.1907 3.91639 27.3438C3.77145 27.4978 3.25721 27.9403 2.77338 28.3288C2.28954 28.7173 1.8192 29.1108 1.7275 29.2028C1.63581 29.2948 1.42211 29.4643 1.25292 29.5798C1.08367 29.6948 0.73268 29.9913 0.472637 30.2378L0 30.6873L0.528286 31.1782C0.818758 31.4486 1.08327 31.6711 1.11617 31.6724C1.14908 31.6736 1.46939 31.9386 1.82805 32.2612C2.18674 32.5837 2.52488 32.8482 2.58003 32.8482C2.63516 32.8482 2.72977 32.9137 2.78998 32.9947C2.85021 33.0757 3.10654 33.312 3.35932 33.5191C3.61209 33.7261 3.89435 33.9568 3.98725 34.0327C4.08013 34.1086 4.39769 34.3729 4.69233 34.6196C4.98697 34.8662 5.38901 35.189 5.58586 35.3364C5.78269 35.4837 6.07377 35.7344 6.23329 35.8939C6.39282 36.0535 6.66995 36.2792 6.84853 36.3949C7.02708 36.5106 7.39916 36.8142 7.67565 37.0707C7.95217 37.3272 8.22309 37.5377 8.27719 37.5385C8.33129 37.5392 8.46295 37.6508 8.57015 37.7865C8.94878 38.2658 8.96977 38.1842 8.99397 36.1362L9.01643 34.23L9.39337 34.2407C9.60076 34.2462 11.778 34.2581 14.2321 34.268C17.3389 34.2807 18.6939 34.3139 18.6939 34.3764C18.6939 34.479 21.3019 34.4092 22.6323 34.271C23.6758 34.1626 24.9899 33.9048 25.1878 33.77C25.2339 33.7386 25.4982 33.6244 25.7747 33.5161C26.0512 33.4077 26.2966 33.296 26.3196 33.268C26.4007 33.1697 27.0005 32.8472 27.1028 32.8472C27.1597 32.8472 27.3377 32.7255 27.4983 32.5757C27.6589 32.4259 27.9343 32.1895 28.1106 32.0513C28.4737 31.7665 29.3835 30.6291 29.6515 30.1246C29.9233 29.613 30.3352 28.3172 30.4709 27.5466C30.7425 26.0033 30.5681 23.9667 30.0578 22.7156C29.937 22.4197 29.8381 22.1454 29.8381 22.1063C29.8381 22.0199 29.4239 21.359 29.2961 21.242C29.2458 21.196 29.0246 20.9233 28.8049 20.6356C28.5851 20.3479 28.3282 20.0715 28.2346 20.0214C28.0698 19.9332 27.9269 19.8168 27.3919 19.3407C27.2526 19.2168 27.001 19.0515 26.8333 18.9726C26.6656 18.8937 26.3979 18.721 26.2376 18.5898C26.0773 18.4585 25.9156 18.3515 25.8782 18.3515C25.8408 18.3515 25.6139 18.2199 25.3744 18.0585C25.1348 17.8972 24.8871 17.7646 24.8236 17.7646C24.689 17.7646 24.0277 17.4175 23.9867 17.3252C23.9713 17.2906 23.9055 17.2627 23.8402 17.2627C23.7749 17.2627 23.722 17.2248 23.722 17.1787C23.722 17.1326 23.6601 17.0947 23.5853 17.0947C23.5105 17.0947 23.2372 16.9879 22.9779 16.8574C21.6065 16.1672 20.9078 15.8323 20.8442 15.835C20.8052 15.8366 20.6705 15.7649 20.5454 15.6758C20.4202 15.5867 20.2072 15.487 20.0718 15.4541C19.9364 15.4213 19.4389 15.1831 18.9663 14.9248C18.4938 14.6666 17.9472 14.3733 17.7515 14.2735C17.5559 14.1738 17.2842 13.9752 17.148 13.8321C16.9212 13.5938 16.9 13.5217 16.9 12.9747C16.9 12.4017 16.9112 12.3681 17.1764 12.1467C17.3284 12.0198 17.5719 11.899 17.7174 11.8771C17.8628 11.8553 20.4705 11.857 23.5122 11.881L29.0425 11.925L29.0269 8.41339L29.0103 4.90273L28.0211 4.84512C27.4756 4.81357 24.7302 4.77567 21.9193 4.76172L21.9211 4.76043ZM32.1814 4.77703L32.2097 16.1517C32.2344 26.2734 32.2521 27.5724 32.3708 27.9454C32.6196 28.7267 32.8803 29.3625 33.1198 29.7686C33.251 29.9912 33.359 30.2105 33.359 30.2559C33.359 30.5485 35.5499 32.8476 35.8287 32.8476C35.8591 32.8476 36.0425 32.9514 36.2359 33.0781C37.1793 33.6963 37.5415 33.8724 38.5669 34.2148C39.6921 34.5905 40.7198 34.8392 41.7377 34.9813C42.828 35.1336 45.5137 35.1352 46.514 34.9843C47.9806 34.763 49.0598 34.4888 49.8361 34.1396C49.9813 34.0742 50.164 34.0204 50.2414 34.0204C50.4083 34.0204 51.7613 33.3118 52.0021 33.0986C52.0943 33.0169 52.3082 32.8798 52.4767 32.7939C52.878 32.5892 54.2846 31.284 54.4512 30.9619C54.5228 30.8236 54.6625 30.6287 54.7618 30.5283C55.0028 30.2844 55.5778 29.2271 55.7041 28.7949C55.7598 28.6044 55.9002 28.1091 56.0166 27.6944L56.2285 26.9395L56.2315 15.8588L56.2345 4.77708H51.8353H47.436V15.3708C47.436 21.9011 47.4052 26.0465 47.3559 26.176C47.2523 26.4484 46.6947 27.0656 46.5522 27.0656C46.4917 27.0656 46.3915 27.116 46.3296 27.1779C46.0374 27.4701 45.3245 27.6105 44.1265 27.6105H42.9537L42.2887 27.2873C41.5902 26.9493 41.3977 26.7678 41.0862 26.1523L40.8977 25.7803V15.2786V4.77685H36.5385H32.1792L32.1814 4.77703Z" fill="#FFCB08"/>
<path d="M178.726 1.00098C178.666 1.03388 178.661 1.41026 178.659 2.74508L178.657 4.60928L175.286 4.61124C172.041 4.61283 171.609 4.63694 170.174 4.89346C168.989 5.10545 167.684 5.88998 166.896 6.8651C166.253 7.66073 165.86 8.55256 165.543 9.93047C165.512 10.0687 165.461 11.7274 165.431 13.6169C165.371 17.4001 165.397 17.2168 164.811 17.9459C164.336 18.5368 163.178 18.9371 161.941 18.937C161.336 18.937 160.281 18.6927 159.922 18.4702C159.465 18.1875 158.954 17.6758 158.855 17.4019C158.788 17.216 158.747 15.2905 158.717 10.9771L158.674 4.81926L154.379 4.79778L150.085 4.77532L150.086 11.3326C150.087 14.9393 150.122 18.129 150.164 18.4204C150.256 19.0592 150.609 20.2482 150.876 20.8237C151.381 21.9098 152.566 23.267 153.655 24.0072C153.926 24.1915 154.223 24.4101 154.314 24.4925C154.406 24.575 154.575 24.6641 154.691 24.6908C154.807 24.7175 155.056 24.8268 155.244 24.9339C155.636 25.1575 156.727 25.6036 157.311 25.7796L157.71 25.8997V30.1692V34.4395H162.067H166.424V30.1858V25.932L167.116 25.6927C168.124 25.3441 170.081 24.367 170.608 23.9496C171.275 23.4208 172.348 22.3102 172.658 21.8286C173.04 21.2332 173.583 19.9962 173.743 19.3569C173.97 18.4444 174.047 17.3291 174.049 14.8327C174.051 13.5192 174.074 12.3599 174.102 12.2566C174.184 11.951 174.619 11.8941 176.703 11.9187L178.615 11.9412L178.639 13.7644C178.653 14.884 178.693 15.5866 178.743 15.5866C178.789 15.5866 178.825 15.5487 178.825 15.5026C178.825 15.4565 178.872 15.4188 178.93 15.4186C178.987 15.4184 179.324 15.1541 179.677 14.8317C180.03 14.5093 180.351 14.2458 180.391 14.2458C180.431 14.2458 180.688 14.0328 180.963 13.7731C181.238 13.5134 181.595 13.2154 181.757 13.1101C181.919 13.0048 182.277 12.7083 182.554 12.4519C182.83 12.1954 183.085 11.9858 183.119 11.9851C183.153 11.9843 183.382 11.8046 183.627 11.5857C184.172 11.0988 185.767 9.77408 186.234 9.41974C186.422 9.27707 186.784 8.96466 187.037 8.72541L187.498 8.28988L186.923 7.74889C186.606 7.45102 186.298 7.20691 186.237 7.20691C186.177 7.20691 186.059 7.12113 185.975 7.01648C185.891 6.91183 185.596 6.64844 185.319 6.43055C185.043 6.21267 184.741 5.96399 184.648 5.87781C184.556 5.79165 184.077 5.39395 183.583 4.99404C183.089 4.59412 182.574 4.15561 182.438 4.01946C182.301 3.8833 182.156 3.77143 182.115 3.77143C182.074 3.77143 181.754 3.5081 181.404 3.18549C181.054 2.86435 180.729 2.60006 180.689 2.60006C180.647 2.60006 180.389 2.39069 180.116 2.13425C179.844 1.87781 179.47 1.57116 179.286 1.45362C179.102 1.33608 178.885 1.15945 178.806 1.06105C178.771 1.01836 178.746 0.99149 178.726 1.00246L178.726 1.00098ZM121.349 4.77528L117.011 4.79774L112.671 4.81922L112.629 15.4604L112.587 26.1026L112.361 26.4854C112.081 26.9619 112.034 26.9998 111.414 27.2315C110.425 27.6014 108.796 27.4226 108.205 26.879C108.092 26.7745 107.929 26.538 107.844 26.3536C107.696 26.0335 107.69 25.547 107.688 15.5299C107.687 9.76156 107.663 4.98319 107.635 4.91019C107.59 4.79173 107.131 4.77738 103.32 4.77738H99.0551V15.2731C99.0551 21.8234 99.024 25.8758 98.9731 26.0533C98.7587 26.8007 98.0814 27.2744 97.0386 27.4068C96.411 27.4864 95.5775 27.3931 95.188 27.1988C95.0423 27.1261 94.8788 27.0669 94.8248 27.0669C94.672 27.0669 94.4043 26.7267 94.2291 26.3121C94.0757 25.9492 94.0687 25.541 94.0484 15.4609C94.0368 9.70001 94.0269 4.94063 94.0269 4.88314C94.0271 4.8007 93.108 4.77767 89.7116 4.77767H85.3963V15.6604C85.3963 27.6281 85.3804 27.1991 85.9139 28.826C86.3728 30.2258 86.9626 31.1619 88.0466 32.2087C88.4096 32.5593 88.7327 32.8467 88.7643 32.8474C88.796 32.8481 89.0648 33.0149 89.362 33.2184C90.0854 33.7138 90.2347 33.7854 91.2838 34.1393C92.3447 34.4972 93.0511 34.6718 94.0269 34.818C95.0473 34.9709 97.3454 34.9702 98.2211 34.817C99.2701 34.6335 101.058 34.0627 101.643 33.7243C101.799 33.6342 102.1 33.4406 102.313 33.2936C103.083 32.7619 103.306 32.6666 103.516 32.7839C103.62 32.8422 103.724 32.9132 103.747 32.9411C103.85 33.0654 105.403 33.9471 105.591 33.988C105.706 34.013 105.895 34.0731 106.01 34.1218C106.463 34.3129 107.427 34.6003 108.105 34.7468C109.115 34.965 112.086 34.967 113.174 34.7497C113.974 34.5899 114.936 34.3257 115.353 34.1521C115.491 34.0944 115.755 34.0001 115.94 33.9421C116.124 33.8842 116.406 33.7521 116.567 33.6492C116.729 33.5462 117.124 33.2958 117.444 33.0925C117.765 32.8892 118.299 32.4591 118.63 32.1365C119.302 31.4814 120.17 30.3763 120.172 30.1736C120.172 30.101 120.267 29.8757 120.383 29.6737C120.628 29.2453 120.943 28.3592 121.147 27.5272C121.279 26.9909 121.293 25.9849 121.32 15.8585L121.349 4.77528Z" fill="#009743" stroke="#009743" stroke-width="0.0837927"/>
</svg>
