<svg width="197" height="89" viewBox="0 0 197 89" fill="none" xmlns="http://www.w3.org/2000/svg">
<path d="M163.065 0.000244141H98.6318C98.881 0.274294 99.0816 0.588762 99.2251 0.930196C99.4753 1.64597 99.6391 2.389 99.7133 3.14359C99.9321 4.43125 100.189 4.62063 100.033 5.60951C99.7301 7.51996 99.3851 7.3348 98.8001 8.45834C98.3508 9.36308 97.9927 10.3103 97.7313 11.2861C97.7284 11.2981 97.7286 11.3106 97.7316 11.3226C97.7347 11.3345 97.7407 11.3455 97.7489 11.3546C97.7572 11.3637 97.7676 11.3707 97.7792 11.3749C97.7908 11.3791 97.8032 11.3804 97.8154 11.3787C98.0216 11.3787 98.4551 11.4208 98.4719 12.0646C98.4972 12.9062 97.5083 14.5894 97.2305 15.0733C96.9528 15.5572 96.3216 16.5335 95.7872 16.8449C94.8698 17.3793 94.5878 17.0679 94.4532 17.3415C94.3185 17.615 93.4012 19.3403 93.2581 19.8116C93.0984 20.4174 92.9997 21.0376 92.9636 21.6631C92.96 21.7042 92.97 21.7454 92.992 21.7804C93.014 21.8153 93.0469 21.8421 93.0856 21.8566C94.9329 22.5804 99.7469 24.2931 100.908 26.2582L84.6275 31.5393C86.904 31.27 89.4036 30.9628 91.6212 30.6977C94.6509 30.3484 99.5575 29.8014 101.136 29.8182C102.499 29.889 103.856 30.0535 105.196 30.3106C107.102 30.5673 108.798 30.6304 110.864 31.047C111.988 31.2114 113.038 31.7015 113.886 32.4566C113.974 32.5155 114.387 32.8522 114.387 32.8522C116.911 32.6755 120.783 32.4314 121.608 32.3599C122.028 32.3261 122.87 32.2798 123.051 32.2589C130.886 31.2616 135.178 27.5122 138.919 25.2357C143.056 22.7109 149.275 20.6532 153.727 20.5353C159.484 20.3838 163.625 21.3769 166.381 23.8681C169.137 26.3592 170.214 29.692 169.103 34.6995C168.035 39.5219 166.494 41.748 162.934 43.9572C159.374 46.1664 155.444 46.8775 150.807 46.4525C143.073 45.7413 136.163 40.9147 133.432 39.341C131.084 37.9902 127.856 36.5595 124.225 36.2355C123.516 36.1904 122.805 36.1904 122.096 36.2355C121.847 36.2355 118.898 36.4585 117.046 36.5974C117.189 37.046 117.272 37.5115 117.294 37.9818C117.235 38.9286 116.714 39.3788 116.133 39.3073C115.552 39.2357 114.273 38.2553 113.89 37.4305C113.852 37.3505 113.734 37.3127 113.734 37.4305C113.734 37.5484 113.734 37.7335 113.734 37.8513C113.705 38.1122 113.549 38.9033 112.989 39.0632C112.691 39.1253 112.383 39.1196 112.087 39.0468C111.792 38.974 111.516 38.8358 111.281 38.6424C111.247 38.6184 111.207 38.6025 111.166 38.5957C111.124 38.5889 111.082 38.5914 111.042 38.6031C111.001 38.6148 110.964 38.6353 110.933 38.6632C110.901 38.6912 110.877 38.7257 110.86 38.7644C110.658 39.3409 110.54 39.6818 109.455 39.4714C108.71 39.3914 108.866 39.6818 108.39 39.7743C107.233 39.9932 106.673 39.3788 105.756 38.9538C104.839 38.5288 105.142 37.6577 104.228 37.502C104.052 37.4683 103.744 37.4136 103.572 37.3926C104.236 39.5585 104.721 41.7751 105.024 44.0202C105.027 44.0407 105.025 44.0615 105.02 44.0816C105.015 44.1016 105.006 44.1204 104.993 44.1369C104.981 44.1533 104.965 44.1671 104.947 44.1774C104.929 44.1877 104.91 44.1944 104.889 44.1969L103.955 44.3105C103.934 44.3119 103.914 44.3176 103.896 44.3274C103.878 44.3371 103.863 44.3506 103.85 44.367C103.838 44.3833 103.829 44.4022 103.825 44.4222C103.82 44.4422 103.82 44.463 103.824 44.483C104.056 45.6907 104.641 47.9504 104.767 49.5789C104.994 52.5245 104.956 53.4082 104.767 54.8768C104.764 54.9004 104.767 54.9243 104.775 54.9467C104.782 54.9691 104.796 54.9893 104.813 55.0057C104.83 55.0221 104.851 55.0342 104.874 55.041C104.896 55.0479 104.92 55.0493 104.944 55.0452C105.326 54.9744 105.692 54.8315 106.021 54.6243C106.054 54.0393 106.167 53.4616 106.358 52.9075C106.452 52.7787 106.553 52.6551 106.661 52.5372C106.738 52.4529 106.796 52.3522 106.829 52.2426L107.069 51.401C107.106 51.2732 107.158 51.1502 107.224 51.0349L108.487 48.7331C108.487 48.7331 108.786 48.1061 109.299 48.245C109.541 48.3782 109.746 48.571 109.893 48.8051C110.04 49.0392 110.126 49.307 110.141 49.5831C110.067 50.2676 109.86 50.931 109.53 51.5356L110.073 52.4025C110.403 52.4882 110.747 52.4991 111.082 52.4342C111.416 52.3694 111.731 52.2306 112.005 52.028C112.288 51.8415 112.559 51.6377 112.817 51.4179C112.581 50.7782 113.149 49.9619 114.698 50.2607C115.232 50.4837 116.747 51.6914 114.854 52.9369C114.837 52.9469 114.824 52.9623 114.818 52.9806C114.811 52.9989 114.811 53.0189 114.817 53.0372C114.824 53.0556 114.836 53.0711 114.853 53.0812C114.869 53.0913 114.889 53.0954 114.908 53.0926C116.974 52.9664 116.714 55.466 115.329 56.2192C115.3 56.2354 115.275 56.2574 115.256 56.284C115.236 56.3106 115.223 56.3411 115.216 56.3734C115.209 56.4057 115.209 56.439 115.217 56.4712C115.224 56.5034 115.238 56.5337 115.258 56.56C115.563 56.9391 115.729 57.4114 115.729 57.8982C115.729 57.8982 115.729 58.5546 113.726 59.2447C113.726 59.2447 113.111 59.493 113.356 59.9475C113.6 60.0359 113.869 60.1284 114.197 60.2294C114.197 60.2294 116.019 60.6502 115.662 61.6475C115.662 61.6475 115.371 62.4891 113.642 61.9379C113.08 61.9714 112.517 61.9531 111.958 61.8832C110.882 62.2309 109.782 62.5037 108.668 62.6995C108.302 62.7726 107.974 62.9705 107.738 63.2592C106.623 64.5216 103.21 66.3058 101.687 66.3226C100.003 66.3226 99.7763 65.0308 98.5433 63.7389C96.149 61.2351 95.7408 58.1001 95.3747 54.9946C95.3682 54.953 95.347 54.915 95.315 54.8876C95.283 54.8602 95.2422 54.8451 95.2 54.8451C95.1579 54.8451 95.1171 54.8602 95.0851 54.8876C95.0531 54.915 95.0319 54.953 95.0254 54.9946C94.6046 58.6388 94.3858 61.9168 92.366 63.7137C91.1372 64.8119 89.21 65.6746 86.0834 66.4152C74.221 69.2262 61.4581 76.5144 62.9014 78.164C63.4695 78.8204 64.8118 77.5117 67.1557 76.4345C75.9926 72.3696 87.4468 71.5574 91.1414 71.8478C91.2707 71.8583 91.392 71.9144 91.4838 72.0061C91.5755 72.0979 91.6316 72.2192 91.6422 72.3485C91.7609 73.2334 91.9509 74.1073 92.2103 74.9617C92.5343 76.1021 92.9004 78.1387 94.1123 79.2707C96.3131 81.3326 96.0101 82.0943 95.4925 84.8589C95.1559 86.6684 97.6302 88.1749 97.6933 88.2254H123.198L127.027 69.3818H152.907C179.367 69.3818 191.128 57.3007 195.622 34.1566C197.722 23.4009 197.642 0.000244141 163.065 0.000244141ZM49.3307 88.3181C49.6884 87.9267 50.1008 87.4765 50.5931 86.9841C51.704 85.8438 50.833 82.9486 51.0518 81.8377C51.3337 80.3817 53.8501 79.6117 54.2456 78.1852C54.7801 76.2411 50.9424 76.5735 52.7729 74.52C53.9174 73.2365 55.5922 73.6784 55.4786 72.416C55.2934 70.3667 57.2923 68.9738 58.1339 68.3342C61.799 65.5569 70.0131 61.1806 74.9912 59.7204C80.2091 58.2013 73.0176 58.3402 67.0675 60.5242C61.6602 62.5019 74.0612 54.7381 83.8743 52.2722C90.8638 50.5217 78.7363 50.1682 67.5682 55.0916C64.0166 56.6528 62.0389 57.6164 60.6166 58.5295C60.6044 58.5369 60.5902 58.5402 60.576 58.539C60.5618 58.5377 60.5483 58.532 60.5376 58.5227C60.5268 58.5133 60.5193 58.5008 60.5161 58.4869C60.513 58.473 60.5143 58.4585 60.5199 58.4454C61.0711 57.3134 62.2326 55.3777 61.8917 53.3747C61.6439 52.0958 61.8029 50.7715 62.3462 49.5875C62.767 48.788 62.5145 46.6419 62.9816 45.5099C63.0016 45.4693 63.0355 45.4371 63.0772 45.4194C63.1189 45.4016 63.1656 45.3993 63.2088 45.4131L69.2094 47.2941L92.6691 39.2988L70.3288 42.6105L62.5818 35.9871C61.4877 34.8257 60.3474 30.2558 61.4919 28.5473C62.6516 26.7686 64.0004 25.1207 65.5148 23.6324C66.571 22.7066 69.7986 22.3069 71.385 21.5284C73.1566 20.6363 74.5747 21.2422 75.8497 21.036C77.2314 20.6966 78.5915 20.275 79.923 19.7736C79.9401 19.7688 79.9549 19.7581 79.9649 19.7435C79.9749 19.7289 79.9794 19.7113 79.9777 19.6936C79.9675 19.1752 79.924 18.6579 79.8473 18.1451C79.503 16.7432 79.3613 15.2992 79.4265 13.8571C79.5569 12.4642 80.7731 11.2481 80.832 10.3224C80.891 9.3966 80.2176 8.44558 80.731 7.54086C81.2065 6.69926 81.3328 6.04703 81.8756 4.27545C81.7409 3.22344 81.0719 2.84894 81.5558 1.77589C81.8125 1.2078 82.2459 0.404092 82.4353 0.00432117H0.787109L5.44962 22.391H37.6157L34.0725 39.5807H58.3107L8.82865 48.5438L32.2336 48.4975L24.0532 88.318L49.3307 88.3181ZM135.486 37.1612C135.62 37.2242 135.769 37.2506 135.916 37.2376C136.064 37.2246 136.206 37.1727 136.327 37.0873C136.449 37.0018 136.545 36.8858 136.607 36.751C136.669 36.6162 136.695 36.4674 136.681 36.3196C136.706 34.0894 137.102 33.0753 137.581 31.291C137.775 30.5757 137.16 30.0034 136.563 30.3316C132.961 32.2757 130.331 33.0878 128.77 33.4329C128.643 33.4671 128.53 33.5403 128.447 33.6423C128.363 33.7442 128.315 33.8697 128.307 34.001C128.297 34.1169 128.325 34.2328 128.389 34.3304C128.452 34.428 128.546 34.5016 128.656 34.5396C131.028 35.1402 133.321 36.0202 135.486 37.1612Z" fill="black"/>
<path d="M185.843 84.6065H184.383L184.56 83.7649H188.528L188.351 84.6065H186.899L186.159 88.318H185.098L185.843 84.6065ZM194.221 83.7649L193.316 88.318H192.328L192.862 85.6122L191.124 87.8383H190.657L189.727 85.5701L189.18 88.3011H188.191L189.104 83.748H189.946L191.082 86.5843L193.308 83.748L194.221 83.7649Z" fill="black"/>
</svg>
