<svg width="111" height="121" viewBox="0 0 111 121" fill="none" xmlns="http://www.w3.org/2000/svg">
<path d="M106.848 68.9202V65.9023H108.049C108.29 65.9023 108.474 65.9295 108.6 65.9838C108.725 66.0381 108.826 66.1334 108.901 66.2711C108.976 66.4081 109.013 66.5596 109.013 66.7256C109.013 66.9397 108.951 67.1202 108.827 67.2667C108.703 67.4132 108.511 67.5066 108.251 67.5464C108.346 67.5969 108.418 67.6474 108.467 67.6967C108.572 67.804 108.671 67.9378 108.764 68.0982L109.232 68.9202H108.785L108.427 68.292C108.322 68.1108 108.236 67.9719 108.168 67.876C108.101 67.78 108.04 67.7124 107.987 67.6746C107.933 67.6367 107.879 67.6095 107.823 67.5944C107.783 67.5849 107.716 67.5799 107.624 67.5799H107.208V68.9202H106.848ZM107.208 67.2345H107.978C108.141 67.2345 108.269 67.2156 108.361 67.1777C108.453 67.1398 108.523 67.0792 108.571 66.9965C108.619 66.9131 108.643 66.8229 108.643 66.7256C108.643 66.5829 108.597 66.4655 108.504 66.3733C108.411 66.2812 108.264 66.2351 108.065 66.2351H107.208V67.2345H107.208Z" fill="black"/>
<path d="M105.388 67.3309C105.388 65.9716 106.489 64.8699 107.849 64.8699C109.208 64.8699 110.31 65.9716 110.31 67.3309C110.31 68.6902 109.208 69.7919 107.849 69.7919C106.489 69.7919 105.388 68.6902 105.388 67.3309Z" stroke="black" stroke-width="0.5669" stroke-miterlimit="3.8637"/>
<path d="M0 64.8699H14.3836V68.9686H5.13734V75.4741H13.9056V79.4687H5.13734V90.9038H0V64.8699Z" fill="black"/>
<path d="M102.98 65.3908L102.504 69.6537C92.6135 65.4565 90.8924 73.659 95.7141 75.0007C109.856 78.9366 104.666 89.7005 98.6398 90.9544C95.6509 91.5763 91.4991 91.5466 88.2148 90.3111L88.6928 85.658C92.7877 88.0982 99.1278 87.8197 99.1278 83.9527C99.1278 79.703 91.3994 80.6204 88.5034 75.7324C86.8322 72.9109 87.0399 65.4912 95.3959 64.464C99.2453 63.9905 102.98 65.3908 102.98 65.3908Z" fill="black"/>
<path d="M16.5929 91.4557C16.3423 91.5378 16.252 91.6811 16.014 91.784C15.9073 91.8288 15.8088 91.8086 15.7185 91.8825C15.5581 92.0182 15.5708 92.1818 15.4394 92.3421C15.2671 92.5517 15.0865 92.5921 14.9142 92.8018C14.7418 93.0114 14.75 93.2121 14.6351 93.4584C14.327 94.1194 13.9002 94.3492 13.3055 94.776C13.1249 94.9035 12.9115 94.7962 12.7638 94.9566C12.6691 95.0589 12.6899 95.1946 12.5832 95.2849C12.4317 95.2849 12.3452 95.2849 12.193 95.2849C11.9758 95.2849 11.8938 95.4781 11.7624 95.646C11.4834 95.9945 11.2744 96.1675 11.0648 96.5533C10.7201 97.1853 10.4202 97.4889 9.98138 98.0635C9.78439 98.3261 9.73515 98.5231 9.50533 98.7573C9.43588 98.8312 9.32855 98.7864 9.2591 98.8558C9.16503 98.9505 9.18145 99.0692 9.07854 99.1513C8.88976 99.3028 8.64795 99.1759 8.48759 99.3647C8.42193 99.4424 8.47117 99.5326 8.40551 99.6109C8.12266 99.943 7.84739 99.9967 7.51909 100.284C7.48247 100.215 7.43701 100.169 7.43701 100.087C7.43701 99.9392 7.57654 99.89 7.60116 99.7423C7.69966 99.1305 7.77352 98.7693 8.11004 98.2605C8.55704 97.5874 8.54062 97.0413 9.02929 96.4011C9.31656 96.0236 9.29572 95.6997 9.53816 95.2849C9.59562 95.1864 9.70232 95.1782 9.76798 95.0879C9.86647 94.9484 9.73136 94.8088 9.78439 94.6447C9.85005 94.4477 9.99779 94.4022 10.1291 94.2507C10.3627 93.9799 10.3381 93.7172 10.5231 93.4091C10.6424 93.2077 10.917 93.1793 10.917 92.9413C10.917 92.8636 10.8678 92.8226 10.8678 92.7443C10.8678 92.5353 11.0528 92.4652 11.1677 92.2929C11.3318 92.0467 11.4101 91.8989 11.5452 91.6363C11.6804 91.3736 11.7422 91.2133 11.8938 90.9632C11.9556 90.8566 11.9796 90.7416 12.1072 90.717L12.1337 90.5522C12.1627 90.2694 12.3269 90.1374 12.5112 89.9285C12.6135 89.8098 12.7739 89.7687 12.7739 89.6084C12.7739 89.5017 12.7246 89.4442 12.7246 89.3375C12.7246 89.0875 12.9873 89.042 13.135 88.8451C13.2209 88.7301 13.1716 88.6152 13.2499 88.4959C13.5245 88.0855 13.7215 87.8677 13.9229 87.4125C14.1818 86.8298 14.428 86.5589 14.7765 86.0336C14.8832 85.8739 14.9281 85.7628 15.072 85.6397C15.1414 85.5778 15.2526 85.5658 15.2526 85.4711C15.2526 85.4016 15.1541 85.3852 15.1541 85.3151C15.1541 85.0235 15.4167 84.9414 15.5973 84.716C16.0323 84.1781 16.3031 83.8744 16.6359 83.267C17.0134 82.5776 17.2596 82.2038 17.7401 81.5763C17.8304 81.4569 17.7073 81.2808 17.8386 81.1987L18.023 80.9102C19.1884 79.5761 19.5988 78.6733 20.6166 77.2451C20.8502 76.9168 21.0225 76.7401 21.2239 76.3915C21.347 76.1781 21.3635 76.014 21.5396 75.8454C21.7038 75.6895 21.8805 75.6775 22.0321 75.5007C22.2783 75.2216 22.2493 74.9546 22.4753 74.6635C22.6432 74.4463 22.7998 74.3396 22.8857 74.0726C22.8857 74.0726 22.9021 73.892 23.0334 73.7771L23.3036 73.7392C23.5296 73.4475 23.5827 73.2259 23.8125 72.9469C24.1863 72.4955 24.4363 72.2574 24.6989 71.7321C24.8915 71.342 25.1093 71.186 25.3719 70.8457C25.9181 70.1399 26.2135 69.7213 26.7717 69.0236C27.5103 68.1 27.958 67.5993 28.6802 66.668C28.9303 66.3441 29.037 66.1219 29.304 65.8144C29.7264 65.3302 30.1286 65.1452 30.3382 64.5176L30.491 64.3768C31.0699 64.0567 31.1268 63.5561 31.5788 63.0756C31.7922 62.8458 32.0138 62.7966 32.2026 62.5503C32.445 62.2347 32.5309 62.0086 32.7607 61.6803C32.8466 61.5572 32.9703 61.561 33.089 61.4669C33.3965 61.2207 33.4457 60.9745 33.68 60.6626C33.8239 60.4694 33.9716 60.4208 34.1396 60.2522C34.8044 59.5874 35.0715 59.1113 35.6378 58.36C35.7855 58.163 35.9371 58.1138 36.0974 57.9294C36.5779 57.3795 36.7294 56.9401 37.3166 56.4849L37.4548 56.3296C37.7996 55.8081 38.1815 55.6686 38.6367 55.2462C38.7889 55.1066 38.727 54.9052 38.8665 54.7537C39.4373 54.1464 39.8761 53.9083 40.3275 53.1898L40.3111 53.2757C40.7177 53.0869 40.7871 52.7668 41.0826 52.4341C41.7803 51.6462 42.125 51.1411 42.9129 50.4434C43.2084 50.1808 43.2987 49.951 43.6023 49.7048C43.6844 49.6391 43.7747 49.6637 43.8486 49.5899C44.0986 49.3398 44.0746 49.0437 44.3739 48.8512C44.4395 48.8101 44.5052 48.855 44.5708 48.8183C44.9812 48.5803 45.0507 48.2558 45.408 47.9439L45.5621 47.7387C45.7262 47.5253 45.8822 47.4679 46.0874 47.2955C46.5097 46.9382 46.6903 46.6717 47.0931 46.2942C47.6228 45.7979 47.7788 45.3629 48.275 44.8332C48.8495 44.2214 49.301 44.0042 49.9494 43.4543C50.5776 42.9208 50.7865 42.4694 51.3983 41.9195C52.0183 41.3652 52.4817 41.1682 52.995 40.5078L53.3802 40.1738C54.2792 39.3777 54.7224 38.8606 55.6619 38.1055C55.8671 37.9413 55.9043 37.7608 56.0887 37.5758C56.9385 36.7266 57.6525 36.4842 58.4076 35.5567C58.8755 34.9822 59.2657 34.7732 59.873 34.3376C60.9034 33.5945 61.4899 33.1967 62.3397 32.2484C62.5815 31.9775 62.7091 31.8134 62.9799 31.5754C63.3126 31.2799 63.5917 31.2105 63.8872 30.8695C64.3304 30.574 64.5709 30.187 64.9605 29.8259C65.1777 29.6245 65.4201 29.6699 65.6499 29.4812C65.8223 29.3372 65.8589 29.1857 66.0111 29.0215C66.4259 28.5821 66.7378 28.4098 67.2138 28.0366C67.3862 27.9009 67.431 27.7538 67.5913 27.606C67.9399 27.2777 68.1987 27.1628 68.5763 26.8674C68.724 26.7524 68.7486 26.6129 68.8882 26.4898C68.9949 26.3995 69.1142 26.4406 69.2367 26.3749C69.7948 26.0674 70.0574 25.8124 70.5171 25.3534L70.7847 25.1198C71.0638 24.8773 71.2772 24.8161 71.5727 24.5945C72.4389 23.9461 72.8985 23.5275 73.7439 22.85C73.9737 22.6695 74.0103 22.4687 74.22 22.2591C74.6714 21.8077 74.9176 21.5406 75.4675 21.2249C75.5862 21.1593 75.7055 21.2129 75.8122 21.1264C76.2756 20.7407 76.4644 20.437 76.8874 20.0064C77.3717 19.514 77.7619 19.37 78.3648 19.0379C78.4961 18.9685 78.4835 18.8289 78.5946 18.726C78.7386 18.5947 78.8737 18.5865 79.0378 18.4798L79.3908 18.2285C80.1667 17.5391 80.692 17.2802 81.4919 16.6154C82.0418 16.1602 82.2963 15.8237 82.908 15.4499C83.5362 15.0686 83.8683 14.8097 84.4555 14.3665C84.8084 14.1001 84.9726 13.9107 85.3091 13.6278C85.5389 13.4353 85.6166 13.1644 85.9165 13.1644C85.9493 13.1644 85.9575 13.201 85.9903 13.201C86.3717 13.201 86.5036 12.8727 86.7536 12.5854L86.9165 12.4895C88.8655 10.7855 90.2539 10.2406 92.2818 8.67104C92.6997 8.34779 96.2947 5.79901 97.2626 5.30592C98.1566 4.51988 98.9331 4.0552 99.7299 3.62083C100.472 3.21865 100.818 2.8089 101.599 2.46229L102.065 2.24889C102.176 2.0557 102.365 2.04812 102.574 1.96983C102.812 1.87955 102.927 1.76022 103.165 1.65794C103.658 1.44075 103.887 1.21852 104.38 1.00133C104.868 0.787932 105.168 0.730479 105.644 0.492458C106.067 0.282847 106.325 0.0984915 106.797 0.0984915C106.912 0.0984915 106.978 0.0984915 107.093 0.0984915L107.417 0C107.959 0.13511 108.189 0.405962 108.64 0.722271C108.948 0.93567 109.272 0.878216 109.494 1.1819C109.58 1.30059 109.502 1.52662 109.65 1.52662C109.699 1.52662 109.724 1.47737 109.773 1.47737C109.896 1.47737 109.97 1.6087 109.97 1.73181C109.97 1.80189 110.019 1.83472 110.019 1.90417C110.019 2.00645 109.921 2.0437 109.921 2.14661C109.921 2.31076 109.921 2.40105 109.921 2.5652C109.921 2.80322 109.715 2.88088 109.543 3.04124C109.453 3.12332 109.486 3.25464 109.395 3.33672C109.309 3.415 109.207 3.36576 109.1 3.41879C108.969 3.48445 108.927 3.58295 108.804 3.66502C108.575 3.81655 108.366 3.77614 108.148 3.94408C107.311 4.59248 106.822 4.929 105.956 5.55278C105.168 6.1191 104.733 6.4392 103.937 6.9809C103.765 7.09581 103.613 7.09202 103.445 7.21072C103.322 7.29658 103.355 7.46073 103.231 7.54281C102.64 7.93678 102.316 8.15838 101.75 8.59781L101.599 8.76827C101.501 8.94884 101.493 9.08458 101.386 9.26073C100.889 10.0777 100.303 10.3031 99.5146 10.853C99.0632 11.1693 98.7185 11.2059 98.2835 11.5425C98.0619 11.7148 98.0783 11.961 97.8731 12.1498C97.791 12.2237 97.6761 12.1662 97.5776 12.2155C97.3642 12.3266 97.2948 12.4617 97.118 12.6259C96.9582 12.7736 96.8351 12.831 96.671 12.975C96.5561 13.0735 96.5561 13.213 96.421 13.2869C96.1129 13.4548 95.83 13.3854 95.5838 13.6316C95.3376 13.8778 95.3413 14.1405 95.1241 14.4075C94.5578 15.097 94.0079 15.2573 93.3021 15.8028C93.1341 15.9297 93.1417 16.1185 92.9738 16.2461L92.8683 16.4159C92.696 16.6129 92.4744 16.5554 92.2445 16.6785C92.1378 16.736 92.2281 16.8755 92.2281 16.9986C92.2281 17.1502 92.0229 17.1337 91.8796 17.171C91.7155 17.2158 91.646 17.3516 91.6006 17.5157C91.5639 17.6552 91.4326 17.6717 91.3215 17.7619C91.1738 17.8851 91.1409 18.0082 91.026 18.1603C90.788 18.4722 90.5462 18.5417 90.2545 18.8005C89.9628 19.0594 89.8972 19.3138 89.5815 19.5392C88.9287 20.007 88.6294 20.36 87.9728 20.8196C87.3982 21.2218 86.7827 21.4642 86.7827 22.1619C86.6962 22.1701 86.6469 22.1537 86.5611 22.1537C86.3439 22.1537 86.3439 22.4365 86.1589 22.5476C85.5717 22.905 85.2598 23.1304 84.7472 23.5862C84.3943 23.8981 84.3368 24.2182 83.9921 24.5383C83.6802 24.83 83.4788 24.9613 83.1549 25.2441L82.915 25.4664C82.5419 25.7126 82.2792 25.7909 81.9629 26.1066C81.7003 26.3692 81.6018 26.5826 81.3019 26.796C80.9079 27.0789 80.7848 27.3586 80.399 27.6496C80.2759 27.7399 80.1528 27.6824 80.0051 27.7317C79.87 27.7765 79.87 27.9205 79.8081 28.0474C79.4432 28.7943 78.9172 29.0077 78.3143 29.574C77.933 29.9307 77.6697 30.1201 77.3578 30.5463C77.2511 30.694 77.181 30.7887 77.0623 30.9238C76.984 31.0141 76.972 31.1536 76.8489 31.1536C76.7997 31.1536 76.7713 31.1208 76.722 31.1208C76.4922 31.1208 76.484 31.3999 76.3691 31.5968C76.2706 31.761 76.1229 31.7774 75.9751 31.8923C75.6342 32.1632 75.4416 32.3191 75.1051 32.5982C74.8671 32.7952 74.8014 32.9839 74.5962 33.21C74.547 33.2674 74.4611 33.2264 74.3993 33.2756C73.9927 33.6001 73.8576 33.8786 73.4472 34.1949L73.2571 34.4499C73.0766 34.6596 72.9162 34.7252 72.7483 34.9424C72.6416 35.0819 72.7318 35.2499 72.6169 35.3856C72.3871 35.6483 72.1984 35.743 71.9767 36.0094C71.6566 36.3951 71.3246 36.4608 71.0038 36.8466C70.7904 37.1054 70.7942 37.3719 70.5114 37.5524C70.4293 37.6017 70.327 37.5442 70.2651 37.6181C69.9943 37.9338 69.9495 38.197 69.6742 38.5089C69.2146 39.0342 68.8818 39.2722 68.3117 39.6782C67.996 39.8998 67.9013 40.1378 67.6179 40.4005C67.2195 40.7736 66.9076 40.9138 66.5793 41.3526C66.4353 41.5457 66.4278 41.7137 66.251 41.8778C65.8324 42.2674 65.5287 42.4278 65.1512 42.8628L64.8803 43.0667C64.7326 43.3003 64.6795 43.4524 64.4863 43.6456C64.326 43.806 64.0924 43.6703 63.9446 43.8426C63.8708 43.9285 63.9484 44.0478 63.879 44.1381C63.7767 44.2694 63.6081 44.212 63.485 44.3187C63.103 44.6552 63.0418 44.9917 62.6807 45.3528C62.389 45.6445 62.1307 45.7177 61.8599 46.0258C61.6875 46.2228 61.5354 46.2967 61.3466 46.4855C60.9198 46.9123 60.8541 47.3309 60.3781 47.7002C60.1773 47.8561 60.1773 48.0658 59.9841 48.2337C59.8528 48.3486 59.6722 48.2255 59.5371 48.3322C59.3035 48.5165 59.3692 48.8619 59.0775 48.956L58.7947 49.2407C58.2403 49.4251 58.1993 49.91 57.7605 50.2749C57.5717 50.4308 57.5389 50.595 57.3665 50.7673C57.2883 50.8456 57.1696 50.7635 57.0711 50.8166C56.9524 50.8822 57.0256 51.0262 56.989 51.1613C56.9151 51.4277 56.6607 51.4486 56.4265 51.5881C56.1682 51.744 56.0615 51.9038 55.8847 52.1462C55.552 52.6021 55.3923 52.9304 54.9162 53.234C54.4402 53.5377 54.2925 53.8787 53.9642 54.3383C53.5576 54.9046 53.324 55.2411 52.8435 55.75C52.4868 56.1275 52.3302 56.3858 51.9242 56.7021C51.3825 57.1207 50.9229 57.2646 50.5902 57.8676L50.4999 58.0387C50.3642 58.1289 50.2575 58.1738 50.188 58.3215C50.135 58.432 50.147 58.6006 50.0239 58.6006C49.9582 58.6006 49.9172 58.5677 49.8515 58.5677C49.6545 58.5677 49.6709 58.814 49.5642 58.9781C49.4986 59.0766 49.3919 59.0646 49.2852 59.1094C48.9651 59.249 48.8054 59.4087 48.6122 59.7004C48.4935 59.881 48.5793 60.0735 48.448 60.2421C48.3786 60.3324 48.2346 60.2339 48.1525 60.3078C48.0951 60.357 48.1235 60.4347 48.0869 60.5047C47.972 60.7137 47.804 60.7756 47.6601 60.9644C47.2295 61.5225 46.9378 61.8262 46.3753 62.2448C46.2566 62.3313 46.3342 62.4954 46.2604 62.6223C46.076 62.9342 45.9156 63.0864 45.6366 63.32C45.5217 63.4147 45.5791 63.6483 45.4276 63.6483C45.3701 63.6483 45.3373 63.6154 45.2799 63.6154C45.0993 63.6154 45.0665 63.8162 44.9926 63.9766C44.9269 64.1205 44.8164 64.1571 44.7299 64.2885C44.6725 64.3743 44.6889 64.5183 44.5822 64.5183C44.4875 64.5183 44.4547 64.4198 44.3606 64.4198C44.2211 64.4198 44.2829 64.6288 44.2539 64.7645C44.2293 64.8838 44.1554 64.9533 44.0405 64.9943C43.7697 65.0966 43.6503 65.2487 43.4824 65.4868C43.1421 65.959 42.9691 66.2911 42.4646 66.5702L42.2778 66.7596C42.2411 66.9275 42.2576 67.0715 42.1136 67.1535C42.0315 67.199 41.9495 67.0923 41.8674 67.1371C41.7815 67.1864 41.8345 67.2975 41.7853 67.3834C41.7278 67.4819 41.6174 67.4901 41.5555 67.5803C41.486 67.6826 41.5271 67.8064 41.4204 67.8758C41.2891 67.9623 41.1003 67.8228 41.0264 67.9579C40.9525 68.093 41.0472 68.2534 40.9279 68.3519C40.5377 68.684 40.3862 68.9472 40.0415 69.3241C39.9512 69.4271 40.0497 69.5786 39.9594 69.6853C39.8736 69.7876 39.7378 69.6979 39.6147 69.7509C39.4916 69.804 39.467 69.9069 39.3849 70.0136C39.044 70.4524 38.9335 70.7807 38.5149 71.1462C38.4082 71.2365 38.2649 71.1917 38.1702 71.294C37.6202 71.8811 37.4807 72.3364 36.951 72.9399C36.8071 73.1041 36.6227 73.0959 36.4586 73.2354C36.1631 73.4898 36.0482 73.6988 35.8304 74.0278L35.6826 73.9785C35.5311 74.0732 35.5557 74.2285 35.4856 74.3889L35.331 74.5278C35.2325 74.6263 35.2287 74.721 35.1832 74.8561C35.1302 74.8397 35.0929 74.8233 35.0355 74.8233C34.8587 74.8233 34.9288 75.0941 34.8057 75.2172C34.7198 75.3031 34.5885 75.2703 34.5102 75.365C34.293 75.6194 34.2968 75.8865 34.0177 76.0708C33.9237 76.1327 33.829 76.1447 33.7879 76.2514C33.7507 76.3417 33.8125 76.4402 33.7387 76.4976C33.4432 76.7312 32.8851 76.5797 32.8851 76.9572C32.8851 77.0841 32.7373 77.1252 32.7373 77.2527C32.7373 77.3102 32.7702 77.343 32.7702 77.4005C32.7702 77.5154 32.6553 77.5608 32.5568 77.6139C32.5568 77.5848 32.5404 77.5728 32.5404 77.5444C32.5404 77.4333 32.594 77.3803 32.606 77.2691C32.2985 77.302 32.2821 77.6265 32.0643 77.8437C31.8957 78.0116 31.8875 78.1884 31.7032 78.3361C31.5554 78.451 31.4077 78.4308 31.2562 78.5369C30.7801 78.8816 30.7101 79.321 30.2176 79.6411C30.0907 79.7232 30.1728 79.9859 30.0206 79.9859C29.9183 79.9859 29.8773 79.8874 29.7744 79.8874C29.4909 79.8874 29.4707 80.2239 29.2819 80.4291C28.9782 80.7574 28.732 80.9095 28.5432 81.3155C28.3917 81.64 28.1739 81.7505 27.9359 82.0214C27.6322 82.3661 27.5457 82.6533 27.1644 82.9078L26.9775 82.8977C26.826 82.9141 26.8095 83.082 26.7148 83.1931C26.5753 83.3535 26.3739 83.3573 26.288 83.5581C26.2514 83.6439 26.3127 83.7222 26.2678 83.8043C26.2022 83.9274 26.0791 83.9318 25.9888 84.0341C25.7097 84.3542 25.603 84.584 25.2993 84.8877C25.0531 85.1339 25.0367 85.5443 24.6876 85.5443C24.5562 85.5443 24.4786 85.5443 24.3473 85.5443C24.1503 85.9055 23.8384 85.9711 23.6086 86.3158C23.5101 86.468 23.5966 86.6606 23.4444 86.7591C23.3459 86.8247 23.2184 86.7837 23.1654 86.8904C23.0997 87.0255 23.1571 87.1612 23.0504 87.2679L22.952 87.2351C22.8042 87.2843 22.837 87.4485 22.7221 87.547C22.4349 87.7932 22.3282 87.9946 22.1312 88.3229C22.0163 88.208 22.0163 88.011 21.8566 88.011C21.7334 88.011 21.6021 88.0685 21.6021 88.1916C21.6021 88.2901 21.4544 88.2408 21.3559 88.2573C21.2164 88.2781 21.1425 88.3109 21.0074 88.3557C21.0074 88.3273 20.991 88.3147 20.991 88.2863C20.991 88.1386 21.1059 88.0811 21.1879 87.9624C21.3723 87.6998 21.52 87.5811 21.7341 87.3342C21.8944 87.1454 21.9064 86.9769 22.0497 86.7761C22.1729 86.6037 22.3907 86.6119 22.4765 86.415C22.5422 86.2672 22.5012 86.1485 22.5914 86.021C22.7518 85.7994 22.7884 85.627 22.969 85.4301C23.1167 85.2697 23.3137 85.2002 23.3137 84.9786C23.3137 84.9003 23.2436 84.8391 23.166 84.8391C23.0302 84.8391 22.9564 84.8883 22.8213 84.8883C22.8213 85.2167 22.4848 85.2905 22.2303 85.4957C21.9879 85.6889 21.8982 85.8733 21.6185 86.021C21.4954 86.0829 21.3843 86.0374 21.2738 86.1195C21.1879 86.1814 21.1917 86.2963 21.0895 86.3329C20.9297 86.3948 20.9253 86.5545 20.8104 86.6776C20.7409 86.7559 20.6425 86.7306 20.5642 86.8089C20.4821 86.891 20.5395 87.0141 20.4657 87.1044C20.121 87.5066 19.8911 87.8557 19.3659 87.8923C19.3659 87.9624 19.3823 87.999 19.3823 88.0691C19.3823 88.155 19.2592 88.1512 19.2017 88.2086C19.1076 88.3033 19.0994 88.3936 19.0211 88.5041C18.6764 88.9884 18.4958 89.2883 18.1347 89.7561C17.634 90.4045 17.3714 90.7947 16.7849 91.3812C16.7798 91.3812 16.5929 91.4557 16.5929 91.4557Z" fill="url(#paint0_linear)"/>
<path d="M94.8158 37.2387C94.9471 37.0417 95.1094 36.9994 95.2641 36.8214C95.5734 36.4659 95.6157 36.1414 95.975 35.8327C96.0754 35.7474 96.2105 35.7904 96.2995 35.6938C96.5161 35.4583 96.5584 35.2493 96.7787 35.0138C97.2308 34.5308 97.5976 34.361 97.984 33.8237C98.2352 33.472 98.4474 33.3293 98.7567 33.02C99.0232 32.7535 99.1008 32.537 99.3288 32.2434C99.599 31.8993 99.8389 31.7838 100.151 31.4706C100.622 30.999 100.843 30.6903 101.372 30.2805L101.525 30.0804C101.907 29.586 102.325 29.4364 102.669 28.9187C102.901 28.4748 103.248 28.3827 103.591 28.0159C104.354 27.2001 104.793 26.7367 105.522 25.9021C105.758 25.6268 106.043 25.6224 106.275 25.3421C106.921 24.5649 107.313 24.1545 108.041 23.4695C108.466 23.0685 108.702 22.8274 109.161 22.4751C109.456 22.2484 109.605 21.9731 109.982 21.9731C110.161 21.9731 110.258 22.0167 110.436 22.0312C110.436 22.0988 110.456 22.1423 110.456 22.2099C110.456 22.6878 110.166 22.924 110.166 23.4019C110.166 23.8988 109.77 24.0825 109.49 24.4929C109.35 24.7006 109.437 24.8887 109.375 25.1299C109.22 25.6899 108.887 25.9021 108.68 26.4425C108.443 27.0556 107.932 27.2001 107.695 27.8132C107.454 28.4408 107.32 28.9023 106.813 29.3512C106.422 29.6119 106.488 30.021 106.393 30.4813C106.331 30.7894 106.053 30.869 105.987 31.1764C105.806 31.9915 104.886 32.1689 104.886 32.9985C104.886 33.1071 104.886 33.169 104.886 33.2776C104.368 33.6217 104.252 34.0276 104.002 34.5958C103.9 34.8244 103.777 34.9185 103.698 35.1609L103.49 35.4608C103.211 35.5441 103.305 35.8813 103.258 36.1711C103.225 36.37 103.077 36.4318 102.983 36.6055C102.856 36.8409 102.838 37.0259 102.65 37.2141C102.345 37.5184 102.208 37.7248 101.968 38.0835C101.864 38.2426 101.874 38.3916 101.737 38.5178C101.599 38.6441 101.389 38.67 101.389 38.8581C101.389 39.0248 101.505 39.1044 101.505 39.271C101.505 39.3941 101.374 39.4232 101.302 39.5173C101.165 39.6985 101.1 39.814 100.954 39.9952C100.708 40.3065 100.683 40.5603 100.462 40.8936C100.129 41.3937 99.8717 41.6216 99.5201 42.1109C99.4184 42.2555 99.3174 42.3281 99.2593 42.5023L99.0194 42.9493C98.7113 43.2208 98.7113 43.5213 98.5269 43.8913C98.4505 44.0435 98.2914 44.0289 98.1791 44.1521C98.0376 44.3042 98.0452 44.4526 97.9619 44.6445C97.8571 44.8838 97.6828 44.9412 97.513 45.137C97.3248 45.3542 97.3393 45.5574 97.1796 45.8037C97.0489 46.0063 96.8172 46.0139 96.7307 46.2381C96.6114 46.5493 96.5748 46.7558 96.3538 47.0058C96.1726 47.2122 96.0028 47.2886 95.8904 47.5418C95.8361 47.6687 95.8904 47.7735 95.8178 47.8897C95.7307 48.0273 95.5861 48.0273 95.4844 48.1504C95.3215 48.3499 95.4011 48.5848 95.2092 48.7591C94.8758 49.0634 94.7748 49.3134 94.5279 49.6865L94.0872 50.2516C93.7469 50.7106 93.6188 51.0263 93.3176 51.5143C93.2242 51.6671 93.012 51.6128 92.923 51.7706C92.6964 52.1753 92.7159 52.4708 92.4886 52.8755C91.8573 54.005 91.236 54.4785 90.7126 55.6775C90.5005 56.1705 90.2246 56.3631 89.9234 56.8019C89.6766 57.1618 89.5882 57.4036 89.3312 57.7489C88.9613 58.242 88.739 58.5186 88.4631 59.071C88.3349 59.3324 88.3349 59.5496 88.1077 59.7219C88.0338 59.7762 87.9498 59.6922 87.8709 59.7415C87.7276 59.8305 87.7522 59.9833 87.6935 60.1361C87.5502 60.4814 87.3582 60.6494 87.2989 61.0238L87.0817 61.6356C86.85 61.8673 86.6524 61.9411 86.5097 62.2278C86.4257 62.4001 86.4655 62.5384 86.3714 62.7013C86.0412 63.2537 85.6757 63.476 85.5033 64.0827C85.4143 64.3883 85.0494 64.4527 85.0494 64.7734C85.0494 64.8523 85.1087 64.8921 85.1087 64.971C85.1087 65.0897 84.9313 65.0695 84.872 65.1686C84.7141 65.425 84.6946 65.6226 84.5367 65.8789C84.3543 66.175 84.0436 66.2047 83.9249 66.5298C83.7273 67.0677 83.3725 67.2546 83.1749 67.7925C83.1351 67.9062 83.1553 68.0047 83.096 68.1082C82.9924 68.2806 82.8245 68.2957 82.7209 68.4637C82.3611 69.0458 82.1881 69.3911 81.8333 69.9827C81.5472 70.4663 81.4778 70.8117 81.0636 71.1861L80.7284 71.6476C80.4916 71.8844 80.5705 72.1761 80.4127 72.4684C80.0181 73.1704 79.8527 73.5966 79.4657 74.2987C78.7238 75.6403 78.0691 76.2635 77.446 77.6758C77.0753 78.5199 76.5545 78.8198 76.1832 79.6639C75.9307 80.2322 75.8966 80.6103 75.5734 81.1312C74.942 82.1489 74.3466 82.3958 74.0865 83.5954C73.976 83.572 73.8794 83.7431 73.7853 83.704C73.8011 83.7987 73.8169 83.8542 73.8169 83.9483C73.8169 84.5481 73.4147 84.8082 73.0593 85.2817C72.4279 86.1259 72.4361 86.8204 71.8597 87.7118C71.426 88.3823 71.0547 88.6904 70.8811 89.479L70.5629 89.6412C70.5156 89.854 70.3735 89.9178 70.2472 90.0832C70.0187 90.3831 70.1683 90.7146 69.9631 91.0302C69.8842 91.1483 69.7188 91.07 69.6159 91.1565C69.3084 91.4324 69.2055 91.7323 69.2055 92.1509C69.2055 92.2064 69.2686 92.238 69.2686 92.2929C69.2686 92.6244 68.7793 92.5688 68.6373 92.8612C68.1006 93.942 67.6429 94.4629 67.1542 95.5754C66.6807 96.6405 66.3177 97.1847 65.7968 98.2264C65.6314 98.5655 65.2917 98.6842 65.2917 99.063C65.2917 99.1735 65.3549 99.2366 65.3549 99.3471C65.3549 99.9942 64.8264 100.215 64.5972 100.814C63.8005 102.874 63.0668 103.907 62.0724 105.896C61.8357 106.369 61.5598 106.598 61.5042 107.126L61.1475 107.641C60.5837 108.278 60.4599 108.784 59.9574 109.479C59.6714 109.877 59.5401 110.132 59.3702 110.592C59.3469 110.661 59.2585 110.661 59.2313 110.73C59.1619 110.9 59.2004 111.059 59.0615 111.179C59.0457 111.128 59.0306 111.093 59.0306 111.04C59.0306 110.723 59.2162 110.564 59.2162 110.248C59.2162 110.213 59.2162 110.194 59.2162 110.159C59.1082 110.283 59.1 110.398 58.9996 110.53C58.7641 110.835 58.5362 111.024 58.5362 111.41C58.5362 111.518 58.4245 111.538 58.3664 111.627C58.2275 111.835 58.1422 111.951 57.9958 112.152C57.7912 112.434 57.8146 112.693 57.5633 112.944C57.521 112.871 57.4781 112.836 57.4168 112.774C57.3821 112.859 57.3398 112.944 57.247 112.944C57.1542 112.944 57.1081 112.882 57.0153 112.882C56.9263 112.882 56.9263 112.994 56.884 113.068C56.8031 113.203 56.7526 113.288 56.7141 113.438C56.6371 113.721 56.4319 113.813 56.2968 114.072C56.2078 114.245 56.2659 114.52 56.0689 114.52C55.918 114.52 55.7986 114.385 55.7986 114.234C55.7986 113.975 56.1232 113.913 56.1232 113.654C56.1232 113.488 56.0461 113.403 56.0461 113.237C56.0461 112.866 56.3896 112.723 56.3896 112.352C56.3896 112.275 56.3435 112.198 56.2659 112.198C55.8832 112.198 55.6711 112.464 55.4741 112.789C55.2771 113.117 55.3157 113.387 55.1187 113.716C54.9836 113.94 55.0726 114.157 54.9179 114.365C54.8175 114.5 54.6704 114.485 54.5473 114.597C54.308 114.817 54.296 115.049 54.1918 115.37L54.1161 115.495C53.9305 115.619 53.8029 115.673 53.6527 115.835C53.39 116.117 53.5056 116.457 53.2511 116.747C53.1122 116.905 53.2278 117.122 53.0655 117.257C52.9689 117.334 52.8647 117.23 52.741 117.257C52.5244 117.303 52.4089 117.408 52.2776 117.581C51.876 118.11 51.8527 118.539 51.6134 119.157C51.4859 119.489 51.2927 119.621 51.0262 119.852C50.9145 119.949 50.8835 120.1 50.7326 120.1C50.6941 120.1 50.6784 120.054 50.6398 120.054C50.5123 120.054 50.5395 120.227 50.5009 120.347C50.4504 120.506 50.3696 120.575 50.2692 120.706C50.1764 120.83 50.1493 121 49.9914 121C49.8715 121 49.8639 120.842 49.8525 120.722L50.1 119.05C50.1 118.818 50.1 118.683 50.1 118.451C50.1 118.046 50.2042 117.833 50.2699 117.428C50.3513 116.93 50.3317 116.644 50.4555 116.161C50.5906 115.647 50.8419 115.392 50.8419 114.863C50.8419 114.728 50.7181 114.673 50.7181 114.538C50.7181 114.295 50.9 114.206 51.0275 113.997C51.2049 113.703 51.2283 113.487 51.2283 113.143C51.2283 112.966 51.2283 112.861 51.2283 112.684L51.251 112.459C51.3438 112.173 51.4827 112.046 51.5294 111.748C51.6456 111.033 51.6721 110.636 51.8539 109.94C51.931 109.646 52.0358 109.495 52.1475 109.214C52.3521 108.696 52.3331 108.368 52.4253 107.808C52.4872 107.418 52.6223 107.225 52.7959 106.877C52.8925 106.68 52.842 106.537 52.8887 106.32C52.962 105.977 53.1362 105.826 53.2284 105.486C53.3831 104.93 53.445 104.609 53.6767 104.08L53.885 103.488C53.885 103.46 53.8699 103.449 53.8699 103.422C53.8699 102.792 54.1325 102.464 54.3642 101.881C54.5069 101.521 54.5069 101.294 54.6117 100.923C54.8434 100.1 55.1446 99.7025 55.4924 98.914C55.6661 98.52 55.6856 98.2725 55.8018 97.859C56.0221 97.0862 56.2614 96.6884 56.5588 95.9428C56.6977 95.5874 56.6516 95.3247 56.8524 95.0002C56.9332 94.8689 57.038 94.8304 57.115 94.6908L57.1087 94.456C57.151 94.0696 57.4181 93.9269 57.6031 93.5904C57.8076 93.2153 57.8076 92.9451 58.0204 92.5707C58.5305 91.6748 58.7237 91.1142 59.1019 90.1602C59.434 89.3294 59.6929 88.8969 60.0597 88.0704C60.4151 87.2667 60.4694 86.7143 61.0484 86.0615L61.1349 85.6864C61.3824 84.8714 61.7763 84.5355 62.2322 83.8321C62.6722 83.1522 62.6186 82.6035 63.0668 81.9318C63.2834 81.6035 63.3333 81.3755 63.4993 81.0201C63.839 80.3016 64.137 79.9499 64.5499 79.27C64.863 78.7523 64.9401 78.4006 65.2759 77.8949L65.3182 77.7535C65.5039 77.1934 65.7046 76.927 66.0443 76.4554C66.2451 76.177 66.4458 76.0109 66.4458 75.6675C66.4458 75.4509 66.4768 75.1731 66.6933 75.1731C66.7318 75.1731 66.7394 75.2154 66.7704 75.235C66.956 75.0146 66.9288 74.8025 67.0639 74.555C67.2496 74.2191 67.4194 74.0606 67.5431 73.6894C67.6782 73.2759 68.0141 73.1717 68.1454 72.7582C68.3115 72.2367 68.6284 72.0592 68.9492 71.6148C69.1348 71.3559 69.1114 71.1438 69.2737 70.8729C69.3816 70.6955 69.3589 70.4714 69.5673 70.4247L69.6872 70.3016C69.7219 69.9846 69.9808 69.9 70.1355 69.6216C70.3476 69.2352 70.3634 68.953 70.6298 68.6019C70.7807 68.405 71.0781 68.3936 71.0781 68.1461C71.0781 68.0918 71.0472 68.0609 71.0472 68.0072C71.0472 67.8064 71.3136 67.814 71.4178 67.6442C71.4834 67.5362 71.4291 67.4358 71.4796 67.3197C71.7732 66.6593 72.2253 66.4427 72.4841 65.7741C72.5498 65.5967 72.7543 65.6118 72.8547 65.4496C72.94 65.3107 72.9526 65.2002 73.0183 65.0493C73.2001 64.6395 73.4072 64.5417 73.6427 64.1629C73.7468 63.993 73.7778 63.9722 73.8396 63.779C73.8396 63.779 73.9943 63.5681 74.1376 63.4059C74.3851 63.1237 74.4855 62.9115 74.6168 62.5561C74.6939 62.3439 74.8681 62.2896 74.9761 62.0927L75.1567 61.8262C75.5929 61.39 75.7053 61.0497 76.0532 60.5439C76.3158 60.1576 76.5204 59.9681 76.7792 59.5862C77.2041 58.9643 77.4554 58.6088 77.8917 57.9945C78.0735 57.7395 78.1777 57.593 78.3709 57.3455C78.4713 57.2142 78.6184 57.1599 78.6184 56.99C78.6184 56.9206 78.7188 56.9357 78.7573 56.8821C78.8848 56.716 78.9195 56.5809 79.0509 56.4149C79.4063 55.9666 79.6923 55.7469 79.9007 55.2096C80.0048 54.9356 80.1747 54.827 80.3988 54.6376C80.4878 54.5644 80.472 54.464 80.5226 54.3592C80.6924 54.0195 80.8086 53.8105 81.1249 53.6022L81.3843 53.3995C81.755 52.9203 81.8907 52.6078 82.2651 52.1324C82.4968 51.8388 82.5662 51.6185 82.8213 51.3445C82.9375 51.2169 83.1768 51.2365 83.1768 51.0585C83.1768 50.9852 83.1307 50.9467 83.1307 50.8728C83.1307 50.5521 83.4438 50.4751 83.6718 50.2472L83.8643 50.0211C84.127 49.8204 84.2311 49.6543 84.4205 49.3879C84.5752 49.1713 84.656 48.9245 84.9225 48.9245C84.9225 48.7622 84.9225 48.6732 84.9225 48.5109C84.9225 48.3335 85.139 48.3297 85.2546 48.1978C85.3972 48.0317 85.413 47.877 85.5791 47.7344C85.8266 47.5178 86.0116 47.425 86.213 47.1624C86.6454 46.6023 86.9005 46.2892 87.2945 45.6945L87.4435 45.4968C87.6019 45.4388 87.5786 45.2651 87.691 45.1414C87.8299 44.9905 87.9959 44.9905 88.1234 44.832C88.3709 44.5271 88.4246 44.2872 88.6955 43.9974C88.8419 43.8389 89.0124 43.8389 89.1437 43.6728C89.3136 43.4601 89.306 43.2631 89.4992 43.0705C89.5996 42.9701 89.7075 42.9815 89.8237 42.9007C89.9973 42.7807 89.9664 42.5067 90.1791 42.4834L90.2783 42.258C90.3982 41.9644 90.5952 41.864 90.8036 41.6241C91.4103 40.929 91.7657 40.5306 92.3333 39.8007C92.5461 39.5267 92.7469 39.4339 92.9824 39.1826C93.5929 38.5336 93.9363 38.1744 94.5279 37.4982C94.5254 37.4988 94.8158 37.2387 94.8158 37.2387Z" fill="url(#paint1_linear)"/>
<defs>
<linearGradient id="paint0_linear" x1="7.4372" y1="100.283" x2="110.017" y2="100.283" gradientUnits="userSpaceOnUse">
<stop stop-color="#F7B001"/>
<stop offset="0.3186" stop-color="#F4AE01"/>
<stop offset="0.9451" stop-color="#FFF1CC"/>
<stop offset="0.9528" stop-color="#FFF1CC"/>
<stop offset="1" stop-color="#FFF1CC"/>
</linearGradient>
<linearGradient id="paint1_linear" x1="49.8313" y1="120.873" x2="110.541" y2="22.5746" gradientUnits="userSpaceOnUse">
<stop stop-color="#013586"/>
<stop offset="0.2143" stop-color="#013586"/>
<stop offset="0.5824" stop-color="#434B98"/>
<stop offset="0.8956" stop-color="#CCCBE5"/>
<stop offset="0.9104" stop-color="#CCCBE5"/>
<stop offset="1" stop-color="#CCCBE5"/>
</linearGradient>
</defs>
</svg>
