<svg width="222" height="100" viewBox="0 0 222 100" fill="none" xmlns="http://www.w3.org/2000/svg">
<path d="M183.743 0H110.787C111.069 0.3103 111.296 0.666364 111.459 1.05296C111.742 1.86341 111.928 2.70473 112.012 3.55913C112.259 5.01711 112.55 5.23155 112.374 6.35123C112.031 8.51438 111.64 8.30473 110.978 9.57689C110.469 10.6013 110.063 11.6738 109.767 12.7787C109.764 12.7923 109.764 12.8064 109.768 12.82C109.771 12.8335 109.778 12.8459 109.787 12.8562C109.797 12.8666 109.809 12.8745 109.822 12.8792C109.835 12.884 109.849 12.8854 109.863 12.8835C110.096 12.8835 110.587 12.9312 110.606 13.6601C110.635 14.6131 109.515 16.5189 109.2 17.0669C108.886 17.6148 108.171 18.7202 107.566 19.0728C106.527 19.6779 106.208 19.3253 106.056 19.635C105.903 19.9447 104.865 21.8982 104.703 22.4319C104.522 23.1178 104.41 23.8201 104.369 24.5283C104.365 24.5749 104.376 24.6215 104.401 24.6611C104.426 24.7007 104.463 24.731 104.507 24.7474C106.599 25.567 112.05 27.5062 113.365 29.7312L94.9303 35.7109C97.5079 35.4059 100.338 35.0581 102.849 34.7579C106.28 34.3625 111.835 33.7431 113.622 33.7621C115.166 33.8422 116.702 34.0285 118.22 34.3196C120.378 34.6102 122.298 34.6817 124.638 35.1534C125.91 35.3396 127.099 35.8945 128.059 36.7495C128.159 36.8162 128.626 37.1974 128.626 37.1974C131.485 36.9973 135.868 36.721 136.802 36.64C137.278 36.6018 138.231 36.5494 138.436 36.5256C147.308 35.3964 152.168 31.1511 156.404 28.5734C161.087 25.7147 168.129 23.3848 173.17 23.2514C179.688 23.0797 184.377 24.2043 187.497 27.0249C190.618 29.8456 191.838 33.6192 190.58 39.2891C189.37 44.7494 187.626 47.2699 183.595 49.7713C179.564 52.2727 175.114 53.0779 169.864 52.5967C161.106 51.7915 153.283 46.3264 150.19 44.5445C147.532 43.015 143.877 41.3951 139.765 41.0282C138.963 40.9772 138.157 40.9772 137.355 41.0282C137.073 41.0282 133.733 41.2807 131.637 41.438C131.799 41.946 131.893 42.473 131.918 43.0055C131.851 44.0776 131.261 44.5874 130.603 44.5064C129.946 44.4253 128.497 43.3152 128.063 42.3813C128.021 42.2908 127.887 42.2479 127.887 42.3813C127.887 42.5148 127.887 42.7244 127.887 42.8578C127.854 43.1532 127.678 44.049 127.044 44.23C126.706 44.3003 126.357 44.2939 126.023 44.2114C125.688 44.129 125.376 43.9725 125.109 43.7535C125.07 43.7264 125.026 43.7083 124.979 43.7006C124.932 43.6929 124.884 43.6958 124.838 43.709C124.793 43.7223 124.75 43.7455 124.715 43.7771C124.679 43.8087 124.651 43.8478 124.633 43.8916C124.404 44.5444 124.271 44.9304 123.042 44.6921C122.198 44.6016 122.374 44.9303 121.836 45.0352C120.526 45.2829 119.892 44.5873 118.853 44.1061C117.815 43.6249 118.158 42.6386 117.124 42.4623C116.924 42.4241 116.576 42.3621 116.381 42.3384C117.132 44.7908 117.682 47.3007 118.024 49.8427C118.028 49.8659 118.026 49.8895 118.021 49.9122C118.015 49.9348 118.004 49.9561 117.99 49.9747C117.976 49.9934 117.958 50.0089 117.938 50.0206C117.918 50.0323 117.895 50.0399 117.872 50.0428L116.814 50.1714C116.791 50.1729 116.768 50.1794 116.748 50.1905C116.728 50.2015 116.71 50.2168 116.696 50.2353C116.682 50.2538 116.672 50.2752 116.667 50.2978C116.662 50.3205 116.662 50.344 116.666 50.3667C116.929 51.7341 117.591 54.2928 117.734 56.1367C117.991 59.4719 117.948 60.4725 117.734 62.1353C117.73 62.162 117.733 62.1891 117.742 62.2145C117.751 62.2398 117.766 62.2627 117.786 62.2813C117.805 62.2998 117.829 62.3135 117.854 62.3213C117.88 62.329 117.907 62.3306 117.934 62.3259C118.367 62.2458 118.781 62.0841 119.154 61.8495C119.191 61.1871 119.319 60.533 119.535 59.9055C119.642 59.7597 119.756 59.6197 119.878 59.4862C119.966 59.3908 120.031 59.2768 120.068 59.1527L120.34 58.1998C120.382 58.055 120.441 57.9158 120.516 57.7852L121.946 55.179C121.946 55.179 122.284 54.469 122.865 54.6263C123.14 54.7771 123.371 54.9954 123.538 55.2605C123.705 55.5256 123.801 55.8287 123.818 56.1414C123.735 56.9165 123.5 57.6676 123.127 58.3522L123.742 59.3337C124.115 59.4308 124.505 59.443 124.884 59.3697C125.262 59.2963 125.619 59.1391 125.929 58.9097C126.249 58.6985 126.556 58.4678 126.848 58.2188C126.582 57.4946 127.225 56.5703 128.978 56.9086C129.583 57.1611 131.299 58.5285 129.155 59.9389C129.136 59.9501 129.121 59.9676 129.114 59.9883C129.106 60.009 129.106 60.0316 129.113 60.0524C129.121 60.0732 129.135 60.0907 129.154 60.1022C129.172 60.1136 129.195 60.1182 129.216 60.1152C131.556 59.9722 131.261 62.8024 129.693 63.6553C129.66 63.6736 129.632 63.6986 129.61 63.7287C129.588 63.7588 129.573 63.7933 129.565 63.8299C129.557 63.8664 129.557 63.9042 129.566 63.9406C129.574 63.9771 129.59 64.0113 129.612 64.0412C129.958 64.4704 130.146 65.0052 130.146 65.5564C130.146 65.5564 130.146 66.2996 127.878 67.081C127.878 67.081 127.182 67.3621 127.458 67.8767C127.735 67.9769 128.04 68.0816 128.411 68.196C128.411 68.196 130.474 68.6724 130.069 69.8016C130.069 69.8016 129.741 70.7545 127.782 70.1304C127.146 70.1683 126.509 70.1476 125.876 70.0684C124.657 70.4621 123.412 70.771 122.151 70.9928C121.737 71.0756 121.364 71.2996 121.098 71.6265C119.835 73.0559 115.971 75.076 114.246 75.0951C112.34 75.0951 112.083 73.6324 110.687 72.1696C107.976 69.3347 107.514 65.785 107.099 62.2687C107.092 62.2216 107.068 62.1786 107.032 62.1475C106.995 62.1165 106.949 62.0995 106.901 62.0995C106.854 62.0995 106.807 62.1165 106.771 62.1475C106.735 62.1786 106.711 62.2216 106.704 62.2687C106.227 66.3949 105.979 70.1066 103.692 72.1411C102.301 73.3846 100.119 74.3614 96.5788 75.2C83.1473 78.3827 68.6962 86.635 70.3304 88.5028C70.9737 89.2461 72.4936 87.7643 75.1475 86.5445C85.1532 81.9419 98.1225 81.0224 102.306 81.3511C102.452 81.363 102.59 81.4266 102.693 81.5304C102.797 81.6343 102.861 81.7717 102.873 81.9181C103.007 82.9201 103.222 83.9096 103.516 84.8769C103.883 86.1681 104.297 88.4742 105.67 89.7559C108.162 92.0906 107.819 92.953 107.232 96.0833C106.851 98.1321 109.653 99.8379 109.724 99.895H138.603L142.939 78.559H172.241C202.201 78.559 215.518 64.8798 220.607 38.6743C222.984 26.4959 222.894 0 183.743 0ZM54.9647 100C55.3696 99.5569 55.8366 99.0471 56.3941 98.4896C57.6519 97.1984 56.6656 93.9203 56.9134 92.6625C57.2326 91.0139 60.0818 90.142 60.5297 88.5268C61.1348 86.3255 56.7895 86.7019 58.8621 84.3768C60.1581 82.9236 62.0544 83.4239 61.9258 81.9945C61.7161 79.6741 63.9793 78.097 64.9323 77.3728C69.0822 74.2281 78.3828 69.2729 84.0194 67.6196C89.9275 65.8996 81.7847 66.0568 75.0476 68.5297C68.925 70.769 82.9663 61.9783 94.0775 59.1862C101.992 57.2041 88.2599 56.8039 75.6145 62.3785C71.5932 64.1462 69.3538 65.2373 67.7434 66.2712C67.7296 66.2795 67.7134 66.2833 67.6974 66.2819C67.6813 66.2805 67.6661 66.274 67.6539 66.2634C67.6418 66.2528 67.6333 66.2387 67.6296 66.2229C67.626 66.2072 67.6275 66.1908 67.6339 66.1759C68.258 64.8943 69.5731 62.7025 69.1872 60.4346C68.9066 58.9865 69.0866 57.4869 69.7017 56.1464C70.1782 55.2411 69.8923 52.8111 70.4212 51.5295C70.4439 51.4834 70.4823 51.447 70.5295 51.4269C70.5767 51.4068 70.6296 51.4042 70.6785 51.4198L77.4728 53.5496L104.036 44.4968L78.7402 48.2465L69.9685 40.747C68.7297 39.432 67.4386 34.2576 68.7345 32.3231C70.0475 30.3091 71.5748 28.4432 73.2895 26.7581C74.4854 25.7098 78.1399 25.2572 79.9362 24.3758C81.9421 23.3657 83.5478 24.0517 84.9914 23.8183C86.5559 23.4339 88.096 22.9566 89.6036 22.3889C89.6229 22.3834 89.6396 22.3714 89.6509 22.3548C89.6623 22.3383 89.6674 22.3183 89.6655 22.2983C89.654 21.7113 89.6046 21.1256 89.5178 20.5449C89.128 18.9576 88.9675 17.3226 89.0414 15.6898C89.189 14.1127 90.5661 12.7357 90.6328 11.6875C90.6996 10.6392 89.9371 9.56244 90.5184 8.53805C91.0568 7.58512 91.1998 6.84662 91.8144 4.84071C91.6619 3.64955 90.9044 3.2255 91.4523 2.01052C91.7429 1.36729 92.2337 0.457267 92.4481 0.00461632H0L5.27924 25.3524H41.7001L37.6882 44.816H65.1325L9.10523 54.9646L35.6061 54.9122L26.3436 99.9999L54.9647 100ZM152.516 42.0764C152.668 42.1478 152.836 42.1776 153.004 42.1629C153.171 42.1482 153.331 42.0894 153.469 41.9927C153.606 41.8959 153.716 41.7646 153.786 41.612C153.856 41.4593 153.885 41.2908 153.869 41.1235C153.897 38.5983 154.345 37.45 154.888 35.4298C155.108 34.6198 154.412 33.9718 153.735 34.3434C149.657 36.5447 146.679 37.4642 144.911 37.8549C144.768 37.8936 144.64 37.9766 144.545 38.092C144.451 38.2074 144.396 38.3496 144.387 38.4982C144.376 38.6294 144.408 38.7606 144.48 38.8711C144.552 38.9816 144.658 39.065 144.783 39.108C147.469 39.788 150.065 40.7845 152.516 42.0764Z" fill="black"/>
<path d="M209.534 95.7974H207.881L208.081 94.8445H212.574L212.374 95.7974H210.73L209.892 99.9998H208.691L209.534 95.7974ZM219.021 94.8445L217.996 99.9998H216.876L217.482 96.9362L215.514 99.4567H214.985L213.932 96.8886L213.313 99.9808H212.193L213.227 94.8254H214.18L215.466 98.0368L217.987 94.8254L219.021 94.8445Z" fill="black"/>
</svg>
