<svg width="177" height="121" viewBox="0 0 177 121" fill="none" xmlns="http://www.w3.org/2000/svg">
<path fill-rule="evenodd" clip-rule="evenodd" d="M52.5248 51.6945H0L22.5167 10.4928C25.5558 4.9317 32.6996 0.38196 38.3918 0.38196H80.5669L52.5249 51.6944L52.5248 51.6945ZM52.5248 51.6945H93.6648L71.7005 91.8847H30.5605L52.5248 51.6945V51.6945ZM122.644 51.6945H93.6649L108.246 25.0136C110.179 21.4758 114.905 18.5814 118.747 18.5814H147.726L133.145 45.2624C131.212 48.7998 126.486 51.6945 122.644 51.6945ZM161.595 0H177L168.818 14.9721C167.733 16.9573 165.174 18.5813 163.132 18.5813H147.726L155.909 3.60919C156.993 1.62403 159.552 0 161.595 0V0ZM77.6407 121H55.7895L71.7009 91.8846H100.463L88.3754 114.004C86.2724 117.852 81.442 121 77.6407 121V121Z" fill="#1F1A17"/>
<path d="M136.092 57.0441C138.42 57.0441 140.066 57.9304 140.84 59.3581C141.638 60.8288 141.518 62.8689 140.286 65.123L133.131 78.2164C131.899 80.4705 129.789 82.5106 127.384 83.9812C125.049 85.409 122.435 86.2952 120.107 86.2952C117.779 86.2952 116.133 85.409 115.359 83.9812C114.561 82.5106 114.681 80.4705 115.913 78.2164L123.069 65.123C124.3 62.8689 126.41 60.8288 128.815 59.3581C131.151 57.9304 133.764 57.0441 136.092 57.0441ZM134.465 63.5812C134.223 63.1341 133.686 62.8562 132.916 62.8562C132.146 62.8562 131.306 63.1341 130.575 63.5812C129.913 63.9855 129.341 64.532 129.018 65.123L121.863 78.2164C121.54 78.8073 121.514 79.3539 121.734 79.7582C121.977 80.2056 122.513 80.4832 123.283 80.4832C124.054 80.4832 124.893 80.2056 125.625 79.7582C126.286 79.3539 126.858 78.8073 127.181 78.2164L134.337 65.123C134.66 64.532 134.685 63.9855 134.465 63.5812ZM141.992 86.2841C141.4 86.2927 142.04 86.2977 141.647 86.2977C139.331 86.2977 137.24 85.9204 135.976 84.8506C134.479 83.5825 134.153 81.5396 135.83 78.3775L135.843 78.3546L135.905 78.2391L135.906 78.2165L148.302 55.5332C149.549 53.2524 152.46 52.6357 153.996 52.6357H155.835L153.426 57.0445H157.937L154.761 62.8566H150.249L141.855 78.2165H141.842L141.805 78.2867C141.373 79.1012 141.411 79.5887 141.726 79.8557C142.276 80.3212 143.448 80.4855 144.823 80.4855C145.418 80.4855 144.697 80.5 145.085 80.4944L141.991 86.2841L141.992 86.2841ZM81.52 86.2952L93.5052 64.3646C94.6199 62.3245 96.5213 60.4778 98.6859 59.1466C100.795 57.8496 103.152 57.0441 105.246 57.0441H116.75C118.844 57.0441 120.321 57.8496 121.012 59.1466C121.722 60.4778 121.605 62.3245 120.49 64.3646L110.491 82.6618C109.455 84.5563 105.969 86.2952 104.03 86.2952H102.555L114.54 64.3646C114.752 63.9767 114.77 63.6156 114.626 63.347C114.465 63.0442 114.101 62.8561 113.574 62.8561H110.797L99.9731 82.6617C98.9375 84.5562 95.4519 86.2951 93.5123 86.2951H92.0378L104.847 62.8561H102.07C101.543 62.8561 100.973 63.0442 100.481 63.347C100.044 63.6156 99.6666 63.9767 99.4547 64.3646L89.4555 82.6617C88.4199 84.5562 84.9343 86.2951 82.9947 86.2951L81.52 86.2952Z" fill="#DA251D"/>
</svg>
