<svg width="54" height="121" viewBox="0 0 54 121" fill="none" xmlns="http://www.w3.org/2000/svg">
<path d="M41.3901 0H12.6099C5.64565 0 0 5.57501 0 12.4521V108.548C0 115.425 5.64565 121 12.6099 121H41.3901C48.3543 121 54 115.425 54 108.548V12.4521C54 5.57501 48.3543 0 41.3901 0Z" fill="white"/>
<path d="M35.491 3.4502C33.7276 3.45039 32.4345 3.45712 32.3545 3.468L32.1604 3.49432L32.5835 3.67517C33.14 3.91293 33.7571 4.28053 34.0857 4.5699C34.2313 4.69813 34.4679 4.97792 34.6116 5.19168C34.8115 5.48911 34.9142 5.5945 35.0494 5.64075C35.4789 5.7877 35.8014 6.12864 36.0886 6.73947C36.3088 7.20779 36.3893 7.66156 36.3904 8.43862C36.3918 9.51538 36.1441 10.4841 35.5536 11.7117L35.2848 12.2702L35.4785 12.4893C35.8893 12.9536 35.8048 13.3805 35.0714 14.5465C34.8975 14.8231 34.7013 15.1536 34.6355 15.281C34.439 15.6614 34.2543 15.8404 33.9545 15.9412L33.681 16.0332L33.326 16.7099C32.4654 18.3505 31.814 19.2237 31.2611 19.478C31.1574 19.5257 31.0459 19.5989 31.0133 19.6405C30.9153 19.7656 30.8338 20.0993 30.8358 20.3671C30.8395 20.8397 30.8707 20.8708 31.7888 21.3186C32.7286 21.777 33.4387 22.1894 33.8921 22.5405C34.1798 22.7633 34.2027 22.796 34.2027 22.9827C34.2027 23.1479 34.2279 23.1996 34.3427 23.2701C34.7467 23.5182 35.0789 23.7399 35.4032 23.9775C35.6016 24.123 36.0711 24.4455 36.4466 24.6941C37.3194 25.2721 37.7854 25.6471 38.3271 26.2071C40.0295 27.9672 40.9665 30.5451 41.2244 34.1783C41.253 34.5823 41.2767 35.5333 41.277 36.2918L41.2774 37.6708L41.4528 38.3686C41.6332 39.086 41.817 40.0362 42.0926 41.675C42.2824 42.8037 42.4668 43.6876 42.6082 44.1466C42.6658 44.3333 42.9884 45.0446 43.3252 45.7272C44.108 47.3137 44.3712 47.9178 44.6816 48.8424C44.9319 49.5876 45.1378 50.4921 45.2179 51.1977C45.4198 52.9765 45.7149 54.3943 45.9324 54.631C45.9652 54.6667 46.254 54.7641 46.574 54.8476C46.8941 54.9311 47.2984 55.0656 47.4724 55.1466C47.771 55.2854 47.7984 55.3133 47.956 55.639L48.123 55.9844L48.7083 56.2785C49.0302 56.4403 49.3587 56.6341 49.4383 56.7091C49.6258 56.8859 49.7657 57.1605 49.8089 57.4361C49.8278 57.557 49.9141 57.7586 50.0007 57.8839C50.3463 58.3841 50.8608 59.3394 50.9095 59.5711C50.9165 59.6043 50.9281 49.0093 50.9354 36.0272C50.95 10.079 50.9711 11.9187 50.6442 10.6569C50.3735 9.61204 49.9129 8.59784 49.297 7.6903C47.7925 5.47373 45.5 4.02886 42.7284 3.55134C42.2732 3.47288 41.7088 3.46253 37.3842 3.45301C36.7193 3.45154 36.0792 3.45086 35.4914 3.45093L35.491 3.4502ZM34.7581 35.546C34.5047 35.546 32.6904 36.629 31.6268 37.415C31.2178 37.7173 31.1568 37.7848 30.9901 38.1195C30.7331 38.6351 29.7604 41.0604 28.7415 43.7261L28.2766 44.9418L28.2578 45.5116C28.2405 46.0374 28.2464 46.0815 28.3326 46.082C28.4766 46.0828 28.9092 46.3505 29.1678 46.5989C29.6788 47.0898 29.9918 47.7092 30.4035 49.0447C30.7285 50.0988 31.5129 52.8272 32.1727 55.1988L32.8403 57.5988L33.05 58.3525L32.7524 58.6372L32.4547 58.9218L32.5732 59.3524C32.6385 59.5892 32.7578 60.0222 32.8383 60.3148C33.7871 63.762 34.2267 66.2699 34.6625 70.7242C34.8705 72.8495 35.0271 73.5863 35.5246 74.7784C36.0056 75.931 36.5257 76.9539 37.1831 78.0402C38.1175 79.5842 38.6477 80.6877 38.9445 81.7066C39.2401 82.7211 39.6192 84.6251 40.0559 87.2873C40.628 90.7755 40.8293 91.9409 40.9161 92.2696C40.997 92.5762 41.0822 92.7257 41.4902 93.2762C42.1865 94.2155 42.3497 94.4647 42.6932 95.1131C43.2524 96.1687 43.3934 96.8051 43.2431 97.5951C43.198 97.8319 43.0687 98.4017 42.9557 98.8614C42.4166 101.054 42.3158 102.101 42.5455 103.122C42.5739 103.247 42.69 103.912 42.8036 104.599C43.0325 105.982 43.1807 106.563 43.3781 106.85C43.5517 107.103 43.7209 107.617 43.7195 107.889C43.7187 108.008 43.6731 108.205 43.6177 108.326C43.5624 108.448 43.517 108.582 43.517 108.625C43.517 108.668 43.745 109.389 44.0236 110.228C44.3022 111.066 44.5882 111.958 44.659 112.208C45.2214 114.198 45.2097 115.811 44.6245 116.97C44.2227 117.766 43.7273 118.299 42.824 118.909C42.7423 118.964 42.7657 118.969 42.9826 118.943C43.3208 118.903 43.9488 118.744 44.497 118.561C45.9138 118.086 47.3343 117.158 48.4061 116.007C49.7795 114.533 50.6737 112.572 50.8943 110.552C50.9312 110.214 50.9478 103.14 50.9475 88.0109L50.9471 65.9622L50.7844 66.3168C50.5758 66.7715 50.0787 67.6032 49.7965 67.9699C48.9854 69.0238 47.8701 69.9221 46.6604 70.4958C43.8131 71.8462 40.499 71.5622 37.9183 69.7468C37.3008 69.3123 36.3617 68.3775 35.9224 67.7599C34.1279 65.2368 33.8242 61.9676 35.1239 59.1594C36.1032 57.0433 38.0609 55.3201 40.2592 54.6391C40.5531 54.5481 40.814 54.4557 40.839 54.4339C40.8971 54.3828 40.7756 54.0827 40.1026 52.6152C39.5672 51.4451 38.8618 49.9934 37.7039 47.6731C37.0697 46.4012 36.9755 46.1272 36.5999 44.4602C36.2411 42.8656 35.6461 39.8228 35.1193 36.8873C34.8689 35.4938 34.8827 35.545 34.7585 35.545L34.7581 35.546Z" fill="#C8102E"/>
<path d="M20.6087 3.43244C16.4791 3.43477 12.2742 3.4527 11.9277 3.48395C9.62151 3.69193 7.64336 4.58118 6.01465 6.14186C4.44115 7.64978 3.52837 9.38365 3.12099 11.6387C3.03978 12.0882 3.0332 15.1929 3.01711 60.5453C3.00545 93.4438 3.01677 109.269 3.0525 109.906C3.19604 112.463 4.09846 114.495 5.87681 116.265C7.55504 117.936 9.66638 118.903 12.0032 119.071C12.6962 119.121 41.228 119.135 41.226 119.085C41.2252 119.065 41.0858 118.957 40.9161 118.846C40.2736 118.424 39.7606 117.725 39.5727 117.016C39.3446 116.155 39.3574 115.178 39.6259 112.97C39.8609 111.038 40.0047 109.503 40.0389 108.561L40.0726 107.631L39.7975 107.335C39.2139 106.706 39.0961 106.24 39.3627 105.614C39.4365 105.441 39.4969 105.244 39.4969 105.177C39.4969 104.993 39.2252 104.123 38.9726 103.498C38.6781 102.769 38.2382 101.901 37.5573 100.703C36.5806 98.9842 36.382 98.5213 36.3766 97.9512C36.3732 97.5921 36.4433 97.4114 36.6976 97.123L36.8485 96.952L36.7027 96.5271C36.5097 95.9648 36.3105 95.4743 35.9072 94.5693L35.5737 93.8208L35.1114 93.5478C33.2455 92.4436 30.9789 90.7366 28.7602 88.7561C28.1021 88.1685 26.9304 87.044 25.9583 86.0715C25.3565 85.4676 24.4289 84.5925 23.897 84.1268C22.9486 83.2965 22.5914 82.9311 22.4312 82.6276C22.3871 82.544 22.2196 82.3275 22.0589 82.1464C19.9913 79.8162 15.3425 72.9928 13.7899 70.0099C13.6174 69.6784 13.4714 69.4016 13.4654 69.3948C13.4595 69.3879 12.9097 69.3042 12.2436 69.2087C11.5774 69.1132 11.0156 69.0162 10.9951 68.9932C10.9746 68.9702 10.8738 68.6699 10.7712 68.3259C10.3676 66.9738 9.85159 65.8374 8.3754 63.0503C6.26952 59.0742 5.72227 57.0692 6.03185 54.4644C6.23039 52.7938 6.78863 50.1662 7.07145 49.5717C7.24188 49.2133 7.63637 48.7301 8.24136 48.1382L8.8053 47.5851V46.9695V46.3537L7.44378 46.3525C5.64018 46.3509 5.12351 46.2742 4.74476 45.9515C4.5165 45.7571 4.47427 45.6515 4.27324 44.7721C4.21384 44.5122 4.08466 44.1019 3.98615 43.8603C3.58887 42.8861 3.56391 42.5079 3.83972 41.6412C3.93601 41.3386 4.05214 40.9448 4.09779 40.766C4.50651 39.1657 5.53834 36.7382 7.53356 32.6826C7.87621 31.9861 8.23187 31.1998 8.32393 30.9351C8.93372 29.1825 9.51118 27.793 10.1131 26.6296C11.4447 24.056 12.4666 22.5206 13.5199 21.5116C14.0604 20.9937 14.4621 20.7143 15.0848 20.4232C15.9281 20.0289 16.5545 19.9031 18.6023 19.7162L19.9757 19.5909L20.1292 19.4175L20.2825 19.2442L20.9442 19.2128C23.1362 19.1084 23.9259 18.8338 24.3004 18.0459C24.4862 17.6551 24.5672 17.2348 24.7628 15.6463C24.8612 14.8478 24.9469 14.1604 24.9533 14.1186C24.9605 14.0717 24.9314 14.0482 24.8772 14.0573C24.4112 14.1347 24.0188 13.1026 24.0048 11.7632C23.9935 10.6772 24.1533 10.4314 24.9069 10.3756L25.3212 10.3442L25.3324 9.9643C25.357 9.13691 25.4605 7.93412 25.5546 7.38358C25.7707 6.11847 26.0584 5.4984 26.7425 4.82301C27.2409 4.33103 27.7436 4.00381 28.4834 3.68984C28.7411 3.58053 28.8825 3.4955 28.8451 3.47249C28.7947 3.44134 24.7383 3.42807 20.6079 3.43045L20.6087 3.43244Z" fill="#1D428A"/>
</svg>
