<svg width="133" height="121" viewBox="0 0 133 121" fill="none" xmlns="http://www.w3.org/2000/svg">
<path d="M0 70.3089L26.2179 55.0431L40.281 79.2326H4.94037" fill="black"/>
<path d="M55.1318 120.037V89.5054V120.037Z" fill="black"/>
<path d="M55.1318 120.037V89.5054" stroke="black" stroke-width="0.586996"/>
<path d="M97.6593 79.2252L61.1816 15.4362L87.3996 -3.89225e-06L133 79.2252" fill="black"/>
<path d="M22.7924 105.223C22.7924 110.019 26.5957 113.963 31.536 113.963C36.0843 113.963 40.2797 110.019 40.2797 105.223C40.2797 100.597 36.0843 96.4829 31.536 96.4829C26.5957 96.4829 22.7924 100.597 22.7924 105.223ZM31.157 121C22.4134 121 15.5779 113.963 15.5779 105.223C15.5779 96.4829 22.4134 89.6166 31.157 89.6166C34.5682 89.6166 37.6135 90.4814 40.2797 92.3552V79.5005H47.8732V120.306H40.2797V118.419C37.6135 120.135 34.5682 121 31.157 121Z" fill="black"/>
<path d="M30.7827 43.0444L57.3797 27.962L86.6428 79.2239H58.8957V86.7716H51.3022V79.2239" fill="black"/>
<path d="M104.086 105.223C104.086 110.019 107.889 113.963 112.829 113.963C117.391 113.963 121.56 110.019 121.56 105.223C121.56 100.597 117.391 96.4829 112.829 96.4829C107.889 96.4829 104.086 100.597 104.086 105.223ZM112.437 121C103.707 121 96.8711 113.963 96.8711 105.223C96.8711 96.4829 103.707 89.6166 112.437 89.6166C115.861 89.6166 118.907 90.4814 121.56 92.3552V89.9573H128.787V120.306H121.56V118.419C118.907 120.135 115.861 121 112.437 121Z" fill="black"/>
</svg>
