<svg width="118" height="121" viewBox="0 0 118 121" fill="none" xmlns="http://www.w3.org/2000/svg">
<path d="M37.617 85.8161C30.7115 85.8161 27.3923 80.5083 29.1257 74.3681C32.7043 61.6422 55.6994 42.7838 71.3697 42.7838C82.7966 42.7838 81.9268 53.0065 75.2279 61.726L71.525 65.8241C58.2436 78.8544 45.9313 85.8161 37.617 85.8161ZM93.6256 0C73.6265 0.00776447 51.6036 12.2399 37.7724 23.8245L38.8643 25.4069C60.3326 10.3609 90.1215 0.577678 98.3333 15.2525C102.67 22.9937 95.3092 38.6283 84.9432 50.9846C87.4221 45.5278 85.785 35.0504 71.3309 35.0504C47.3028 35.0504 0 66.8739 0 99.4427C0 112.489 9.05207 121 23.9628 121C63.874 121 118 55.5921 118 22.7406C118 11.1358 111.323 0 93.6256 0Z" fill="#000066"/>
</svg>
