<svg width="121" height="121" viewBox="0 0 121 121" fill="none" xmlns="http://www.w3.org/2000/svg">
<path d="M121 116.856C121 119.141 119.152 121 116.875 121H4.13381C1.8525 121 0 119.141 0 116.856V4.13582C0 1.85068 1.8525 5.72205e-06 4.13381 5.72205e-06H116.875C119.152 5.72205e-06 121 1.85068 121 4.13582V116.856Z" fill="black"/>
<path d="M67.6057 103.078L49.4219 103.062C31.9417 103.062 18.1957 89.4427 18.1957 71.8968V17.9138H42.7071V71.3954C42.7071 75.8195 45.8502 79.9888 50.521 79.9888H67.8346C75.6318 79.9888 78.9372 75.9114 78.9372 68.9223C78.9372 66.2027 77.8382 63.646 75.9732 61.6867L67.6598 53.0809V73.6096H49.2513V27.4555C49.2513 21.5818 54.2551 17.9138 58.8344 17.9138H101.396V35.9736H82.2551L92.5126 46.4468C98.7112 52.7466 102.437 61.4235 102.437 70.1129C102.437 84.8933 90.3104 103.078 67.6057 103.078Z" fill="white"/>
</svg>
