<svg width="709" height="121" viewBox="0 0 709 121" fill="none" xmlns="http://www.w3.org/2000/svg">
<path d="M78.6553 84.2219H27.9336L13.9668 120.632H0L46.6786 0H60.2779L106.956 121H92.6221L78.6553 84.2219ZM73.8771 72.0851L53.2945 18.0213L32.7118 72.0851H73.8771Z" fill="black"/>
<path d="M213.913 121H200.681L155.473 0H170.542L207.297 101.508L244.052 0H258.386L213.913 121Z" fill="black"/>
<path d="M281.542 121H267.575V0H281.542V121Z" fill="black"/>
<path d="M478.18 65.465L462.743 82.7508V121H448.776V0H462.743V64.3617L519.345 0H536.252L487.736 54.4316L536.252 120.632H520.08L478.18 65.465Z" fill="black"/>
<path d="M604.616 121H544.339V0H558.673V107.76H604.984V121H604.616Z" fill="black"/>
<path d="M709 121H695.033V0H709V121Z" fill="black"/>
</svg>
