<svg width="175" height="121" viewBox="0 0 175 121" fill="none" xmlns="http://www.w3.org/2000/svg">
<path fill-rule="evenodd" clip-rule="evenodd" d="M174.643 60.5C174.643 93.9022 147.546 121 114.143 121C104.52 121 95.4515 118.789 87.2671 114.696C79.1918 118.679 70.0121 121 60.5016 121C27.0978 121 0 93.9022 0 60.5C0 27.0978 27.0978 0 60.5 0C70.1229 0 79.1918 2.21227 87.2654 6.19369C95.3407 2.21227 104.52 0 114.143 0C147.546 0 174.643 27.0978 174.643 60.5ZM162.699 60.5C162.699 33.7346 140.909 11.9459 114.143 11.9459C109.056 11.9459 104.079 12.7197 99.5437 14.1582C108.834 21.8995 115.582 32.2961 118.899 44.242H106.4C102.89 34.2697 96.208 25.7225 87.3779 19.9087C78.6396 25.6593 72.0028 34.1777 68.4645 44.242H55.9663C59.2393 32.4618 65.9837 21.9402 75.3212 14.0474C70.5559 12.5784 65.5973 11.8327 60.6108 11.8351C33.8453 11.8351 12.0567 33.6238 12.0567 60.3892C12.0567 87.1547 33.8453 108.945 60.6108 108.945C65.6983 108.945 70.5643 108.171 75.0996 106.733C63.0446 96.6684 55.1925 81.8472 53.9756 65.2569H82.7318V77.0903L68.6844 77.3119C72.3351 87.0455 78.8611 95.2316 87.3779 100.871C95.8929 95.2299 102.419 87.0455 106.07 77.3119L92.0223 77.0903V65.2569H120.78C119.452 81.8472 111.49 96.5576 99.4329 106.622C104.079 108.06 109.056 108.945 114.143 108.945C141.02 109.056 162.699 87.3762 162.699 60.5Z" fill="black"/>
</svg>
