<svg width="243" height="121" viewBox="0 0 243 121" fill="none" xmlns="http://www.w3.org/2000/svg">
<path d="M209.011 108.683C208.109 108.203 207.155 107.952 206.192 107.952C205.2 107.952 204.289 108.203 203.389 108.683C202.457 109.21 201.761 109.909 201.209 110.853C200.693 111.793 200.472 112.779 200.472 113.782C200.472 114.791 200.693 115.747 201.209 116.678C201.734 117.608 202.423 118.335 203.343 118.831C204.259 119.357 205.178 119.602 206.19 119.602C207.175 119.602 208.131 119.356 209.01 118.831C209.919 118.335 210.659 117.608 211.119 116.678C211.633 115.747 211.881 114.791 211.881 113.782C211.881 112.779 211.632 111.793 211.119 110.853C210.626 109.909 209.913 109.208 209.011 108.683ZM210.334 116.183C209.882 116.954 209.282 117.557 208.53 117.99C207.793 118.433 207.011 118.65 206.192 118.65C205.366 118.65 204.561 118.433 203.832 117.99C203.074 117.557 202.479 116.954 202.042 116.183C201.633 115.446 201.446 114.642 201.446 113.782C201.446 112.95 201.655 112.123 202.066 111.349C202.48 110.567 203.095 109.972 203.848 109.553C204.606 109.126 205.388 108.922 206.193 108.922C206.991 108.922 207.765 109.124 208.531 109.553C209.26 109.974 209.84 110.567 210.336 111.349C210.745 112.123 210.932 112.95 210.932 113.782C210.931 114.642 210.743 115.446 210.334 116.183ZM207.177 114.537C207.06 114.418 206.894 114.299 206.648 114.204C207.177 114.154 207.629 113.958 207.959 113.625C208.274 113.284 208.413 112.877 208.413 112.428C208.413 112.112 208.321 111.791 208.132 111.501C207.959 111.24 207.696 111.025 207.365 110.907C207.035 110.796 206.508 110.749 205.824 110.749H203.682V116.99H204.671V114.372H205.253C205.612 114.361 205.846 114.416 206.05 114.569C206.295 114.76 206.648 115.246 207.084 116.004L207.629 116.99H208.85L208.109 115.78C207.721 115.205 207.435 114.79 207.177 114.537ZM205.862 113.467H204.671V111.589H205.824C206.294 111.589 206.625 111.622 206.787 111.697C206.99 111.791 207.155 111.887 207.223 112.019C207.328 112.18 207.365 112.349 207.365 112.528C207.365 112.838 207.268 113.041 207.061 113.226C206.847 113.364 206.459 113.467 205.862 113.467ZM1.74683 1.62675L24.6735 109.909L26.4167 109.008C50.8017 96.2126 75.1495 96.9767 91.2585 99.8764C108.79 103.011 120.662 109.261 120.805 109.304L121.44 109.664L122.095 109.35C150.876 96.5629 174.644 97.3 189.511 100.16C205.612 103.278 215.06 109.498 215.158 109.569L216.97 110.769L217.437 108.624L240.952 1.62675H1.74683Z" fill="#C41230"/>
<path d="M167.421 25.9654V34.1435H171.681L169.572 40.2632H171.494L176.15 34.641H176.151V25.9654H167.421ZM150.292 31.7613V67.6395H163.737V31.7613H150.292ZM102.503 31.831L120.144 67.7163H131.197L148.274 31.831H137.168L127.694 52.5511H127.448L117.982 31.831H102.503ZM31.2147 32.1418V67.656H64.9701V58.5881H44.6535V32.1418H31.2147Z" fill="white"/>
</svg>
