<svg width="124" height="121" viewBox="0 0 124 121" fill="none" xmlns="http://www.w3.org/2000/svg">
<path d="M91.5739 0.000388432C102.219 0.000388432 112.866 -0.00116533 123.511 0.00194227C123.517 2.40101 123.498 4.80162 123.522 7.20224C120.817 7.32033 118.052 7.62332 115.561 8.75604C113.035 9.89187 110.917 11.9584 109.827 14.5175C96.8825 44.9689 83.9471 75.4233 71.0164 105.881C70.7928 106.381 70.6127 106.899 70.3519 107.382C65.7218 107.327 61.0901 107.374 56.46 107.357C54.4167 103.294 52.406 99.2135 50.3456 95.1597C47.984 101.493 45.6084 107.82 43.2467 114.152C58.5204 114.153 73.7941 114.152 89.0678 114.153C91.8642 114.191 94.7444 114.074 97.3607 112.98C101.708 111.232 105.169 107.854 107.986 104.192C111.386 99.7542 113.967 94.7588 116.266 89.6825C118.845 89.6608 121.423 89.6903 124 89.6856C119.112 100.133 114.2 110.572 109.268 120.999C74.0721 121.001 38.8775 120.999 3.6814 120.999C4.53848 118.76 5.35363 116.503 6.27282 114.287C6.32872 114.058 6.61286 114.116 6.7852 114.094C11.1793 114.062 15.6029 113.891 19.9147 112.975C22.1583 112.449 24.4795 111.746 26.2061 110.143C27.1191 109.271 27.4032 107.999 27.706 106.824C31.8625 95.6926 36.0252 84.5627 40.1849 73.4329C31.3936 54.6879 22.5728 35.9537 13.7769 17.2103C13.0689 15.571 12.1342 13.9473 10.6638 12.8798C7.62055 10.5988 3.66587 10.3098 0.00155271 10.1638C-0.00155264 7.47726 0.00155268 4.7923 0 2.10578C12.3578 2.10112 24.714 2.10268 37.0718 2.10423C37.0733 4.79075 37.0749 7.47726 37.0702 10.1638C35.4601 10.2663 33.7506 10.2399 32.2926 11.037C31.5691 11.3789 31.1436 12.2397 31.3299 13.0228C31.5582 14.3047 32.5705 15.2198 33.0829 16.3774C38.3015 27.6254 43.52 38.8749 48.7541 50.1181C51.3766 42.7796 53.999 35.4425 56.6324 28.1086C57.019 27.0893 57.1556 25.9115 56.7147 24.886C56.3684 24.0765 55.5828 23.5762 54.808 23.239C53.3019 22.6175 51.6467 22.6237 50.0506 22.5087C50.8657 20.2417 51.6856 17.9747 52.5302 15.7202C52.7258 15.5943 52.9976 15.6906 53.2227 15.6596C65.7606 15.6673 78.3 15.6596 90.8395 15.6642C89.9731 17.9421 89.1113 20.22 88.2542 22.5009C85.2343 22.6408 82.1212 22.7169 79.2891 23.8978C77.991 24.4416 76.7629 25.2729 75.9958 26.4756C75.4633 27.3566 75.1326 28.3401 74.7754 29.3004C69.5367 43.5984 64.2498 57.8778 59.0701 72.1976C61.9394 78.6878 64.9299 85.1221 67.8567 91.5859C78.4848 66.4703 89.1098 41.3516 99.7503 16.2407C100.468 14.7304 101.635 13.3522 101.727 11.615C101.815 10.2555 100.808 9.08234 99.64 8.52453C97.1231 7.36228 94.2942 7.30479 91.5739 7.2069C91.5708 4.80473 91.5708 2.40256 91.5739 0.000388432Z" fill="black"/>
</svg>
