<svg width="340" height="121" viewBox="0 0 340 121" fill="none" xmlns="http://www.w3.org/2000/svg">
<path fill-rule="evenodd" clip-rule="evenodd" d="M48.1943 0.828487C38.8592 10.4114 24.3547 27.9254 17.6796 37.6756C0.283637 63.0841 -4.72123 88.4198 4.6592 103.581C17.0384 123.587 43.5184 126.392 82.5321 111.829C87.0239 110.153 91.1917 108.42 107.784 101.331C133.645 90.2823 284.65 25.7353 312.203 13.9524C336.094 3.73583 341.189 1.50637 339.599 1.96879C338.461 2.29839 110.718 62.7476 95.4737 66.7648C66.3416 74.4429 47.0854 69.9191 39.2767 53.5612C33.3225 41.0876 36.3981 22.4058 47.6241 2.84641C49.5002 -0.421039 49.5356 -0.548937 48.1943 0.828487Z" fill="black"/>
</svg>
