<svg width="351" height="121" viewBox="0 0 351 121" fill="none" xmlns="http://www.w3.org/2000/svg">
<path d="M351 121H0V0H351V121Z" fill="#ED1C24"/>
<path d="M52.561 29.5085C50.5129 25.976 47.5384 23.753 42.9729 23.753C38.6024 23.753 33.8541 27.1027 33.1104 31.6524C31.2513 43.4557 59.8999 38.5346 56.1817 62.044C53.9508 76.0826 43.6251 86.0284 29.3008 86.0284C19.6212 86.0284 13.3917 80.4495 9.85632 72.3613L20.0906 63.7188C21.1146 69.1089 25.2046 73.9448 31.0624 73.9448C36.6458 73.9448 40.9248 69.2064 41.766 63.8163C42.8814 56.5686 36.5544 54.5161 31.3428 52.3783C22.9737 48.6631 17.0185 44.1074 18.7861 33.2359C20.6453 21.6152 30.7881 12.2236 42.601 12.2236C48.8306 12.2236 56.9253 15.2933 60.4607 20.0378L52.561 29.5085ZM138.306 61.2948C139.232 55.1617 136.251 48.5657 129.559 48.5657C122.854 48.5657 117.648 55.1617 116.722 61.2948C115.789 67.4341 118.764 74.1214 125.462 74.1214C132.161 74.1214 137.367 67.4341 138.299 61.2948H138.306ZM120.995 42.7066C124.53 39.1741 129.65 37.0424 134.484 37.0424C147.418 37.0424 153.465 49.1199 151.508 61.1121C149.558 73.5672 139.976 85.6507 126.487 85.6507C121.836 85.6507 117.282 83.6043 115.228 79.8891H115.045L110.577 108.514H97.5576L108.621 38.5285H121.641L120.995 42.7066ZM215.297 55.3505C215.389 50.7034 213.158 46.1477 208.135 46.1477C202.923 46.1477 199.297 50.606 197.901 55.3444L215.297 55.3505ZM196.231 63.4326C195.389 69.2003 196.505 75.705 203.301 75.705C207.574 75.705 210.738 73.1043 213.066 69.4744L224.788 71.4233C220.137 80.5347 211.299 85.6507 201.716 85.6507C187.575 85.6507 180.602 75.6136 182.741 61.7638C184.972 47.914 193.994 37.0364 208.787 37.0364C223.764 37.0364 228.695 48.0967 226.555 61.8551L226.275 63.4387H196.224L196.231 63.4326Z" fill="white"/>
</svg>
