<svg width="206" height="121" viewBox="0 0 206 121" fill="none" xmlns="http://www.w3.org/2000/svg">
<path d="M167.949 60.4975C190.469 50.5999 205.174 35.7362 205.975 19.2467C205.975 19.2467 200.03 14.671 180.834 7.61469C163.977 1.41818 151.117 -2.89557e-06 151.117 -2.89557e-06L151.177 36.7393C151.177 42.2292 148.971 47.8327 144.806 52.7939C132.065 49.7203 117.983 47.9958 103.214 47.9908H103.204C88.4248 47.9958 74.3282 49.7253 61.572 52.8038C57.4074 47.8426 55.1964 42.2341 55.1964 36.7393L55.2508 -2.89557e-06C55.2508 -2.89557e-06 42.4007 1.41818 25.5343 7.61469C6.33823 14.671 0.402832 19.2467 0.402832 19.2467C1.19916 35.7411 15.9091 50.6098 38.4537 60.5074C15.9288 70.405 1.2239 85.2688 0.427568 101.753C0.427568 101.753 6.3679 106.334 25.564 113.385C42.4254 119.582 55.2805 121 55.2805 121L55.2212 84.2607C55.2212 78.7708 57.4271 73.1623 61.5968 68.2061C74.3381 71.2846 88.4149 73.0042 103.184 73.0042H103.189C117.973 73.0042 132.075 71.2797 144.826 68.1913C148.991 73.1524 151.197 78.7708 151.197 84.2607L151.147 121C151.147 121 164.002 119.582 180.864 113.385C200.06 106.334 206 101.753 206 101.753C205.199 85.2589 190.489 70.3902 167.949 60.4975ZM103.194 68.7645H103.179L102.759 68.7546C89.4239 68.7546 78.5522 65.4933 70.579 60.5074C78.5522 55.5117 89.4288 52.2454 102.788 52.2454L103.199 52.2404H103.219L103.639 52.2454C116.979 52.2454 127.846 55.5067 135.819 60.4926C127.846 65.4834 116.969 68.7546 103.614 68.7546" fill="black"/>
</svg>
