<svg width="302" height="121" viewBox="0 0 302 121" fill="none" xmlns="http://www.w3.org/2000/svg">
<path d="M293.363 10.4577C291.292 15.2974 295.314 22.9667 289.519 24.4701L109.513 23.8687L90.4138 24.2641L87.7108 28.383L65.1816 113.557L62.0611 114.97L31.6543 114.438L28.7984 108.528C20.3339 73.8017 10.8114 39.6522 2.66516 4.96726C10.4559 3.9499 19.5321 3.36091 27.4427 5.02081C35.6882 30.3889 39.4368 57.388 46.6201 83.654L47.5624 84.416L49.786 81.9117L69.1741 6.14937L71.3439 4.33708L275.781 4.66659C281.637 6.48712 293.867 0.506531 293.363 10.4577Z" fill="#231F20"/>
<path d="M224.064 39.0467C224.672 63.4468 224.569 88.786 223.874 113.054C215.984 115.081 207.102 113.326 198.745 113.31C191.996 102.102 187.863 91.385 180.122 80.0911C179.142 79.6751 178.7 80.9767 178.014 81.232L177.378 112.564C172.108 115.439 164.66 112.828 158.547 113.981L157.204 109.85C157.452 86.8749 156.547 61.7828 158.411 39.2691C165.239 37.8398 172.943 37.8028 180.605 38.1034L182.825 39.6233L199.994 70.383L202.378 69.9258C201.787 60.8602 203.767 49.3809 203.267 39.3103C209.169 36.8019 217.766 38.1735 224.064 39.0467Z" fill="#231F20"/>
</svg>
