<svg width="148" height="55" viewBox="0 0 148 55" fill="none" xmlns="http://www.w3.org/2000/svg">
<mask id="path-1-inside-1" fill="white">
</mask>
<path d="M3.5 25C2.11929 25 1 26.1193 1 27.5C1 28.8807 2.11929 30 3.5 30V25ZM145.5 30C146.881 30 148 28.8807 148 27.5C148 26.1193 146.881 25 145.5 25V30ZM3 27.5L1.86345 25.2733C1.02668 25.7004 0.5 26.5605 0.5 27.5C0.5 28.4395 1.02668 29.2996 1.86345 29.7267L3 27.5ZM52.1366 5.22671C53.3663 4.59901 53.8544 3.09323 53.2267 1.86345C52.599 0.633669 51.0932 0.145587 49.8634 0.773287L52.1366 5.22671ZM49.8634 54.2267C51.0932 54.8544 52.599 54.3663 53.2267 53.1366C53.8544 51.9068 53.3663 50.401 52.1366 49.7733L49.8634 54.2267ZM3.5 30H145.5V25H3.5V30ZM4.13655 29.7267L52.1366 5.22671L49.8634 0.773287L1.86345 25.2733L4.13655 29.7267ZM52.1366 49.7733L4.13655 25.2733L1.86345 29.7267L49.8634 54.2267L52.1366 49.7733Z" fill="black" mask="url(#path-1-inside-1)"/>
</svg>
