<svg width="135" height="112" viewBox="0 0 135 112" fill="none" xmlns="http://www.w3.org/2000/svg">
<path fill-rule="evenodd" clip-rule="evenodd" d="M107.2 98.5635H29.0043H27.7041V106.55C27.0926 107.896 26.1902 109.089 25.0621 110.043L24.3608 110.637H10.2446L9.95355 110.408C8.44723 109.224 7.32138 107.625 6.71561 105.807L6.71562 93.5486C-3.87151 72.5602 2.50551 52.2528 7.83003 43.585C14.0213 33.7408 25.3964 13.6529 28.6328 7.1801C29.19 6.06566 30.3044 5.13699 33.8335 4.39402C48.6926 0.493515 85.7091 -0.715967 100.514 4.39402C104.32 5.70792 106.884 8.98918 108.95 12.4458C109.731 13.7525 110.645 15.2709 111.696 17.0174L111.698 17.0219L111.699 17.0224C115.254 22.9322 120.379 31.4518 127.26 43.2134C140.039 65.0563 132.461 86.3048 128.003 94.2916V105.807C127.424 108.009 125.772 109.77 123.612 110.49L123.174 110.637H112.029L111.591 110.49C109.431 109.77 107.78 108.009 107.2 105.807V98.5635ZM30.4902 65.1306C30.4902 69.8493 26.6649 73.6746 21.9462 73.6746C17.2275 73.6746 13.4022 69.8493 13.4022 65.1306C13.4022 60.4119 17.2275 56.5866 21.9462 56.5866C26.6649 56.5866 30.4902 60.4119 30.4902 65.1306ZM113.33 73.6746C118.048 73.6746 121.874 69.8493 121.874 65.1306C121.874 60.4119 118.048 56.5866 113.33 56.5866C108.611 56.5866 104.786 60.4119 104.786 65.1306C104.786 69.8493 108.611 73.6746 113.33 73.6746ZM43.1204 71.26C43.1204 69.5161 44.5341 68.1024 46.278 68.1024H88.6264C90.3703 68.1024 91.784 69.5161 91.784 71.26C91.784 73.0038 90.3703 74.4175 88.6264 74.4175H46.2779C44.5341 74.4175 43.1204 73.0038 43.1204 71.26ZM37.3625 16.467L25.8467 37.6413C43.6776 39.7463 85.2459 42.6934 108.872 37.6413L97.7276 16.467C83.24 12.3808 58.1652 11.1178 37.3625 16.467Z" fill="black"/>
<path d="M107.2 98.5635H107.7V98.0635H107.2V98.5635ZM27.7041 98.5635V98.0635H27.2041V98.5635H27.7041ZM27.7041 106.55L28.1593 106.757L28.2041 106.659V106.55H27.7041ZM25.0621 110.043L25.3851 110.425L25.3851 110.425L25.0621 110.043ZM24.3608 110.637V111.137H24.5439L24.6838 111.018L24.3608 110.637ZM10.2446 110.637L9.93574 111.03L10.0717 111.137H10.2446V110.637ZM9.95355 110.408L9.64465 110.801H9.64465L9.95355 110.408ZM6.71561 105.807H6.21561V105.888L6.24127 105.965L6.71561 105.807ZM6.71562 93.5486H7.21562V93.4297L7.16204 93.3235L6.71562 93.5486ZM7.83003 43.585L7.40675 43.3187L7.40399 43.3232L7.83003 43.585ZM28.6328 7.1801L28.1856 6.9565V6.9565L28.6328 7.1801ZM33.8335 4.39402L33.9365 4.8833L33.9485 4.88076L33.9604 4.87764L33.8335 4.39402ZM100.514 4.39402L100.351 4.86666L100.514 4.39402ZM108.95 12.4458L108.521 12.7023V12.7023L108.95 12.4458ZM111.696 17.0174L112.124 16.7599L112.124 16.7596L111.696 17.0174ZM111.698 17.0219L112.129 16.7679L112.127 16.7643L111.698 17.0219ZM111.699 17.0224L111.268 17.2763L111.27 17.2802L111.699 17.0224ZM127.26 43.2134L126.828 43.4659L127.26 43.2134ZM128.003 94.2916L127.566 94.0479L127.503 94.1615V94.2916H128.003ZM128.003 105.807L128.487 105.935L128.503 105.872V105.807H128.003ZM123.612 110.49L123.77 110.965L123.612 110.49ZM123.174 110.637V111.137H123.255L123.332 111.111L123.174 110.637ZM112.029 110.637L111.871 111.111L111.948 111.137H112.029V110.637ZM111.591 110.49L111.433 110.965L111.591 110.49ZM107.2 105.807H106.7V105.872L106.717 105.935L107.2 105.807ZM25.8467 37.6413L25.4074 37.4024L25.0546 38.0512L25.7881 38.1378L25.8467 37.6413ZM37.3625 16.467L37.238 15.9828L37.0272 16.037L36.9232 16.2282L37.3625 16.467ZM108.872 37.6413L108.976 38.1302L109.622 37.9922L109.314 37.4084L108.872 37.6413ZM97.7276 16.467L98.1701 16.2342L98.07 16.0441L97.8633 15.9858L97.7276 16.467ZM29.0043 99.0635H107.2V98.0635H29.0043V99.0635ZM27.7041 99.0635H29.0043V98.0635H27.7041V99.0635ZM28.2041 106.55V98.5635H27.2041V106.55H28.2041ZM25.3851 110.425C26.5697 109.422 27.5172 108.17 28.1593 106.757L27.2489 106.343C26.668 107.621 25.8108 108.755 24.7391 109.661L25.3851 110.425ZM24.6838 111.018L25.3851 110.425L24.7391 109.661L24.0378 110.255L24.6838 111.018ZM10.2446 111.137H24.3608V110.137H10.2446V111.137ZM9.64465 110.801L9.93574 111.03L10.5536 110.243L10.2625 110.015L9.64465 110.801ZM6.24127 105.965C6.87799 107.876 8.06136 109.557 9.64465 110.801L10.2625 110.015C8.8331 108.892 7.76478 107.374 7.18996 105.649L6.24127 105.965ZM6.21562 93.5486L6.21561 105.807H7.21561L7.21562 93.5486H6.21562ZM7.40399 43.3232C2.01588 52.0946 -4.41688 72.5892 6.2692 93.7738L7.16204 93.3235C-3.32614 72.5311 2.99514 52.4109 8.25606 43.8467L7.40399 43.3232ZM28.1856 6.9565C24.9579 13.4118 13.5913 33.4853 7.40678 43.3188L8.25328 43.8512C14.4513 33.9963 25.8348 13.8941 29.08 7.40371L28.1856 6.9565ZM33.7304 3.90475C30.1547 4.65754 28.8471 5.63349 28.1856 6.9565L29.08 7.40371C29.5329 6.49783 30.4541 5.61643 33.9365 4.8833L33.7304 3.90475ZM100.677 3.92138C93.1858 1.33577 80.1541 0.363889 67.1882 0.51512C54.2112 0.66648 41.1946 1.94477 33.7065 3.91041L33.9604 4.87764C41.3314 2.94277 54.2526 1.66606 67.1998 1.51505C80.1581 1.36391 93.0369 2.34228 100.351 4.86666L100.677 3.92138ZM109.379 12.1892C107.303 8.71491 104.661 5.29658 100.677 3.92138L100.351 4.86666C103.98 6.11926 106.466 9.26346 108.521 12.7023L109.379 12.1892ZM112.124 16.7596C111.073 15.013 110.16 13.4952 109.379 12.1892L108.521 12.7023C109.303 14.0098 110.217 15.5289 111.267 17.2751L112.124 16.7596ZM112.127 16.7643L112.124 16.7599L111.267 17.2749L111.27 17.2794L112.127 16.7643ZM112.129 16.7685L112.129 16.768L111.267 17.2758L111.268 17.2763L112.129 16.7685ZM127.692 42.9609C120.809 31.1966 115.683 22.6749 112.127 16.7647L111.27 17.2802C114.825 23.1895 119.949 31.707 126.828 43.4659L127.692 42.9609ZM128.44 94.5353C132.941 86.4701 140.597 65.0194 127.692 42.9609L126.828 43.4659C139.481 65.0932 131.98 86.1395 127.566 94.0479L128.44 94.5353ZM128.503 105.807V94.2916H127.503V105.807H128.503ZM123.77 110.965C126.091 110.191 127.864 108.3 128.487 105.935L127.519 105.68C126.983 107.719 125.454 109.349 123.454 110.016L123.77 110.965ZM123.332 111.111L123.77 110.965L123.454 110.016L123.016 110.162L123.332 111.111ZM112.029 111.137H123.174V110.137H112.029V111.137ZM111.433 110.965L111.871 111.111L112.188 110.162L111.749 110.016L111.433 110.965ZM106.717 105.935C107.339 108.3 109.113 110.191 111.433 110.965L111.749 110.016C109.749 109.349 108.22 107.719 107.684 105.68L106.717 105.935ZM106.7 98.5635V105.807H107.7V98.5635H106.7ZM21.9462 74.1746C26.941 74.1746 30.9902 70.1255 30.9902 65.1306H29.9902C29.9902 69.5732 26.3887 73.1746 21.9462 73.1746V74.1746ZM12.9022 65.1306C12.9022 70.1255 16.9513 74.1746 21.9462 74.1746V73.1746C17.5036 73.1746 13.9022 69.5732 13.9022 65.1306H12.9022ZM21.9462 56.0866C16.9513 56.0866 12.9022 60.1357 12.9022 65.1306H13.9022C13.9022 60.688 17.5036 57.0866 21.9462 57.0866V56.0866ZM30.9902 65.1306C30.9902 60.1357 26.941 56.0866 21.9462 56.0866V57.0866C26.3887 57.0866 29.9902 60.688 29.9902 65.1306H30.9902ZM121.374 65.1306C121.374 69.5732 117.772 73.1746 113.33 73.1746V74.1746C118.325 74.1746 122.374 70.1255 122.374 65.1306H121.374ZM113.33 57.0866C117.772 57.0866 121.374 60.688 121.374 65.1306H122.374C122.374 60.1357 118.325 56.0866 113.33 56.0866V57.0866ZM105.286 65.1306C105.286 60.688 108.887 57.0866 113.33 57.0866V56.0866C108.335 56.0866 104.286 60.1357 104.286 65.1306H105.286ZM113.33 73.1746C108.887 73.1746 105.286 69.5732 105.286 65.1306H104.286C104.286 70.1255 108.335 74.1746 113.33 74.1746V73.1746ZM46.278 67.6024C44.2579 67.6024 42.6204 69.24 42.6204 71.26H43.6204C43.6204 69.7923 44.8102 68.6024 46.278 68.6024V67.6024ZM88.6264 67.6024H46.278V68.6024H88.6264V67.6024ZM92.284 71.26C92.284 69.24 90.6464 67.6024 88.6264 67.6024V68.6024C90.0941 68.6024 91.284 69.7923 91.284 71.26H92.284ZM88.6264 74.9175C90.6464 74.9175 92.284 73.28 92.284 71.26H91.284C91.284 72.7277 90.0941 73.9175 88.6264 73.9175V74.9175ZM46.2779 74.9175H88.6264V73.9175H46.2779V74.9175ZM42.6204 71.26C42.6204 73.28 44.2579 74.9175 46.2779 74.9175V73.9175C44.8102 73.9175 43.6204 72.7277 43.6204 71.26H42.6204ZM26.2859 37.8802L37.8017 16.7059L36.9232 16.2282L25.4074 37.4024L26.2859 37.8802ZM108.767 37.1523C97.0144 39.6655 80.7645 40.1935 65.198 39.8253C49.6408 39.4574 34.8067 38.1956 25.9053 37.1447L25.7881 38.1378C34.7176 39.192 49.5831 40.4563 65.1743 40.8251C80.7562 41.1936 97.1034 40.6691 108.976 38.1302L108.767 37.1523ZM97.2851 16.6999L108.429 37.8741L109.314 37.4084L98.1701 16.2342L97.2851 16.6999ZM37.487 16.9513C58.2021 11.6245 83.1871 12.8854 97.5919 16.9483L97.8633 15.9858C83.2929 11.8762 58.1283 10.611 37.238 15.9828L37.487 16.9513Z" fill="black"/>
</svg>
