<svg width="157" height="129" viewBox="0 0 157 129" fill="none" xmlns="http://www.w3.org/2000/svg">
<path fill-rule="evenodd" clip-rule="evenodd" d="M123.275 112.455H33.2431V121.416C32.5505 122.925 31.5286 124.263 30.251 125.334L29.4567 126H13.4698L13.1401 125.743C11.4342 124.416 10.1591 122.621 9.47309 120.582L9.47309 106.829C-2.51712 83.2825 4.70504 60.4999 10.7352 50.7756C17.747 39.7315 30.6295 17.1952 34.2949 9.93339C34.9259 8.68311 36.188 7.64124 40.1848 6.80772C57.0131 2.43178 98.9353 1.07488 115.702 6.80771C120.013 8.28176 122.917 11.963 125.257 15.8409C126.142 17.3082 127.178 19.0135 128.369 20.9751C132.395 27.6052 138.2 37.1634 145.993 50.3588C160.465 74.864 151.883 98.7025 146.834 107.663V120.582C146.178 123.052 144.308 125.028 141.862 125.836L141.365 126H128.744L128.247 125.836C125.801 125.028 123.931 123.052 123.275 120.582V112.455ZM36.3984 74.9474C36.3984 80.2413 32.0662 84.5328 26.7221 84.5328C21.378 84.5328 17.0458 80.2413 17.0458 74.9474C17.0458 69.6535 21.378 65.362 26.7221 65.362C32.0662 65.362 36.3984 69.6535 36.3984 74.9474ZM130.216 84.5328C135.56 84.5328 139.893 80.2413 139.893 74.9474C139.893 69.6535 135.56 65.362 130.216 65.362C124.872 65.362 120.54 69.6535 120.54 74.9474C120.54 80.2413 124.872 84.5328 130.216 84.5328ZM50.7025 81.8239C50.7025 79.8675 52.3035 78.2815 54.2785 78.2815H102.239C104.214 78.2815 105.815 79.8675 105.815 81.8239C105.815 83.7803 104.214 85.3663 102.239 85.3663H54.2785C52.3035 85.3663 50.7025 83.7803 50.7025 81.8239ZM44.1815 20.3523L31.1395 44.1074C51.3335 46.469 98.4108 49.7753 125.168 44.1074L112.547 20.3523C96.139 15.768 67.7412 14.351 44.1815 20.3523Z" stroke="#E67E22" stroke-width="5"/>
</svg>
