<svg width="105" height="157" viewBox="0 0 105 157" fill="none" xmlns="http://www.w3.org/2000/svg">
<path d="M33.5 13.5H72.5M13 154H92C97.5228 154 102 149.523 102 144V13C102 7.47715 97.5228 3 92 3H13C7.47715 3 3 7.47715 3 13V144C3 149.523 7.47715 154 13 154ZM24 122H82C87.5228 122 92 117.523 92 112V35C92 29.4772 87.5228 25 82 25H24C18.4772 25 14 29.4772 14 35V112C14 117.523 18.4772 122 24 122ZM58 136.5C58 139.538 55.5376 142 52.5 142C49.4624 142 47 139.538 47 136.5C47 133.462 49.4624 131 52.5 131C55.5376 131 58 133.462 58 136.5Z" stroke="#2ED573" stroke-width="5" stroke-linecap="round" stroke-linejoin="round"/>
</svg>
