<svg width="137" height="123" viewBox="0 0 137 123" fill="none" xmlns="http://www.w3.org/2000/svg">
<path d="M68.8054 61.659L74.8501 67.7008L70.9859 71.5631L69.3649 73.1833L70.8386 74.9387L103.619 113.986L97.0706 119.479L65.0503 81.3369L63.297 79.2483L61.3683 81.1761L23.4361 119.09L17.3914 113.048L56.1601 74.2982L57.7811 72.6779L56.3075 70.9226L48.6393 61.7884L47.657 60.6183L46.1677 60.9586C41.8682 61.941 36.4314 61.099 30.6593 58.3562C24.9187 55.6283 19.0316 51.1014 13.9389 45.0351C7.64879 37.5424 3.89828 29.2853 2.82321 22.083C1.74094 14.8324 3.39528 9.086 7.25557 5.8484C11.1163 2.61042 17.0666 1.97975 24.0234 4.30441C30.9337 6.61353 38.4183 11.7394 44.7084 19.232C49.8011 25.2984 53.2389 31.8791 54.9297 38.003C56.6297 44.1606 56.5151 49.6576 54.801 53.7182L54.2064 55.1268L55.1895 56.2978L62.0957 64.5244L63.8491 66.6129L65.7778 64.6852L68.8054 61.659ZM107.898 3.08995L108.525 3.71643L85.8698 26.357L84.1003 28.1253L85.8698 29.8936L90.6607 34.6815L92.0846 36.1045L92.4279 36.4476L93.854 37.8729L98.6449 42.6608L100.072 44.0871L100.071 44.0883L101.84 45.8565L106.631 50.6447L108.398 52.4112L110.165 50.6447L132.822 27.9988L133.452 28.6278C134.238 29.4135 134.238 30.6868 133.452 31.4726L100.567 64.3368C94.4898 70.4099 84.6365 70.4099 78.5596 64.3368L72.1619 57.9431C66.0858 51.8708 66.0858 42.0264 72.1619 35.9542L105.047 3.08995C105.834 2.30335 107.111 2.30335 107.898 3.08995Z" stroke="#E74C3C" stroke-width="5"/>
</svg>
