<svg width="128" height="103" viewBox="0 0 128 103" fill="none" xmlns="http://www.w3.org/2000/svg">
<path fill-rule="evenodd" clip-rule="evenodd" d="M120.002 22.5929C103.595 11.2009 84.0571 5.07682 64.0037 5.11132C43.9504 5.14582 24.4335 11.3371 8.06636 22.7854L15.3007 32.0788C15.387 32.019 15.4735 31.9594 15.56 31.8999C29.5155 22.3106 46.0766 17.13 63.0865 17.1008C80.0964 17.0715 96.6752 22.195 110.664 31.7362C111.159 32.0739 111.65 32.417 112.139 32.7657L120.002 22.5929ZM123.063 18.6319C124.428 19.5845 125.772 20.5719 127.093 21.5935L124.036 25.5495L67.329 98.9156L64.1721 103L61.0012 98.9265L4.0424 25.756L0.971069 21.8105C2.28934 20.7843 3.62985 19.7923 4.99122 18.835C22.2372 6.70806 42.8319 0.147743 63.9951 0.111328C85.1583 0.0749274 105.776 6.56434 123.063 18.6319ZM107.6 35.6997C94.4944 26.8326 78.995 22.0734 63.0951 22.1008C47.1952 22.1281 31.7122 26.9406 18.6372 35.8528L63.2173 93.1214L107.6 35.6997ZM53 42.5C53 47.7467 48.7467 52 43.5 52C38.2533 52 34 47.7467 34 42.5C34 37.2533 38.2533 33 43.5 33C48.7467 33 53 37.2533 53 42.5ZM56 42.5C56 49.4036 50.4036 55 43.5 55C36.5964 55 31 49.4036 31 42.5C31 35.5964 36.5964 30 43.5 30C50.4036 30 56 35.5964 56 42.5ZM73.5 64C77.0899 64 80 61.0899 80 57.5C80 53.9101 77.0899 51 73.5 51C69.9101 51 67 53.9101 67 57.5C67 61.0899 69.9101 64 73.5 64ZM73.5 67C78.7467 67 83 62.7467 83 57.5C83 52.2533 78.7467 48 73.5 48C68.2533 48 64 52.2533 64 57.5C64 62.7467 68.2533 67 73.5 67ZM94 39C94 40.1046 93.1046 41 92 41C90.8954 41 90 40.1046 90 39C90 37.8954 90.8954 37 92 37C93.1046 37 94 37.8954 94 39ZM97 39C97 41.7614 94.7614 44 92 44C89.2386 44 87 41.7614 87 39C87 36.2386 89.2386 34 92 34C94.7614 34 97 36.2386 97 39Z" fill="#E85142"/>
</svg>
