<svg width="159" height="159" viewBox="0 0 159 159" fill="none" xmlns="http://www.w3.org/2000/svg">
<path d="M136.582 29.6474C130.999 41.5855 122.833 51.5437 112.924 58.4965C103.015 65.4492 91.7215 69.1453 80.207 69.2038C68.6925 69.2624 57.3729 65.6815 47.414 58.8298C37.4552 51.9781 29.217 42.1034 23.5479 30.2225M22.2628 127.318C27.6793 114.768 35.9056 104.228 46.0401 96.8528C56.1747 89.4776 67.8264 85.552 79.7182 85.5061C91.61 85.4602 103.283 89.2959 113.458 96.5927C123.633 103.89 131.917 114.366 137.402 126.874M5.71465 77.3551H154.141M79.929 5.71591V154.142M155 79.5C155 121.198 121.198 155 79.5 155C37.8025 155 4 121.198 4 79.5C4 37.8025 37.8025 4 79.5 4C121.198 4 155 37.8025 155 79.5Z" stroke="#9C88FF" stroke-width="7"/>
</svg>
