<?xml version="1.0" encoding="UTF-8" standalone="no"?>
<!-- Created with Inkscape (http://www.inkscape.org/) -->
<svg
   xmlns:svg="http://www.w3.org/2000/svg"
   xmlns="http://www.w3.org/2000/svg"
   version="1.0"
   width="1603.6329"
   height="244.68536"
   id="svg2"
   xml:space="preserve"><defs
     id="defs5"><clipPath
       id="clipPath23"><path
         d="M 536.755,634.449 L 694.24,634.449 L 694.24,828.634 L 536.755,828.634 L 536.755,634.449 z"
         id="path25" /></clipPath><clipPath
       id="clipPath37"><path
         d="M 536.761,440.257 L 694.245,440.257 L 694.245,634.442 L 536.761,634.442 L 536.761,440.257 z"
         id="path39" /></clipPath><clipPath
       id="clipPath51"><path
         d="M 92.954,440.25 L 250.438,440.25 L 250.438,634.434 L 92.954,634.434 L 92.954,440.25 z"
         id="path53" /></clipPath><clipPath
       id="clipPath65"><path
         d="M 92.948,634.441 L 250.433,634.441 L 250.433,828.626 L 92.948,828.626 L 92.948,634.441 z"
         id="path67" /></clipPath><clipPath
       id="clipPath99"><path
         d="M 0,1224 L 792,1224 L 792,0 L 0,0 L 0,1224 z"
         id="path101" /></clipPath><clipPath
       id="clipPath743"><path
         d="M 0,1224 L 792,1224 L 792,0 L 0,0 L 0,1224 z"
         id="path745" /></clipPath></defs><g
     transform="matrix(1.25,0,0,-1.25,-138.35344,1262.0545)"
     id="g11"><path
       d="M 1393.5891,823.57679 C 1393.5891,820.04007 1390.7184,817.16286 1387.1816,817.16286 L 1212.0787,817.16286 C 1208.5355,817.16286 1205.6583,820.04007 1205.6583,823.57679 L 1205.6583,998.03318 C 1205.6583,1001.5699 1208.5355,1004.4342 1212.0787,1004.4342 L 1387.1816,1004.4342 C 1390.7184,1004.4342 1393.5891,1001.5699 1393.5891,998.03318 L 1393.5891,823.57679 z"
       id="path1521"
       style="fill:#280b0b;fill-opacity:1;fill-rule:nonzero;stroke:none" /><path
       d="M 1310.6599,844.90001 L 1282.4179,844.92587 C 1255.2686,844.92587 1233.919,866.00394 1233.919,893.15968 L 1233.919,976.70893 L 1271.9888,976.70893 L 1271.9888,893.93559 C 1271.9888,887.08846 1276.8704,880.63572 1284.1249,880.63572 L 1311.0155,880.63572 C 1323.1257,880.63572 1328.2594,886.94621 1328.2594,897.76323 C 1328.2594,901.97238 1326.5525,905.92936 1323.6559,908.96176 L 1310.744,922.28103 L 1310.744,890.50876 L 1282.1528,890.50876 L 1282.1528,961.94136 C 1282.1528,971.03207 1289.9246,976.70893 1297.0368,976.70893 L 1363.1417,976.70893 L 1363.1417,948.75788 L 1333.4126,948.75788 L 1349.344,932.5485 C 1358.9713,922.79827 1364.7581,909.3691 1364.7581,895.92053 C 1364.7581,873.04503 1345.9236,844.90001 1310.6599,844.90001"
       id="path1525"
       style="fill:#ffffff;fill-opacity:1;fill-rule:nonzero;stroke:none" /><path
       d="M 597.03159,871.74147 C 597.06394,871.71561 597.06394,871.71561 597.0898,871.69624 L 596.98636,871.86435 C 596.98636,871.86435 597.03159,871.77382 597.03159,871.74147"
       id="path1529"
       style="fill:#ffffff;fill-opacity:1;fill-rule:nonzero;stroke:none" /><path
       d="M 949.84901,1001.3734 C 920.95398,1014.2336 883.56309,1012.2099 857.11855,994.50041 C 802.807,958.13109 803.81565,861.11389 860.09274,827.06572 C 887.2162,810.66237 924.74288,809.64723 953.10124,823.65184 C 1019.1673,856.30988 1018.5531,970.75852 949.84901,1001.3734 M 909.76194,856.05128 C 870.15333,856.05128 866.24158,898.75047 866.20281,911.72707 C 866.24158,927.14118 870.96151,967.36404 909.76194,967.36404 C 943.42863,967.36404 953.32107,935.45601 953.32107,911.72707 C 953.32107,876.03663 934.57066,856.05128 909.76194,856.05128"
       id="path1533"
       style="fill:#280b0b;fill-opacity:1;fill-rule:nonzero;stroke:none" /><path
       d="M 429.60339,1005.6609 L 429.47405,859.89904 C 429.47405,859.89904 399.30532,859.80852 397.96691,859.80852 C 373.83707,859.80852 364.75282,872.38423 364.75282,896.61754 L 364.75282,1005.6609 L 315.50388,1005.6609 L 315.50388,899.59173 C 315.50388,844.64655 340.68117,817.41969 397.96691,817.41969 L 478.89756,817.41969 L 478.89756,1005.6609 L 429.60339,1005.6609 z"
       id="path1537"
       style="fill:#280b0b;fill-opacity:1;fill-rule:nonzero;stroke:none" /><path
       d="M 812.91153,1005.6609 L 670.28559,1005.6609 L 670.28559,963.35606 L 717.27152,963.35606 L 717.27152,817.41969 L 766.65621,817.41969 L 766.65621,963.35606 L 812.91153,963.35606 L 812.91153,1005.6609 z"
       id="path1541"
       style="fill:#280b0b;fill-opacity:1;fill-rule:nonzero;stroke:none" /><path
       d="M 1099.5601,1005.6609 L 1018.513,1005.6609 L 1018.513,817.41969 L 1067.8072,817.41969 L 1067.749,963.30434 C 1067.749,963.30434 1098.2087,963.27199 1099.5601,963.27199 C 1123.6769,963.27199 1132.7483,950.74803 1132.7483,926.45655 L 1132.7483,817.41969 L 1182.0101,817.41969 L 1182.0101,923.47587 C 1182.0101,978.43396 1156.8264,1005.6609 1099.5601,1005.6609"
       id="path1545"
       style="fill:#280b0b;fill-opacity:1;fill-rule:nonzero;stroke:none" /><path
       d="M 627.94584,895.76983 C 635.2068,900.91001 656.82151,915.91682 656.82151,949.66109 C 656.82151,986.02396 632.73045,1005.6601 597.50552,1005.6601 L 503.08107,1005.6601 L 503.08107,817.41897 L 552.3817,817.41897 L 552.3817,965.13341 L 587.87817,965.13341 C 606.6609,965.13341 612.5964,957.76901 612.5964,945.83341 C 612.5964,923.12603 570.38855,905.08682 570.38855,905.08682 L 624.52554,817.41897 L 676.36719,817.41897 L 627.94584,895.76983 z"
       id="path1549"
       style="fill:#280b0b;fill-opacity:1;fill-rule:nonzero;stroke:none" /><path
       d="M 186.66718,1005.8877 L 142.7912,1005.8877 L 110.68275,966.88041 L 139.31269,966.88041 L 139.31269,817.65303 L 236.61438,817.65303 C 272.41476,817.65303 299.68043,840.47031 299.68043,875.63706 C 299.68043,895.2991 285.70167,909.69814 275.56351,914.52798 C 285.70167,920.28888 295.56825,935.16638 295.56825,952.66246 C 295.56825,989.84643 271.89748,1005.8877 234.45487,1005.8877 L 208.66333,1005.8877 L 208.66333,966.75756 L 230.3233,966.75756 C 246.35166,966.75756 253.04363,956.76168 251.56947,945.1429 C 249.66856,930.55634 238.04977,920.76088 216.28637,914.61205 C 238.23079,910.66798 252.15137,901.14407 253.80659,885.19329 C 255.14496,872.22318 247.72239,858.16035 224.07102,858.16035 L 186.66718,858.16035 L 186.66718,1005.8877 z"
       id="path1553"
       style="fill:#241c1c;fill-opacity:1;fill-rule:nonzero;stroke:none" /></g></svg>