<svg width="444" height="100" viewBox="0 0 444 100" fill="none" xmlns="http://www.w3.org/2000/svg">
<path fill-rule="evenodd" clip-rule="evenodd" d="M401.337 45.0507C352.717 80.8824 282.246 99.9999 221.571 99.9999C136.495 99.9999 59.9056 68.538 1.96246 16.2105C-2.58995 12.0957 1.48899 6.48791 6.95191 9.69235C69.4839 46.0703 146.802 67.9553 226.67 67.9553C280.534 67.9553 339.788 56.8125 394.271 33.6894C402.502 30.1936 409.385 39.0787 401.337 45.0507" fill="#FF9900"/>
<path fill-rule="evenodd" clip-rule="evenodd" d="M421.55 21.9275C415.358 13.9892 380.469 18.1768 364.808 20.034C360.037 20.6166 359.309 16.4654 363.606 13.4794C391.394 -6.07512 436.991 -0.430895 442.309 6.12368C447.626 12.7147 440.925 58.4147 414.812 80.2269C410.806 83.577 406.982 81.7927 408.766 77.3501C414.63 62.7116 427.777 29.9023 421.55 21.9275" fill="#FF9900"/>
</svg>
