<svg width="215" height="121" viewBox="0 0 215 121" fill="none" xmlns="http://www.w3.org/2000/svg">
<path d="M156.912 90.4218C155.136 90.4218 153.401 89.8953 151.924 88.9089C150.448 87.9225 149.297 86.5205 148.618 84.8801C147.939 83.2398 147.761 81.4348 148.107 79.6934C148.454 77.952 149.309 76.3525 150.564 75.097C151.819 73.8415 153.419 72.9866 155.16 72.6402C156.902 72.2938 158.707 72.4716 160.347 73.151C161.987 73.8305 163.39 74.9811 164.376 76.4574C165.362 77.9336 165.889 79.6693 165.889 81.4448C165.889 83.8256 164.943 86.109 163.259 87.7925C161.576 89.476 159.293 90.4218 156.912 90.4218V90.4218ZM58.0704 90.4218C56.2949 90.4218 54.5593 89.8953 53.083 88.9089C51.6067 87.9225 50.4561 86.5205 49.7767 84.8801C49.0972 83.2398 48.9195 81.4348 49.2659 79.6934C49.6122 77.952 50.4672 76.3525 51.7227 75.097C52.9782 73.8415 54.5777 72.9866 56.3191 72.6402C58.0605 72.2938 59.8655 72.4716 61.5058 73.151C63.1462 73.8305 64.5482 74.9811 65.5346 76.4574C66.521 77.9336 67.0475 79.6693 67.0475 81.4448C67.0475 83.8256 66.1017 86.109 64.4182 87.7925C62.7346 89.476 60.4513 90.4218 58.0704 90.4218V90.4218ZM160.091 36.5594L178.045 5.6072C178.288 5.18338 178.444 4.71588 178.505 4.23154C178.566 3.7472 178.531 3.25558 178.401 2.7849C178.271 2.31422 178.05 1.87378 177.75 1.48886C177.45 1.10393 177.076 0.782126 176.651 0.541918C176.226 0.30171 175.758 0.147836 175.274 0.089134C174.789 0.0304321 174.298 0.06806 173.828 0.199855C173.357 0.331651 172.918 0.555017 172.535 0.857122C172.151 1.15923 171.831 1.53412 171.593 1.96026L153.452 33.2865C139.044 26.7024 123.379 23.3206 107.538 23.3743C91.678 23.3355 75.9926 26.683 61.5304 33.193L43.3892 1.86675C42.9029 1.01617 42.0997 0.392745 41.1551 0.132812C40.2105 -0.127121 39.2013 -0.00240544 38.3484 0.479683C37.4955 0.961771 36.8682 1.762 36.6037 2.70536C36.3392 3.64872 36.459 4.65843 36.9369 5.51369L54.7975 36.4659C39.3546 44.8883 26.256 57.0293 16.6878 71.7898C7.11965 86.5503 1.38396 103.464 0 121H214.795C213.454 103.477 207.745 86.5681 198.189 71.8181C188.633 57.0682 175.536 44.9464 160.091 36.5594" fill="#3DDC84"/>
</svg>
