<svg width="102" height="121" viewBox="0 0 102 121" fill="none" xmlns="http://www.w3.org/2000/svg">
<g clip-path="url(#clip0)">
<path d="M99.7845 94.2962C97.9547 98.5236 95.7887 102.415 93.2791 105.992C89.8584 110.87 87.0575 114.246 84.899 116.12C81.553 119.198 77.9679 120.773 74.1289 120.863C71.3728 120.863 68.0492 120.079 64.1803 118.488C60.2987 116.905 56.7315 116.12 53.4699 116.12C50.0491 116.12 46.3804 116.905 42.4562 118.488C38.5261 120.079 35.36 120.908 32.9394 120.99C29.2579 121.147 25.5885 119.526 21.9257 116.12C19.5879 114.081 16.6639 110.586 13.161 105.634C9.4026 100.346 6.31272 94.214 3.89205 87.2231C1.29959 79.6721 0 72.36 0 65.281C0 57.172 1.7522 50.1781 5.26184 44.3173C8.02011 39.6096 11.6896 35.8961 16.2822 33.1699C20.8748 30.4438 25.8372 29.0545 31.1812 28.9657C34.1053 28.9657 37.9398 29.8702 42.7049 31.6478C47.4567 33.4313 50.5077 34.3358 51.8454 34.3358C52.8455 34.3358 56.2349 33.2782 61.9807 31.1697C67.4143 29.2144 72.0002 28.4048 75.7571 28.7237C85.9372 29.5453 93.5854 33.5583 98.6717 40.7882C89.5671 46.3047 85.0633 54.0313 85.153 63.9433C85.2351 71.6639 88.036 78.0886 93.5405 83.1899C96.0352 85.5576 98.8211 87.3874 101.921 88.687C101.248 90.6364 100.539 92.5036 99.7845 94.2962V94.2962ZM76.4368 2.42118C76.4368 8.47255 74.226 14.1227 69.8193 19.3524C64.5014 25.5696 58.0692 29.1621 51.094 28.5952C51.0051 27.8692 50.9536 27.1052 50.9536 26.3023C50.9536 20.4929 53.4826 14.2758 57.9736 9.19248C60.2158 6.6187 63.0674 4.47863 66.5255 2.77146C69.9762 1.08977 73.2401 0.159749 76.3098 0.000488281C76.3994 0.809463 76.4368 1.61849 76.4368 2.4211V2.42118Z" fill="black"/>
</g>
<defs>
<clipPath id="clip0">
<rect width="101.921" height="121" fill="white"/>
</clipPath>
</defs>
</svg>
