<svg width="121" height="121" viewBox="0 0 121 121" fill="none" xmlns="http://www.w3.org/2000/svg">
<path d="M120.849 60.4974C120.849 68.4229 119.288 76.2707 116.255 83.5929C113.222 90.9151 108.777 97.5682 103.173 103.172C97.5694 108.777 90.9165 113.222 83.5946 116.255C76.2727 119.288 68.4252 120.849 60.5 120.849C52.5748 120.849 44.7273 119.288 37.4054 116.255C30.0835 113.222 23.4307 108.777 17.8267 103.172C12.2228 97.5682 7.7775 90.9151 4.74467 83.5929C1.71185 76.2707 0.150879 68.4229 0.150879 60.4974C0.150879 52.5719 1.71185 44.724 4.74467 37.4018C7.7775 30.0796 12.2228 23.4265 17.8267 17.8223C23.4307 12.2182 30.0835 7.7727 37.4054 4.73975C44.7273 1.70679 52.5748 0.145752 60.5 0.145752C68.4252 0.145752 76.2727 1.70679 83.5946 4.73975C90.9165 7.7727 97.5694 12.2182 103.173 17.8223C108.777 23.4265 113.222 30.0796 116.255 37.4018C119.288 44.724 120.849 52.5719 120.849 60.4974V60.4974Z" fill="white"/>
<path d="M78.8963 60.4973C78.8963 50.3372 70.6612 42.1013 60.5015 42.1013C50.3413 42.1013 42.1055 50.3372 42.1055 60.4973C42.1055 70.657 50.3413 78.8933 60.5015 78.8933C70.6612 78.8933 78.8963 70.657 78.8963 60.4973" fill="#ED1C24"/>
<path d="M60.5027 0.145752C54.7529 0.145752 49.1988 0.966925 43.9307 2.46887V35.0908C48.6953 31.9771 54.3844 30.1602 60.5015 30.1602C77.255 30.1602 90.8379 43.7426 90.8379 60.4972C90.8379 77.2519 77.255 90.8343 60.5015 90.8343C43.7469 90.8343 30.1641 77.2519 30.1641 60.4972C30.1641 59.9582 30.1794 59.4229 30.2066 58.8906L30.1641 58.9241V8.33425C12.2198 18.7933 0.150879 38.2299 0.150879 60.4972C0.150879 93.8281 27.1718 120.849 60.5027 120.849C93.8333 120.849 120.849 93.8281 120.849 60.4972C120.849 27.1667 93.8333 0.145752 60.5027 0.145752Z" fill="#ED1C24"/>
</svg>
