<svg width="287" height="121" viewBox="0 0 287 121" fill="none" xmlns="http://www.w3.org/2000/svg">
<path d="M202.686 82.0425C202.686 104.472 185.139 121 163.604 121C142.069 121 124.521 104.472 124.521 82.0425C124.521 59.4549 142.069 43.0851 163.604 43.0851C185.139 43.0851 202.686 59.4549 202.686 82.0425ZM185.578 82.0425C185.578 68.0263 175.407 58.4362 163.604 58.4362C151.8 58.4362 141.629 68.0263 141.629 82.0425C141.629 95.9183 151.8 105.649 163.604 105.649C175.407 105.649 185.578 95.9007 185.578 82.0425Z" fill="#EA4335"/>
<path d="M287 82.0425C287 104.472 269.452 121 247.917 121C226.382 121 208.834 104.472 208.834 82.0425C208.834 59.4725 226.382 43.0851 247.917 43.0851C269.452 43.0851 287 59.4549 287 82.0425ZM269.891 82.0425C269.891 68.0263 259.721 58.4362 247.917 58.4362C236.113 58.4362 225.943 68.0263 225.943 82.0425C225.943 95.9183 236.113 105.649 247.917 105.649C259.721 105.649 269.891 95.9007 269.891 82.0425Z" fill="#FBBC05"/>
<path d="M61.3557 71.9079V55.38H117.055C117.6 58.2605 117.881 61.668 117.881 65.3565C117.881 77.7568 114.491 93.0904 103.565 104.015C92.9381 115.081 79.3601 120.982 61.3732 120.982C28.0343 120.982 0 93.8281 0 60.4912C0 27.1543 28.0343 0 61.3732 0C79.8168 0 92.9557 7.23646 102.827 16.6684L91.164 28.3311C84.0852 21.6918 74.4945 16.5279 61.3557 16.5279C37.0101 16.5279 17.9693 36.1472 17.9693 60.4912C17.9693 84.8352 37.0101 104.454 61.3557 104.454C77.1469 104.454 86.1403 98.1138 91.9018 92.3527C96.5741 87.6806 99.6481 81.0062 100.86 71.8904L61.3557 71.9079V71.9079Z" fill="#4285F4"/>
</svg>
