<svg width="200" height="121" viewBox="0 0 200 121" fill="none" xmlns="http://www.w3.org/2000/svg">
<path d="M177.617 13.7289C170.612 8.08414 162.48 4.13279 153.704 2.03615C148.712 0.826555 143.639 0.262082 138.486 0.100802C134.702 -0.0604774 130.837 0.0201575 127.053 0.0201575H72.8663C69.0821 0.0201575 65.2174 0.0201624 61.4332 0.100802C56.2802 0.262082 51.2883 0.826555 46.2158 2.03615C37.4396 4.13279 29.3881 8.08414 22.3833 13.7289C8.2126 25.0991 0 42.2754 0 60.5C0 78.7246 8.2126 95.9009 22.3833 107.271C29.3881 112.916 37.5201 116.867 46.2963 118.964C51.2882 120.173 56.3607 120.738 61.5137 120.899C65.2979 121.06 69.1627 120.98 72.9469 120.98H127.134C130.918 120.98 134.783 120.98 138.567 120.899C143.72 120.738 148.712 120.173 153.784 118.964C162.56 116.867 170.612 112.916 177.617 107.271C191.787 95.9009 200 78.7246 200 60.5C200 42.2754 191.787 25.0991 177.617 13.7289ZM151.127 76.7892C148.47 78.644 145.491 79.7729 142.351 80.2567C139.211 80.7406 135.99 80.6599 132.85 80.6599H67.2303C64.0097 80.6599 60.8696 80.7406 57.7295 80.2567C54.5089 79.7729 51.6103 78.644 48.9533 76.7892C43.6393 73.0798 40.4187 67.0318 40.4187 60.5C40.4187 53.9682 43.6393 47.9202 48.9533 44.2108C51.6103 42.356 54.5894 41.2271 57.7295 40.7432C60.8696 40.2594 64.0902 40.3401 67.2303 40.3401H132.85C136.071 40.3401 139.211 40.2594 142.351 40.7432C145.572 41.2271 148.47 42.356 151.127 44.2108C156.441 47.9202 159.662 53.9682 159.662 60.5C159.742 67.0318 156.522 73.0798 151.127 76.7892Z" fill="#1C1E20"/>
</svg>
