<svg width="426" height="100" viewBox="0 0 426 100" fill="none" xmlns="http://www.w3.org/2000/svg">
<path d="M52.4745 0C41.3604 0 28.7342 2.07885 18.0059 6.86998C8.10462 11.288 2.34659e-06 18.4332 2.34659e-06 30.2786C-0.00460452 40.9469 6.77554 47.195 6.59127 47.0222C9.47516 49.6769 14.1177 54.1974 26.2557 56.8521C31.6802 58.0384 43.278 59.8604 54.8274 61.0674C66.2916 62.2767 77.5738 63.4261 82.1691 64.5894C85.8201 65.5188 91.953 66.7845 91.953 73.6649C91.953 80.5176 85.4918 82.6091 84.3689 83.0629C83.2471 83.5063 75.4961 87.0628 61.5626 87.0628C51.2755 87.0628 38.9084 83.9693 34.4006 82.3569C29.204 80.5072 23.753 78.061 18.6682 71.8498C17.4036 70.3099 15.4088 66.0751 15.4088 61.8817H2.79867V97.2163H16.815V92.4424C16.815 91.8988 17.4946 89.6633 19.8475 90.7264C22.7752 92.0566 31.3693 95.4784 40.355 97.3545C47.7225 98.8955 52.4733 100 61.6329 100C76.5776 100 84.6062 97.5653 90.1563 95.9805C95.3851 94.4833 101.846 91.7952 107.095 87.6098C109.937 85.3467 116.17 79.5455 116.17 69.0154C116.17 58.9079 110.745 52.6345 108.837 50.7262C106.238 48.1256 103.062 46.1101 99.7535 44.5564C96.8708 43.1997 92.3215 41.57 88.5992 40.659C81.3745 38.8854 65.0385 36.6971 57.2264 35.8794C49.0343 35.0237 34.8233 33.8466 29.1476 32.0902C27.427 31.557 23.9188 29.8859 23.9188 25.8134C23.9188 22.9168 25.5232 20.4614 28.6938 18.477C33.7268 15.3236 43.893 13.3634 54.49 13.3634C67.0183 13.3173 77.6279 16.1816 84.377 19.1991C86.6723 20.2241 89.3581 21.696 91.4911 23.4374C93.8982 25.3999 97.2773 29.4782 98.4993 35.1665H109.821V4.40877H97.1794V7.98369C97.1794 9.13771 95.9874 10.6372 93.7335 9.398C88.0763 6.43003 72.0813 0.0264895 52.4722 0H52.4745ZM329.501 5.58927L391.166 61.2402L390.533 23.7714C390.471 18.8582 389.565 16.807 384.251 16.807H372.657V5.59849H425.383V16.807H414.073C408.653 16.807 408.311 18.5403 408.245 23.7714L409.201 95.3655H391.144L320.118 31.9751L320.133 76.9634C320.195 81.8536 320.424 84.157 325.463 84.157H338.126V95.3609H286.345V84.1581H298.45C302.971 84.1581 302.792 79.8473 302.792 76.7089V24.1975C302.792 20.808 302.316 16.815 295.217 16.815H285.395V5.58927H329.501Z" fill="black"/>
</svg>
